<svg xmlns="http://www.w3.org/2000/svg" width="202" height="202" viewBox="0 0 414 414" shape-rendering="geometricPrecision" text-rendering="geometricPrecision" image-rendering="optimizeQuality" fill-rule="evenodd" clip-rule="evenodd"><defs><style><![CDATA[
    .str2 {stroke:#0096DC;stroke-width:1.84292}
    .str0 {stroke:#009933;stroke-width:1.84292}
    .str4 {stroke:#4D4D4D;stroke-width:1.84292}
    .str1 {stroke:fuchsia;stroke-width:1.84292}
    .str3 {stroke:#FF6600;stroke-width:1.84292}
    .fil0 {fill:none}
    .fil3 {fill:#4D4D4D}
    .fil2 {fill:white}
    .fil1 {fill:#4D4D4D;fill-rule:nonzero}
   ]]></style></defs><g id="Layer_x0020_1"><g id="_877539712"><path class="fil0 str0" d="M207 61v99M207 353V252"/><path class="fil0 str1" d="M310 310l-72-72M353 207h-98"/><path class="fil0 str2" d="M176 238l-72 72M104 104l71 71"/><path class="fil0 str3" d="M308 101l-72 72M61 207h99"/><path class="fil1" d="M236 31c9 2 18 4 26 7-1 1-1 2-1 4-8-3-17-5-25-6v-5zm52 18c8 4 15 8 22 13l-3 3c-6-4-14-9-21-13 1-1 1-2 2-3zm64 55c5 7 9 14 13 22-1 1-2 1-3 2-4-8-9-15-14-22 2 0 3-1 4-2zm24 48c3 8 5 17 6 26h-4c-1-8-3-17-6-24 2-1 3-1 4-2zm6 84c-1 9-3 18-6 26-1-1-3-1-4-1 3-8 5-17 6-25h4zm-17 52c-4 8-8 15-13 22-1-1-2-2-4-3 5-6 10-14 13-21 2 1 3 1 4 2zm-55 64c-7 5-15 9-22 13-1-1-1-2-2-3 7-4 15-9 21-14 1 2 2 3 3 4zm-48 24c-9 3-17 5-26 6v-4c8-1 16-3 24-6 1 2 1 3 2 4zm-84 6c-9-1-18-3-26-6 1-1 1-3 1-4 8 3 17 5 25 6v4zm-52-17c-8-4-15-8-22-13 1-1 2-2 2-4 7 5 14 10 22 13-1 2-2 3-2 4zm-64-55c-5-7-10-15-14-22 2-1 3-1 4-2 4 7 9 15 13 21l-3 3zm-24-48c-3-9-5-17-7-26h5c1 8 3 16 6 24-2 1-3 1-4 2zm-7-84c2-9 4-18 7-26 1 1 2 1 4 1-3 8-5 17-6 25h-5zm18-52c4-8 8-15 13-22 1 1 2 2 3 2-4 7-9 14-13 22-1-1-2-2-3-2zm55-64c7-5 14-10 22-14 1 2 1 3 2 4-8 4-15 9-22 13 0-1-1-2-2-3zm48-24c8-3 17-5 26-7v5c-8 1-17 3-24 6-1-2-1-3-2-4z"/><path class="fil1" d="M207 0c9 0 16 4 22 9 6 6 9 14 9 22 0 9-3 17-9 23-6 5-13 9-22 9s-17-4-22-9c-6-6-10-14-10-23 0-8 4-16 10-22 5-5 13-9 22-9zm19 12c-5-5-12-8-19-8-8 0-14 3-19 8s-8 12-8 19c0 8 3 15 8 20s11 8 19 8c7 0 14-3 19-8s8-12 8-20c0-7-3-14-8-19zM414 207c0 9-4 16-9 22-6 6-14 9-23 9-8 0-16-3-22-9s-9-13-9-22 3-17 9-22c6-6 14-10 22-10 9 0 17 4 23 10 5 5 9 13 9 22zm-12 19c4-5 8-12 8-19 0-8-4-14-8-19-5-5-12-8-20-8-7 0-14 3-19 8s-8 11-8 19c0 7 3 14 8 19s12 8 19 8c8 0 15-3 20-8zM353 353c-6 6-14 9-22 9s-16-3-22-9-9-14-9-22 3-16 9-22 14-9 22-9 16 3 22 9 9 14 9 22-3 16-9 22zm-22 5c7 0 14-3 19-8s8-12 8-19-3-14-8-19c-5-6-12-8-19-8s-14 2-19 8c-6 5-8 12-8 19s2 14 8 19c5 5 12 8 19 8zM207 414c-9 0-17-4-22-9-6-6-10-14-10-23 0-8 4-16 10-22 5-6 13-9 22-9s16 3 22 9 9 14 9 22c0 9-3 17-9 23-6 5-13 9-22 9zm-19-12c5 4 11 8 19 8 7 0 14-4 19-8 5-5 8-12 8-20 0-7-3-14-8-19s-12-8-19-8c-8 0-14 3-19 8s-8 12-8 19c0 8 3 15 8 20zM61 353c-7-6-10-14-10-22s3-16 10-22c6-6 14-9 22-9s16 3 22 9 9 14 9 22-3 16-9 22-14 9-22 9-16-3-22-9zm-5-22c0 7 2 14 8 19 5 5 12 8 19 8s14-3 19-8 8-12 8-19-3-14-8-19c-5-6-12-8-19-8s-14 2-19 8c-6 5-8 12-8 19zM0 207c0-9 4-17 9-22 6-6 14-10 22-10 9 0 17 4 23 10 5 5 9 13 9 22s-4 16-9 22c-6 6-14 9-23 9-8 0-16-3-22-9-5-6-9-13-9-22zm12-19c-5 5-8 11-8 19 0 7 3 14 8 19s12 8 19 8c8 0 15-3 20-8s8-12 8-19c0-8-3-14-8-19s-12-8-20-8c-7 0-14 3-19 8zM61 61c6-7 14-10 22-10s16 3 22 10c6 6 9 14 9 22s-3 16-9 22-14 9-22 9-16-3-22-9c-7-6-10-14-10-22s3-16 10-22zm22-5c-7 0-14 2-19 8-6 5-8 12-8 19s2 14 8 19c5 5 12 8 19 8s14-3 19-8 8-12 8-19-3-14-8-19c-5-6-12-8-19-8zM264 34c3-3 6-4 10-4s8 1 11 4 4 7 4 11c0 3-1 7-4 10s-7 5-11 5-7-2-10-5-5-7-5-10c0-4 2-8 5-11zm10-3c-3 0-6 2-9 4-3 3-4 6-4 10 0 3 1 6 4 9 3 2 6 4 9 4 4 0 7-2 10-4 2-3 3-6 3-9 0-4-1-7-3-10-3-2-6-4-10-4zM369 125c4 0 8 1 11 4s4 7 4 11-1 8-4 10c-3 3-7 5-11 5s-8-2-10-5c-3-2-5-6-5-10s2-8 5-11c2-3 6-4 10-4zm10 5c-3-2-6-3-10-3-3 0-7 1-9 3-2 3-4 6-4 10 0 3 2 7 4 9s6 4 9 4c4 0 7-2 10-4 2-2 3-6 3-9 0-4-1-7-3-10zM380 264c3 3 4 6 4 10s-1 8-4 11-7 4-11 4-7-1-10-4-5-7-5-11 2-7 5-10 6-5 10-5 8 2 11 5zm-2 1c-2-3-5-4-9-4-3 0-7 1-9 4-3 3-4 6-4 9 0 4 1 7 4 10 2 2 6 3 9 3 4 0 7-1 9-3 3-3 4-6 4-10 0-3-1-6-4-9zM289 369c0 4-2 8-4 11-3 3-7 4-11 4s-8-1-11-4c-2-3-4-7-4-11s2-8 4-10c3-3 7-5 11-5s8 2 11 5c2 2 4 6 4 10zm-6 10c3-3 4-6 4-10 0-3-1-7-4-9-2-2-5-4-9-4s-7 2-9 4c-3 2-4 6-4 9 0 4 1 7 4 10 2 2 5 3 9 3s7-1 9-3zM150 380c-3 3-7 4-10 4-4 0-8-1-11-4s-4-7-4-11 1-7 4-10 7-5 11-5c3 0 7 2 10 5s4 6 4 10-1 8-4 11zm-1-2c2-2 4-5 4-9 0-3-2-7-4-9-3-3-6-4-9-4-4 0-7 1-10 4-2 2-4 6-4 9 0 4 2 7 4 9 3 3 6 4 10 4 3 0 6-1 9-4zM44 289c-4 0-7-2-10-4-3-3-4-7-4-11s1-8 4-11c3-2 6-4 10-4 5 0 8 2 11 4 3 3 4 7 4 11s-1 8-4 11c-3 2-6 4-11 4zm-9-6c3 3 6 4 9 4 4 0 7-1 10-4 2-2 4-5 4-9s-2-7-4-9c-3-3-6-4-10-4-3 0-6 1-9 4-2 2-4 5-4 9s2 7 4 9zM34 150c-3-3-4-7-4-10 0-4 1-8 4-11s7-4 11-4c3 0 7 1 10 4s5 7 5 11c0 3-2 7-5 10s-7 4-10 4c-4 0-8-1-11-4zm1-1c3 2 6 4 10 4 3 0 6-2 9-4 2-3 4-6 4-9 0-4-2-7-4-10-3-2-6-4-9-4-4 0-7 2-10 4-2 3-4 6-4 10 0 3 2 6 4 9z"/><circle class="fil2 str4" transform="matrix(0 -.09413 .09413 0 139.785 44.493)" r="149"/><path class="fil1" d="M353 61c6 6 9 14 9 22s-3 16-9 22-14 9-22 9-16-3-22-9-9-14-9-22 3-16 9-22c6-7 14-10 22-10s16 3 22 10zm5 22c0-7-3-14-8-19-5-6-12-8-19-8s-14 2-19 8c-6 5-8 12-8 19s2 14 8 19c5 5 12 8 19 8s14-3 19-8 8-12 8-19z"/><path class="fil0 str0" d="M207 61v99"/><path class="fil1" d="M125 44c0-4 1-7 4-10s7-4 11-4 8 1 10 4c3 3 5 6 5 10 0 5-2 8-5 11-2 3-6 4-10 4s-8-1-11-4-4-6-4-11zm5-9c-2 3-3 6-3 9 0 4 1 7 3 10 3 2 6 4 10 4 3 0 7-2 9-4 2-3 4-6 4-10 0-3-2-6-4-9-2-2-6-4-9-4-4 0-7 2-10 4z"/><path class="fil3" d="M245 182l-29-29c-5-5-13-5-18 0l-29 29c-1 1-1 4 0 6l9 8 6 6c1 1 4 1 6 0l11-11c4-3 8-3 12 0l11 11c2 1 4 1 6 0l6-6 9-8c1-2 1-5 0-6z"/><path class="fil3" d="M153 216l45 45c5 5 13 5 18 0l45-45c8-8 2-10-4-16l-7-6c-1-2-4-2-6 0l-11 10c-3 3-8 3-11 0l-12-10c-2-2-4-2-6 0l-12 10c-3 3-8 3-11 0l-11-10c-2-2-5-2-6 0l-7 6c-6 5-12 8-4 16z"/></g></g></svg>