<svg xmlns="http://www.w3.org/2000/svg" width="197" height="201" viewBox="0 0 374 382" shape-rendering="geometricPrecision" text-rendering="geometricPrecision" image-rendering="optimizeQuality" fill-rule="evenodd" clip-rule="evenodd"><defs><style><![CDATA[
    .str5 {stroke:#4D4D4D;stroke-width:1.90023}
    .str0 {stroke:#4D4D4D;stroke-width:3.8027}
    .str1 {stroke:#4D4D4D;stroke-width:5.70293}
    .str6 {stroke:#4D4D4D;stroke-width:1.23313}
    .str3 {stroke:#4D4D4D;stroke-width:1.26682}
    .str2 {stroke:#4D4D4D;stroke-width:2.53813}
    .str4 {stroke:#4D4D4D;stroke-width:3.80719}
    .fil2 {fill:none}
    .fil0 {fill:#4D4D4D}
    .fil4 {fill:white}
    .fil5 {fill:#0096DC;fill-rule:nonzero}
    .fil3 {fill:#009933;fill-rule:nonzero}
    .fil1 {fill:#FF6600;fill-rule:nonzero}
   ]]></style></defs><g id="Layer_x0020_1"><path class="fil0" d="M287 115l-21-22c-4-3-10-3-13 0l-22 22c-1 1-1 3 0 4l7 6 4 4c1 2 3 2 5 0l8-8c3-2 6-2 8 0l9 8c1 2 3 2 5 0l4-4 6-6c1-1 1-3 0-4z"/><path class="fil0" d="M219 140l34 33c3 4 9 4 13 0l33-33c6-6 2-8-2-12l-5-4c-2-2-4-2-5 0l-9 7c-2 3-6 3-8 0l-8-7c-2-2-4-2-5 0l-9 7c-2 3-5 3-8 0l-8-7c-2-2-4-2-5 0l-5 4c-4 4-9 6-3 12z"/><path class="fil1" d="M184 205l29-28 2 3-28 28zM61 210l-25-35 1-1 28 32z"/><path class="fil2 str0" d="M259 69c36 0 64 29 64 64 0 36-28 64-64 64-35 0-64-28-64-64 0-35 29-64 64-64z"/><path class="fil0" d="M164 250c-9-10-19-20-29-30-6-5-14-5-20 0l-30 30c-1 2-1 4 1 6l9 9c2 2 4 3 6 5s4 2 6 0c4-3 8-7 12-10 3-3 8-3 12 0s8 7 12 10c1 2 4 2 6 0 2-1 4-3 6-5l9-9c2-1 2-4 0-6z"/><path class="fil0" d="M70 284c7 7 15 14 23 22 8 7 15 14 23 20 5 5 13 5 18 0 7-6 15-13 22-20 8-7 16-14 24-22 8-7 3-9-3-15-2-2-5-4-7-6s-4-2-6-1c-4 4-8 8-12 11s-9 3-12 0c-4-3-8-7-12-11-2-1-5-1-6 0-4 4-8 7-12 11-3 3-8 3-12 0-4-4-8-7-12-11-2-1-5-1-6 0-2 2-5 4-7 6-6 6-12 8-3 16z"/><path class="fil2 str1" d="M125 185c26 0 50 11 66 28 16 16 25 39 23 63-1 23-13 43-29 57s-37 22-60 22c-24 0-45-8-61-22-16-15-27-35-28-58-2-24 7-46 23-62 16-17 40-28 66-28z"/><path class="fil1" d="M39 122l1 1c-2 1-3 2-4 3l-1-1c1-1 3-2 4-3zm161-23l-1 3-1-1h-2v-1h-1l1-2h1l1 1h2zm-11-4l-1 3v-1h-3v-1h-1l1-2h2l1 1h1zm-12-3v2h-1l-1-1h-3l1-3 1 1h3v1zm-12-4v3h-1l-1-1h-3l1-2h4zm-12-2v3h-2v-1h-3v-2h5zm-12-1v2h-5v-2h5zm-13 0l1 2h-5l-1-2h5zm-12 0v3h-5v-2h4v-1h1zm-12 2v3h-3l-1 1h-1v-3h3l1-1h1zm-12 3v3h-2l-1 1h-1l-1-2h1l1-1h2l1-1zm-12 5l1 2h-1l-1 1h-1l-1 1h-1l-1-2 1-1h2v-1h2zm-11 5l1 2h-1v1h-2v1h-1l-2-2h1l1-1h1l1-1h1zm-11 6l1 2c-1 1-3 2-4 3l-1-2c1-1 2-2 4-2v-1zm-10 8l1 1c-1 1-2 2-4 3l-1-1c1-1 3-2 4-3z"/><path class="fil0" d="M149 127l-12-9c-3-2-6-1-7 1l-9 12c-1 1-1 2 0 3l4 2 2 2c1 1 2 0 2 0l4-5c1-1 3-2 4-1l5 4c1 0 2 0 3-1l2-2 2-4c1 0 1-1 0-2z"/><path class="fil0" d="M116 145l20 15c2 1 5 1 7-1l14-20c3-3 0-4-2-6l-3-2c-1 0-2 0-2 1l-4 4c-1 2-3 2-4 1l-5-3c-1-1-2-1-3 0l-3 5c-1 1-3 1-5 0l-5-3c0-1-1-1-2 0l-2 3c-2 2-4 4-1 6zM127 10l-5-4c-1-1-3 0-3 1l-4 5c-1 1-1 1 0 1l2 2h1c0 1 0 0 1 0l1-2c1-1 2-1 2 0l3 1h1v-1l2-2s0-1-1-1z"/><path class="fil0" d="M113 19l9 6c1 1 2 0 3 0l6-9c1-2 0-2-1-3l-1-1h-1l-2 2c0 1-1 1-2 1l-2-2h-1l-2 3h-2l-2-2s-1 0-1 1l-1 1c-1 1-2 1 0 3z"/><path class="fil3" d="M94 99l19 17-2 1-19-17z"/><path class="fil2 str2" d="M169 137c1 18-13 34-31 35-19 0-34-14-35-32 0-18 14-34 32-34 18-1 33 13 34 31z"/><path class="fil2 str3" d="M137 15c0 8-6 15-14 16-9 0-16-7-16-15s6-15 14-15c9-1 16 6 16 14z"/><path class="fil3" d="M137 25v1c-1-1-1-2-2-2l1-1c0 1 1 2 1 2zm15 82h-1v-1h1v-1l1 1v1h-1zm2-5h-1v-2h1v-1h1v2h-1v1zm2-6l-1-1v-2h1v3zm1-7h-1v-2h2v1h-1v1zm1-6h-1v-2h1v2zm1-6h-2v-3h2v3zm-1-7h-1v-2h1v2zm0-6h-2v-2h1l1 1v1zm-2-6h-1v-2l1-1v3zm-1-6h-2v-2l1-1v2h1v1zm-3-6h-1v-1h-1v-1l1-1v1h1v2zm-3-6l-1 1v-1l-1-1 1-1v1h1v1zm-3-5h-1c-1 0-1-1-2-2h1c1 0 1 1 2 1v1zm-4-5h-1c-1 0-1-1-2-2h1c1 0 1 1 2 2zM93 39l17-14 1 1-17 15z"/><path class="fil4 str4" d="M97 91c-5 10-14 18-24 21-11 3-23 2-35-5-11-7-19-18-22-30-4-13-2-26 5-37 6-11 17-17 28-18 10-2 22 1 32 8 9 7 16 17 19 28s2 22-3 33z"/><path class="fil0" d="M85 64c-3-8-5-15-8-23-2-4-6-6-9-5-7 2-14 4-22 6-1 1-2 2-1 3 1 3 2 5 2 8 1 1 2 3 2 4 1 2 2 2 4 2 2-1 5-2 8-2 2-1 5 0 6 3s2 6 4 9c0 1 2 2 3 1 1 0 2-1 4-1 2-1 4-1 6-2 1-1 2-2 1-3z"/><path class="fil0" d="M29 56c2 6 4 13 7 19 2 7 4 13 7 19 1 5 6 7 10 5 6-2 11-4 17-7 6-2 11-4 16-6 6-2 3-5 2-9-1-2-2-4-2-5-1-2-2-2-3-2-3 1-6 2-9 2-2 1-4 0-5-3-2-3-3-6-4-9 0-1-2-2-3-1-3 1-6 1-9 2-2 1-5-1-6-3-1-3-2-6-4-9 0-2-2-2-3-2-2 0-3 1-5 1-5 1-9 1-6 8z"/><path class="fil5" d="M281 302l-6 24h-1l5-25zM330 270l23 8-1 1-23-7z"/><path class="fil0" d="M310 246c-4-5-9-11-13-16-2-3-6-3-9-1-6 5-12 9-18 14-1 0-1 2 0 3s2 3 3 5c1 1 2 2 2 3 1 1 2 1 4 0 2-2 4-3 7-5 2-1 4-1 6 0 1 3 3 5 5 7 0 1 2 1 3 0s2-2 4-3 3-2 5-4c1-1 2-2 1-3z"/><path class="fil0" d="M258 260c3 4 6 8 9 13 3 4 6 9 9 13 2 3 7 4 10 2 5-4 10-8 15-11 5-4 10-8 15-11 5-4 2-6-1-9-1-1-2-3-3-4s-2-1-3 0c-3 1-5 3-8 5-2 1-5 1-6-1-2-2-3-4-5-6-1-1-2-1-3 0-3 1-5 3-7 5-2 1-5 1-6-1-2-2-3-4-5-6-1-1-2-1-3 0s-3 1-4 2c-3 3-7 4-4 9z"/><path class="fil2 str4" d="M310 293c-11 7-22 9-33 6-10-2-19-8-24-18-5-9-5-19-3-29 3-10 9-19 19-25 9-7 20-9 29-8 11 1 20 6 26 15 7 9 9 20 6 31-2 11-10 21-20 28z"/><path class="fil5" d="M362 301v-2h1c0 1-1 1-1 2zm-63 55v-2h1l1 1h-1v1h-1zm5-1v-2h2l1 1h-3v1zm7-2l-1-1h1v-1h2v1h-1l-1 1zm6-2l-1-1 1-1h1l1 1h-1l-1 1zm5-3v-1h2v-1l1 1-1 1h-2zm6-2v-2h1l1-1v2h-1l-1 1zm6-4l-1-1h1v-1h1l1 1h-1v1h-1zm5-3l-1-1v-1h1v-1h1l1 1h-1v1h-1v1zm5-5l-1-1 1-1h1v1l-1 1zm4-4l-1-1v-1h1v-1h1l1 1h-1v1h-1v1zm4-5l-1-1v-1h1v-1h1v2h-1v1zm3-6h-1v-1h1v-2l2 1h-1v2h-1zm3-6h-1c1-1 1-2 1-2h1c0 1 0 1-1 2zm2-6v-2h1c0 1 0 2-1 2z"/><path class="fil4 str2" d="M283 377c-7 4-15 5-22 3s-13-6-18-13c-4-7-5-14-3-21 1-7 5-13 12-17 6-4 14-5 21-3 8 1 14 5 19 12 4 7 6 15 4 22s-6 13-13 17z"/><path class="fil0" d="M282 346c-3-4-6-8-9-13-2-2-5-2-7-1l-12 9c-1 0-1 1-1 2 1 1 2 3 3 4l2 2c0 1 1 1 2 1 2-2 3-3 5-4 1 0 3 0 4 1 2 2 3 3 4 5 1 1 2 1 2 0 1 0 2-1 3-1 1-1 2-2 4-3 0 0 1-1 0-2z"/><path class="fil0" d="M246 352c2 3 4 7 7 10 2 3 4 6 7 9 1 3 4 3 7 2 3-2 6-5 9-7 4-2 7-4 10-6 4-3 2-4 0-6-1-1-2-2-2-3-1-1-2-1-3-1-1 1-3 2-5 3-1 1-3 1-4 0-1-2-3-3-4-5 0-1-1-1-2 0-2 1-3 2-5 3-1 1-3 0-4-1-1-2-3-3-4-5h-2c-1 1-2 1-3 2-2 1-5 2-2 5z"/><path class="fil2 str5" d="M101 59c39-7 77-13 114-19 35-6 68-12 101-17-2 10-4 20-7 31l-6 33"/><path class="fil4 str5" d="M314 16c4 0 8 3 9 7s-2 7-6 6c-4 0-7-3-8-7-1-3 1-6 5-6z"/><path class="fil2 str5" d="M319 158c8 5 18 12 25 17s14 10 20 14l-19 19c-7 7-15 14-22 21"/><path class="fil4 str6" d="M364 183c3 0 5 3 5 6-1 3-3 5-5 5-3 0-5-2-5-6 0-3 2-5 5-5z"/><path class="fil0" d="M367 281c-2-2-3-3-5-4-1-1-2-1-3 0-1 2-2 4-4 6 0 0 0 1 1 1l1 1c1 0 1 1 1 1h1c1-1 1-2 2-3h1c1 1 2 1 2 2 1 0 1 0 1-1 0 0 1 0 1-1l1-1v-1z"/><path class="fil0" d="M354 289c1 1 3 2 4 3s3 2 4 3c1 0 2 0 3-1 0-1 1-3 2-4 1-2 2-3 3-4 1-2 0-2-1-3 0 0-1 0-1-1 0 0-1 0-1 1 0 0-1 1-1 2h-2c-1 0-1-1-2-1 0-1-1 0-1 0 0 1-1 1-1 2-1 1-1 1-2 0-1 0-1-1-2-1h-1c0 1-1 1-1 1-1 1-2 2 0 3z"/><path class="fil2 str3" d="M371 293c-1 2-4 4-7 5s-6 0-8-1c-3-2-5-5-5-8-1-4 0-7 2-10s5-5 8-5c2-1 6 0 8 2s4 5 4 8c1 3 0 6-2 9z"/><path class="fil0" d="M37 142c-3-2-7-4-10-7-2-1-5 0-6 2-3 4-5 8-8 12 0 0 0 1 1 2 1 0 2 1 3 2 1 0 1 0 2 1 1 0 2 0 2-1 1-1 2-3 3-4s3-2 4-1 3 1 4 2c0 1 1 0 2 0 0-1 1-2 1-2 1-2 2-3 3-4 0-1 0-1-1-2z"/><path class="fil0" d="M10 161c3 2 6 3 9 5 2 1 5 3 8 4 2 1 4 1 5-1l6-9c2-3 4-6 6-8 2-4 0-4-2-5-1 0-2-1-2-1-1-1-2-1-2 0-1 2-2 3-3 4-1 2-3 2-4 1-1 0-3-1-4-2-1 0-1 0-2 1s-2 2-3 4c-1 1-2 2-3 1-2-1-3-2-5-2-1-1-1-1-2 0 0 1-1 2-2 3-1 2-3 3 0 5z"/><path class="fil2 str5" d="M22 127c8-2 14 0 20 3 5 4 8 10 9 16 1 7-1 13-5 19-4 5-9 9-15 11-7 2-13 1-18-1-6-3-10-8-11-15-2-7-1-14 3-20s10-11 17-13z"/></g></svg>