<?xml version="1.0" encoding="UTF-8"?>
<!DOCTYPE svg PUBLIC "-//W3C//DTD SVG 1.1//EN" "http://www.w3.org/Graphics/SVG/1.1/DTD/svg11.dtd">
<!-- Creator: CorelDRAW X7 -->
<svg xmlns="http://www.w3.org/2000/svg" xml:space="preserve" width="202px" height="202px" version="1.1" style="shape-rendering:geometricPrecision; text-rendering:geometricPrecision; image-rendering:optimizeQuality; fill-rule:evenodd; clip-rule:evenodd"
viewBox="0 0 414 414"
 xmlns:xlink="http://www.w3.org/1999/xlink">
 <defs>
  <style type="text/css">
   <![CDATA[
    .str2 {stroke:#0096DC;stroke-width:1.84292}
    .str0 {stroke:#009933;stroke-width:1.84292}
    .str4 {stroke:#4D4D4D;stroke-width:1.84292}
    .str1 {stroke:fuchsia;stroke-width:1.84292}
    .str3 {stroke:#FF6600;stroke-width:1.84292}
    .fil0 {fill:none}
    .fil3 {fill:#4D4D4D}
    .fil2 {fill:white}
    .fil1 {fill:#4D4D4D;fill-rule:nonzero}
   ]]>
  </style>
 </defs>
 <g id="Layer_x0020_1">
  <metadata id="CorelCorpID_0Corel-Layer"/>
  <g id="_877539712">
   <line class="fil0 str0" x1="207" y1="61" x2="207" y2= "160" />
   <path class="fil0 str0" d="M207 353c0,-12 0,-101 0,-101"/>
   <line class="fil0 str1" x1="310" y1="310" x2="238" y2= "238" />
   <line class="fil0 str1" x1="353" y1="207" x2="255" y2= "207" />
   <line class="fil0 str2" x1="176" y1="238" x2="104" y2= "310" />
   <line class="fil0 str2" x1="104" y1="104" x2="175" y2= "175" />
   <line class="fil0 str3" x1="308" y1="101" x2="236" y2= "173" />
   <line class="fil0 str3" x1="61" y1="207" x2="160" y2= "207" />
   <path class="fil1" d="M236 31c9,2 18,4 26,7 -1,1 -1,2 -1,4 -8,-3 -17,-5 -25,-6 0,-2 0,-3 0,-5zm52 18c8,4 15,8 22,13 -1,1 -2,2 -3,3 -6,-4 -14,-9 -21,-13 1,-1 1,-2 2,-3zm64 55c5,7 9,14 13,22 -1,1 -2,1 -3,2 -4,-8 -9,-15 -14,-22 2,0 3,-1 4,-2zm24 48c3,8 5,17 6,26 -1,0 -3,0 -4,0 -1,-8 -3,-17 -6,-24 2,-1 3,-1 4,-2zm6 84c-1,9 -3,18 -6,26 -1,-1 -3,-1 -4,-1 3,-8 5,-17 6,-25 1,0 3,0 4,0zm-17 52c-4,8 -8,15 -13,22 -1,-1 -2,-2 -4,-3 5,-6 10,-14 13,-21 2,1 3,1 4,2zm-55 64c-7,5 -15,9 -22,13 -1,-1 -1,-2 -2,-3 7,-4 15,-9 21,-14 1,2 2,3 3,4zm-48 24c-9,3 -17,5 -26,6 0,-1 0,-3 0,-4 8,-1 16,-3 24,-6 1,2 1,3 2,4zm-84 6c-9,-1 -18,-3 -26,-6 1,-1 1,-3 1,-4 8,3 17,5 25,6 0,1 0,3 0,4zm-52 -17c-8,-4 -15,-8 -22,-13 1,-1 2,-2 2,-4 7,5 14,10 22,13 -1,2 -2,3 -2,4zm-64 -55c-5,-7 -10,-15 -14,-22 2,-1 3,-1 4,-2 4,7 9,15 13,21 -1,1 -2,2 -3,3zm-24 -48c-3,-9 -5,-17 -7,-26 2,0 3,0 5,0 1,8 3,16 6,24 -2,1 -3,1 -4,2zm-7 -84c2,-9 4,-18 7,-26 1,1 2,1 4,1 -3,8 -5,17 -6,25 -2,0 -3,0 -5,0zm18 -52c4,-8 8,-15 13,-22 1,1 2,2 3,2 -4,7 -9,14 -13,22 -1,-1 -2,-2 -3,-2zm55 -64c7,-5 14,-10 22,-14 1,2 1,3 2,4 -8,4 -15,9 -22,13 0,-1 -1,-2 -2,-3zm48 -24c8,-3 17,-5 26,-7 0,2 0,3 0,5 -8,1 -17,3 -24,6 -1,-2 -1,-3 -2,-4z"/>
   <path class="fil1" d="M207 0c9,0 16,4 22,9 6,6 9,14 9,22 0,9 -3,17 -9,23 -6,5 -13,9 -22,9 -9,0 -17,-4 -22,-9 -6,-6 -10,-14 -10,-23 0,-8 4,-16 10,-22 5,-5 13,-9 22,-9zm19 12c-5,-5 -12,-8 -19,-8 -8,0 -14,3 -19,8 -5,5 -8,12 -8,19 0,8 3,15 8,20 5,5 11,8 19,8 7,0 14,-3 19,-8 5,-5 8,-12 8,-20 0,-7 -3,-14 -8,-19z"/>
   <path class="fil1" d="M414 207c0,9 -4,16 -9,22 -6,6 -14,9 -23,9 -8,0 -16,-3 -22,-9 -6,-6 -9,-13 -9,-22 0,-9 3,-17 9,-22 6,-6 14,-10 22,-10 9,0 17,4 23,10 5,5 9,13 9,22zm-12 19c4,-5 8,-12 8,-19 0,-8 -4,-14 -8,-19 -5,-5 -12,-8 -20,-8 -7,0 -14,3 -19,8 -5,5 -8,11 -8,19 0,7 3,14 8,19 5,5 12,8 19,8 8,0 15,-3 20,-8z"/>
   <path class="fil1" d="M353 353c-6,6 -14,9 -22,9 -8,0 -16,-3 -22,-9 -6,-6 -9,-14 -9,-22 0,-8 3,-16 9,-22 6,-6 14,-9 22,-9 8,0 16,3 22,9 6,6 9,14 9,22 0,8 -3,16 -9,22zm-22 5c7,0 14,-3 19,-8 5,-5 8,-12 8,-19 0,-7 -3,-14 -8,-19 -5,-6 -12,-8 -19,-8 -7,0 -14,2 -19,8 -6,5 -8,12 -8,19 0,7 2,14 8,19 5,5 12,8 19,8z"/>
   <path class="fil1" d="M207 414c-9,0 -17,-4 -22,-9 -6,-6 -10,-14 -10,-23 0,-8 4,-16 10,-22 5,-6 13,-9 22,-9 9,0 16,3 22,9 6,6 9,14 9,22 0,9 -3,17 -9,23 -6,5 -13,9 -22,9zm-19 -12c5,4 11,8 19,8 7,0 14,-4 19,-8 5,-5 8,-12 8,-20 0,-7 -3,-14 -8,-19 -5,-5 -12,-8 -19,-8 -8,0 -14,3 -19,8 -5,5 -8,12 -8,19 0,8 3,15 8,20z"/>
   <path class="fil1" d="M61 353c-7,-6 -10,-14 -10,-22 0,-8 3,-16 10,-22 6,-6 14,-9 22,-9 8,0 16,3 22,9 6,6 9,14 9,22 0,8 -3,16 -9,22 -6,6 -14,9 -22,9 -8,0 -16,-3 -22,-9zm-5 -22c0,7 2,14 8,19 5,5 12,8 19,8 7,0 14,-3 19,-8 5,-5 8,-12 8,-19 0,-7 -3,-14 -8,-19 -5,-6 -12,-8 -19,-8 -7,0 -14,2 -19,8 -6,5 -8,12 -8,19z"/>
   <path class="fil1" d="M0 207c0,-9 4,-17 9,-22 6,-6 14,-10 22,-10 9,0 17,4 23,10 5,5 9,13 9,22 0,9 -4,16 -9,22 -6,6 -14,9 -23,9 -8,0 -16,-3 -22,-9 -5,-6 -9,-13 -9,-22zm12 -19c-5,5 -8,11 -8,19 0,7 3,14 8,19 5,5 12,8 19,8 8,0 15,-3 20,-8 5,-5 8,-12 8,-19 0,-8 -3,-14 -8,-19 -5,-5 -12,-8 -20,-8 -7,0 -14,3 -19,8z"/>
   <path class="fil1" d="M61 61c6,-7 14,-10 22,-10 8,0 16,3 22,10 6,6 9,14 9,22 0,8 -3,16 -9,22 -6,6 -14,9 -22,9 -8,0 -16,-3 -22,-9 -7,-6 -10,-14 -10,-22 0,-8 3,-16 10,-22zm22 -5c-7,0 -14,2 -19,8 -6,5 -8,12 -8,19 0,7 2,14 8,19 5,5 12,8 19,8 7,0 14,-3 19,-8 5,-5 8,-12 8,-19 0,-7 -3,-14 -8,-19 -5,-6 -12,-8 -19,-8z"/>
   <path class="fil1" d="M264 34c3,-3 6,-4 10,-4 4,0 8,1 11,4l0 0c3,3 4,7 4,11 0,3 -1,7 -4,10l0 0c-3,3 -7,5 -11,5l0 0c-4,0 -7,-2 -10,-5l0 0c-3,-3 -5,-7 -5,-10 0,-4 2,-8 5,-11l0 0 0 0zm10 -3c-3,0 -6,2 -9,4l0 0c-3,3 -4,6 -4,10 0,3 1,6 4,9l0 0c3,2 6,4 9,4l0 0c4,0 7,-2 10,-4 2,-3 3,-6 3,-9 0,-4 -1,-7 -3,-10 -3,-2 -6,-4 -10,-4z"/>
   <path class="fil1" d="M369 125c4,0 8,1 11,4l0 0 0 0c3,3 4,7 4,11 0,4 -1,8 -4,10l0 0c-3,3 -7,5 -11,5l0 0c-4,0 -8,-2 -10,-5l0 0c-3,-2 -5,-6 -5,-10l0 0c0,-4 2,-8 5,-11l0 0c2,-3 6,-4 10,-4zm10 5c-3,-2 -6,-3 -10,-3 -3,0 -7,1 -9,3l0 0c-2,3 -4,6 -4,10l0 0c0,3 2,7 4,9l0 0c2,2 6,4 9,4l0 0c4,0 7,-2 10,-4l0 0c2,-2 3,-6 3,-9 0,-4 -1,-7 -3,-10l0 0z"/>
   <path class="fil1" d="M380 264l0 0c3,3 4,6 4,10 0,4 -1,8 -4,11l0 0 0 0 0 0c-3,3 -7,4 -11,4 -4,0 -7,-1 -10,-4l0 0c-3,-3 -5,-7 -5,-11l0 0c0,-4 2,-7 5,-10l0 0c3,-3 6,-5 10,-5 4,0 8,2 11,5l0 0 0 0zm-2 1l0 0 0 0c-2,-3 -5,-4 -9,-4 -3,0 -7,1 -9,4l0 0c-3,3 -4,6 -4,9l0 0c0,4 1,7 4,10 2,2 6,3 9,3 4,0 7,-1 9,-3l0 0c3,-3 4,-6 4,-10 0,-3 -1,-6 -4,-9z"/>
   <path class="fil1" d="M289 369c0,4 -2,8 -4,11l0 0 0 0c-3,3 -7,4 -11,4 -4,0 -8,-1 -11,-4l0 0c-2,-3 -4,-7 -4,-11l0 0c0,-4 2,-8 4,-10l0 0c3,-3 7,-5 11,-5l0 0c4,0 8,2 11,5l0 0c2,2 4,6 4,10zm-6 10c3,-3 4,-6 4,-10 0,-3 -1,-7 -4,-9l0 0c-2,-2 -5,-4 -9,-4l0 0c-4,0 -7,2 -9,4l0 0c-3,2 -4,6 -4,9l0 0c0,4 1,7 4,10l0 0c2,2 5,3 9,3 4,0 7,-1 9,-3l0 0z"/>
   <path class="fil1" d="M150 380l0 0c-3,3 -7,4 -10,4 -4,0 -8,-1 -11,-4l0 0 0 0 0 0c-3,-3 -4,-7 -4,-11 0,-4 1,-7 4,-10l0 0c3,-3 7,-5 11,-5l0 0c3,0 7,2 10,5l0 0c3,3 4,6 4,10 0,4 -1,8 -4,11l0 0 0 0zm-1 -2l0 0 0 0c2,-2 4,-5 4,-9 0,-3 -2,-7 -4,-9l0 0c-3,-3 -6,-4 -9,-4l0 0c-4,0 -7,1 -10,4 -2,2 -4,6 -4,9 0,4 2,7 4,9l0 0c3,3 6,4 10,4 3,0 6,-1 9,-4z"/>
   <path class="fil1" d="M44 289c-4,0 -7,-2 -10,-4l0 0 0 0c-3,-3 -4,-7 -4,-11 0,-4 1,-8 4,-11l0 0c3,-2 6,-4 10,-4l0 0c5,0 8,2 11,4l0 0c3,3 4,7 4,11l0 0c0,4 -1,8 -4,11l0 0c-3,2 -6,4 -11,4zm-9 -6c3,3 6,4 9,4 4,0 7,-1 10,-4l0 0c2,-2 4,-5 4,-9l0 0c0,-4 -2,-7 -4,-9 -3,-3 -6,-4 -10,-4l0 0c-3,0 -6,1 -9,4l0 0c-2,2 -4,5 -4,9 0,4 2,7 4,9l0 0z"/>
   <path class="fil1" d="M34 150l0 0c-3,-3 -4,-7 -4,-10 0,-4 1,-8 4,-11l0 0 0 0 0 0c3,-3 7,-4 11,-4 3,0 7,1 10,4l0 0c3,3 5,7 5,11l0 0c0,3 -2,7 -5,10l0 0c-3,3 -7,4 -10,4 -4,0 -8,-1 -11,-4l0 0 0 0zm1 -1l0 0 0 0c3,2 6,4 10,4 3,0 6,-2 9,-4l0 0c2,-3 4,-6 4,-9l0 0c0,-4 -2,-7 -4,-10 -3,-2 -6,-4 -9,-4 -4,0 -7,2 -10,4l0 0c-2,3 -4,6 -4,10 0,3 2,6 4,9z"/>
   <circle class="fil2 str4" transform="matrix(-1.74708E-014 -0.0941257 0.0941257 -1.74947E-014 139.785 44.4926)" r="149"/>
   <path class="fil1" d="M353 61c6,6 9,14 9,22 0,8 -3,16 -9,22 -6,6 -14,9 -22,9 -8,0 -16,-3 -22,-9 -6,-6 -9,-14 -9,-22 0,-8 3,-16 9,-22 6,-7 14,-10 22,-10 8,0 16,3 22,10zm5 22c0,-7 -3,-14 -8,-19 -5,-6 -12,-8 -19,-8 -7,0 -14,2 -19,8 -6,5 -8,12 -8,19 0,7 2,14 8,19 5,5 12,8 19,8 7,0 14,-3 19,-8 5,-5 8,-12 8,-19z"/>
   <line class="fil0 str0" x1="207" y1="61" x2="207" y2= "160" />
   <path class="fil1" d="M125 44c0,-4 1,-7 4,-10l0 0c3,-3 7,-4 11,-4 4,0 8,1 10,4l0 0 0 0c3,3 5,6 5,10 0,5 -2,8 -5,11l0 0 0 0c-2,3 -6,4 -10,4 -4,0 -8,-1 -11,-4l0 0c-3,-3 -4,-6 -4,-11zm5 -9c-2,3 -3,6 -3,9 0,4 1,7 3,10l0 0c3,2 6,4 10,4 3,0 7,-2 9,-4l0 0c2,-3 4,-6 4,-10 0,-3 -2,-6 -4,-9l0 0c-2,-2 -6,-4 -9,-4 -4,0 -7,2 -10,4l0 0z"/>
   <g>
    <path class="fil3" d="M245 182l-29 -29c-5,-5 -13,-5 -18,0l-29 29c-1,1 -1,4 0,6l9 8 6 6c1,1 4,1 6,0l11 -11c4,-3 8,-3 12,0l11 11c2,1 4,1 6,0l6 -6 9 -8c1,-2 1,-5 0,-6z"/>
    <path class="fil3" d="M153 216l45 45c5,5 13,5 18,0l45 -45c8,-8 2,-10 -4,-16l-7 -6c-1,-2 -4,-2 -6,0l-11 10c-3,3 -8,3 -11,0l-12 -10c-2,-2 -4,-2 -6,0l-12 10c-3,3 -8,3 -11,0l-11 -10c-2,-2 -5,-2 -6,0l-7 6c-6,5 -12,8 -4,16z"/>
   </g>
  </g>
 </g>
</svg>
