<?xml version="1.0" encoding="UTF-8"?>
<!DOCTYPE svg PUBLIC "-//W3C//DTD SVG 1.1//EN" "http://www.w3.org/Graphics/SVG/1.1/DTD/svg11.dtd">
<!-- Creator: CorelDRAW X7 -->
<svg xmlns="http://www.w3.org/2000/svg" xml:space="preserve" width="200px" height="200px" version="1.1" style="shape-rendering:geometricPrecision; text-rendering:geometricPrecision; image-rendering:optimizeQuality; fill-rule:evenodd; clip-rule:evenodd"
viewBox="0 0 6292 6293"
 xmlns:xlink="http://www.w3.org/1999/xlink">
 <defs>
  <style type="text/css">
   <![CDATA[
    .str1 {stroke:#333333;stroke-width:31.3938}
    .str2 {stroke:#333333;stroke-width:65.4594}
    .str0 {stroke:#333333;stroke-width:28.2767}
    .str5 {stroke:#333333;stroke-width:18.7769}
    .str4 {stroke:#333333;stroke-width:18.7769}
    .str3 {stroke:#333333;stroke-width:18.7769}
    .str7 {stroke:#333333;stroke-width:18.7769}
    .str6 {stroke:#333333;stroke-width:18.7769}
    .fil0 {fill:none}
    .fil3 {fill:#0096DC}
    .fil5 {fill:#009933}
    .fil12 {fill:#333333}
    .fil2 {fill:fuchsia}
    .fil4 {fill:#FF6600}
    .fil14 {fill:yellow}
    .fil6 {fill:yellow}
    .fil7 {fill:white}
    .fil1 {fill:#333333;fill-rule:nonzero}
    .fil8 {fill:#B8E2F5;fill-rule:nonzero}
    .fil10 {fill:#B8EDC9;fill-rule:nonzero}
    .fil9 {fill:#FFA7FF;fill-rule:nonzero}
    .fil13 {fill:#FFB586;fill-rule:nonzero}
    .fil11 {fill:#FFFF6A;fill-rule:nonzero}
   ]]>
  </style>
 </defs>
 <g id="Layer_x0020_1">
  <metadata id="CorelCorpID_0Corel-Layer"/>
  <g id="_1102696528">
   <rect class="fil0" width="6293" height="6293"/>
   <polygon class="fil1" points="3690,3233 4265,3233 4265,3264 3690,3264 "/>
   <polygon class="fil1" points="4282,4003 5237,4003 5237,4035 4282,4035 "/>
   <polygon class="fil1" points="1072,4003 2027,4003 2027,4035 1072,4035 "/>
   <path class="fil1" d="M1402 569l0 823c0,48 -20,92 -51,124 -32,31 -76,51 -124,51l-159 0c-76,126 -100,207 -108,245 -4,14 -4,21 -4,35l-1 2172 -32 0 -1 -2172c0,-14 0,-21 -3,-35 -9,-37 -33,-119 -109,-245l-159 0c-48,0 -92,-20 -124,-51 -31,-32 -51,-76 -51,-124l0 -823 32 0 0 823c0,40 16,76 42,102 26,26 62,42 101,42l168 0 9 0 4 7c62,102 92,177 107,225 15,-48 45,-123 107,-225l5 -7 8 0 168 0c40,0 76,-16 102,-42 25,-26 42,-62 42,-102l0 -823 31 0z"/>
   <rect class="fil2 str0" x="647" y="369" width="584" height="795" rx="104" ry="104"/>
   <path class="fil1" d="M2506 1188l0 823c0,48 -20,92 -52,123 -31,32 -75,52 -123,52l-159 0c-76,125 -100,207 -109,245 -3,14 -4,20 -4,35l-1 768 -31 0 -1 -769c0,-14 -1,-20 -4,-34 -8,-38 -32,-119 -108,-245l-160 0c-48,0 -91,-20 -123,-52 -32,-31 -51,-75 -51,-123l0 -823 31 0 0 823c0,39 16,75 42,101 26,26 62,42 101,42l168 0 9 0 5 8c62,101 92,176 107,224 14,-48 45,-123 107,-224l4 -8 9 0 168 0c39,0 75,-16 101,-42 26,-26 42,-62 42,-101l0 -823 32 0z"/>
   <rect class="fil3 str0" x="1750" y="988" width="584" height="795" rx="104" ry="104"/>
   <path class="fil1" d="M3609 569l0 823c0,48 -19,92 -51,124 -32,31 -76,51 -124,51l-159 0c-76,126 -100,207 -108,245 -3,14 -4,21 -4,35l-1 2977 -32 0 -1 -2977c0,-14 0,-21 -3,-35 -9,-37 -33,-119 -109,-245l-159 0c-48,0 -92,-20 -123,-51 -32,-32 -52,-76 -52,-124l0 -823 32 0 0 823c0,40 16,76 42,102 26,26 62,42 101,42l168 0 9 0 4 7c62,102 92,177 107,225 15,-48 45,-123 107,-225l5 -7 9 0 167 0c40,0 76,-16 102,-42 26,-26 42,-62 42,-102l0 -823 31 0z"/>
   <rect class="fil4 str0" x="2854" y="369" width="584" height="795" rx="104" ry="104"/>
   <path class="fil1" d="M4713 1188l0 823c0,48 -20,92 -52,123 -31,32 -75,52 -123,52l-159 0c-76,125 -100,207 -109,245 -3,14 -4,20 -4,35l-1 768 -31 0 -1 -769c0,-14 -1,-20 -4,-34 -8,-38 -32,-119 -108,-245l-159 0c-48,0 -92,-20 -124,-52 -31,-31 -51,-75 -51,-123l0 -823 31 0 0 823c0,39 16,75 42,101 26,26 62,42 102,42l168 0 8 0 5 8c62,101 92,176 107,224 15,-48 45,-123 107,-224l4 -8 9 0 168 0c39,0 75,-16 101,-42 26,-26 42,-62 42,-101l0 -823 32 0z"/>
   <rect class="fil5 str0" x="3958" y="988" width="584" height="795" rx="104" ry="104"/>
   <path class="fil1" d="M5816 569l0 823c0,48 -19,92 -51,124 -32,31 -75,51 -123,51l-160 0c-75,126 -100,207 -108,245 -3,14 -4,21 -4,35l-1 2162 -31 0 -1 -2162c0,-14 -1,-21 -4,-35 -8,-37 -33,-119 -109,-245l-159 0c-48,0 -92,-20 -123,-51 -32,-32 -52,-76 -52,-124l0 -823 32 0 0 823c0,40 16,76 42,102 26,26 62,42 101,42l168 0 9 0 4 7c63,102 93,177 107,225 15,-48 45,-123 107,-225l5 -7 9 0 168 0c39,0 75,-16 101,-42 26,-26 42,-62 42,-102l0 -823 31 0z"/>
   <rect class="fil6 str0" x="5061" y="369" width="584" height="795" rx="104" ry="104"/>
   <polygon class="fil1" points="2027,3233 2602,3233 2602,3264 2027,3264 "/>
   <circle class="fil7 str1" cx="2043" cy="3247" r="137"/>
   <path class="fil8" d="M2041 2902c95,0 181,38 244,101l0 0 0 0c62,62 101,149 101,244 0,95 -39,181 -101,243l0 0 0 0c-63,63 -149,101 -244,101 -95,0 -181,-38 -244,-101l0 0 0 0c-62,-62 -101,-148 -101,-243 0,-95 39,-182 101,-244l0 0 0 0c63,-63 149,-101 244,-101zm222 123c-57,-57 -135,-92 -222,-92 -87,0 -165,35 -222,92l0 0c-56,57 -91,135 -91,222 0,86 35,165 91,221l0 0c57,57 135,92 222,92 87,0 165,-35 222,-92l0 0c56,-56 91,-135 91,-221 0,-87 -35,-165 -91,-222l0 0z"/>
   <circle class="fil7 str1" cx="939" cy="4019" r="137"/>
   <path class="fil9" d="M939 3674c95,0 181,39 244,101l0 0 0 0c62,63 101,149 101,244 0,95 -39,181 -101,244l0 0 0 0c-63,62 -149,101 -244,101 -95,0 -181,-39 -244,-101l0 0 0 0c-62,-63 -101,-149 -101,-244 0,-95 39,-181 101,-244l0 0 0 0c63,-62 149,-101 244,-101zm222 123c-57,-56 -135,-91 -222,-91 -86,0 -165,35 -221,91l-1 1c-56,56 -91,135 -91,221 0,87 35,165 91,222l1 0c56,56 135,91 221,91 87,0 165,-35 222,-91l0 0c56,-57 91,-135 91,-222 0,-86 -35,-165 -91,-221l0 -1z"/>
   <circle class="fil7 str1" cx="4250" cy="3247" r="137"/>
   <path class="fil10" d="M4250 2902c95,0 181,38 244,101l0 0 0 0c62,62 101,149 101,244 0,95 -39,181 -101,243l0 0 0 0c-63,63 -149,101 -244,101 -95,0 -181,-38 -244,-101l0 0 0 0c-62,-62 -101,-148 -101,-243 0,-95 39,-182 101,-244l0 0 0 0c63,-63 149,-101 244,-101zm221 123c-56,-57 -135,-92 -221,-92 -87,0 -165,35 -222,92l0 0c-56,57 -92,135 -92,222 0,86 36,165 92,221l0 0c57,57 135,92 222,92 86,0 165,-35 221,-92l0 0c57,-56 92,-135 92,-221 0,-87 -35,-165 -92,-222l0 0z"/>
   <circle class="fil7 str1" cx="5353" cy="4019" r="137"/>
   <path class="fil11" d="M5353 3674c95,0 182,39 244,101l0 0 0 0c62,63 101,149 101,244 0,95 -39,181 -101,244l0 0 0 0c-62,62 -149,101 -244,101 -95,0 -181,-39 -243,-101l0 0 0 0c-63,-63 -101,-149 -101,-244 0,-95 38,-181 101,-244l0 0 0 0c62,-62 148,-101 243,-101zm222 123c-57,-56 -135,-91 -222,-91 -86,0 -165,35 -221,91l0 1c-57,56 -92,135 -92,221 0,87 35,165 92,222l0 0c56,56 135,91 221,91 87,0 165,-35 222,-91l0 0c57,-57 92,-135 92,-222 0,-86 -35,-165 -92,-221l0 -1z"/>
   <rect class="fil0 str2" x="939" y="4824" width="4415" height="933" rx="251" ry="251"/>
   <path class="fil12 str0" d="M877 369l250 0c58,0 104,47 104,104l0 588c0,57 -46,104 -104,104l-376 0c-57,0 -104,-47 -104,-104l0 -388 1 0 179 0c28,0 50,-22 50,-49l0 -255zm-135 588l55 0c9,0 15,7 15,15l0 86c0,9 -6,16 -15,16l-55 0c-9,0 -15,-7 -15,-16l0 -86c0,-8 6,-15 15,-15zm-10 -225l76 0c12,0 21,10 21,21l0 119c0,12 -9,21 -21,21l-76 0c-12,0 -21,-9 -21,-21l0 -119c0,-11 9,-21 21,-21z"/>
   <path class="fil12 str0" d="M1981 988l250 0c57,0 104,47 104,104l0 587c0,57 -47,104 -104,104l-377 0c-57,0 -104,-47 -104,-104l0 -387 1 0 180 0c27,0 50,-22 50,-50l0 -254zm-136 587l56 0c8,0 15,7 15,16l0 86c0,8 -7,15 -15,15l-56 0c-8,0 -15,-7 -15,-15l0 -86c0,-9 7,-16 15,-16zm-10 -224l77 0c11,0 21,9 21,21l0 119c0,11 -10,21 -21,21l-77 0c-11,0 -21,-10 -21,-21l0 -119c0,-12 10,-21 21,-21z"/>
   <path class="fil12 str0" d="M3084 369l251 0c57,0 103,47 103,104l0 588c0,57 -46,104 -103,104l-377 0c-57,0 -104,-47 -104,-104l0 -388 1 0 180 0c27,0 49,-22 49,-49l0 -255zm-135 588l55 0c9,0 16,7 16,15l0 86c0,9 -7,16 -16,16l-55 0c-8,0 -15,-7 -15,-16l0 -86c0,-8 7,-15 15,-15zm-10 -225l76 0c12,0 21,10 21,21l0 119c0,12 -9,21 -21,21l-76 0c-12,0 -21,-9 -21,-21l0 -119c0,-11 9,-21 21,-21z"/>
   <path class="fil13" d="M3146 4479c95,0 182,39 244,101l0 0 0 1c62,62 101,148 101,243 0,95 -39,182 -101,244l0 0 0 0c-62,62 -149,101 -244,101 -95,0 -181,-39 -243,-101l0 0 -1 0c-62,-62 -100,-149 -100,-244 0,-95 38,-181 100,-243l1 -1 0 0c62,-62 148,-101 243,-101zm222 124c-57,-57 -135,-92 -222,-92 -86,0 -165,35 -221,92l0 0c-57,56 -92,135 -92,221 0,87 35,165 92,222l0 0c56,56 135,92 221,92 87,0 165,-36 222,-92l0 0c57,-57 92,-135 92,-222 0,-86 -35,-165 -92,-221l0 0z"/>
   <path class="fil12 str0" d="M4188 988l250 0c57,0 104,47 104,104l0 587c0,57 -47,104 -104,104l-377 0c-57,0 -103,-47 -103,-104l0 -387 0 0 180 0c28,0 50,-22 50,-50l0 -254zm-135 587l55 0c8,0 15,7 15,16l0 86c0,8 -7,15 -15,15l-55 0c-9,0 -16,-7 -16,-15l0 -86c0,-9 7,-16 16,-16zm-10 -224l76 0c11,0 21,9 21,21l0 119c0,11 -10,21 -21,21l-76 0c-12,0 -21,-10 -21,-21l0 -119c0,-12 9,-21 21,-21z"/>
   <rect class="fil14 str0" x="5061" y="369" width="584" height="795" rx="104" ry="104"/>
   <path class="fil12 str0" d="M5291 369l251 0c57,0 104,47 104,104l0 588c0,57 -47,104 -104,104l-377 0c-57,0 -104,-47 -104,-104l0 -388 1 0 180 0c27,0 49,-22 49,-49l0 -255zm-135 588l55 0c9,0 16,7 16,15l0 86c0,9 -7,16 -16,16l-55 0c-8,0 -15,-7 -15,-16l0 -86c0,-8 7,-15 15,-15zm-10 -225l76 0c12,0 21,10 21,21l0 119c0,12 -9,21 -21,21l-76 0c-11,0 -21,-9 -21,-21l0 -119c0,-11 10,-21 21,-21z"/>
   <polygon class="fil1" points="2027,4836 2027,4003 2058,4003 2058,4836 "/>
   <polygon class="fil1" points="4234,4836 4234,4003 4266,4003 4266,4836 "/>
   <polygon class="fil1" points="3682,4836 3682,3305 3714,3305 3714,4836 "/>
   <polygon class="fil1" points="2579,4836 2579,3305 2610,3305 2610,4836 "/>
   <circle class="fil7 str3" cx="2043" cy="4019" r="82"/>
   <circle class="fil7 str4" cx="2594" cy="3247" r="82"/>
   <circle class="fil7 str5" cx="3146" cy="4824" r="82"/>
   <circle class="fil7 str6" cx="3698" cy="3247" r="82"/>
   <circle class="fil7 str7" cx="4250" cy="4019" r="82"/>
  </g>
 </g>
</svg>
