<?xml version="1.0" encoding="UTF-8"?>
<!DOCTYPE svg PUBLIC "-//W3C//DTD SVG 1.1//EN" "http://www.w3.org/Graphics/SVG/1.1/DTD/svg11.dtd">
<!-- Creator: CorelDRAW X7 -->
<svg xmlns="http://www.w3.org/2000/svg" xml:space="preserve" width="200px" height="200px" version="1.1" style="shape-rendering:geometricPrecision; text-rendering:geometricPrecision; image-rendering:optimizeQuality; fill-rule:evenodd; clip-rule:evenodd"
viewBox="0 0 6341 6341"
 xmlns:xlink="http://www.w3.org/1999/xlink">
 <defs>
  <style type="text/css">
   <![CDATA[
    .str0 {stroke:#0096DC;stroke-width:28.5337}
    .str1 {stroke:#4D4D4D;stroke-width:28.5337}
    .fil0 {fill:none}
    .fil2 {fill:#0096DC}
    .fil3 {fill:#4D4D4D}
    .fil4 {fill:#FF6600}
    .fil1 {fill:#0096DC;fill-rule:nonzero}
    .fil5 {fill:#4D4D4D;fill-rule:nonzero}
    .fil6 {fill:#E6E6E6;fill-rule:nonzero}
   ]]>
  </style>
 </defs>
 <g id="Layer_x0020_1">
  <metadata id="CorelCorpID_0Corel-Layer"/>
  <g id="_1096156976">
   <rect class="fil0" width="6341" height="6341"/>
   <g>
    <g>
     <path class="fil1" d="M6114 2673c-29,22 -65,31 -99,26l0 0c-34,-4 -66,-22 -88,-51 -23,-29 -31,-65 -27,-99l0 0c5,-34 22,-66 52,-88 29,-23 65,-31 98,-27l1 0c33,5 66,22 88,51 23,30 31,65 26,99l0 0c-4,34 -21,66 -51,89zm-96 6c29,3 59,-4 84,-23 24,-19 39,-46 43,-74l0 0c4,-29 -4,-59 -22,-84 -19,-25 -47,-39 -75,-43l0 0c-29,-4 -59,3 -84,22 -24,19 -39,46 -43,75l0 0c-4,29 3,59 22,83 19,25 47,40 75,44l0 0z"/>
     <line class="fil0 str0" x1="5607" y1="3289" x2="5976" y2= "2664" />
     <line class="fil0 str0" x1="5975" y1="2454" x2="5606" y2= "1830" />
     <circle class="fil2" cx="6033" cy="2567" r="99"/>
    </g>
    <g>
     <path class="fil1" d="M228 2666c29,22 65,30 99,26l0 0c34,-5 66,-22 89,-51 22,-29 30,-65 26,-99l0 0c-5,-34 -22,-66 -51,-89 -30,-22 -65,-31 -99,-26l0 0c-34,4 -66,22 -89,51 -22,29 -31,65 -26,99l0 0c4,34 22,66 51,89zm96 5c-28,4 -58,-3 -83,-22 -25,-19 -40,-46 -43,-75l0 0c-4,-28 3,-58 22,-83 19,-25 46,-40 75,-43l0 0c28,-4 58,3 83,22 25,19 39,46 43,75l0 0c4,28 -3,58 -22,83 -19,25 -46,40 -75,43l0 0z"/>
     <line class="fil0 str0" x1="735" y1="3281" x2="366" y2= "2657" />
     <line class="fil0 str0" x1="367" y1="2446" x2="736" y2= "1822" />
     <circle class="fil2" cx="309" cy="2559" r="99"/>
    </g>
   </g>
   <path class="fil3" d="M3827 5161l0 371 -124 0 0 -371 -102 0 0 -105 329 0 0 105 -103 0zm401 289l-170 0 -33 82 -131 0 183 -476 135 0 179 476 -132 0 -31 -82zm-33 -95l-51 -152 -1 0 -51 152 103 0zm481 -18l150 195 -154 0 -117 -183 -1 0 0 183 -124 0 0 -476 185 0c47,1 86,13 118,36 32,23 47,60 47,111 0,33 -9,62 -26,88 -18,25 -44,41 -78,47l0 -1zm-122 -186l0 119 12 0c2,0 4,0 6,0 2,0 4,0 6,0 18,-1 35,-5 51,-13 15,-7 23,-23 23,-46 0,-23 -8,-39 -23,-47 -16,-8 -33,-12 -51,-13 -2,0 -4,0 -6,0 -2,0 -4,0 -6,0l-12 0zm495 10l0 371 -124 0 0 -371 -102 0 0 -105 328 0 0 105 -102 0zm418 0l-147 0 0 80 139 0 0 105 -139 0 0 82 147 0 0 104 -271 0 0 -476 271 0 0 105zm323 176l150 195 -155 0 -116 -183 -2 0 0 183 -124 0 0 -476 186 0c47,1 86,13 118,36 31,23 47,60 47,111 0,33 -9,62 -27,88 -18,25 -44,41 -77,47l0 -1zm-123 -186l0 119 12 0c2,0 4,0 7,0 2,0 4,0 5,0 19,-1 36,-5 51,-13 16,-7 23,-23 23,-46 0,-23 -7,-39 -23,-47 -15,-8 -32,-12 -51,-13 -1,0 -3,0 -5,0 -3,0 -5,0 -7,0l-12 0z"/>
   <path class="fil4" d="M3526 5195l-51 0 -42 0c-27,-27 -64,-43 -104,-43 -58,0 -110,35 -132,87l159 0 105 0 116 0 1 0c2,22 4,32 4,55 0,140 -113,253 -253,253 -102,0 -193,-61 -232,-154l36 0 51 0 42 0c27,28 64,44 103,44 59,0 111,-36 132,-88l-181 0 -82 0 -116 0 -1 0 -3 -29c-1,-9 -1,-17 -1,-26 0,-139 113,-252 252,-252 103,0 194,61 233,153l-36 0z"/>
   <path class="fil3" d="M1160 5337l150 195 -154 0 -117 -183 -2 0 0 183 -123 0 0 -476 185 0c47,1 86,13 118,36 31,23 47,60 47,111 0,33 -9,62 -27,88 -18,25 -43,41 -77,47l0 -1zm-123 -186l0 119 12 0c3,0 5,0 7,0 2,0 4,0 5,0 19,-1 36,-5 51,-13 16,-7 23,-23 23,-46 0,-23 -7,-39 -23,-47 -15,-8 -32,-12 -51,-13 -1,0 -3,0 -5,0 -2,0 -4,0 -7,0l-12 0zm546 -111c68,1 129,24 183,70 53,45 80,104 80,176 0,77 -25,140 -74,189 -50,49 -113,73 -189,73 -77,0 -140,-24 -189,-73 -50,-49 -75,-112 -75,-189 0,-72 27,-131 80,-176 54,-46 115,-69 184,-69l0 -1zm0 120c-37,1 -69,14 -96,39 -26,26 -39,55 -39,88 0,41 13,75 39,101 27,27 59,41 96,41 37,0 68,-14 95,-41 26,-27 39,-61 39,-102 0,-33 -13,-62 -39,-87 -27,-26 -58,-39 -95,-39zm399 -104l83 308 1 0 100 -308 99 0 93 308 1 0 90 -308 129 0 -152 476 -126 0 -84 -276 -1 0 -94 276 -125 0 -142 -476 128 0zm627 476l0 -476 176 0c66,1 123,24 170,70 48,46 72,102 72,169 0,67 -24,123 -72,169 -47,46 -104,68 -170,68l-176 0zm124 -371l0 267 28 0c37,0 69,-10 96,-32 27,-21 41,-55 41,-101 0,-43 -13,-76 -38,-99 -25,-23 -58,-35 -98,-35l-29 0z"/>
   <path class="fil4" d="M475 5473c-47,-48 -74,-111 -74,-179 0,-67 27,-131 74,-178 48,-48 112,-74 179,-74 67,0 131,26 179,74l23 23 -78 79 -24 -24c-27,-27 -62,-41 -100,-41 -38,0 -74,14 -100,41 -27,27 -42,63 -42,100 0,38 15,74 42,101 26,26 62,41 100,41 38,0 73,-15 100,-41l24 -24 78 78 -23 24c-48,48 -112,74 -179,74 -67,0 -131,-26 -179,-74z"/>
   <path class="fil3" d="M3674 858c835,222 1450,983 1450,1888 0,1080 -874,1954 -1954,1954 -1079,0 -1954,-874 -1954,-1954 0,-905 617,-1667 1452,-1888l33 393c-636,199 -1097,794 -1097,1495 0,866 701,1567 1566,1567 866,0 1567,-701 1567,-1567 0,-701 -461,-1295 -1096,-1494l33 -394z"/>
   <path class="fil3" d="M3624 1452c413,145 735,482 861,903l-417 0c-94,-217 -265,-392 -478,-493l34 -410zm-872 409c-275,130 -479,384 -541,690l253 0 1666 0 397 0c10,64 14,129 14,195 0,758 -613,1371 -1371,1371 -621,0 -1145,-413 -1314,-979l417 0c151,346 496,588 897,588 474,0 869,-337 960,-784l-281 0 -1638 0 -398 0c-9,-64 -14,-129 -14,-196 0,-598 384,-1107 919,-1294l34 409z"/>
   <line class="fil0" x1="2862" y1="824" x2="2990" y2= "2355" />
   <line class="fil0" x1="3481" y1="824" x2="3353" y2= "2355" />
   <path class="fil4" d="M3481 817c-101,-16 -205,-24 -311,-24 -105,0 -208,8 -308,24l128 1538 363 0 128 -1538z"/>
   <path class="fil5" d="M677 609c32,-18 68,-22 101,-14l0 0c34,9 63,30 82,62 19,32 23,68 14,101l0 0c-8,33 -30,63 -61,82 -32,19 -69,23 -102,14l0 0c-33,-9 -63,-30 -81,-62 -19,-31 -23,-68 -15,-101l0 0c9,-33 30,-63 62,-82zm96 6c-28,-7 -58,-3 -85,12 -27,16 -45,41 -52,69l0 0c-8,28 -4,59 12,86 15,27 41,45 68,52l0 0c28,7 59,4 86,-12 27,-16 45,-41 52,-69l0 0c7,-28 4,-59 -12,-86 -16,-26 -41,-44 -69,-52l0 0z"/>
   <line class="fil0 str1" x1="1700" y1="1547" x2="826" y2= "811" />
   <line class="fil0 str1" x1="745" y1="847" x2="773" y2= "1589" />
   <path class="fil5" d="M1636 490c32,-19 68,-23 101,-14l0 0c33,8 63,29 82,61 19,32 23,68 14,101l0 1c-9,33 -30,63 -62,81 -31,19 -68,23 -101,14l0 0c-33,-8 -63,-30 -82,-61 -18,-32 -22,-69 -14,-102l0 0c9,-33 30,-63 62,-81zm96 6c-28,-8 -59,-4 -86,12 -26,15 -44,41 -52,69l0 0c-7,27 -3,58 12,85 16,27 41,45 69,52l0 0c28,7 59,4 86,-12 27,-16 45,-41 52,-69l0 0c7,-28 4,-58 -12,-85 -16,-27 -41,-45 -69,-52l0 0z"/>
   <path class="fil5" d="M704 1597c32,-18 68,-22 101,-14l0 0c33,9 63,30 82,62 19,32 23,68 14,101l0 0c-9,33 -30,63 -62,82 -31,19 -68,23 -101,14l0 0c-33,-9 -63,-30 -82,-62 -18,-32 -22,-68 -14,-101l0 0c9,-33 30,-63 62,-82zm96 6c-28,-7 -59,-4 -85,12 -27,16 -45,41 -53,69l0 0c-7,28 -3,59 12,86 16,27 41,44 69,52l0 0c28,7 59,4 86,-12 27,-16 45,-41 52,-69l0 0c7,-28 4,-59 -12,-86 -16,-26 -41,-44 -69,-52l0 0z"/>
   <line class="fil0 str1" x1="1579" y1="623" x2="869" y2= "709" />
   <path class="fil6" d="M574 433c80,-47 172,-57 255,-35l1 0c83,22 159,75 206,156 47,80 57,172 35,255l0 1c-21,83 -75,159 -155,206 -80,47 -172,57 -256,35l0 0c-84,-22 -159,-75 -206,-155 -47,-81 -58,-173 -36,-256l0 0c22,-84 75,-159 156,-207zm126 -29c-41,6 -82,20 -119,42 -38,22 -69,51 -94,83 -26,35 -45,73 -55,114l0 0c-11,41 -13,84 -8,127 6,40 20,81 42,118 22,38 51,70 84,95 34,25 73,44 113,54l0 0 1 0c40,11 83,14 126,8 41,-6 81,-20 119,-42 37,-22 69,-50 94,-83 25,-34 44,-73 54,-113l0 0 0 0 1 -1c10,-41 13,-84 7,-126 -6,-41 -19,-82 -41,-119 -23,-38 -51,-69 -84,-94 -34,-26 -73,-44 -113,-55l0 0 0 0 -1 0c-41,-11 -84,-14 -126,-8z"/>
   <path class="fil5" d="M5665 609c-32,-18 -68,-22 -101,-14l0 0c-33,9 -63,30 -82,62 -18,32 -23,68 -14,101l0 0c9,33 30,63 62,82 32,19 68,23 101,14l0 0c33,-9 63,-30 82,-62 18,-31 23,-68 14,-101l0 0c-9,-33 -30,-63 -62,-82zm-96 6c28,-7 59,-3 86,12 27,16 44,41 52,69l0 0c7,28 4,59 -12,86 -16,27 -41,45 -69,52l0 0c-28,7 -59,4 -86,-12 -26,-16 -44,-41 -52,-69l0 0c-7,-28 -4,-59 12,-86 16,-26 41,-44 69,-52l0 0z"/>
   <line class="fil0 str1" x1="4642" y1="1547" x2="5516" y2= "811" />
   <line class="fil0 str1" x1="5598" y1="847" x2="5569" y2= "1589" />
   <path class="fil5" d="M4706 490c-31,-19 -68,-23 -101,-14l0 0c-33,8 -63,29 -82,61 -18,32 -22,68 -14,101l0 1c9,33 30,63 62,81 32,19 68,23 101,14l0 0c33,-8 63,-30 82,-61 19,-32 23,-69 14,-102l0 0c-8,-33 -30,-63 -62,-81zm-96 6c28,-8 59,-4 86,12 27,15 45,41 52,69l0 0c7,27 4,58 -12,85 -16,27 -41,45 -69,52l0 0c-28,7 -59,4 -85,-12 -27,-16 -45,-41 -52,-69l0 0c-8,-28 -4,-58 11,-85 16,-27 41,-45 69,-52l0 0z"/>
   <path class="fil5" d="M5638 1597c-31,-18 -68,-22 -101,-14l0 0c-33,9 -63,30 -82,62 -18,32 -22,68 -14,101l0 0c9,33 30,63 62,82 32,19 68,23 101,14l0 0c33,-9 63,-30 82,-62 19,-32 23,-68 14,-101l0 0c-9,-33 -30,-63 -62,-82zm-96 6c28,-7 59,-4 86,12 27,16 45,41 52,69l0 0c7,28 4,59 -12,86 -16,27 -41,44 -69,52l0 0c-28,7 -59,4 -86,-12 -26,-16 -44,-41 -52,-69l0 0c-7,-28 -3,-59 12,-86 16,-26 41,-44 69,-52l0 0z"/>
   <line class="fil0 str1" x1="4763" y1="623" x2="5474" y2= "709" />
   <path class="fil6" d="M5769 433c-81,-47 -173,-57 -256,-35l0 0c-84,22 -159,75 -207,156 -47,80 -57,172 -35,255l0 1c22,83 75,159 155,206 81,47 173,57 256,35l0 0c84,-22 159,-75 207,-155 47,-81 57,-173 35,-256l0 0c-22,-84 -75,-159 -155,-207zm-127 -29c41,6 82,20 119,42 38,22 70,51 94,83 26,35 45,73 55,114l1 0c10,41 13,84 7,127 -6,40 -19,81 -42,118 -22,38 -50,70 -83,95 -35,25 -73,44 -114,54l0 0 0 0c-41,11 -84,14 -126,8 -41,-6 -82,-20 -119,-42 -38,-22 -70,-50 -94,-83 -26,-34 -44,-73 -55,-113l0 0 0 0 0 -1c-11,-41 -14,-84 -8,-126 6,-41 20,-82 42,-119 22,-38 51,-69 83,-94 34,-26 73,-44 113,-55l0 0 1 0 0 0c41,-11 84,-14 126,-8z"/>
   <path class="fil5" d="M514 4490c30,22 65,31 99,26l0 0c34,-4 67,-22 89,-51 22,-29 31,-65 26,-99l0 0c-4,-34 -22,-66 -51,-88 -29,-23 -65,-31 -99,-27l0 0c-34,5 -66,22 -88,51 -23,30 -31,65 -27,99l0 0c5,34 22,66 51,89zm97 6c-29,3 -59,-4 -84,-23 -25,-19 -39,-46 -43,-75l0 0c-4,-28 3,-58 22,-83 19,-25 46,-39 75,-43l0 0c29,-4 59,3 83,22 25,19 40,46 44,75l0 0c3,28 -4,59 -23,83 -19,25 -46,40 -74,43l0 1z"/>
   <line class="fil0 str1" x1="1644" y1="3684" x2="687" y2= "4307" />
   <line class="fil0 str1" x1="611" y1="4263" x2="730" y2= "3529" />
   <path class="fil5" d="M662 3513c29,22 65,30 99,26l0 0c34,-5 66,-22 88,-51 23,-30 31,-65 27,-99l0 0c-5,-34 -22,-66 -52,-89 -29,-22 -64,-31 -98,-26l0 0c-34,4 -67,22 -89,51 -22,29 -31,65 -26,99l0 0c4,34 22,66 51,89zm96 5c-29,4 -59,-3 -83,-22 -25,-19 -40,-46 -44,-75l0 0c-3,-28 4,-58 23,-83 19,-25 46,-40 74,-43l0 0c29,-4 59,3 84,22 25,19 39,46 43,75l0 0c4,28 -3,58 -22,83 -19,25 -46,39 -75,43l0 0z"/>
   <path class="fil6" d="M390 4652c74,56 164,78 250,66l0 0c86,-11 167,-55 224,-129 56,-74 78,-164 66,-250l0 0c-11,-85 -55,-167 -129,-223 -74,-57 -164,-78 -249,-67l-1 0c-85,11 -167,55 -223,129 -57,74 -78,164 -67,250l0 0c12,86 55,167 129,224zm122 44c-40,-11 -78,-29 -113,-56 -35,-26 -62,-59 -83,-94 -22,-37 -35,-78 -41,-120l0 0c-5,-42 -3,-85 8,-126 11,-40 29,-78 56,-113 27,-35 59,-63 95,-83 37,-22 77,-35 119,-41l0 0 0 0c42,-5 85,-3 126,8 40,11 79,29 113,56 35,26 63,59 84,94 21,37 34,78 40,119l0 0 0 0 0 1c6,42 3,85 -8,126 -11,40 -29,79 -56,113 -26,35 -58,63 -94,83 -37,22 -77,35 -119,41l0 0 0 0 -1 0c-42,6 -85,3 -126,-8z"/>
   <path class="fil5" d="M5826 4490c-29,22 -65,31 -98,26l-1 0c-33,-4 -66,-22 -88,-51 -23,-29 -31,-65 -27,-99l0 0c5,-34 22,-66 52,-88 29,-23 65,-31 99,-27l0 0c34,5 66,22 88,51 23,30 31,65 27,99l0 0c-5,34 -22,66 -52,89zm-96 6c29,3 59,-4 84,-23 24,-19 39,-46 43,-75l0 0c4,-28 -3,-58 -22,-83 -19,-25 -47,-39 -75,-43l0 0c-29,-4 -59,3 -84,22 -24,19 -39,46 -43,75l0 0c-4,28 4,59 23,83 18,25 46,40 74,43l0 1z"/>
   <line class="fil0 str1" x1="4696" y1="3684" x2="5654" y2= "4307" />
   <line class="fil0 str1" x1="5730" y1="4263" x2="5611" y2= "3529" />
   <path class="fil5" d="M5679 3513c-29,22 -65,30 -99,26l0 0c-34,-5 -66,-22 -88,-51 -23,-30 -31,-65 -27,-99l0 0c5,-34 22,-66 51,-89 30,-22 65,-31 99,-26l0 0c34,4 66,22 89,51 22,29 31,65 26,99l0 0c-4,34 -22,66 -51,89zm-96 5c28,4 59,-3 83,-22 25,-19 40,-46 43,-75l1 0c3,-28 -4,-58 -23,-83 -19,-25 -46,-40 -75,-43l0 0c-28,-4 -58,3 -83,22 -25,19 -39,46 -43,75l0 0c-4,28 3,58 22,83 19,25 46,39 75,43l0 0z"/>
   <path class="fil6" d="M5950 4652c-73,56 -163,78 -249,66l0 0c-86,-11 -167,-55 -224,-129 -57,-74 -78,-164 -67,-250l1 0c11,-85 55,-167 129,-223 74,-57 164,-78 249,-67l0 0c86,11 167,55 224,129 57,74 78,164 67,250l0 0c-12,86 -56,167 -130,224zm-121 44c40,-11 78,-29 113,-56 34,-26 62,-59 83,-94 21,-37 35,-78 41,-120l0 0c5,-42 3,-85 -9,-126 -10,-40 -29,-78 -55,-113 -27,-35 -59,-63 -95,-83 -37,-22 -78,-35 -119,-41l0 0 -1 0c-41,-5 -84,-3 -126,8 -40,11 -78,29 -113,56 -34,26 -62,59 -83,94 -21,37 -35,78 -40,119l0 0 0 0 0 1c-6,42 -3,85 8,126 10,40 29,79 55,113 27,35 59,63 95,83 37,22 77,35 119,41l0 0 0 0 1 0c41,6 84,3 126,-8z"/>
  </g>
 </g>
</svg>
