<?xml version="1.0" encoding="UTF-8"?>
<!DOCTYPE svg PUBLIC "-//W3C//DTD SVG 1.1//EN" "http://www.w3.org/Graphics/SVG/1.1/DTD/svg11.dtd">
<!-- Creator: CorelDRAW X7 -->
<svg xmlns="http://www.w3.org/2000/svg" xml:space="preserve" width="200px" height="200px" version="1.1" style="shape-rendering:geometricPrecision; text-rendering:geometricPrecision; image-rendering:optimizeQuality; fill-rule:evenodd; clip-rule:evenodd"
viewBox="0 0 145797 145797"
 xmlns:xlink="http://www.w3.org/1999/xlink">
 <defs>
  <style type="text/css">
   <![CDATA[
    .str3 {stroke:#1A1A1A;stroke-width:728.419}
    .str1 {stroke:#0096DC;stroke-width:656.093}
    .str0 {stroke:#009933;stroke-width:656.093}
    .str2 {stroke:#FF6600;stroke-width:656.093}
    .fil0 {fill:none}
    .fil6 {fill:#333333}
    .fil4 {fill:#4D4D4D}
    .fil7 {fill:white}
    .fil3 {fill:#0096DC;fill-rule:nonzero}
    .fil2 {fill:#33CC66;fill-rule:nonzero}
    .fil5 {fill:#4D4D4D;fill-rule:nonzero}
    .fil1 {fill:#FF6600;fill-rule:nonzero}
   ]]>
  </style>
 </defs>
 <g id="Layer_x0020_1">
  <metadata id="CorelCorpID_0Corel-Layer"/>
  <g id="_965794688">
   <rect class="fil0" width="145798" height="145798"/>
   <g>
    <line class="fil0 str0" x1="116527" y1="89409" x2="133726" y2= "113827" />
    <path class="fil1" d="M53407 48258c296,-421 593,-842 889,-1263 -333,-234 -665,-468 -998,-703 -297,421 -594,842 -890,1263 333,234 666,469 999,703zm-2325 4306c-297,421 -592,842 -888,1262 336,237 671,475 1008,711 27,-38 53,-76 81,-115 103,72 205,145 308,218 299,-424 597,-847 896,-1271 -351,-247 -700,-493 -1050,-739 -29,40 -59,81 -87,123 -89,-63 -179,-126 -268,-189zm8168 -5473c383,-545 767,-1090 1150,-1634 -332,-234 -665,-468 -999,-703 -383,544 -767,1088 -1150,1632 333,235 666,470 999,705zm-4588 3213c295,-421 592,-842 888,-1262 -333,-235 -665,-470 -999,-704 -296,421 -592,841 -888,1262 333,235 665,470 999,704zm-3631 5196c-333,-234 -665,-468 -998,-703 -29,42 -58,82 -86,124 -31,-22 -62,-43 -93,-65 -297,420 -594,841 -889,1262 345,244 692,488 1039,731 29,-40 58,-81 87,-123 17,12 35,25 52,36 296,-421 592,-841 888,-1262zm1847 -4828c-297,421 -594,842 -890,1262 332,234 666,469 999,703 26,-38 53,-75 81,-115 9,8 20,15 30,22 299,-423 597,-848 895,-1271 -336,-236 -672,-474 -1008,-710 -29,41 -58,82 -87,123 -7,-5 -14,-9 -20,-14zm-5979 6368c-297,421 -594,842 -890,1262 333,235 666,469 998,703 191,-270 382,-541 572,-812 303,213 604,426 906,638 295,-417 589,-835 884,-1253 -382,-268 -763,-537 -1144,-805 -188,268 -377,536 -565,804 -254,-179 -508,-358 -761,-537zm621 6660c299,-424 598,-848 896,-1271 -333,-235 -666,-470 -999,-704 -298,424 -597,848 -895,1271 333,234 666,469 998,704zm4970 -5482c297,-421 592,-842 889,-1263 -333,-234 -666,-468 -998,-703 -297,421 -593,842 -889,1263 332,235 666,468 998,703zm-11794 9114c-298,425 -597,847 -896,1271 334,234 667,469 999,704 87,-124 174,-248 262,-371 65,46 130,92 195,138 297,-421 593,-842 889,-1262 -7,-6 -14,-11 -21,-15 -333,-234 -665,-469 -998,-703 -86,120 -170,241 -254,361 -60,-41 -118,-81 -176,-123zm3617 1227c299,-423 597,-847 895,-1271 -333,-234 -665,-469 -998,-703 -298,423 -597,847 -896,1271 333,235 667,469 999,703zm-1759 -1371c296,-421 592,-842 889,-1263 -343,-242 -687,-483 -1029,-725 -297,421 -594,842 -890,1263 344,242 686,483 1030,725zm-1801 -2167c296,-420 593,-841 889,-1262 -333,-235 -665,-469 -999,-703 -296,420 -592,841 -889,1262 333,235 665,469 999,703zm5533 -3221c-370,-261 -741,-522 -1111,-783 -29,41 -58,82 -87,124 -4,-3 -7,-5 -10,-7 -297,420 -594,841 -890,1262 333,234 666,469 999,703 29,-41 58,-82 87,-124 40,30 83,58 123,87 297,-421 593,-841 889,-1262zm647 -720c295,-421 592,-842 889,-1263 -388,-274 -776,-546 -1164,-819 -296,421 -592,842 -889,1262 388,274 776,547 1164,820zm-3032 4085c297,-420 593,-841 889,-1262 -370,-261 -741,-522 -1112,-784 -296,421 -593,842 -889,1263 370,261 742,522 1112,783z"/>
    <line class="fil0 str1" x1="80176" y1="89409" x2="97375" y2= "113827" />
    <line class="fil0 str1" x1="66244" y1="89409" x2="49045" y2= "113827" />
    <line class="fil0 str2" x1="28630" y1="89409" x2="11431" y2= "113827" />
    <g>
     <path class="fil2" d="M98559 66091c296,421 593,842 889,1263 -333,234 -665,467 -999,702 -296,-420 -593,-841 -889,-1262 333,-235 665,-469 999,-703zm-2325 -4306c-297,-421 -593,-842 -889,-1263 336,-237 672,-474 1009,-711 26,39 53,77 81,116 103,-73 204,-145 308,-219 299,424 596,848 895,1272 -350,247 -699,493 -1049,739 -30,-40 -59,-82 -87,-123 -89,63 -179,125 -268,189zm8168 5473c383,544 767,1089 1150,1633 -333,235 -666,469 -999,703 -383,-544 -767,-1088 -1150,-1632 333,-235 665,-469 999,-704zm-4590 -3213c296,421 594,842 890,1262 -333,234 -666,469 -999,704 -296,-421 -592,-842 -889,-1263 334,-234 665,-469 998,-703zm-3629 -5197c-333,235 -665,469 -999,704 -28,-42 -57,-83 -86,-125 -31,23 -62,44 -93,66 -297,-420 -593,-842 -888,-1263 345,-243 692,-488 1039,-731 28,41 58,82 87,123 17,-11 34,-24 52,-36 296,421 591,841 888,1262zm1846 4829c-296,-421 -593,-842 -889,-1262 332,-235 665,-469 998,-703 26,37 54,75 81,114 10,-7 21,-15 31,-21 298,423 596,847 895,1271 -337,236 -672,474 -1008,710 -30,-41 -58,-83 -87,-123 -8,4 -15,9 -21,14zm-5979 -6368c-297,-421 -593,-842 -889,-1262 332,-235 665,-469 998,-704 191,271 382,541 571,812 304,-212 605,-426 907,-638 295,418 589,836 884,1254 -382,268 -763,536 -1144,805 -188,-268 -377,-536 -566,-804 -254,179 -508,357 -761,537zm622 -6660c299,424 597,847 895,1271 -332,235 -665,469 -998,704 -298,-424 -597,-848 -895,-1271 332,-235 666,-470 998,-704zm4970 5481c297,421 592,842 888,1263 -332,235 -665,469 -998,704 -297,-422 -592,-843 -888,-1264 332,-234 665,-468 998,-703zm-11795 -9114c-297,-424 -596,-847 -895,-1270 333,-235 666,-470 999,-704 87,123 174,247 262,371 64,-46 130,-92 195,-138 296,421 592,842 889,1262 -7,5 -14,10 -21,15 -333,234 -666,469 -999,703 -85,-120 -169,-241 -254,-362 -59,42 -117,82 -176,123zm3618 -1227c298,424 596,848 895,1271 -333,235 -665,470 -999,704 -298,-424 -596,-847 -895,-1272 333,-234 666,-468 999,-703zm-1759 1372c296,421 592,841 888,1262 -343,242 -686,484 -1029,725 -297,-421 -593,-842 -889,-1262 343,-242 686,-484 1030,-725zm-1802 2167c297,420 594,841 890,1262 -333,235 -666,469 -999,702 -296,-420 -592,-841 -889,-1262 333,-234 665,-468 998,-702zm5534 3221c-370,260 -741,522 -1112,783 -28,-42 -57,-83 -86,-124 -4,3 -7,5 -11,7 -296,-420 -593,-841 -889,-1262 333,-234 665,-469 999,-704 29,42 57,83 87,124 40,-29 82,-57 123,-87 297,421 593,842 889,1263zm647 720c295,420 592,841 888,1263 -387,273 -776,545 -1163,819 -296,-421 -592,-842 -889,-1262 388,-274 775,-547 1164,-820zm-3032 -4085c296,420 592,841 889,1262 -371,261 -742,522 -1112,784 -296,-422 -593,-843 -889,-1264 370,-260 741,-521 1112,-782z"/>
    </g>
    <line class="fil0" x1="85724" y1="45202" x2="103452" y2= "70371" />
    <path class="fil3" d="M72999 65190c0,307 0,612 0,919 408,0 815,0 1221,0 0,-307 0,-612 0,-919 -406,0 -813,0 -1221,0zm529 -5151l-1240 0 0 -48 -44 0c0,308 0,617 0,925 428,0 855,0 1284,0 0,-183 0,-552 0,-877zm-3199 6249c0,396 0,792 0,1189 409,0 816,0 1222,0 0,-397 0,-793 0,-1189 -406,0 -813,0 -1222,0zm1902 -3136c0,306 0,613 0,919 408,0 814,0 1222,0 0,-306 0,-613 0,-919 -408,0 -814,0 -1222,0zm560 -3929c407,0 814,0 1222,0 0,-265 0,-608 0,-919 -435,0 -829,0 -1222,0 0,307 0,613 0,919zm687 3139c0,-307 0,-613 0,-920 -407,0 -814,0 -1222,0 0,28 0,57 0,84 -12,0 -25,0 -38,0 0,309 0,617 0,926 412,0 824,0 1235,0 0,-31 0,-60 0,-90 8,0 17,0 25,0zm1221 -5148c0,-305 0,-613 0,-918 -406,0 -814,0 -1221,0 0,197 0,393 0,590 -369,0 -739,0 -1108,0 0,305 0,609 0,914 465,0 932,0 1397,0 0,-196 0,-391 0,-586 310,0 621,0 932,0zm-4344 -3025c0,307 0,616 0,924 408,0 814,0 1222,0 0,-308 0,-617 0,-924 -408,0 -814,0 -1222,0zm3856 8716c0,306 0,613 0,919 407,0 814,0 1222,0 0,-306 0,-613 0,-919 -408,0 -815,0 -1222,0zm-582 -13478c-532,0 -808,0 -1246,0 0,305 0,613 0,918 8,0 15,0 25,0 406,0 814,0 1221,0 0,-313 0,-554 0,-918zm-3450 1298c0,308 0,616 0,925 407,0 814,0 1222,0 0,-309 0,-617 0,-925 -408,0 -815,0 -1222,0zm2229 65c0,305 0,612 0,917 419,0 839,0 1259,0 0,-305 0,-612 0,-917 -420,0 -840,0 -1259,0zm1955 2173c0,305 0,613 0,918 408,0 814,0 1221,0 0,-305 0,-613 0,-918 -407,0 -813,0 -1221,0zm-1905 1726c454,0 907,0 1359,0 0,-30 0,-59 0,-89 6,0 9,0 13,0 0,-308 0,-614 0,-919 -407,0 -813,0 -1221,0 0,29 0,59 0,89 -50,0 -100,0 -151,0 0,307 0,613 0,919zm-114 573c0,305 0,612 0,918 475,0 950,0 1423,0 0,-306 0,-613 0,-918 -473,0 -948,0 -1423,0zm127 -3028c0,307 0,613 0,919 453,0 906,0 1359,0 0,-306 0,-612 0,-919 -453,0 -906,0 -1359,0z"/>
    <path class="fil4" d="M82877 18701l-7592 -7591c-1311,-1312 -3457,-1312 -4768,0l-7576 7576c-437,438 -437,1152 0,1589l2298 2298 1530 1416c454,420 1148,420 1602,0l3059 -2831c841,-778 2133,-778 2974,1l3060 2830c453,420 1148,420 1600,0l1530 -1416 2283 -2282c438,-438 438,-1151 0,-1590z"/>
    <path class="fil4" d="M58620 27775l11897 11896c1311,1312 3457,1312 4768,0l11897 -11896c2062,-2063 610,-2674 -903,-4107l-1867 -1768c-448,-425 -1148,-420 -1601,0l-3059 2831c-842,777 -2134,777 -2974,0l-3060 -2831c-454,-420 -1148,-420 -1601,0l-3060 2831c-841,777 -2133,777 -2974,0l-3059 -2831c-454,-420 -1148,-419 -1602,0l-1714 1585c-1581,1464 -3243,2135 -1088,4290z"/>
    <path class="fil5" d="M72899 1625c6561,0 12504,2660 16804,6960 9230,9230 9230,24381 0,33611 -4300,4300 -10243,6960 -16804,6960 -6562,0 -12506,-2660 -16806,-6960 -4300,-4301 -6961,-10245 -6961,-16806 0,-6561 2661,-12504 6961,-16805 4300,-4300 10244,-6960 16806,-6960zm15544 8222c-3978,-3978 -9474,-6439 -15544,-6439 -6070,0 -11567,2461 -15545,6439 -3978,3977 -6439,9473 -6439,15543 0,6070 2461,11566 6439,15544 3978,3978 9475,6439 15545,6439 6070,0 11566,-2461 15544,-6439 3977,-3978 6438,-9474 6438,-15544 0,-6070 -2461,-11566 -6438,-15543z"/>
    <path class="fil4" d="M41575 78890l0 7204c-995,498 -1964,871 -2906,1123 -945,254 -1859,380 -2745,380 -2257,0 -4126,-743 -5615,-2233 -1490,-1489 -2233,-3369 -2233,-5636 0,-2292 753,-4186 2264,-5682 1510,-1500 3418,-2250 5730,-2250 873,0 1703,119 2495,359 788,237 1548,600 2277,1081l-380 3709c-687,-694 -1370,-1204 -2050,-1525 -685,-324 -1400,-485 -2149,-485 -1329,0 -2429,443 -3300,1333 -872,889 -1308,2002 -1308,3335 0,1405 422,2549 1262,3438 841,890 1926,1333 3252,1333 306,0 617,-28 930,-81 315,-56 639,-132 981,-236l0 -2153 -2804 0 0 -3014 6299 0z"/>
    <path class="fil5" d="M35482 67477c3373,0 6430,1368 8641,3578 2210,2211 3579,5268 3579,8641 0,3375 -1369,6430 -3579,8641 -2211,2211 -5268,3579 -8641,3579 -3375,0 -6430,-1368 -8641,-3579 -2210,-2211 -3579,-5266 -3579,-8641 0,-3373 1369,-6430 3579,-8641 2211,-2210 5266,-3578 8641,-3578zm8060 4159c-2063,-2063 -4913,-3339 -8060,-3339 -3147,0 -5997,1276 -8060,3339 -2063,2063 -3339,4913 -3339,8060 0,3147 1276,5997 3339,8060 2063,2062 4913,3339 8060,3339 3147,0 5997,-1277 8060,-3339 2063,-2063 3339,-4913 3339,-8060 0,-3147 -1276,-5997 -3339,-8060z"/>
    <path class="fil4" d="M116408 78890l0 7204c-994,498 -1964,871 -2906,1123 -945,254 -1859,380 -2744,380 -2258,0 -4127,-743 -5617,-2233 -1489,-1489 -2232,-3369 -2232,-5636 0,-2292 754,-4186 2264,-5682 1510,-1500 3418,-2250 5730,-2250 872,0 1703,119 2494,359 789,237 1549,600 2279,1081l-381 3709c-687,-694 -1371,-1204 -2051,-1525 -684,-324 -1399,-485 -2148,-485 -1330,0 -2428,443 -3300,1333 -873,889 -1308,2002 -1308,3335 0,1405 422,2549 1262,3438 841,890 1926,1333 3251,1333 307,0 618,-28 932,-81 313,-56 638,-132 980,-236l0 -2153 -2805 0 0 -3014 6300 0z"/>
    <path class="fil5" d="M110315 67477c3373,0 6430,1368 8640,3578 2211,2211 3579,5268 3579,8641 0,3375 -1368,6430 -3579,8641 -2210,2211 -5267,3579 -8640,3579 -3375,0 -6430,-1368 -8641,-3579 -2210,-2211 -3579,-5266 -3579,-8641 0,-3373 1369,-6430 3579,-8641 2211,-2210 5266,-3578 8641,-3578zm8060 4159c-2063,-2063 -4913,-3339 -8060,-3339 -3147,0 -5998,1276 -8060,3339 -2063,2063 -3339,4913 -3339,8060 0,3147 1276,5997 3339,8060 2062,2062 4913,3339 8060,3339 3147,0 5997,-1277 8060,-3339 2063,-2063 3339,-4913 3339,-8060 0,-3147 -1276,-5997 -3339,-8060z"/>
    <path class="fil4" d="M78992 78890l0 7204c-994,498 -1964,871 -2906,1123 -945,254 -1859,380 -2745,380 -2256,0 -4127,-743 -5615,-2233 -1490,-1489 -2233,-3369 -2233,-5636 0,-2292 753,-4186 2264,-5682 1510,-1500 3418,-2250 5731,-2250 872,0 1702,119 2493,359 789,237 1549,600 2278,1081l-380 3709c-687,-694 -1371,-1204 -2051,-1525 -684,-324 -1398,-485 -2148,-485 -1330,0 -2428,443 -3301,1333 -871,889 -1308,2002 -1308,3335 0,1405 422,2549 1264,3438 840,890 1925,1333 3250,1333 307,0 617,-28 932,-81 314,-56 638,-132 980,-236l0 -2153 -2805 0 0 -3014 6300 0z"/>
    <path class="fil5" d="M72899 67477c3373,0 6430,1368 8641,3578 2210,2211 3578,5268 3578,8641 0,3375 -1368,6430 -3578,8641 -2211,2211 -5268,3579 -8641,3579 -3375,0 -6430,-1368 -8641,-3579 -2211,-2211 -3579,-5266 -3579,-8641 0,-3373 1368,-6430 3579,-8641 2211,-2210 5266,-3578 8641,-3578zm8060 4159c-2062,-2063 -4913,-3339 -8060,-3339 -3147,0 -5997,1276 -8060,3339 -2062,2063 -3339,4913 -3339,8060 0,3147 1277,5997 3339,8060 2063,2062 4913,3339 8060,3339 3147,0 5998,-1277 8060,-3339 2063,-2063 3339,-4913 3339,-8060 0,-3147 -1276,-5997 -3339,-8060z"/>
    <rect class="fil6 str3" x="1315" y="113827" width="30347" height="30347" rx="3067" ry="3067"/>
    <rect class="fil6 str3" x="38922" y="113827" width="30347" height="30347" rx="3067" ry="3067"/>
    <rect class="fil6 str3" x="76529" y="113827" width="30347" height="30347" rx="3067" ry="3067"/>
    <rect class="fil6 str3" x="114136" y="113827" width="30347" height="30347" rx="3067" ry="3067"/>
    <path class="fil7" d="M15454 140033l2337 0 26 -2529c2245,-610 3966,-1596 4333,-4175 419,-2951 -1447,-4087 -3446,-5040 -1420,-677 -5656,-1583 -4332,-3906 743,-1303 2962,-1338 4739,-415 1452,754 1249,1347 2134,-333 240,-456 505,-715 549,-1216 -994,-992 -2424,-1589 -3916,-1781l-87 -2669 -2337 0 -67 2728c-2226,406 -4115,1788 -4320,4190 -454,5359 7125,5047 7955,7381 550,1547 -1242,3022 -3829,2266 -3074,-900 -2146,-2600 -3681,-598 -222,289 -638,708 -745,1113 264,600 1265,1263 1937,1586 911,438 1628,694 2687,857l63 2541z"/>
    <path class="fil7" d="M45212 126499l0 1356 1979 0c-67,878 -38,1562 -15,2135l-1964 0 0 1395 2096 0c161,2081 1621,4461 3408,5593 1194,757 2076,1153 3493,1455 608,130 1242,192 1853,209l732 0c1326,-37 2845,-278 4035,-833 74,-35 145,-71 217,-106l-498 -2194c-31,-126 -70,-262 -106,-399 -139,56 -279,115 -392,155 -596,205 -1204,332 -1834,403 -1690,189 -3430,25 -4827,-956 -798,-562 -1211,-1103 -1583,-1964 -233,-538 -284,-808 -333,-1363l8079 0 0 -1395 -8359 0c-54,-712 -37,-1423 0,-2135l8359 0 0 -1356 -8253 0c78,-871 697,-1957 1446,-2639 197,-180 345,-342 561,-522 1533,-1279 3778,-1367 5686,-925 282,66 562,141 841,217 91,25 223,78 354,128 102,-434 266,-928 362,-1288l357 -1392 -592 -196c-1026,-321 -2143,-487 -3216,-524l-931 0c-1127,40 -2316,228 -3351,658 -542,226 -1129,493 -1610,818 -402,272 -1056,715 -1366,1060 -500,558 -926,973 -1334,1611 -635,993 -957,1880 -1235,2994l-2059 0z"/>
    <path class="fil7" d="M84343 118650c31,117 532,978 626,1141l2369 4279c245,491 548,953 797,1443l1184 2139c32,59 60,84 76,152l-3969 0 0 1861 4696 0 0 1842 -4696 0 0 1862 4696 0 0 5981 375 0 2431 0 354 0 0 -5981 4716 0 0 -1862 -4716 0 0 -1842 4716 0c0,-155 21,-1752 -3,-1819 -29,-79 -239,-42 -320,-42l-3666 0c21,-81 249,-470 305,-569 54,-92 107,-175 157,-279 134,-271 333,-595 482,-867l703 -1273c293,-526 602,-1053 880,-1589l467 -842c172,-341 383,-661 559,-1000l240 -443c212,-378 434,-747 633,-1133 89,-174 599,-1042 626,-1159l-3020 0c-93,178 -179,341 -272,527 -308,616 -643,1224 -949,1841l-2165 4216c-49,97 -83,169 -138,262l-332 656c-99,231 -427,731 -474,930l-2848 -5526c-22,-44 -38,-76 -65,-124l-1221 -2369c-27,-53 -42,-86 -69,-140 -38,-77 -109,-195 -127,-273l-3038 0z"/>
    <path class="fil7" d="M123336 139460c840,-651 2166,-772 3155,-577 555,111 1061,326 1606,459 1766,432 3888,486 5690,263 449,-55 2352,-346 3047,-573l-1129 -2894c-624,105 -1236,253 -1869,323 -1551,171 -3131,186 -4653,-204 -665,-170 -1228,-469 -1866,-679l-308 -101 108 -305c78,-223 282,-535 398,-749 217,-396 415,-801 572,-1224 351,-945 255,-1523 315,-2494l18 -298 3622 0 5 -1373 -6 0 0 -998 4 2 2 -312 -4155 1 -92 -154c-389,-643 -578,-1738 -581,-2479 -3,-906 231,-1882 1003,-2440 1467,-1059 3576,-380 4103,1336l3850 -570c-188,-1394 -789,-2695 -1838,-3660 -1718,-1581 -4080,-1791 -6253,-1167 -1698,487 -3119,1432 -3933,3028 -639,1257 -908,2924 -613,4311 108,504 325,938 471,1424l123 408 -2347 1 0 2642 1 0 0 7 3070 8 20 296c91,1390 -204,2602 -932,3785 -416,674 -1286,1771 -2050,2249 58,122 126,248 173,340 178,353 362,703 548,1053 187,348 376,697 570,1042 43,75 96,175 151,273z"/>
   </g>
  </g>
 </g>
</svg>
