<svg xmlns="http://www.w3.org/2000/svg" width="200" height="200" viewBox="0 0 55276 55278" shape-rendering="geometricPrecision" text-rendering="geometricPrecision" image-rendering="optimizeQuality" fill-rule="evenodd" clip-rule="evenodd"><defs><style><![CDATA[
    .str1 {stroke:#333333;stroke-width:275.776}
    .str2 {stroke:#333333;stroke-width:575.022}
    .str0 {stroke:#333333;stroke-width:248.394}
    .str7 {stroke:#333333;stroke-width:190.696}
    .str5 {stroke:#333333;stroke-width:190.696}
    .str3 {stroke:#333333;stroke-width:190.696}
    .str6 {stroke:#333333;stroke-width:190.696}
    .str4 {stroke:#333333;stroke-width:190.696}
    .fil0 {fill:none}
    .fil3 {fill:#0096DC}
    .fil5 {fill:#009933}
    .fil12 {fill:#333333}
    .fil2 {fill:fuchsia}
    .fil4 {fill:#FF6600}
    .fil14 {fill:yellow}
    .fil6 {fill:yellow}
    .fil7 {fill:white}
    .fil1 {fill:#333333;fill-rule:nonzero}
    .fil10 {fill:#33CC66;fill-rule:nonzero}
    .fil8 {fill:#99FFFF;fill-rule:nonzero}
    .fil13 {fill:#FF8838;fill-rule:nonzero}
    .fil9 {fill:#FF99CC;fill-rule:nonzero}
    .fil11 {fill:yellow;fill-rule:nonzero}
   ]]></style></defs><g id="Layer_x0020_1"><path class="fil0" d="M0 0h55276v55276H0z"/><path class="fil1" d="M33159 29364h5834v318h-5834zM39169 37186h9697v319h-9697zM6577 37186h9696v319H6577zM9928 2316v8358c0 488-200 931-521 1253-322 321-766 521-1253 521H6538c-771 1275-1017 2102-1103 2488-32 144-38 209-39 355l-11 22054h-319l-10-22057c0-143-7-207-38-349-84-384-329-1212-1101-2491H2301c-488 0-932-200-1253-521-321-322-521-765-521-1253V2316h319v8358c0 400 164 764 427 1028 264 263 628 427 1028 427h1794l47 77c630 1030 934 1791 1084 2280 151-489 456-1250 1087-2280l47-77h1794c400 0 763-164 1027-427 264-264 428-628 428-1028V2316h319z"/><rect class="fil2 str0" x="2260" y="285" width="5934" height="8076" rx="1055" ry="1055"/><path class="fil1" d="M21133 8597v8358c0 487-200 931-521 1253-322 321-765 521-1253 521h-1616c-770 1275-1017 2102-1103 2487-32 145-38 210-39 355l-10 7799h-319l-11-7801c0-143-7-208-37-349-85-384-329-1213-1102-2491h-1616c-487 0-931-200-1253-521-321-322-521-766-521-1253V8597h319v8358c0 400 164 763 427 1027 264 264 628 428 1028 428h1794l47 76c630 1031 935 1792 1085 2280 150-488 456-1249 1086-2280l47-76h1794c400 0 764-164 1028-428 263-264 427-627 427-1027V8597h319z"/><rect class="fil3 str0" x="13466" y="6566" width="5934" height="8076" rx="1055" ry="1055"/><path class="fil1" d="M32338 2316v8358c0 488-199 931-521 1253-321 321-765 521-1253 521h-1616c-770 1275-1017 2102-1102 2488-32 144-39 209-39 355l-11 30229h-319l-10-30232c-1-143-7-207-38-349-84-384-329-1212-1102-2491h-1616c-487 0-931-200-1252-521-322-322-522-765-522-1253V2316h319v8358c0 400 164 764 428 1028 264 263 628 427 1027 427h1795l46 77c631 1030 935 1791 1085 2280 151-489 456-1250 1086-2280l48-77h1793c400 0 764-164 1028-427 264-264 428-628 428-1028V2316h318z"/><rect class="fil4 str0" x="24671" y="285" width="5934" height="8076" rx="1055" ry="1055"/><path class="fil1" d="M43544 8597v8358c0 487-200 931-521 1253-322 321-766 521-1253 521h-1616c-771 1275-1017 2102-1103 2487-32 145-39 210-39 355l-11 7799h-319l-10-7801c0-143-7-208-38-349-84-384-329-1213-1101-2491h-1616c-488 0-932-200-1253-521-321-322-521-766-521-1253V8597h319v8358c0 400 164 763 427 1027 264 264 628 428 1028 428h1794l47 76c630 1031 934 1792 1084 2280 151-488 456-1249 1087-2280l47-76h1794c400 0 763-164 1027-428s428-627 428-1027V8597h319z"/><rect class="fil5 str0" x="35876" y="6566" width="5934" height="8076" rx="1055" ry="1055"/><path class="fil1" d="M54749 2316v8358c0 488-200 931-521 1253-321 321-765 521-1253 521h-1616c-770 1275-1017 2102-1103 2488-32 144-38 209-39 355l-10 21955h-319l-10-21958c-1-143-8-207-38-349-85-384-329-1212-1102-2491h-1616c-488 0-932-200-1253-521-321-322-521-765-521-1253V2316h319v8358c0 400 164 764 428 1028 263 263 627 427 1027 427h1794l47 77c630 1030 934 1791 1085 2280 151-489 456-1250 1086-2280l47-77h1794c400 0 764-164 1027-427 264-264 428-628 428-1028V2316h319z"/><rect class="fil6 str0" x="47082" y="285" width="5934" height="8076" rx="1055" ry="1055"/><path class="fil1" d="M16273 29364h5835v318h-5835z"/><circle class="fil7 str1" cx="16433" cy="29501" r="1396"/><path class="fil8" d="M16416 26001c964 0 1841 392 2474 1025h1c633 634 1025 1510 1025 2475s-392 1841-1025 2474h-1v1c-633 633-1510 1025-2474 1025-965 0-1841-392-2475-1025v-1h-1c-633-633-1025-1509-1025-2474s392-1841 1025-2475h1c634-633 1510-1025 2475-1025zm2249 1249c-574-575-1370-931-2249-931s-1676 356-2250 931l-1 1c-575 575-931 1371-931 2250s356 1675 931 2249l1 1c574 575 1371 931 2250 931s1675-356 2249-931l1-1c575-574 931-1370 931-2249s-356-1675-931-2250l-1-1z"/><circle class="fil7 str1" cx="5227" cy="37345" r="1396"/><path class="fil9" d="M5227 33845c965 0 1841 392 2475 1025v1c633 633 1026 1509 1026 2474s-393 1841-1026 2475c-634 633-1510 1025-2475 1025s-1841-392-2474-1025h-1c-633-634-1025-1510-1025-2475s392-1841 1025-2474l1-1c633-633 1509-1025 2474-1025zm2250 1250c-574-575-1371-931-2250-931s-1675 356-2250 931h-1c-574 575-931 1371-931 2250s357 1675 931 2250l1 1c575 575 1371 931 2250 931s1676-356 2250-931l1-1c575-575 931-1371 931-2250s-356-1675-931-2250h-1z"/><circle class="fil7 str1" cx="38843" cy="29501" r="1396"/><path class="fil10" d="M38843 26001c965 0 1841 392 2474 1025h1c633 634 1026 1510 1026 2475s-393 1841-1026 2474l-1 1c-633 633-1509 1025-2474 1025s-1841-392-2474-1025l-1-1c-633-633-1025-1509-1025-2474s392-1841 1025-2475h1c633-633 1509-1025 2474-1025zm2250 1249c-575-575-1371-931-2250-931s-1675 356-2250 931v1c-575 575-932 1371-932 2250s357 1675 932 2249v1c575 575 1371 931 2250 931s1675-356 2250-931l1-1c575-574 931-1370 931-2249s-356-1675-931-2250l-1-1z"/><circle class="fil7 str1" cx="50049" cy="37345" r="1396"/><path class="fil11" d="M50048 33845c966 0 1842 392 2475 1025l1 1c633 633 1025 1509 1025 2474s-392 1841-1025 2475h-1c-633 633-1509 1025-2475 1025-964 0-1840-392-2474-1025h-1c-632-634-1025-1510-1025-2475s393-1841 1025-2474l1-1c634-633 1510-1025 2474-1025zm2250 1250c-574-575-1370-931-2250-931-878 0-1675 356-2249 931h-1c-575 575-931 1371-931 2250s356 1675 931 2250l1 1c574 575 1371 931 2249 931 880 0 1676-356 2250-931l1-1c575-575 931-1371 931-2250s-356-1675-931-2250h-1z"/><rect class="fil12 str2" x="5225" y="45520" width="44826" height="9471" rx="2552" ry="2552"/><path class="fil13" d="M27638 42020c965 0 1841 392 2474 1025h1c633 634 1025 1510 1025 2475s-392 1841-1025 2474v1h-1c-633 633-1509 1025-2474 1025s-1841-392-2475-1025v-1c-633-633-1025-1509-1025-2474s392-1841 1025-2475c634-633 1510-1025 2475-1025zm2250 1249c-575-575-1371-931-2250-931s-1675 356-2250 931l-1 1c-575 575-931 1371-931 2250s356 1675 931 2250h1c575 576 1371 931 2250 931s1675-355 2250-931c575-575 931-1371 931-2250s-356-1675-931-2250v-1z"/><rect class="fil14 str0" x="47082" y="285" width="5934" height="8076" rx="1055" ry="1055"/><path class="fil1" d="M16273 45643v-8457h319v8457zM38684 45643v-8457h319v8457zM33081 45643V30096h319v15547zM21876 45643V30096h318v15547z"/><circle class="fil7 str3" cx="16432" cy="37345" r="835"/><circle class="fil7 str4" cx="22035" cy="29501" r="835"/><circle class="fil7 str5" cx="27638" cy="45520" r="835"/><circle class="fil7 str6" cx="33240" cy="29501" r="835"/><circle class="fil7 str7" cx="38843" cy="37345" r="835"/><path class="fil2" d="M6801 46746h1869v3032H6801z"/><path class="fil5" d="M39925 47931h1869v3032h-1869z"/><path class="fil2" d="M39925 45874h1869v1516h-1869z"/><path class="fil3" d="M39925 51503h1869v3032h-1869z"/><path class="fil14" d="M6801 50672h1869v3032H6801zM9210 46767h1869v1516H9210z"/><path class="fil3" d="M9210 49130h1869v3032H9210z"/><path class="fil4" d="M11620 48937h1869v1516h-1869z"/><path class="fil2" d="M11620 46601h1869v1516h-1869z"/><path class="fil3" d="M11620 51274h1869v3032h-1869z"/><path class="fil4" d="M9190 53135h1869v1516H9190z"/><path class="fil2" d="M37638 46746h1869v3032h-1869z"/><path class="fil14" d="M37638 50672h1869v3032h-1869zM35229 46767h1869v1516h-1869z"/><path class="fil3" d="M35229 48964h1869v3032h-1869z"/><path class="fil4" d="M32819 48937h1869v1516h-1869z"/><path class="fil2" d="M32819 46601h1869v1516h-1869z"/><path class="fil3" d="M32819 51274h1869v3032h-1869z"/><path class="fil5" d="M35249 52676h1869v1516h-1869zM13987 46746h1869v3385h-1869z"/><path class="fil14" d="M13987 50884h1869v1516h-1869zM16396 46767h1869v1516h-1869z"/><path class="fil3" d="M16396 48964h1869v3032h-1869z"/><path class="fil4" d="M18806 48937h1869v1516h-1869z"/><path class="fil2" d="M18806 46601h1869v1516h-1869z"/><path class="fil3" d="M18806 51274h1869v3032h-1869z"/><path class="fil4" d="M16376 52676h1869v1516h-1869z"/><path class="fil2" d="M13987 53153h1869v1516h-1869zM28263 49551h1869v3032h-1869z"/><path class="fil14" d="M25977 50672h1869v3032h-1869z"/><path class="fil3" d="M23567 48964h1869v3032h-1869z"/><path class="fil5" d="M21157 48937h1869v1516h-1869z"/><path class="fil14" d="M21157 51274h1869v3032h-1869z"/><path class="fil5" d="M23587 52676h1869v1516h-1869zM30600 49883h1869v1516h-1869z"/><path class="fil14" d="M30600 51815h1869v1516h-1869z"/><path class="fil3" d="M28263 53050h1869v1516h-1869z"/><path class="fil14" d="M42259 46767h1869v1516h-1869zM42259 49130h1869v3032h-1869z"/><path class="fil4" d="M44668 48937h1869v1516h-1869z"/><path class="fil2" d="M44668 46601h1869v1516h-1869z"/><path class="fil3" d="M44668 51274h1869v3032h-1869z"/><path class="fil4" d="M42238 53135h1869v1516h-1869z"/><path class="fil14" d="M46968 49015h1869v4116h-1869z"/><path class="fil3" d="M46968 46746h1869v1516h-1869z"/><path class="fil12" d="M3603 285h3536c580 0 1055 475 1055 1055v5967c0 580-475 1055-1055 1055H3315l-59-2 3446-3446c661-662 195-858-290-1317l-599-567c-143-137-367-135-513 0l-981 907c-270 250-684 250-954 0l-981-907c-37-35-79-60-124-77v-336c125 24 244 83 344 175l981 908c146 134 368 134 514 0l490-454 733-732c140-141 140-370 0-510L3603 285zM14808 6566h3537c580 0 1054 474 1054 1055v5966c0 581-474 1055-1054 1055h-3824l-60-1 3446-3447c662-661 196-857-289-1317l-599-567c-144-136-368-134-514 0l-981 908c-269 250-684 250-953 0l-982-908c-37-34-79-59-123-76v-336c124 24 244 82 343 175l982 907c145 135 368 135 513 0l491-454 732-732c140-140 140-369 0-509l-1719-1719zM26014 285h3536c580 0 1055 475 1055 1055v5967c0 580-475 1055-1055 1055h-3824l-60-2 3447-3446c661-662 195-858-290-1317l-599-567c-143-137-367-135-513 0l-981 907c-270 250-684 250-954 0l-981-907c-37-35-79-60-124-77v-336c125 24 244 83 344 175l981 908c146 134 368 134 514 0l490-454 732-732c141-141 141-370 0-510L26014 285zM37219 6566h3536c580 0 1055 474 1055 1055v5966c0 581-475 1055-1055 1055h-3824l-60-1 3447-3447c661-661 195-857-290-1317l-599-567c-143-136-367-134-513 0l-981 908c-270 250-684 250-954 0l-981-908c-37-34-79-59-124-76v-336c125 24 244 82 344 175l981 907c146 135 368 135 514 0l490-454 733-732c140-140 140-369 0-509l-1719-1719zM48424 285h3537c580 0 1054 475 1054 1055v5967c0 580-474 1055-1054 1055h-3824l-60-2 3446-3446c662-662 196-858-289-1317l-599-567c-144-137-368-135-514 0l-981 907c-269 250-684 250-953 0l-982-907c-37-35-79-60-123-77v-336c124 24 244 83 343 175l982 908c145 134 368 134 513 0l491-454 732-732c140-141 140-370 0-510L48424 285z"/></g></svg>