<?xml version="1.0" encoding="UTF-8"?>
<!DOCTYPE svg PUBLIC "-//W3C//DTD SVG 1.1//EN" "http://www.w3.org/Graphics/SVG/1.1/DTD/svg11.dtd">
<!-- Creator: CorelDRAW X7 -->
<svg xmlns="http://www.w3.org/2000/svg" xml:space="preserve" width="200px" height="200px" version="1.1" style="shape-rendering:geometricPrecision; text-rendering:geometricPrecision; image-rendering:optimizeQuality; fill-rule:evenodd; clip-rule:evenodd"
viewBox="0 0 3659 3659"
 xmlns:xlink="http://www.w3.org/1999/xlink">
 <defs>
  <style type="text/css">
   <![CDATA[
    .str1 {stroke:#4D4D4D;stroke-width:16.4646}
    .str0 {stroke:#E6E6E6;stroke-width:16.4646}
    .fil0 {fill:none}
    .fil3 {fill:#4D4D4D}
    .fil2 {fill:#E6E6E6}
    .fil4 {fill:#FF6600}
    .fil5 {fill:#4D4D4D;fill-rule:nonzero}
    .fil1 {fill:#E6E6E6;fill-rule:nonzero}
   ]]>
  </style>
 </defs>
 <g id="Layer_x0020_1">
  <metadata id="CorelCorpID_0Corel-Layer"/>
  <rect class="fil0" width="3659" height="3659"/>
  <g id="_964835360">
   <path class="fil1" d="M3516 1538c-16,13 -37,18 -57,15l0 0c-19,-2 -38,-12 -51,-29 -13,-17 -18,-38 -15,-57l0 0c3,-20 13,-38 30,-51 16,-13 37,-18 57,-16l0 0c19,3 38,13 51,30 13,17 18,37 15,57l0 0c-3,20 -13,38 -30,51zm-55 3c16,3 34,-2 48,-12 14,-11 23,-27 25,-44l0 0c2,-16 -2,-33 -13,-48 -11,-14 -26,-22 -43,-25l0 0c-16,-2 -34,2 -48,13 -14,11 -23,27 -25,43l0 0c-2,17 2,34 13,48 11,15 27,23 43,25l0 0z"/>
   <line class="fil0 str0" x1="3224" y1="1893" x2="3437" y2= "1533" />
   <line class="fil0 str0" x1="3436" y1="1412" x2="3223" y2= "1051" />
   <circle class="fil2" cx="3470" cy="1477" r="57"/>
  </g>
  <g id="_964835456">
   <path class="fil1" d="M129 1538c17,13 37,18 57,15l0 0c20,-2 38,-12 51,-29 13,-17 18,-38 15,-57l0 0c-2,-20 -12,-38 -29,-51 -17,-13 -38,-18 -57,-16l0 0c-20,3 -38,13 -51,30 -13,17 -18,37 -16,57l0 0c3,20 13,38 30,51zm55 3c-16,3 -33,-2 -48,-12 -14,-11 -23,-27 -25,-44l0 0c-2,-16 2,-33 13,-48 11,-14 27,-22 43,-25l0 0c17,-2 34,2 48,13 15,11 23,27 25,43l0 0c3,17 -2,34 -13,48 -10,15 -26,23 -43,25l0 0z"/>
   <line class="fil0 str0" x1="422" y1="1893" x2="208" y2= "1533" />
   <line class="fil0 str0" x1="209" y1="1412" x2="422" y2= "1051" />
   <circle class="fil2" cx="176" cy="1477" r="57"/>
  </g>
  <path class="fil3" d="M2208 2978l0 214 -71 0 0 -214 -59 0 0 -60 189 0 0 60 -59 0zm232 167l-99 0 -19 47 -75 0 105 -274 78 0 104 274 -76 0 -18 -47zm-19 -55l-30 -88 0 0 -30 88 60 0zm277 -10l87 112 -89 0 -68 -105 0 0 0 105 -72 0 0 -274 107 0c27,0 50,7 68,20 18,14 27,35 27,64 0,19 -5,36 -15,51 -10,15 -25,24 -45,27l0 0zm-70 -108l0 69 6 0c2,0 3,0 4,0 1,0 2,0 3,0 11,0 21,-3 30,-7 9,-5 13,-14 13,-27 0,-14 -4,-23 -13,-27 -9,-5 -19,-7 -30,-8 -1,0 -2,0 -3,0 -1,0 -2,0 -4,0l-6 0zm285 6l0 214 -71 0 0 -214 -59 0 0 -60 189 0 0 60 -59 0zm242 0l-85 0 0 46 80 0 0 60 -80 0 0 48 85 0 0 60 -157 0 0 -274 157 0 0 60zm186 102l86 112 -89 0 -67 -105 -1 0 0 105 -71 0 0 -274 107 0c27,0 49,7 68,20 18,14 27,35 27,64 0,19 -5,36 -15,51 -11,15 -26,24 -45,27l0 0zm-71 -108l0 69 7 0c1,0 2,0 4,0 1,0 2,0 3,0 11,0 20,-3 29,-7 9,-5 14,-14 14,-27 0,-14 -5,-23 -14,-27 -9,-5 -18,-7 -29,-8 -1,0 -2,0 -3,0 -2,0 -3,0 -4,0l-7 0z"/>
  <path class="fil4" d="M2034 2998l-29 0 -24 0c-16,-16 -37,-25 -60,-25 -34,0 -63,20 -76,50l91 0 61 0 67 0 0 0c2,13 3,18 3,32 0,80 -65,146 -146,146 -59,0 -111,-36 -134,-89l21 0 29 0 25 0c15,16 36,25 59,25 34,0 64,-20 76,-50l-104 0 -48 0 -67 0 0 0 -2 -18c0,-4 -1,-9 -1,-14 0,-81 66,-146 146,-146 59,0 112,36 134,89l-21 0z"/>
  <path class="fil3" d="M669 3080l87 112 -89 0 -68 -105 0 0 0 105 -72 0 0 -274 107 0c27,0 50,7 68,20 18,14 27,35 27,64 0,19 -5,36 -15,51 -10,15 -25,24 -45,27l0 0zm-70 -108l0 69 7 0c1,0 2,0 3,0 1,0 3,0 3,0 11,0 21,-3 30,-7 9,-5 13,-14 13,-27 0,-14 -4,-23 -13,-27 -9,-5 -19,-7 -30,-8 0,0 -2,0 -3,0 -1,0 -2,0 -3,0l-7 0zm314 -64c40,1 75,14 106,40 31,27 46,61 46,102 0,45 -14,81 -43,109 -28,28 -65,42 -109,42 -44,0 -80,-14 -109,-42 -28,-28 -43,-64 -43,-109 0,-41 16,-75 46,-102 31,-26 67,-39 106,-39l0 -1zm0 70c-21,0 -39,7 -55,22 -15,15 -22,32 -22,51 0,23 7,43 22,58 16,16 34,24 55,24 22,0 40,-8 55,-24 15,-15 23,-35 23,-59 0,-19 -8,-36 -23,-50 -15,-15 -33,-22 -55,-22zm231 -60l48 177 0 0 58 -177 57 0 54 177 0 0 52 -177 75 0 -88 274 -73 0 -48 -159 -1 0 -54 159 -72 0 -82 -274 74 0zm361 274l0 -274 102 0c38,0 71,13 98,40 28,26 41,59 41,97 0,39 -13,71 -41,98 -27,26 -60,39 -98,39l-102 0zm72 -214l0 154 16 0c21,0 40,-6 56,-18 15,-13 23,-32 23,-59 0,-24 -7,-43 -22,-57 -14,-13 -33,-20 -56,-20l-17 0z"/>
  <path class="fil4" d="M274 3158c-27,-27 -43,-64 -43,-103 0,-39 16,-76 43,-103 28,-28 65,-43 103,-43 39,0 76,15 103,43l14 14 -45 45 -14 -14c-15,-15 -36,-24 -58,-24 -21,0 -42,9 -58,24 -15,16 -24,36 -24,58 0,22 9,42 24,58 16,15 37,24 58,24 22,0 43,-9 58,-24l14 -14 45 45 -14 14c-27,27 -64,43 -103,43 -39,0 -75,-16 -103,-43z"/>
  <path class="fil3" d="M2120 495c482,128 837,568 837,1090 0,622 -505,1127 -1128,1127 -622,0 -1127,-505 -1127,-1127 0,-523 355,-962 838,-1090l19 227c-367,115 -634,458 -634,863 0,499 405,904 904,904 500,0 904,-405 904,-904 0,-405 -265,-747 -632,-863l19 -227z"/>
  <path class="fil3" d="M2091 838c238,84 424,278 497,521l-241 0c-54,-125 -153,-226 -275,-285l19 -236zm-503 236c-159,75 -277,221 -312,398l146 0 961 0 229 0c6,37 8,74 8,113 0,437 -354,791 -791,791 -358,0 -661,-238 -758,-565l240 0c88,199 287,339 518,339 274,0 502,-194 554,-452l-162 0 -945 0 -230 0c-5,-37 -8,-75 -8,-113 0,-346 222,-639 530,-747l20 236z"/>
  <line class="fil0" x1="1652" y1="475" x2="1725" y2= "1359" />
  <line class="fil0" x1="2008" y1="475" x2="1935" y2= "1359" />
  <path class="fil4" d="M2008 471c-58,-9 -118,-14 -179,-14 -60,0 -120,5 -178,14l74 888 210 0 73 -888z"/>
  <g id="_964856896">
   <g>
    <path class="fil5" d="M391 352c18,-11 39,-14 58,-9l0 0c19,5 37,18 47,36 11,18 13,39 8,58l0 0c-5,20 -17,37 -35,48 -18,10 -39,13 -59,8l0 0c-19,-5 -36,-17 -47,-36 -11,-18 -13,-39 -8,-58l0 0c5,-19 17,-37 36,-47zm55 3c-16,-4 -34,-2 -49,7 -16,9 -26,24 -30,40l0 0c-4,16 -2,34 7,49 9,16 23,26 39,30l0 0c16,4 34,2 50,-7 15,-9 26,-23 30,-40l0 0c4,-16 2,-33 -7,-49 -9,-15 -24,-26 -40,-30l0 0z"/>
    <line class="fil0 str1" x1="981" y1="893" x2="477" y2= "468" />
    <line class="fil0 str1" x1="430" y1="488" x2="446" y2= "917" />
    <path class="fil5" d="M944 283c18,-11 39,-14 58,-9l0 0c20,5 37,18 48,36 10,18 13,39 8,58l0 0c-5,20 -18,37 -36,48 -18,10 -39,13 -58,8l0 0c-20,-5 -37,-18 -48,-36 -10,-18 -13,-39 -8,-58l0 0c5,-19 18,-37 36,-47zm55 3c-16,-4 -33,-2 -49,7 -15,9 -26,24 -30,40l0 0c-4,16 -2,34 7,49 9,16 24,26 40,30l0 0c16,4 33,2 49,-7 15,-9 26,-24 30,-40l0 0c4,-16 2,-33 -7,-49 -9,-15 -24,-26 -40,-30l0 0z"/>
    <path class="fil5" d="M406 922c19,-11 40,-13 59,-8l0 0c19,4 36,17 47,35 11,18 13,39 8,59l0 0c-5,19 -17,36 -36,47 -18,10 -39,13 -58,8l0 0c-19,-5 -36,-17 -47,-36 -11,-18 -13,-39 -8,-58l0 0c5,-19 17,-37 35,-47zm56 3c-16,-4 -34,-2 -50,7 -15,9 -26,24 -30,40l0 0c-4,16 -2,34 7,49 9,16 24,26 40,30l0 0c16,4 34,2 49,-7 16,-9 26,-23 30,-39l0 0c4,-17 3,-34 -7,-50 -9,-15 -23,-26 -39,-30l0 0z"/>
    <line class="fil0 str1" x1="911" y1="359" x2="501" y2= "409" />
    <path class="fil1" d="M331 250c46,-27 99,-33 148,-20l0 0c48,12 91,43 119,89 27,47 33,100 20,148l0 0c-12,48 -43,92 -90,119 -46,27 -99,33 -147,21l0 0c-49,-13 -92,-44 -119,-90 -27,-46 -33,-100 -21,-148l0 0c13,-48 44,-92 90,-119zm73 -17c-24,4 -47,11 -69,24 -22,13 -40,30 -54,49 -15,19 -26,42 -32,65l0 0c-6,24 -7,49 -4,73 3,24 11,47 24,69 13,21 29,40 48,54 20,15 42,26 66,32l0 0 0 0c23,6 48,7 73,4 23,-3 47,-11 68,-24 22,-13 40,-29 55,-48 14,-20 25,-42 31,-65l0 0 0 -1 0 0c6,-24 8,-48 5,-73 -4,-23 -12,-47 -24,-68 -13,-22 -30,-40 -49,-55 -19,-15 -42,-25 -65,-31l0 0 0 0 0 0c-24,-7 -49,-8 -73,-5z"/>
   </g>
   <g>
    <path class="fil5" d="M3269 352c-18,-11 -39,-14 -58,-9l-1 0c-19,5 -36,18 -47,36 -10,18 -13,39 -8,58l0 0c5,20 17,37 36,48 18,10 39,13 58,8l0 0c19,-5 37,-17 47,-36 11,-18 14,-39 9,-58l0 0c-5,-19 -18,-37 -36,-47zm-55 3c16,-4 33,-2 49,7 15,9 26,24 30,40l0 0c4,16 2,34 -7,49 -9,16 -24,26 -40,30l0 0c-16,4 -34,2 -49,-7 -16,-9 -26,-23 -30,-40l0 0c-4,-16 -2,-33 7,-49 9,-15 23,-26 40,-30l0 0z"/>
    <line class="fil0 str1" x1="2679" y1="893" x2="3183" y2= "468" />
    <line class="fil0 str1" x1="3230" y1="488" x2="3213" y2= "917" />
    <path class="fil5" d="M2716 283c-19,-11 -40,-14 -59,-9l0 0c-19,5 -36,18 -47,36 -11,18 -13,39 -8,58l0 0c5,20 17,37 36,48 18,10 39,13 58,8l0 0c19,-5 36,-18 47,-36 11,-18 13,-39 8,-58l0 0c-5,-19 -17,-37 -35,-47zm-56 3c16,-4 34,-2 50,7 15,9 25,24 30,40l0 0c4,16 2,34 -7,49 -9,16 -24,26 -40,30l0 0c-16,4 -34,2 -49,-7 -16,-9 -26,-24 -30,-40l0 0c-5,-16 -3,-33 7,-49 9,-15 23,-26 39,-30l0 0z"/>
    <path class="fil5" d="M3253 922c-18,-11 -39,-13 -58,-8l0 0c-19,4 -36,17 -47,35 -11,18 -13,39 -8,59l0 0c5,19 17,36 35,47 19,10 40,13 59,8l0 0c19,-5 36,-17 47,-36 11,-18 13,-39 8,-58l0 0c-5,-19 -17,-37 -36,-47zm-55 3c16,-4 34,-2 49,7 16,9 26,24 30,40l0 0c5,16 3,34 -7,49 -9,16 -23,26 -39,30l0 0c-16,4 -34,2 -50,-7 -15,-9 -25,-23 -30,-39l0 0c-4,-17 -2,-34 7,-50 9,-15 24,-26 40,-30l0 0z"/>
    <line class="fil0 str1" x1="2749" y1="359" x2="3158" y2= "409" />
    <path class="fil1" d="M3329 250c-47,-27 -100,-33 -148,-20l0 0c-48,12 -92,43 -119,89 -27,47 -33,100 -21,148l0 0c13,48 44,92 90,119 47,27 100,33 148,21l0 0c48,-13 92,-44 119,-90 27,-46 33,-100 20,-148l0 0c-12,-48 -43,-92 -89,-119zm-73 -17c23,4 47,11 68,24 22,13 40,30 55,49 15,19 25,42 31,65l1 0c6,24 7,49 4,73 -4,24 -11,47 -24,69 -13,21 -30,40 -49,54 -19,15 -42,26 -65,32l0 0 0 0c-24,6 -49,7 -73,4 -24,-3 -47,-11 -69,-24 -21,-13 -40,-29 -54,-48 -15,-20 -25,-42 -32,-65l1 0 -1 -1 0 0c-6,-24 -7,-48 -4,-73 3,-23 11,-47 24,-68 13,-22 29,-40 48,-55 20,-15 42,-25 66,-31l0 0 0 0 0 0c24,-7 48,-8 73,-5z"/>
   </g>
  </g>
  <path class="fil5" d="M297 2591c17,13 37,18 57,15l0 0c19,-3 38,-13 51,-30 13,-16 18,-37 15,-57l0 0c-2,-19 -12,-38 -29,-51 -17,-13 -38,-18 -57,-15l0 0c-20,3 -39,13 -51,30 -13,16 -18,37 -16,57l0 0c3,19 13,38 30,51zm55 3c-16,2 -34,-2 -48,-13 -14,-11 -23,-27 -25,-43l0 0c-2,-16 2,-34 13,-48 11,-14 27,-23 43,-25l0 0c17,-2 34,2 48,13 15,11 23,26 25,43l0 0c3,16 -2,34 -13,48 -11,14 -26,23 -43,25l0 0z"/>
  <line class="fil0 str1" x1="949" y1="2126" x2="396" y2= "2485" />
  <line class="fil0 str1" x1="352" y1="2460" x2="421" y2= "2037" />
  <path class="fil5" d="M382 2027c17,13 37,18 57,15l0 0c20,-3 38,-13 51,-30 13,-16 18,-37 15,-57l0 0c-2,-19 -12,-38 -29,-51 -17,-13 -38,-18 -57,-15l0 0c-20,3 -38,13 -51,30 -13,16 -18,37 -16,57l0 0c3,19 13,38 30,51zm55 3c-16,2 -33,-2 -48,-13 -14,-11 -23,-26 -25,-43l0 0c-2,-16 2,-34 13,-48 11,-14 27,-23 43,-25l0 0c17,-2 34,2 48,13 15,11 23,27 25,43l0 0c3,16 -2,34 -13,48 -10,14 -26,23 -43,25l0 0z"/>
  <path class="fil1" d="M225 2684c43,33 95,45 144,39l0 0c50,-7 97,-32 129,-75 33,-43 45,-95 39,-144l0 0c-7,-50 -32,-97 -75,-129 -42,-33 -94,-45 -144,-39l0 0c-49,7 -96,32 -129,75 -33,43 -45,95 -38,144l0 0c6,49 32,96 74,129zm70 26c-23,-6 -45,-17 -65,-32 -20,-16 -36,-34 -48,-55 -12,-21 -20,-45 -23,-69l0 0c-3,-24 -2,-49 5,-73 6,-23 16,-45 32,-65 15,-20 34,-36 54,-48 22,-12 45,-20 69,-23l0 0 0 0c24,-4 49,-2 73,4 23,6 45,17 65,32 20,16 36,34 48,55 13,21 20,45 24,68l0 0 0 1 0 0c3,24 1,49 -5,73 -6,23 -17,45 -32,65 -15,20 -34,36 -55,48 -21,12 -44,20 -68,23l0 0 0 0 -1 0c-24,4 -49,2 -73,-4z"/>
  <path class="fil5" d="M3362 2591c-17,13 -38,18 -57,15l0 0c-20,-3 -38,-13 -51,-30 -13,-16 -18,-37 -15,-57l0 0c2,-19 12,-38 29,-51 17,-13 38,-18 57,-15l0 0c20,3 38,13 51,30 13,16 18,37 15,57l0 0c-2,19 -12,38 -29,51zm-56 3c17,2 34,-2 49,-13 14,-11 22,-27 25,-43l0 0c2,-16 -2,-34 -13,-48 -11,-14 -27,-23 -43,-25l0 0c-17,-2 -34,2 -49,13 -14,11 -22,26 -25,43l0 0c-2,16 2,34 13,48 11,14 27,23 43,25l0 0z"/>
  <line class="fil0 str1" x1="2710" y1="2126" x2="3262" y2= "2485" />
  <line class="fil0 str1" x1="3306" y1="2460" x2="3238" y2= "2037" />
  <path class="fil5" d="M3277 2027c-17,13 -38,18 -57,15l0 0c-20,-3 -38,-13 -51,-30 -13,-16 -18,-37 -16,-57l1 0c2,-19 12,-38 29,-51 17,-13 38,-18 57,-15l0 0c20,3 38,13 51,30 13,16 18,37 15,57l0 0c-2,19 -12,38 -29,51zm-56 3c17,2 34,-2 49,-13 14,-11 22,-26 24,-43l1 0c2,-16 -2,-34 -13,-48 -11,-14 -27,-23 -43,-25l-1 0c-16,-2 -33,2 -48,13 -14,11 -22,27 -25,43l0 0c-2,16 2,34 13,48 11,14 27,23 43,25l0 0z"/>
  <path class="fil1" d="M3434 2684c-43,33 -95,45 -144,39l-1 0c-49,-7 -96,-32 -129,-75 -32,-43 -45,-95 -38,-144l0 0c7,-50 32,-97 75,-129 42,-33 94,-45 144,-39l0 0c49,7 96,32 129,75 32,43 45,95 38,144l0 0c-6,49 -32,96 -74,129zm-71 26c23,-6 46,-17 66,-32 20,-16 36,-34 48,-55 12,-21 20,-45 23,-69l0 0c3,-24 2,-49 -5,-73 -6,-23 -17,-45 -32,-65 -15,-20 -34,-36 -54,-48 -22,-12 -45,-20 -69,-23l0 0 -1 0c-24,-4 -48,-2 -72,4 -23,6 -45,17 -65,32 -20,16 -37,34 -48,55 -13,21 -21,45 -24,68l0 0 0 1 0 0c-3,24 -2,49 5,73 6,23 17,45 32,65 15,20 34,36 54,48 22,12 45,20 69,23l0 0 0 0 1 0c24,4 48,2 72,-4z"/>
 </g>
</svg>
