<?xml version="1.0" encoding="UTF-8"?>
<!DOCTYPE svg PUBLIC "-//W3C//DTD SVG 1.1//EN" "http://www.w3.org/Graphics/SVG/1.1/DTD/svg11.dtd">
<!-- Creator: CorelDRAW X7 -->
<svg xmlns="http://www.w3.org/2000/svg" xml:space="preserve" width="200px" height="200px" version="1.1" style="shape-rendering:geometricPrecision; text-rendering:geometricPrecision; image-rendering:optimizeQuality; fill-rule:evenodd; clip-rule:evenodd"
viewBox="0 0 55276 55278"
 xmlns:xlink="http://www.w3.org/1999/xlink">
 <defs>
  <style type="text/css">
   <![CDATA[
    .str1 {stroke:#333333;stroke-width:275.776}
    .str2 {stroke:#333333;stroke-width:575.022}
    .str0 {stroke:#333333;stroke-width:248.394}
    .str7 {stroke:#333333;stroke-width:190.696}
    .str5 {stroke:#333333;stroke-width:190.696}
    .str3 {stroke:#333333;stroke-width:190.696}
    .str6 {stroke:#333333;stroke-width:190.696}
    .str4 {stroke:#333333;stroke-width:190.696}
    .fil0 {fill:none}
    .fil3 {fill:#0096DC}
    .fil5 {fill:#009933}
    .fil12 {fill:#333333}
    .fil2 {fill:fuchsia}
    .fil4 {fill:#FF6600}
    .fil14 {fill:yellow}
    .fil6 {fill:yellow}
    .fil7 {fill:white}
    .fil1 {fill:#333333;fill-rule:nonzero}
    .fil10 {fill:#33CC66;fill-rule:nonzero}
    .fil8 {fill:#99FFFF;fill-rule:nonzero}
    .fil13 {fill:#FF8838;fill-rule:nonzero}
    .fil9 {fill:#FF99CC;fill-rule:nonzero}
    .fil11 {fill:yellow;fill-rule:nonzero}
   ]]>
  </style>
 </defs>
 <g id="Layer_x0020_1">
  <metadata id="CorelCorpID_0Corel-Layer"/>
  <rect class="fil0" width="55276" height="55276"/>
  <polygon class="fil1" points="33159,29364 38993,29364 38993,29682 33159,29682 "/>
  <polygon class="fil1" points="39169,37186 48866,37186 48866,37505 39169,37505 "/>
  <polygon class="fil1" points="6577,37186 16273,37186 16273,37505 6577,37505 "/>
  <path class="fil1" d="M9928 2316l0 8358c0,488 -200,931 -521,1253 -322,321 -766,521 -1253,521l-1616 0c-771,1275 -1017,2102 -1103,2488 -32,144 -38,209 -39,355l-11 22054 -319 0 -10 -22057c0,-143 -7,-207 -38,-349 -84,-384 -329,-1212 -1101,-2491l-1616 0c-488,0 -932,-200 -1253,-521 -321,-322 -521,-765 -521,-1253l0 -8358 319 0 0 8358c0,400 164,764 427,1028 264,263 628,427 1028,427l1705 0 89 0 47 77c630,1030 934,1791 1084,2280 151,-489 456,-1250 1087,-2280l47 -77 88 0 1706 0c400,0 763,-164 1027,-427 264,-264 428,-628 428,-1028l0 -8358 319 0z"/>
  <rect class="fil2 str0" x="2260" y="285" width="5934" height="8076" rx="1055" ry="1055"/>
  <path class="fil1" d="M21133 8597l0 8358c0,487 -200,931 -521,1253 -322,321 -765,521 -1253,521l-1616 0c-770,1275 -1017,2102 -1103,2487 -32,145 -38,210 -39,355l-10 7799 -319 0 -11 -7801c0,-143 -7,-208 -37,-349 -85,-384 -329,-1213 -1102,-2491l-1616 0c-487,0 -931,-200 -1253,-521 -321,-322 -521,-766 -521,-1253l0 -8358 319 0 0 8358c0,400 164,763 427,1027 264,264 628,428 1028,428l1705 0 89 0 47 76c630,1031 935,1792 1085,2280 150,-488 456,-1249 1086,-2280l47 -76 89 0 1705 0c400,0 764,-164 1028,-428 263,-264 427,-627 427,-1027l0 -8358 319 0z"/>
  <rect class="fil3 str0" x="13466" y="6566" width="5934" height="8076" rx="1055" ry="1055"/>
  <path class="fil1" d="M32338 2316l0 8358c0,488 -199,931 -521,1253 -321,321 -765,521 -1253,521l-1616 0c-770,1275 -1017,2102 -1102,2488 -32,144 -39,209 -39,355l-11 30229 -319 0 -10 -30232c-1,-143 -7,-207 -38,-349 -84,-384 -329,-1212 -1102,-2491l-1616 0c-487,0 -931,-200 -1252,-521 -322,-322 -522,-765 -522,-1253l0 -8358 319 0 0 8358c0,400 164,764 428,1028 264,263 628,427 1027,427l1706 0 89 0 46 77c631,1030 935,1791 1085,2280 151,-489 456,-1250 1086,-2280l48 -77 88 0 1705 0c400,0 764,-164 1028,-427 264,-264 428,-628 428,-1028l0 -8358 318 0z"/>
  <rect class="fil4 str0" x="24671" y="285" width="5934" height="8076" rx="1055" ry="1055"/>
  <path class="fil1" d="M43544 8597l0 8358c0,487 -200,931 -521,1253 -322,321 -766,521 -1253,521l-1616 0c-771,1275 -1017,2102 -1103,2487 -32,145 -39,210 -39,355l-11 7799 -319 0 -10 -7801c0,-143 -7,-208 -38,-349 -84,-384 -329,-1213 -1101,-2491l-1616 0c-488,0 -932,-200 -1253,-521 -321,-322 -521,-766 -521,-1253l0 -8358 319 0 0 8358c0,400 164,763 427,1027 264,264 628,428 1028,428l1705 0 89 0 47 76c630,1031 934,1792 1084,2280 151,-488 456,-1249 1087,-2280l47 -76 88 0 1706 0c400,0 763,-164 1027,-428 264,-264 428,-627 428,-1027l0 -8358 319 0z"/>
  <rect class="fil5 str0" x="35876" y="6566" width="5934" height="8076" rx="1055" ry="1055"/>
  <path class="fil1" d="M54749 2316l0 8358c0,488 -200,931 -521,1253 -321,321 -765,521 -1253,521l-1616 0c-770,1275 -1017,2102 -1103,2488 -32,144 -38,209 -39,355l-10 21955 -319 0 -10 -21958c-1,-143 -8,-207 -38,-349 -85,-384 -329,-1212 -1102,-2491l-1616 0c-488,0 -932,-200 -1253,-521 -321,-322 -521,-765 -521,-1253l0 -8358 319 0 0 8358c0,400 164,764 428,1028 263,263 627,427 1027,427l1705 0 89 0 47 77c630,1030 934,1791 1085,2280 151,-489 456,-1250 1086,-2280l47 -77 89 0 1705 0c400,0 764,-164 1027,-427 264,-264 428,-628 428,-1028l0 -8358 319 0z"/>
  <rect class="fil6 str0" x="47082" y="285" width="5934" height="8076" rx="1055" ry="1055"/>
  <polygon class="fil1" points="16273,29364 22108,29364 22108,29682 16273,29682 "/>
  <circle class="fil7 str1" cx="16433" cy="29501" r="1396"/>
  <path class="fil8" d="M16416 26001c964,0 1841,392 2474,1025l0 0 1 0c633,634 1025,1510 1025,2475 0,965 -392,1841 -1025,2474l-1 0 0 1c-633,633 -1510,1025 -2474,1025 -965,0 -1841,-392 -2475,-1025l0 -1 -1 0c-633,-633 -1025,-1509 -1025,-2474 0,-965 392,-1841 1025,-2475l1 0 0 0c634,-633 1510,-1025 2475,-1025zm2249 1249c-574,-575 -1370,-931 -2249,-931 -879,0 -1676,356 -2250,931l-1 1c-575,575 -931,1371 -931,2250 0,879 356,1675 931,2249l1 1c574,575 1371,931 2250,931 879,0 1675,-356 2249,-931l1 -1c575,-574 931,-1370 931,-2249 0,-879 -356,-1675 -931,-2250l-1 -1z"/>
  <circle class="fil7 str1" cx="5227" cy="37345" r="1396"/>
  <path class="fil9" d="M5227 33845c965,0 1841,392 2475,1025l0 0 0 1c633,633 1026,1509 1026,2474 0,965 -393,1841 -1026,2475l0 0 0 0c-634,633 -1510,1025 -2475,1025 -965,0 -1841,-392 -2474,-1025l0 0 -1 0c-633,-634 -1025,-1510 -1025,-2475 0,-965 392,-1841 1025,-2474l1 -1 0 0c633,-633 1509,-1025 2474,-1025zm2250 1250c-574,-575 -1371,-931 -2250,-931 -879,0 -1675,356 -2250,931l-1 0c-574,575 -931,1371 -931,2250 0,879 357,1675 931,2250l1 1c575,575 1371,931 2250,931 879,0 1676,-356 2250,-931l1 -1c575,-575 931,-1371 931,-2250 0,-879 -356,-1675 -931,-2250l-1 0z"/>
  <circle class="fil7 str1" cx="38843" cy="29501" r="1396"/>
  <path class="fil10" d="M38843 26001c965,0 1841,392 2474,1025l1 0 0 0c633,634 1026,1510 1026,2475 0,965 -393,1841 -1026,2474l0 0 -1 1c-633,633 -1509,1025 -2474,1025 -965,0 -1841,-392 -2474,-1025l-1 -1 0 0c-633,-633 -1025,-1509 -1025,-2474 0,-965 392,-1841 1025,-2475l0 0 1 0c633,-633 1509,-1025 2474,-1025zm2250 1249c-575,-575 -1371,-931 -2250,-931 -879,0 -1675,356 -2250,931l0 1c-575,575 -932,1371 -932,2250 0,879 357,1675 932,2249l0 1c575,575 1371,931 2250,931 879,0 1675,-356 2250,-931l1 -1c575,-574 931,-1370 931,-2249 0,-879 -356,-1675 -931,-2250l-1 -1z"/>
  <circle class="fil7 str1" cx="50049" cy="37345" r="1396"/>
  <path class="fil11" d="M50048 33845c966,0 1842,392 2475,1025l0 0 1 1c633,633 1025,1509 1025,2474 0,965 -392,1841 -1025,2475l-1 0 0 0c-633,633 -1509,1025 -2475,1025 -964,0 -1840,-392 -2474,-1025l0 0 -1 0c-632,-634 -1025,-1510 -1025,-2475 0,-965 393,-1841 1025,-2474l1 -1 0 0c634,-633 1510,-1025 2474,-1025zm2250 1250c-574,-575 -1370,-931 -2250,-931 -878,0 -1675,356 -2249,931l-1 0c-575,575 -931,1371 -931,2250 0,879 356,1675 931,2250l1 1c574,575 1371,931 2249,931 880,0 1676,-356 2250,-931l1 -1c575,-575 931,-1371 931,-2250 0,-879 -356,-1675 -931,-2250l-1 0z"/>
  <rect class="fil12 str2" x="5225" y="45520" width="44826" height="9471" rx="2552" ry="2552"/>
  <path class="fil13" d="M27638 42020c965,0 1841,392 2474,1025l1 0 0 0c633,634 1025,1510 1025,2475 0,965 -392,1841 -1025,2474l0 1 -1 0c-633,633 -1509,1025 -2474,1025 -965,0 -1841,-392 -2475,-1025l0 0 0 -1c-633,-633 -1025,-1509 -1025,-2474 0,-965 392,-1841 1025,-2475l0 0 0 0c634,-633 1510,-1025 2475,-1025zm2250 1249c-575,-575 -1371,-931 -2250,-931 -879,0 -1675,356 -2250,931l-1 1c-575,575 -931,1371 -931,2250 0,879 356,1675 931,2250l1 0c575,576 1371,931 2250,931 879,0 1675,-355 2250,-931l0 0c575,-575 931,-1371 931,-2250 0,-879 -356,-1675 -931,-2250l0 -1z"/>
  <rect class="fil14 str0" x="47082" y="285" width="5934" height="8076" rx="1055" ry="1055"/>
  <polygon class="fil1" points="16273,45643 16273,37186 16592,37186 16592,45643 "/>
  <polygon class="fil1" points="38684,45643 38684,37186 39003,37186 39003,45643 "/>
  <polygon class="fil1" points="33081,45643 33081,30096 33400,30096 33400,45643 "/>
  <polygon class="fil1" points="21876,45643 21876,30096 22194,30096 22194,45643 "/>
  <circle class="fil7 str3" cx="16432" cy="37345" r="835"/>
  <circle class="fil7 str4" cx="22035" cy="29501" r="835"/>
  <circle class="fil7 str5" cx="27638" cy="45520" r="835"/>
  <circle class="fil7 str6" cx="33240" cy="29501" r="835"/>
  <circle class="fil7 str7" cx="38843" cy="37345" r="835"/>
  <rect class="fil2" x="6801" y="46746" width="1869" height="3032"/>
  <rect class="fil5" x="39925" y="47931" width="1869" height="3032"/>
  <rect class="fil2" x="39925" y="45874" width="1869" height="1516"/>
  <rect class="fil3" x="39925" y="51503" width="1869" height="3032"/>
  <rect class="fil14" x="6801" y="50672" width="1869" height="3032"/>
  <rect class="fil14" x="9210" y="46767" width="1869" height="1516"/>
  <rect class="fil3" x="9210" y="49130" width="1869" height="3032"/>
  <rect class="fil4" x="11620" y="48937" width="1869" height="1516"/>
  <rect class="fil2" x="11620" y="46601" width="1869" height="1516"/>
  <rect class="fil3" x="11620" y="51274" width="1869" height="3032"/>
  <rect class="fil4" x="9190" y="53135" width="1869" height="1516"/>
  <rect class="fil2" x="37638" y="46746" width="1869" height="3032"/>
  <rect class="fil14" x="37638" y="50672" width="1869" height="3032"/>
  <rect class="fil14" x="35229" y="46767" width="1869" height="1516"/>
  <rect class="fil3" x="35229" y="48964" width="1869" height="3032"/>
  <rect class="fil4" x="32819" y="48937" width="1869" height="1516"/>
  <rect class="fil2" x="32819" y="46601" width="1869" height="1516"/>
  <rect class="fil3" x="32819" y="51274" width="1869" height="3032"/>
  <rect class="fil5" x="35249" y="52676" width="1869" height="1516"/>
  <rect class="fil5" x="13987" y="46746" width="1869" height="3385"/>
  <rect class="fil14" x="13987" y="50884" width="1869" height="1516"/>
  <rect class="fil14" x="16396" y="46767" width="1869" height="1516"/>
  <rect class="fil3" x="16396" y="48964" width="1869" height="3032"/>
  <rect class="fil4" x="18806" y="48937" width="1869" height="1516"/>
  <rect class="fil2" x="18806" y="46601" width="1869" height="1516"/>
  <rect class="fil3" x="18806" y="51274" width="1869" height="3032"/>
  <rect class="fil4" x="16376" y="52676" width="1869" height="1516"/>
  <rect class="fil2" x="13987" y="53153" width="1869" height="1516"/>
  <rect class="fil2" x="28263" y="49551" width="1869" height="3032"/>
  <rect class="fil14" x="25977" y="50672" width="1869" height="3032"/>
  <rect class="fil3" x="23567" y="48964" width="1869" height="3032"/>
  <rect class="fil5" x="21157" y="48937" width="1869" height="1516"/>
  <rect class="fil14" x="21157" y="51274" width="1869" height="3032"/>
  <rect class="fil5" x="23587" y="52676" width="1869" height="1516"/>
  <rect class="fil5" x="30600" y="49883" width="1869" height="1516"/>
  <rect class="fil14" x="30600" y="51815" width="1869" height="1516"/>
  <rect class="fil3" x="28263" y="53050" width="1869" height="1516"/>
  <rect class="fil14" x="42259" y="46767" width="1869" height="1516"/>
  <rect class="fil14" x="42259" y="49130" width="1869" height="3032"/>
  <rect class="fil4" x="44668" y="48937" width="1869" height="1516"/>
  <rect class="fil2" x="44668" y="46601" width="1869" height="1516"/>
  <rect class="fil3" x="44668" y="51274" width="1869" height="3032"/>
  <rect class="fil4" x="42238" y="53135" width="1869" height="1516"/>
  <rect class="fil14" x="46968" y="49015" width="1869" height="4116"/>
  <rect class="fil3" x="46968" y="46746" width="1869" height="1516"/>
  <path class="fil12" d="M3603 285l3536 0c580,0 1055,475 1055,1055l0 5967c0,580 -475,1055 -1055,1055l-3824 0 -59 -2 3446 -3446c661,-662 195,-858 -290,-1317l-599 -567c-143,-137 -367,-135 -513,0l-981 907c-270,250 -684,250 -954,0l-981 -907c-37,-35 -79,-60 -124,-77l0 -336c125,24 244,83 344,175l981 908c146,134 368,134 514,0l490 -454 733 -732c140,-141 140,-370 0,-510l-1719 -1719z"/>
  <path class="fil12" d="M14808 6566l3537 0c580,0 1054,474 1054,1055l0 5966c0,581 -474,1055 -1054,1055l-3824 0 -60 -1 3446 -3447c662,-661 196,-857 -289,-1317l-599 -567c-144,-136 -368,-134 -514,0l-981 908c-269,250 -684,250 -953,0l-982 -908c-37,-34 -79,-59 -123,-76l0 -336c124,24 244,82 343,175l982 907c145,135 368,135 513,0l491 -454 732 -732c140,-140 140,-369 0,-509l-1719 -1719z"/>
  <path class="fil12" d="M26014 285l3536 0c580,0 1055,475 1055,1055l0 5967c0,580 -475,1055 -1055,1055l-3824 0 -60 -2 3447 -3446c661,-662 195,-858 -290,-1317l-599 -567c-143,-137 -367,-135 -513,0l-981 907c-270,250 -684,250 -954,0l-981 -907c-37,-35 -79,-60 -124,-77l0 -336c125,24 244,83 344,175l981 908c146,134 368,134 514,0l490 -454 732 -732c141,-141 141,-370 0,-510l-1718 -1719z"/>
  <path class="fil12" d="M37219 6566l3536 0c580,0 1055,474 1055,1055l0 5966c0,581 -475,1055 -1055,1055l-3824 0 -60 -1 3447 -3447c661,-661 195,-857 -290,-1317l-599 -567c-143,-136 -367,-134 -513,0l-981 908c-270,250 -684,250 -954,0l-981 -908c-37,-34 -79,-59 -124,-76l0 -336c125,24 244,82 344,175l981 907c146,135 368,135 514,0l490 -454 733 -732c140,-140 140,-369 0,-509l-1719 -1719z"/>
  <path class="fil12" d="M48424 285l3537 0c580,0 1054,475 1054,1055l0 5967c0,580 -474,1055 -1054,1055l-3824 0 -60 -2 3446 -3446c662,-662 196,-858 -289,-1317l-599 -567c-144,-137 -368,-135 -514,0l-981 907c-269,250 -684,250 -953,0l-982 -907c-37,-35 -79,-60 -123,-77l0 -336c124,24 244,83 343,175l982 908c145,134 368,134 513,0l491 -454 732 -732c140,-141 140,-370 0,-510l-1719 -1719z"/>
 </g>
</svg>
