<?xml version="1.0" encoding="UTF-8"?>
<!DOCTYPE svg PUBLIC "-//W3C//DTD SVG 1.1//EN" "http://www.w3.org/Graphics/SVG/1.1/DTD/svg11.dtd">
<!-- Creator: CorelDRAW X7 -->
<svg xmlns="http://www.w3.org/2000/svg" xml:space="preserve" width="197px" height="201px" version="1.1" style="shape-rendering:geometricPrecision; text-rendering:geometricPrecision; image-rendering:optimizeQuality; fill-rule:evenodd; clip-rule:evenodd"
viewBox="0 0 374 382"
 xmlns:xlink="http://www.w3.org/1999/xlink">
 <defs>
  <style type="text/css">
   <![CDATA[
    .str5 {stroke:#4D4D4D;stroke-width:1.90023}
    .str0 {stroke:#4D4D4D;stroke-width:3.8027}
    .str1 {stroke:#4D4D4D;stroke-width:5.70293}
    .str6 {stroke:#4D4D4D;stroke-width:1.23313}
    .str3 {stroke:#4D4D4D;stroke-width:1.26682}
    .str2 {stroke:#4D4D4D;stroke-width:2.53813}
    .str4 {stroke:#4D4D4D;stroke-width:3.80719}
    .fil2 {fill:none}
    .fil0 {fill:#4D4D4D}
    .fil4 {fill:white}
    .fil5 {fill:#0096DC;fill-rule:nonzero}
    .fil3 {fill:#009933;fill-rule:nonzero}
    .fil1 {fill:#FF6600;fill-rule:nonzero}
   ]]>
  </style>
 </defs>
 <g id="Layer_x0020_1">
  <metadata id="CorelCorpID_0Corel-Layer"/>
  <path class="fil0" d="M287 115l-21 -22c-4,-3 -10,-3 -13,0l-22 22c-1,1 -1,3 0,4l7 6 4 4c1,2 3,2 5,0l8 -8c3,-2 6,-2 8,0l9 8c1,2 3,2 5,0l4 -4 6 -6c1,-1 1,-3 0,-4z"/>
  <path class="fil0" d="M219 140l34 33c3,4 9,4 13,0l33 -33c6,-6 2,-8 -2,-12l-5 -4c-2,-2 -4,-2 -5,0l-9 7c-2,3 -6,3 -8,0l-8 -7c-2,-2 -4,-2 -5,0l-9 7c-2,3 -5,3 -8,0l-8 -7c-2,-2 -4,-2 -5,0l-5 4c-4,4 -9,6 -3,12z"/>
  <polygon class="fil1" points="184,205 213,177 215,180 187,208 "/>
  <polygon class="fil1" points="61,210 36,175 37,174 65,206 "/>
  <path class="fil2 str0" d="M259 69c36,0 64,29 64,64 0,36 -28,64 -64,64 -35,0 -64,-28 -64,-64 0,-35 29,-64 64,-64z"/>
  <path class="fil0" d="M164 250c-9,-10 -19,-20 -29,-30 -6,-5 -14,-5 -20,0 -10,10 -20,20 -30,30 -1,2 -1,4 1,6 3,3 6,6 9,9 2,2 4,3 6,5 2,2 4,2 6,0 4,-3 8,-7 12,-10 3,-3 8,-3 12,0 4,3 8,7 12,10 1,2 4,2 6,0 2,-1 4,-3 6,-5 3,-3 6,-6 9,-9 2,-1 2,-4 0,-6z"/>
  <path class="fil0" d="M70 284c7,7 15,14 23,22 8,7 15,14 23,20 5,5 13,5 18,0 7,-6 15,-13 22,-20 8,-7 16,-14 24,-22 8,-7 3,-9 -3,-15 -2,-2 -5,-4 -7,-6 -2,-2 -4,-2 -6,-1 -4,4 -8,8 -12,11 -4,3 -9,3 -12,0 -4,-3 -8,-7 -12,-11 -2,-1 -5,-1 -6,0 -4,4 -8,7 -12,11 -3,3 -8,3 -12,0 -4,-4 -8,-7 -12,-11 -2,-1 -5,-1 -6,0 -2,2 -5,4 -7,6 -6,6 -12,8 -3,16z"/>
  <path class="fil2 str1" d="M125 185c26,0 50,11 66,28 16,16 25,39 23,63 -1,23 -13,43 -29,57 -16,14 -37,22 -60,22 -24,0 -45,-8 -61,-22 -16,-15 -27,-35 -28,-58 -2,-24 7,-46 23,-62 16,-17 40,-28 66,-28z"/>
  <path class="fil1" d="M39 122l1 1 0 0c-2,1 -3,2 -4,3l-1 -1c1,-1 3,-2 4,-3l0 0zm161 -23l-1 3 -1 -1 -1 0 -1 0 0 -1 -1 0 1 -2 1 0 0 0 1 1 1 0 1 0zm-11 -4l-1 3 0 0 0 -1 -1 0 -1 0 -1 0 0 -1 -1 0 0 0 1 -2 0 0 0 0 1 0 1 0 1 1 0 0 1 0 0 0zm-12 -3l0 2 -1 0 0 0 -1 -1 -1 0 0 0 -1 0 -1 0 0 0 1 -3 0 0 0 0 1 1 1 0 1 0 0 0 1 0 0 1zm-12 -4l0 3 -1 0 0 0 -1 -1 -1 0 -1 0 0 0 -1 0 1 -2 0 0 1 0 1 0 0 0 1 0 1 0 0 0zm-12 -2l0 3 -1 0 -1 0 0 -1 -1 0 -1 0 0 0 -1 0 0 -2 1 0 1 0 0 0 1 0 1 0 1 0 0 0zm-12 -1l0 2 -1 0 0 0 -1 0 -1 0 0 0 -1 0 -1 0 0 0 0 -2 0 0 1 0 1 0 0 0 1 0 1 0 1 0 0 0zm-13 0l1 2 -1 0 0 0 -1 0 -1 0 0 0 -1 0 -1 0 0 0 -1 -2 1 0 1 0 0 0 1 0 1 0 1 0 0 0 0 0zm-12 0l0 3 0 0 -1 0 -1 0 0 0 -1 0 0 0 -1 0 -1 0 0 -2 1 0 0 0 1 0 0 0 1 0 1 0 0 -1 1 0zm-12 2l0 3 0 0 0 0 -1 0 -1 0 0 0 -1 0 -1 1 0 0 -1 0 0 -3 0 0 1 0 1 0 0 0 1 0 0 0 1 -1 1 0 0 0zm-12 3l0 3 0 0 -1 0 0 0 -1 0 -1 1 0 0 -1 0 0 0 -1 -2 0 0 1 0 1 -1 0 0 1 0 0 0 1 0 1 -1zm-12 5l1 2 -1 0 0 0 -1 1 0 0 -1 0 0 0 -1 1 -1 0 -1 -2 1 -1 1 0 0 0 1 0 0 -1 1 0 0 0 1 0zm-11 5l1 2 -1 0 0 1 -1 0 0 0 -1 0 0 1 -1 0 0 0 -2 -2 1 0 0 0 1 -1 1 0 0 0 1 -1 0 0 1 0zm-11 6l1 2c-1,1 -3,2 -4,3l-1 -2c1,-1 2,-2 4,-2l0 -1zm-10 8l1 1c-1,1 -2,2 -4,3l-1 -1c1,-1 3,-2 4,-3l0 0z"/>
  <path class="fil0" d="M149 127l-12 -9c-3,-2 -6,-1 -7,1l-9 12c-1,1 -1,2 0,3l4 2 2 2c1,1 2,0 2,0l4 -5c1,-1 3,-2 4,-1l5 4c1,0 2,0 3,-1l2 -2 2 -4c1,0 1,-1 0,-2z"/>
  <path class="fil0" d="M116 145l20 15c2,1 5,1 7,-1l14 -20c3,-3 0,-4 -2,-6l-3 -2c-1,0 -2,0 -2,1l-4 4c-1,2 -3,2 -4,1l-5 -3c-1,-1 -2,-1 -3,0l-3 5c-1,1 -3,1 -5,0l-5 -3c0,-1 -1,-1 -2,0l-2 3c-2,2 -4,4 -1,6z"/>
  <path class="fil0" d="M127 10l-5 -4c-1,-1 -3,0 -3,1l-4 5c-1,1 -1,1 0,1l2 2 1 0c0,1 0,0 1,0l1 -2c1,-1 2,-1 2,0l3 1c0,0 0,0 1,0l0 -1 2 -2c0,0 0,-1 -1,-1z"/>
  <path class="fil0" d="M113 19l9 6c1,1 2,0 3,0l6 -9c1,-2 0,-2 -1,-3l-1 -1c-1,0 -1,0 -1,0l-2 2c0,1 -1,1 -2,1l-2 -2c0,0 -1,0 -1,0l-2 3c0,0 -1,0 -2,0l-2 -2c0,0 -1,0 -1,1l-1 1c-1,1 -2,1 0,3z"/>
  <polygon class="fil3" points="94,99 113,116 111,117 92,100 "/>
  <path class="fil2 str2" d="M169 137c1,18 -13,34 -31,35 -19,0 -34,-14 -35,-32 0,-18 14,-34 32,-34 18,-1 33,13 34,31z"/>
  <path class="fil2 str3" d="M137 15c0,8 -6,15 -14,16 -9,0 -16,-7 -16,-15 0,-8 6,-15 14,-15 9,-1 16,6 16,14z"/>
  <path class="fil3" d="M137 25l0 1 0 0c-1,-1 -1,-2 -2,-2l1 -1c0,1 1,2 1,2l0 0zm15 82l-1 0 0 -1 1 0 0 0 0 -1 0 0 1 1 0 0 0 0 0 1 0 0 -1 0zm2 -5l-1 0 0 -1 0 0 0 0 0 -1 1 0 0 -1 0 0 0 0 1 0 0 0 0 1 0 0 0 1 0 0 -1 0 0 1 0 0zm2 -6l-1 -1 0 0 0 0 0 0 0 -1 0 0 0 -1 0 0 0 0 1 0 0 0 0 1 0 0 0 0 0 1 0 0 0 1 0 0zm1 -7l-1 0 0 0 0 0 0 -1 0 0 0 -1 0 0 0 0 2 0 0 0 0 1 -1 0 0 0 0 1 0 0 0 0zm1 -6l-1 0 0 0 0 -1 0 0 0 0 0 -1 0 0 0 0 1 0 0 0 0 0 0 1 0 0 0 0 0 1 0 0zm1 -6l-2 0 0 0 0 -1 0 0 0 0 0 -1 0 0 0 -1 0 0 2 0 0 0 0 1 0 0 0 1 0 0 0 0 0 1 0 0zm-1 -7l-1 0 0 0 0 0 0 0 0 -1 0 0 0 0 0 -1 0 0 1 0 0 0 0 1 0 0 0 0 0 1 0 0 0 0 0 0zm0 -6l-2 0 0 0 0 0 0 -1 0 0 0 0 0 -1 0 0 0 0 1 0 0 0 0 0 0 0 1 1 0 0 0 0 0 1 0 0zm-2 -6l-1 0 0 0 0 0 0 -1 0 0 0 0 0 -1 0 0 0 0 0 0 1 -1 0 0 0 1 0 0 0 0 0 1 0 0 0 0 0 1 0 0zm-1 -6l-2 0 0 0 0 -1 0 0 0 0 0 0 0 -1 0 0 0 0 1 -1 0 0 0 1 0 0 0 0 0 1 0 0 1 0 0 1zm-3 -6l-1 0 0 0 0 0 0 -1 0 0 -1 0 0 0 0 -1 0 0 1 -1 0 1 0 0 1 0 0 1 0 0 0 0 0 0 0 1zm-3 -6l-1 1 0 -1 0 0 0 0 0 0 -1 -1 0 0 0 0 0 0 1 -1 0 0 0 0 0 1 1 0 0 0 0 1 0 0 0 0zm-3 -5l-1 0c-1,0 -1,-1 -2,-2l1 0c1,0 1,1 2,1l0 1zm-4 -5l-1 0c-1,0 -1,-1 -2,-2l1 0c1,0 1,1 2,2l0 0z"/>
  <polygon class="fil3" points="93,39 110,25 111,26 94,41 "/>
  <path class="fil4 str4" d="M97 91c-5,10 -14,18 -24,21 -11,3 -23,2 -35,-5 -11,-7 -19,-18 -22,-30 -4,-13 -2,-26 5,-37 6,-11 17,-17 28,-18 10,-2 22,1 32,8 9,7 16,17 19,28 3,11 2,22 -3,33z"/>
  <path class="fil0" d="M85 64c-3,-8 -5,-15 -8,-23 -2,-4 -6,-6 -9,-5 -7,2 -14,4 -22,6 -1,1 -2,2 -1,3 1,3 2,5 2,8 1,1 2,3 2,4 1,2 2,2 4,2 2,-1 5,-2 8,-2 2,-1 5,0 6,3 1,3 2,6 4,9 0,1 2,2 3,1 1,0 2,-1 4,-1 2,-1 4,-1 6,-2 1,-1 2,-2 1,-3z"/>
  <path class="fil0" d="M29 56c2,6 4,13 7,19 2,7 4,13 7,19 1,5 6,7 10,5 6,-2 11,-4 17,-7 6,-2 11,-4 16,-6 6,-2 3,-5 2,-9 -1,-2 -2,-4 -2,-5 -1,-2 -2,-2 -3,-2 -3,1 -6,2 -9,2 -2,1 -4,0 -5,-3 -2,-3 -3,-6 -4,-9 0,-1 -2,-2 -3,-1 -3,1 -6,1 -9,2 -2,1 -5,-1 -6,-3 -1,-3 -2,-6 -4,-9 0,-2 -2,-2 -3,-2 -2,0 -3,1 -5,1 -5,1 -9,1 -6,8z"/>
  <polygon class="fil5" points="281,302 275,326 274,326 279,301 "/>
  <polygon class="fil5" points="330,270 353,278 352,279 329,272 "/>
  <path class="fil0" d="M310 246c-4,-5 -9,-11 -13,-16 -2,-3 -6,-3 -9,-1 -6,5 -12,9 -18,14 -1,0 -1,2 0,3 1,1 2,3 3,5 1,1 2,2 2,3 1,1 2,1 4,0 2,-2 4,-3 7,-5 2,-1 4,-1 6,0 1,3 3,5 5,7 0,1 2,1 3,0 1,-1 2,-2 4,-3 2,-1 3,-2 5,-4 1,-1 2,-2 1,-3z"/>
  <path class="fil0" d="M258 260c3,4 6,8 9,13 3,4 6,9 9,13 2,3 7,4 10,2 5,-4 10,-8 15,-11 5,-4 10,-8 15,-11 5,-4 2,-6 -1,-9 -1,-1 -2,-3 -3,-4 -1,-1 -2,-1 -3,0 -3,1 -5,3 -8,5 -2,1 -5,1 -6,-1 -2,-2 -3,-4 -5,-6 -1,-1 -2,-1 -3,0 -3,1 -5,3 -7,5 -2,1 -5,1 -6,-1 -2,-2 -3,-4 -5,-6 -1,-1 -2,-1 -3,0 -1,1 -3,1 -4,2 -3,3 -7,4 -4,9z"/>
  <path class="fil2 str4" d="M310 293c-11,7 -22,9 -33,6 -10,-2 -19,-8 -24,-18 -5,-9 -5,-19 -3,-29 3,-10 9,-19 19,-25 9,-7 20,-9 29,-8 11,1 20,6 26,15 7,9 9,20 6,31 -2,11 -10,21 -20,28z"/>
  <path class="fil5" d="M362 301l0 0 0 0c0,-1 0,-1 0,-2l1 0c0,1 -1,1 -1,2l0 0zm-63 55l0 -2 0 0 0 0 1 0 0 0 0 0 1 1 -1 0 0 0 0 1 -1 0 0 0zm5 -1l0 -2 0 0 1 0 0 0 0 0 1 0 0 0 0 0 0 0 1 1 0 0 -1 0 0 0 0 0 -1 0 0 0 -1 0 0 1zm7 -2l-1 -1 0 0 1 0 0 -1 0 0 1 0 0 0 1 0 0 0 0 1 0 0 0 0 -1 0 0 0 -1 1 0 0 0 0 0 0zm6 -2l-1 -1 0 0 1 -1 0 0 1 0 0 0 0 0 0 0 1 1 0 0 -1 0 0 0 0 0 -1 1 0 0 0 0zm5 -3l0 -1 0 0 1 0 0 0 0 0 1 0 0 -1 0 0 1 1 -1 1 0 0 0 0 -1 0 0 0 0 0 -1 0zm6 -2l0 -2 0 0 0 0 0 0 1 0 0 0 0 0 1 -1 0 0 0 1 0 0 0 1 0 0 -1 0 0 0 0 0 -1 1 0 0zm6 -4l-1 -1 0 0 0 0 1 0 0 0 0 -1 0 0 1 0 0 0 1 1 -1 0 0 0 0 0 0 1 -1 0 0 0 0 0 0 0zm5 -3l-1 -1 0 -1 1 0 0 0 0 0 0 -1 1 0 0 0 0 0 1 1 0 0 -1 0 0 0 0 1 0 0 -1 0 0 0 0 1zm5 -5l-1 -1 0 0 0 0 0 0 0 0 1 -1 0 0 0 0 0 0 1 0 0 0 0 1 0 0 0 0 0 0 -1 1 0 0 0 0 0 0 0 0zm4 -4l-1 -1 0 0 0 -1 1 0 0 0 0 0 0 -1 0 0 1 0 1 1 -1 0 0 0 0 0 0 1 0 0 -1 0 0 0 0 1zm4 -5l-1 -1 0 0 0 -1 0 0 1 0 0 0 0 -1 0 0 0 0 1 0 0 1 0 0 0 0 0 1 -1 0 0 0 0 0 0 1zm3 -6l-1 0 0 -1 1 0 0 0 0 -1 0 0 0 0 0 0 0 -1 2 1 -1 0 0 0 0 1 0 0 0 0 0 1 -1 0 0 0zm3 -6l-1 0c1,-1 1,-2 1,-2l1 0c0,1 0,1 -1,2l0 0zm2 -6l0 0c0,-1 0,-1 0,-2l1 0c0,1 0,2 -1,2l0 0z"/>
  <path class="fil4 str2" d="M283 377c-7,4 -15,5 -22,3 -7,-2 -13,-6 -18,-13 -4,-7 -5,-14 -3,-21 1,-7 5,-13 12,-17 6,-4 14,-5 21,-3 8,1 14,5 19,12 4,7 6,15 4,22 -2,7 -6,13 -13,17z"/>
  <path class="fil0" d="M282 346c-3,-4 -6,-8 -9,-13 -2,-2 -5,-2 -7,-1 -4,3 -8,6 -12,9 -1,0 -1,1 -1,2 1,1 2,3 3,4 1,1 1,1 2,2 0,1 1,1 2,1 2,-2 3,-3 5,-4 1,0 3,0 4,1 2,2 3,3 4,5 1,1 2,1 2,0 1,0 2,-1 3,-1 1,-1 2,-2 4,-3 0,0 1,-1 0,-2z"/>
  <path class="fil0" d="M246 352c2,3 4,7 7,10 2,3 4,6 7,9 1,3 4,3 7,2 3,-2 6,-5 9,-7 4,-2 7,-4 10,-6 4,-3 2,-4 0,-6 -1,-1 -2,-2 -2,-3 -1,-1 -2,-1 -3,-1 -1,1 -3,2 -5,3 -1,1 -3,1 -4,0 -1,-2 -3,-3 -4,-5 0,-1 -1,-1 -2,0 -2,1 -3,2 -5,3 -1,1 -3,0 -4,-1 -1,-2 -3,-3 -4,-5 0,0 -1,0 -2,0 -1,1 -2,1 -3,2 -2,1 -5,2 -2,5z"/>
  <path class="fil2 str5" d="M101 59c39,-7 77,-13 114,-19 35,-6 68,-12 101,-17 -2,10 -4,20 -7,31 -2,11 -4,22 -6,33"/>
  <path class="fil4 str5" d="M314 16c4,0 8,3 9,7 1,4 -2,7 -6,6 -4,0 -7,-3 -8,-7 -1,-3 1,-6 5,-6z"/>
  <path class="fil2 str5" d="M319 158c8,5 18,12 25,17 7,5 14,10 20,14 -6,6 -12,12 -19,19 -7,7 -15,14 -22,21"/>
  <path class="fil4 str6" d="M364 183c3,0 5,3 5,6 -1,3 -3,5 -5,5 -3,0 -5,-2 -5,-6 0,-3 2,-5 5,-5z"/>
  <path class="fil0" d="M367 281c-2,-2 -3,-3 -5,-4 -1,-1 -2,-1 -3,0 -1,2 -2,4 -4,6 0,0 0,1 1,1 0,0 1,1 1,1 1,0 1,1 1,1 1,0 1,0 1,0 1,-1 1,-2 2,-3 0,0 1,0 1,0 1,1 2,1 2,2 1,0 1,0 1,-1 0,0 1,0 1,-1 0,0 1,-1 1,-1 0,-1 0,-1 0,-1z"/>
  <path class="fil0" d="M354 289c1,1 3,2 4,3 1,1 3,2 4,3 1,0 2,0 3,-1 0,-1 1,-3 2,-4 1,-2 2,-3 3,-4 1,-2 0,-2 -1,-3 0,0 -1,0 -1,-1 0,0 -1,0 -1,1 0,0 -1,1 -1,2 -1,0 -1,0 -2,0 -1,0 -1,-1 -2,-1 0,-1 -1,0 -1,0 0,1 -1,1 -1,2 -1,1 -1,1 -2,0 -1,0 -1,-1 -2,-1 0,0 -1,0 -1,0 0,1 -1,1 -1,1 -1,1 -2,2 0,3z"/>
  <path class="fil2 str3" d="M371 293c-1,2 -4,4 -7,5 -3,1 -6,0 -8,-1 -3,-2 -5,-5 -5,-8 -1,-4 0,-7 2,-10 2,-3 5,-5 8,-5 2,-1 6,0 8,2 2,2 4,5 4,8 1,3 0,6 -2,9z"/>
  <path class="fil0" d="M37 142c-3,-2 -7,-4 -10,-7 -2,-1 -5,0 -6,2 -3,4 -5,8 -8,12 0,0 0,1 1,2 1,0 2,1 3,2 1,0 1,0 2,1 1,0 2,0 2,-1 1,-1 2,-3 3,-4 1,-1 3,-2 4,-1 1,1 3,1 4,2 0,1 1,0 2,0 0,-1 1,-2 1,-2 1,-2 2,-3 3,-4 0,-1 0,-1 -1,-2z"/>
  <path class="fil0" d="M10 161c3,2 6,3 9,5 2,1 5,3 8,4 2,1 4,1 5,-1 2,-3 4,-6 6,-9 2,-3 4,-6 6,-8 2,-4 0,-4 -2,-5 -1,0 -2,-1 -2,-1 -1,-1 -2,-1 -2,0 -1,2 -2,3 -3,4 -1,2 -3,2 -4,1 -1,0 -3,-1 -4,-2 -1,0 -1,0 -2,1 -1,1 -2,2 -3,4 -1,1 -2,2 -3,1 -2,-1 -3,-2 -5,-2 -1,-1 -1,-1 -2,0 0,1 -1,2 -2,3 -1,2 -3,3 0,5z"/>
  <path class="fil2 str5" d="M22 127c8,-2 14,0 20,3 5,4 8,10 9,16 1,7 -1,13 -5,19 -4,5 -9,9 -15,11 -7,2 -13,1 -18,-1 -6,-3 -10,-8 -11,-15 -2,-7 -1,-14 3,-20 4,-6 10,-11 17,-13z"/>
 </g>
</svg>
