<svg xmlns="http://www.w3.org/2000/svg" width="197" height="201" viewBox="0 0 409 419" shape-rendering="geometricPrecision" text-rendering="geometricPrecision" image-rendering="optimizeQuality" fill-rule="evenodd" clip-rule="evenodd"><defs><style><![CDATA[
    .str5 {stroke:#E6E6E6;stroke-width:2.08052}
    .str0 {stroke:#E6E6E6;stroke-width:4.16351}
    .str1 {stroke:#E6E6E6;stroke-width:6.24403}
    .str6 {stroke:#E6E6E6;stroke-width:1.35013}
    .str3 {stroke:#E6E6E6;stroke-width:1.38702}
    .str2 {stroke:#E6E6E6;stroke-width:2.77895}
    .str4 {stroke:#E6E6E6;stroke-width:4.16843}
    .fil2 {fill:none}
    .fil0 {fill:#CCCCCC}
    .fil4 {fill:white}
    .fil5 {fill:#0096DC;fill-rule:nonzero}
    .fil3 {fill:#009933;fill-rule:nonzero}
    .fil1 {fill:#FF6600;fill-rule:nonzero}
   ]]></style></defs><g id="Layer_x0020_1"><path class="fil0" d="M314 125l-23-23c-4-4-10-4-14 0l-24 23c-1 2-1 4 0 5l7 7 5 5c1 1 4 1 5 0l9-9c3-2 7-2 9 0l10 9c1 1 3 1 5 0l4-5 7-7c2-1 2-3 0-5z"/><path class="fil0" d="M240 153l37 37c4 4 10 4 14 0l37-37c6-6 2-8-3-12l-6-6c-1-1-3-1-5 0l-9 9c-3 2-7 2-9 0l-10-9c-1-1-3-1-5 0l-9 9c-3 2-6 2-9 0l-9-9c-2-1-4-1-5 0l-6 5c-4 5-10 7-3 13z"/><path class="fil1" d="M201 224l32-30 2 3-30 31zM67 229l-28-38 2-1 31 36z"/><path class="fil2 str0" d="M284 76c39 0 70 31 70 70s-31 70-70 70-70-31-70-70 31-70 70-70z"/><path class="fil0" d="M180 274l-33-33c-5-6-15-6-21 0l-33 33c-1 2-1 5 1 6 3 4 6 7 10 10l6 6c2 2 5 2 7 0 5-4 9-8 13-12 4-3 10-3 13 0 4 4 9 8 13 12 2 2 5 2 7 0s4-4 7-6c3-3 6-6 10-9 2-2 2-5 0-7z"/><path class="fil0" d="M76 311c9 8 17 16 26 24 8 7 17 15 25 22 5 5 14 5 19 0 9-7 17-15 25-22 9-8 17-16 26-24s3-10-3-16l-8-8c-2-1-5-1-7 0-4 4-9 8-13 12-4 3-9 3-13 0-4-4-8-8-13-12-2-1-5-1-7 0-4 4-8 8-13 12-3 3-9 3-12 0-5-4-9-8-14-12-2-2-5-2-7 0l-7 7c-6 6-13 8-4 17z"/><path class="fil2 str1" d="M137 203c29 0 54 11 72 30 17 18 27 43 25 69-1 25-13 47-31 63-18 15-41 24-67 24-25 0-48-10-65-25-18-15-30-38-32-63-1-26 8-50 26-68 18-19 43-30 72-30z"/><path class="fil1" d="M42 133l1 1c-1 2-2 3-4 4v-1c1-1 2-2 3-4zm177-24l-1 2h-2l-1-1h-1l1-3 1 1h2l1 1zm-12-5l-1 3h-1v-1h-2l-1-1h-1l1-2h3v1h2zm-13-4v3h-2v-1h-3l-1-1 1-2h3v1h2zm-13-3v3l-1-1h-4l-1-1 1-2h3l1 1h1zm-13-3l-1 3h-4l-1-1v-2h6zm-14-1v3h-4l-1-1v-2h5zm-13 0v2h-3l-1 1h-2v-3h6zm-14 1v2h-2v1h-3v-3h5zm-13 2v2h-1v1h-4l-1-2h1l1-1h4zm-14 3l1 3h-2l-1 1h-2l-1-2 1-1h2l1-1h1zm-12 5l1 2h-2v1h-1l-1 1h-1l-1-2v-1h2l1-1h2zm-13 5l1 3h-1v1h-1l-1 1h-1l-2-2h1l1-1h1l1-1h1v-1zm-11 7l1 2c-2 1-3 2-5 3l-1-2c1-1 3-1 4-2l1-1zm-11 8l1 2c-1 1-3 2-4 3l-2-1c2-1 3-2 4-3l1-1z"/><path class="fil0" d="M163 139l-13-10c-3-2-6-1-8 1l-10 14c-1 1 0 2 0 2l5 3 2 2c1 1 2 0 3 0l4-5c1-2 3-2 4-1l6 4c1 0 2 0 2-1l2-2 4-4c0-1 0-2-1-3z"/><path class="fil0" d="M127 159l22 16c2 1 5 1 7-1l16-22c3-3 0-4-2-6l-4-2c-1-1-2-1-2 0l-4 5c-1 2-3 2-5 1l-5-4c-1 0-2 0-3 1l-4 5c-1 1-3 1-5 0l-5-3c-1-1-2-1-3 0l-2 3c-2 3-4 4-1 7zM140 11l-7-4c-1-1-2-1-3 0l-5 6c0 1 0 1 1 2l2 1 1 1h1l2-3s1-1 2 0l2 1c1 1 1 1 1 0l1-1 2-2v-1z"/><path class="fil0" d="M124 20l9 7c1 1 3 1 4 0l7-10c1-2 0-2-1-3l-2-1h-1l-2 3s-1 1-2 0l-3-2-1 1-1 2c-1 1-2 1-3 0l-2-1h-1l-1 1c-1 1-2 2 0 3z"/><path class="fil3" d="M102 108l21 19-1 1-22-18z"/><path class="fil2 str2" d="M185 150c1 20-14 37-34 38s-37-15-38-35 15-36 35-37 36 14 37 34z"/><path class="fil2 str3" d="M150 16c0 9-7 17-16 17-9 1-16-6-17-15 0-9 7-17 16-17 9-1 17 6 17 15z"/><path class="fil3" d="M150 28l-2-2c1 0 2 1 2 1v1zm17 89h-1v-2l2 1h-1v1zm2-5l-1-1v-3l2 1-1 1v2zm2-7l-2-1h1v-2h1v3zm1-7h-1v-3h2v1h-1v2zm1-7h-1v-3h1v3zm1-7h-2v-3h2v3zm-1-7h-1v-3h1v3zm0-7h-2v-2l1-1v2h1v1zm-2-7l-1 1v-2l-1-1h2v2zm-2-6h-1v-1l-1-1v-1h2v3zm-2-7l-2 1v-2l-1-1h2v1l1 1zm-4-6l-1 1v-2h-1v-1l1-1v1h1v2zm-3-6l-1 1c-1-1-1-2-2-3h1s1 1 1 2h1zm-5-5h-1s-1-1-1-2v-1l2 2v1zM102 42l18-15 1 1-18 16z"/><path class="fil4 str4" d="M106 99c-5 12-15 20-26 24-12 3-26 2-38-6-13-7-21-20-25-33-4-14-2-28 6-40 7-12 18-18 30-20s24 1 35 9 18 19 21 30c3 12 3 25-3 36z"/><path class="fil0" d="M93 70c-3-8-6-17-9-25-1-4-6-7-10-6-8 2-15 5-23 7-2 1-3 2-2 4s2 5 3 8c1 1 1 3 2 5 1 1 2 2 4 2l9-3c3-1 5 1 6 3 2 4 3 7 4 10 1 2 2 2 4 2 1-1 3-1 4-1 2-1 5-2 7-3 1 0 2-2 1-3z"/><path class="fil0" d="M31 61c3 7 5 14 8 21s5 14 8 21c2 5 7 7 11 6 6-3 13-5 19-8 6-2 12-4 17-7 6-2 4-5 2-10-1-2-2-4-2-6-1-1-2-2-4-1-3 0-5 1-8 2s-6 0-7-3-2-7-4-10c0-1-2-2-3-2-3 1-6 2-10 3-2 1-5-1-6-4-2-3-3-6-4-10-1-1-3-2-4-2-2 1-4 1-6 2-5 1-10 1-7 8z"/><path class="fil5" d="M308 330l-7 27h-1l5-27zM362 295l24 10v1l-25-8z"/><path class="fil0" d="M339 269c-4-6-9-12-13-17-3-3-7-4-11-1-6 5-13 10-19 15-1 1-1 2-1 3 1 2 3 4 4 5 1 2 2 3 3 4 0 1 2 1 3 0 3-2 5-4 8-5 2-2 5-2 6 0 2 2 4 5 6 7 1 1 2 1 3 0 2-1 3-2 5-2 2-2 4-4 6-5 1-1 1-3 0-4z"/><path class="fil0" d="M283 284c3 5 6 10 9 14 4 5 7 10 10 15 3 4 7 5 11 2 5-4 11-8 16-12 6-4 11-8 17-12 5-4 2-6-1-10-1-1-2-3-3-4s-3-1-4-1c-3 2-6 4-8 6-3 2-5 1-7-1l-6-6c0-1-2-2-3-1-3 2-5 4-8 6-2 1-5 1-6-1-2-2-4-4-5-6-1-1-3-2-4-1s-3 2-4 3c-4 3-7 4-4 9z"/><path class="fil2 str4" d="M339 321c-11 7-24 9-35 7-11-3-21-10-27-20-5-10-6-22-3-32 3-11 10-21 20-28s22-9 33-8 21 6 28 16 9 22 6 34c-2 12-10 23-22 31z"/><path class="fil5" d="M397 330h-1c0-1 0-2 1-3v3zm-70 59v-1h2v1h-2zm6-1v-1h1v-1h2v1l-1 1h-2zm7-2v-1h1v-1h1l1 2h-3zm7-2l-1-1h1v-1h2v1l-1 1h-1zm6-2l-1-2h2v-1h1l1 1h-1v1h-2v1zm6-4v-1h1v-1h1l1 1h-1v1h-2zm6-3v-2h1v-1h1l1 1h-1v1h-1l-1 1zm6-4l-1-1v-1h1v-1h1l1 1h-1v1h-1v1zm5-5l-1-1h1v-1h1v-1l1 1v1h-1l-1 1zm5-5l-1-1v-1h1v-1h1l1 1h-1v1h-1v1zm4-6h-1v-1h1v-1h1v-1l1 1v1h-1v1h-1zm4-6h-1v-1h1v-2l1 1v2h-1zm3-6h-1c0-1 1-2 1-3l1 1s0 1-1 2zm3-6l-1-1c0-1 0-1 1-2h1c-1 1-1 2-1 3z"/><path class="fil4 str2" d="M310 413c-8 4-16 5-24 3s-15-7-20-14c-4-7-5-15-4-23 2-7 7-14 14-19 7-4 15-5 23-4 8 2 16 7 21 14 5 8 6 16 4 24s-7 15-14 19z"/><path class="fil0" d="M309 379c-4-5-7-9-10-14-2-2-6-3-8-1-4 3-9 6-13 9-1 1-1 2-1 3 1 1 2 2 3 4 1 1 2 1 2 2 1 1 2 1 3 1 2-1 3-3 5-4s4 0 5 1c1 2 3 3 4 5 1 1 2 1 2 1 1-1 2-2 3-2 2-1 3-2 4-3 1 0 1-2 1-2z"/><path class="fil0" d="M269 386c3 3 5 7 8 10 2 4 5 7 7 11 2 2 6 3 8 1 3-2 7-5 11-7 3-2 7-5 11-7 3-3 1-4-1-7-1-1-2-2-2-3-1-1-2-1-3 0l-6 3c-1 1-3 1-4-1-2-2-3-3-4-5-1-1-2-1-3 0-2 1-3 2-5 3s-4 1-5-1c-1-1-3-3-4-5 0-1-2-1-2 0-1 0-2 1-3 2-3 1-6 2-3 6z"/><path class="fil2 str5" d="M111 64c43-7 84-14 124-21 38-6 75-12 111-18-3 11-5 23-7 34-3 12-5 24-7 36"/><path class="fil4 str5" d="M344 17c4 0 8 4 9 8s-1 7-6 7c-4 0-8-3-9-8-1-4 2-7 6-7z"/><path class="fil2 str5" d="M351 174c9 6 18 12 26 18 8 5 15 10 22 15-7 6-14 13-21 20-8 8-16 16-25 24"/><path class="fil4 str6" d="M398 200c3 0 6 3 5 6 0 4-2 6-5 6s-5-2-5-6c0-3 2-6 5-6z"/><path class="fil0" d="M402 307c-2-1-4-2-6-4-1-1-2 0-3 1-1 2-2 4-4 6v1c1 0 2 1 2 1 1 0 1 1 1 1h1c1-1 1-2 2-3h2c0 1 1 1 2 2 0 0 1 0 1-1l1-1s0-1 1-2v-1z"/><path class="fil0" d="M387 317c2 1 3 2 5 3 1 1 3 2 4 3 1 0 2 0 3-1 1-2 2-3 3-5 1-1 2-3 3-4 1-2 0-2-1-3 0 0-1 0-1-1h-1c-1 1-1 2-2 3h-1c-1 0-2-1-3-1 0-1 0-1-1 0 0 1-1 1-1 2-1 1-1 1-2 1-1-1-2-1-2-2h-1c-1 1-1 1-1 2-1 1-2 1-1 3z"/><path class="fil2 str3" d="M406 320c-1 3-4 6-7 6-3 1-7 1-10-1s-5-5-5-9c-1-4 0-7 2-11 2-3 5-5 9-5 3-1 6 0 9 2s4 5 5 9c0 3-1 6-3 9z"/><path class="fil0" d="M41 156c-4-3-8-5-12-8-2-1-5-1-6 2-3 4-6 8-9 13 0 1 0 2 1 2 1 1 2 1 4 2 0 1 1 1 2 1 1 1 2 1 2 0 1-2 2-3 3-5 1-1 3-2 4-1 2 1 3 2 5 3 1 0 1 0 2-1s1-2 2-2c0-2 1-3 2-4s0-2 0-2z"/><path class="fil0" d="M11 176c3 2 6 4 10 5 3 2 5 4 8 5 2 1 5 1 6-1 2-3 4-7 7-10l6-9c2-3 0-4-2-5-1-1-2-1-3-2 0 0-1 0-2 1-1 2-2 3-3 5-1 1-3 1-4 1-1-1-3-2-4-3-1 0-2 0-2 1-2 1-3 3-4 5-1 1-2 1-4 1-1-1-3-2-5-3 0 0-1 0-2 1 0 1-1 1-2 2-1 3-3 4 0 6z"/><path class="fil2 str5" d="M25 139c7-2 15 0 21 4 5 4 9 10 10 17 0 7-2 15-6 20-4 6-9 11-16 13s-14 1-20-2-10-8-12-16c-2-7 0-15 4-22s11-12 19-14z"/></g></svg>