<?xml version="1.0" encoding="UTF-8"?>
<!DOCTYPE svg PUBLIC "-//W3C//DTD SVG 1.1//EN" "http://www.w3.org/Graphics/SVG/1.1/DTD/svg11.dtd">
<!-- Creator: CorelDRAW X7 -->
<svg xmlns="http://www.w3.org/2000/svg" xml:space="preserve" width="200px" height="201px" version="1.1" style="shape-rendering:geometricPrecision; text-rendering:geometricPrecision; image-rendering:optimizeQuality; fill-rule:evenodd; clip-rule:evenodd"
viewBox="0 0 5137 5156"
 xmlns:xlink="http://www.w3.org/1999/xlink">
 <defs>
  <style type="text/css">
   <![CDATA[
    .str5 {stroke:#4D4D4D;stroke-width:25.63}
    .str0 {stroke:#4D4D4D;stroke-width:51.2904}
    .str1 {stroke:#4D4D4D;stroke-width:76.9204}
    .str6 {stroke:#4D4D4D;stroke-width:16.6323}
    .str3 {stroke:#4D4D4D;stroke-width:17.0867}
    .str2 {stroke:#4D4D4D;stroke-width:34.234}
    .str4 {stroke:#4D4D4D;stroke-width:51.351}
    .fil0 {fill:none}
    .fil2 {fill:#4D4D4D}
    .fil5 {fill:white}
    .fil4 {fill:#0096DC;fill-rule:nonzero}
    .fil3 {fill:#009933;fill-rule:nonzero}
    .fil1 {fill:#FF6600;fill-rule:nonzero}
   ]]>
  </style>
 </defs>
 <g id="Layer_x0020_1">
  <metadata id="CorelCorpID_0Corel-Layer"/>
  <g id="_968965120">
   <rect class="fil0" y="5" width="5137" height="5137"/>
   <polygon class="fil1" points="2521,2760 2914,2394 2944,2423 2569,2809 "/>
   <polygon class="fil1" points="871,2827 530,2359 549,2343 926,2784 "/>
   <path class="fil2 str0" d="M3541 933c478,0 865,387 865,865 0,477 -387,864 -865,864 -477,0 -864,-387 -864,-864 0,-478 387,-865 864,-865z"/>
   <path class="fil2 str1" d="M1730 2495c354,0 670,145 889,375 215,224 335,527 314,849 -21,311 -171,584 -392,775 -215,187 -503,300 -816,298 -312,-1 -598,-117 -811,-306 -218,-192 -365,-465 -384,-775 -20,-320 99,-620 313,-843 218,-228 533,-373 887,-373z"/>
   <path class="fil1" d="M567 1643l11 12 -1 1c-15,14 -31,29 -47,44l-11 -11c16,-15 31,-30 48,-45l0 -1zm2171 -304l-13 31 -10 -4 -10 -4 -10 -4 -10 -4 -5 -2 12 -31 5 2 10 4 10 4 11 4 10 4zm-140 -53l-11 31 -3 -1 -10 -3 -10 -4 -10 -3 -10 -4 -10 -3 -10 -3 0 0 10 -32 0 0 10 4 10 3 11 3 10 4 10 3 10 4 3 1zm-160 -51l-9 32 -4 -1 -10 -3 -10 -3 -9 -3 -10 -2 -10 -3 -10 -3 -1 0 9 -32 1 0 10 3 9 3 10 2 10 3 10 3 10 3 4 1zm-162 -41l-7 32 -10 -2 -9 -2 -10 -2 -9 -2 -10 -2 -10 -2 -7 -1 6 -33 8 2 9 2 10 1 10 2 10 2 9 3 10 2zm-165 -30l-4 33 -10 -2 -9 -1 -10 -1 -9 -1 -10 -2 -9 -1 -9 -1 4 -33 9 1 9 1 10 2 10 1 9 1 10 1 9 2zm-166 -18l-3 33 -4 0 -9 -1 -9 0 -9 -1 -9 0 -10 0 -9 -1 -6 0 1 -33 6 0 10 0 9 1 9 0 10 1 9 0 10 1 4 0zm-168 -4l1 33 -4 0 -9 0 -9 1 -9 0 -9 0 -9 1 -8 0 -9 1 -2 -34 9 0 9 -1 9 0 9 0 9 -1 10 0 9 0 3 0zm-167 10l3 33 -7 1 -9 1 -9 1 -9 1 -8 1 -9 2 -9 1 -5 1 -5 -33 6 -1 9 -1 8 -2 9 -1 9 -1 9 -1 9 -1 8 -1zm-166 26l6 32 0 0 -8 2 -9 2 -8 2 -9 2 -8 2 -8 1 -9 2 -5 2 -8 -33 5 -1 9 -2 9 -2 8 -2 9 -2 8 -2 9 -1 9 -2 0 0zm-163 41l10 32 -8 2 -8 3 -8 2 -9 3 -8 3 -8 2 -8 3 -6 2 -11 -31 6 -2 9 -3 8 -3 8 -3 8 -2 9 -3 8 -3 8 -2zm-158 56l13 31 -7 3 -7 3 -8 3 -8 4 -8 3 -8 4 -8 3 -7 3 -14 -30 7 -3 8 -4 8 -3 8 -4 8 -3 9 -4 8 -3 6 -3zm-152 72l16 29 -6 3 -7 4 -8 4 -8 4 -7 4 -8 5 -8 4 -6 4 -17 -29 7 -4 8 -4 7 -5 8 -4 8 -4 8 -4 8 -5 5 -2zm-143 86l15 23c-19,12 -37,25 -55,37l-16 -22c17,-12 33,-23 50,-34l6 -4zm-135 100l15 19c-17,14 -34,28 -51,42l-16 -20c17,-13 33,-27 50,-40l2 -1z"/>
   <path class="fil2" d="M2054 1714l-167 -125c-29,-21 -71,-15 -92,14l-124 168c-7,9 -5,23 5,30l50 38 34 22c10,7 23,5 31,-4l50 -63c14,-18 39,-21 57,-9l67 46c10,7 24,5 31,-5l26 -31 37 -51c7,-10 5,-23 -5,-30z"/>
   <path class="fil2" d="M1614 1958l263 194c29,22 70,15 92,-13l194 -263c34,-46 4,-54 -29,-77l-41 -28c-10,-7 -23,-5 -31,4l-50 63c-14,18 -39,22 -58,9l-67 -46c-10,-6 -23,-4 -30,5l-51 63c-14,18 -39,21 -57,9l-67 -46c-10,-7 -23,-5 -31,5l-28 35c-27,33 -57,50 -9,86z"/>
   <path class="fil2" d="M1764 137l-78 -55c-13,-9 -32,-6 -41,7l-55 77c-3,5 -2,11 2,14l24 17 15 10c5,3 11,2 14,-3l23 -29c6,-8 17,-10 25,-4l31 20c5,3 11,2 14,-2l11 -15 17 -23c3,-5 2,-11 -2,-14z"/>
   <path class="fil2" d="M1566 251l121 87c13,9 32,6 41,-7l86 -121c15,-21 2,-25 -14,-35l-18 -12c-5,-3 -11,-2 -14,2l-23 29c-6,8 -17,10 -26,4l-30 -20c-5,-3 -11,-2 -14,3l-23 29c-6,8 -17,10 -26,4l-30 -20c-5,-3 -11,-2 -14,2l-13 17c-12,15 -25,23 -3,38z"/>
   <polygon class="fil3" points="1306,1329 1562,1561 1548,1577 1282,1355 "/>
   <path class="fil0 str2" d="M2326 1851c11,246 -180,453 -425,464 -245,10 -453,-181 -463,-426 -10,-245 180,-453 425,-463 246,-10 453,180 463,425z"/>
   <path class="fil0 str3" d="M1891 202c5,111 -82,205 -193,210 -112,5 -206,-82 -210,-193 -5,-111 81,-206 193,-210 111,-5 205,81 210,193z"/>
   <path class="fil3" d="M1897 339l-6 6 0 -1c-8,-8 -16,-15 -24,-23l5 -6c9,8 17,16 25,24l0 0zm203 1108l-16 -5 2 -6 2 -5 2 -5 2 -6 1 -2 16 5 -1 3 -2 5 -2 6 -2 5 -2 5zm25 -73l-17 -5 1 -1 1 -5 2 -6 1 -5 2 -5 2 -5 1 -5 0 0 16 4 0 0 -1 6 -2 5 -1 5 -2 5 -1 6 -2 5 0 1zm23 -83l-17 -4 0 -2 2 -5 1 -5 1 -5 1 -5 1 -5 1 -5 1 -1 16 4 0 0 -1 5 -1 5 -1 6 -2 5 -1 5 -1 5 0 2zm17 -84l-17 -3 1 -5 1 -5 1 -5 1 -5 0 -5 1 -5 1 -3 17 2 -1 4 -1 5 -1 5 0 5 -1 5 -1 5 -1 5zm12 -85l-17 -2 0 -5 1 -5 0 -5 1 -4 0 -5 0 -5 1 -5 17 1 0 5 -1 5 0 5 -1 5 0 5 -1 5 0 5zm5 -86l-17 -1 0 -2 0 -5 0 -4 0 -5 0 -5 0 -4 0 -5 0 -4 18 0 0 4 0 5 0 4 0 5 0 5 -1 5 0 5 0 2zm-1 -86l-17 1 0 -2 -1 -5 0 -4 0 -5 -1 -5 0 -4 0 -5 -1 -4 17 -2 1 5 0 4 0 5 1 5 0 4 0 5 1 5 0 2zm-9 -86l-17 2 -1 -4 0 -4 -1 -5 -1 -4 -1 -4 0 -5 -1 -4 -1 -3 17 -3 1 3 0 4 1 5 1 4 1 5 1 4 0 5 1 4zm-17 -85l-16 4 0 0 -2 -4 -1 -4 -1 -5 -1 -4 -1 -4 -1 -5 -1 -4 -1 -3 16 -4 1 2 1 5 1 4 2 4 1 5 1 4 1 5 1 4 0 0zm-24 -83l-17 6 -1 -4 -1 -4 -2 -4 -2 -4 -1 -5 -2 -4 -1 -4 -1 -3 15 -6 2 3 1 4 2 4 2 5 1 4 2 4 1 4 2 4zm-33 -80l-15 8 -2 -4 -2 -4 -2 -4 -2 -4 -2 -4 -1 -4 -2 -3 -2 -4 15 -8 2 4 2 4 2 4 2 4 2 4 2 4 2 4 1 3zm-40 -76l-15 9 -1 -3 -2 -4 -3 -4 -2 -4 -2 -4 -3 -3 -2 -4 -2 -4 14 -9 2 4 3 4 2 3 3 4 2 4 2 4 3 4 1 3zm-48 -72l-11 8c-7,-9 -13,-18 -20,-27l11 -9c6,9 12,17 18,25l2 3zm-53 -67l-10 8c-8,-8 -15,-17 -23,-25l10 -9c7,8 15,17 22,25l1 1z"/>
   <polygon class="fil3" points="1296,521 1529,335 1537,345 1319,548 "/>
   <path class="fil2 str4" d="M1352 1226c-68,141 -188,242 -328,284 -145,44 -311,27 -463,-64 -156,-93 -263,-245 -307,-413 -43,-167 -23,-346 69,-493 89,-142 228,-226 377,-247 144,-20 299,16 432,113 130,95 218,231 257,376 39,146 32,302 -37,444z"/>
   <polygon class="fil4" points="3836,4069 3757,4397 3736,4392 3801,4062 "/>
   <polygon class="fil4" points="4500,3636 4800,3752 4796,3764 4488,3670 "/>
   <path class="fil2" d="M4225 3318c-58,-74 -114,-147 -170,-219 -28,-36 -85,-39 -127,-7 -80,61 -159,121 -238,181 -13,11 -17,29 -9,42 16,21 31,43 46,65 11,14 22,28 32,41 10,13 28,15 42,5 32,-23 65,-46 97,-68 27,-19 61,-16 80,7 23,28 45,56 68,84 11,13 30,15 45,5 17,-12 33,-24 50,-35 25,-19 51,-38 76,-57 15,-11 19,-31 8,-44z"/>
   <path class="fil2" d="M3529 3500c38,58 78,117 117,177 41,60 82,122 124,184 28,42 86,51 130,18 66,-48 133,-97 200,-147 67,-49 134,-99 202,-149 71,-52 32,-74 -5,-119 -15,-18 -30,-36 -44,-54 -11,-13 -31,-14 -46,-4 -34,23 -67,47 -101,70 -28,19 -63,15 -82,-8 -23,-29 -46,-57 -69,-85 -10,-12 -28,-14 -43,-4 -32,23 -65,46 -97,68 -26,19 -60,15 -78,-8 -21,-27 -42,-54 -63,-82 -9,-12 -27,-13 -41,-4 -17,13 -35,25 -52,38 -48,34 -93,47 -52,109z"/>
   <path class="fil0 str4" d="M4225 3951c-142,91 -300,116 -440,84 -137,-30 -255,-113 -324,-240 -67,-123 -77,-266 -39,-398 38,-130 122,-252 245,-338 125,-86 269,-121 403,-106 137,15 265,82 350,200 88,122 111,274 77,420 -35,148 -130,287 -272,378z"/>
   <path class="fil4" d="M4930 4065l-8 -3 0 0c3,-11 6,-22 8,-32l8 1c-2,11 -5,22 -8,33l0 1zm-856 732l-3 -16 5 -1 6 -2 5 -1 6 -1 3 0 3 17 -3 0 -5 1 -6 1 -6 1 -5 1zm75 -15l-4 -17 2 0 5 -2 5 -1 6 -1 5 -1 5 -2 5 -1 0 0 5 16 0 0 -6 2 -5 1 -5 1 -6 2 -5 1 -5 1 -2 1zm84 -22l-5 -17 2 0 5 -2 5 -1 5 -2 5 -2 5 -1 5 -2 0 0 5 16 0 1 -5 1 -5 2 -5 1 -5 2 -5 1 -5 2 -2 1zm81 -27l-6 -17 5 -1 5 -2 4 -2 5 -2 5 -2 5 -1 3 -2 6 16 -3 2 -5 1 -5 2 -4 2 -5 2 -5 2 -5 2zm80 -33l-7 -16 4 -2 5 -2 4 -2 5 -2 4 -2 4 -2 5 -2 7 15 -4 2 -5 2 -4 3 -5 2 -4 2 -5 2 -4 2zm77 -39l-8 -15 2 -1 4 -2 4 -2 4 -3 4 -2 4 -2 4 -3 3 -2 9 15 -3 2 -4 2 -4 3 -5 2 -4 3 -4 2 -4 2 -2 1zm74 -44l-10 -15 2 -1 4 -2 3 -3 4 -2 4 -3 4 -3 3 -2 4 -3 10 14 -4 3 -3 2 -4 3 -4 3 -4 2 -4 3 -4 3 -1 1zm69 -51l-10 -13 3 -3 3 -3 4 -3 3 -3 4 -2 3 -3 4 -3 2 -2 11 13 -2 2 -4 3 -3 3 -4 3 -3 3 -4 2 -4 3 -3 3zm65 -57l-12 -12 0 0 4 -4 3 -3 3 -3 3 -3 3 -3 3 -3 3 -3 2 -2 13 11 -2 2 -3 4 -4 3 -3 3 -3 3 -3 3 -4 4 -3 3 0 0zm59 -63l-13 -11 3 -3 3 -4 3 -3 2 -3 3 -4 3 -3 3 -4 2 -2 13 10 -2 3 -3 3 -2 4 -3 3 -3 4 -3 3 -3 4 -3 3zm53 -68l-14 -10 2 -3 3 -4 2 -3 3 -4 2 -4 3 -3 2 -4 2 -3 14 9 -2 3 -2 4 -3 4 -2 4 -3 3 -2 4 -3 4 -2 3zm46 -73l-15 -9 2 -2 2 -4 2 -4 2 -4 3 -4 2 -4 2 -4 2 -3 15 8 -2 3 -2 4 -2 4 -2 4 -3 4 -2 4 -2 4 -2 3zm38 -77l-13 -6c5,-11 10,-21 14,-31l13 5c-4,9 -8,19 -12,28l-2 4zm31 -81l-12 -4c4,-11 7,-21 11,-32l12 4c-3,10 -7,21 -10,31l-1 1z"/>
   <path class="fil5 str2" d="M3860 5090c-93,52 -199,60 -295,34 -96,-25 -182,-86 -238,-174 -55,-88 -70,-189 -50,-280 20,-92 75,-176 163,-230 88,-55 193,-70 291,-49 99,21 191,80 251,171 61,91 78,197 55,293 -22,96 -84,183 -177,235z"/>
   <path class="fil2" d="M3849 4664c-42,-55 -84,-111 -126,-167 -22,-28 -63,-35 -92,-14 -55,39 -110,78 -165,116 -9,7 -11,20 -4,29 12,17 24,34 36,50 8,10 17,21 25,31 7,9 20,12 30,5 22,-14 44,-28 66,-42 19,-11 44,-7 58,10 16,21 33,42 50,63 8,10 21,12 31,6 12,-7 23,-14 35,-21 17,-12 34,-24 51,-36 10,-6 12,-20 5,-30z"/>
   <path class="fil2" d="M3361 4751c31,43 62,86 93,129 32,43 63,87 95,130 21,29 62,37 91,18 43,-29 88,-58 132,-88 45,-30 90,-60 135,-90 47,-31 20,-48 -6,-80 -10,-14 -21,-27 -31,-40 -8,-10 -22,-12 -32,-6 -23,15 -46,29 -68,43 -19,12 -44,7 -58,-10 -17,-21 -34,-42 -51,-63 -7,-10 -21,-12 -31,-6 -22,14 -44,28 -66,42 -18,12 -42,8 -56,-10 -17,-20 -33,-41 -50,-62 -7,-9 -20,-11 -29,-5 -12,8 -24,16 -36,24 -34,21 -66,28 -32,74z"/>
   <path class="fil0 str5" d="M1406 793c532,-90 1042,-176 1533,-259 471,-79 926,-156 1363,-230 -28,140 -56,281 -84,425 -29,146 -58,294 -87,444"/>
   <path class="fil5 str5" d="M4280 212c51,2 103,45 116,95 12,51 -20,91 -72,90 -52,-2 -104,-45 -116,-96 -12,-51 20,-91 72,-89z"/>
   <path class="fil0 str5" d="M4342 2125c114,79 248,168 349,237 94,65 184,127 268,185 -83,81 -170,165 -261,254 -96,93 -196,191 -302,293"/>
   <path class="fil5 str6" d="M4953 2467c36,1 63,35 62,76 -1,41 -30,74 -65,74 -37,0 -66,-34 -66,-76 1,-42 32,-76 69,-74z"/>
   <path class="fil2 str3" d="M5052 3948c-23,37 -58,62 -96,72 -38,10 -80,4 -116,-20 -37,-24 -61,-64 -68,-107 -7,-45 2,-92 29,-133 26,-40 65,-64 106,-70 40,-7 81,3 114,31 33,27 52,65 57,106 6,40 -3,83 -26,121z"/>
   <path class="fil2 str5" d="M346 1713c98,-24 190,-5 260,45 68,48 114,124 124,216 10,89 -16,177 -65,248 -48,71 -120,127 -205,153 -87,26 -173,17 -243,-20 -73,-38 -129,-106 -151,-196 -22,-93 -2,-191 48,-273 52,-83 134,-148 232,-173z"/>
   <path class="fil5" d="M2262 3376c-132,-133 -267,-267 -403,-404 -71,-71 -189,-71 -260,0 -136,136 -271,269 -403,400 -23,23 -21,60 2,82 42,40 83,79 124,118 28,24 55,48 83,72 24,21 60,21 84,0 53,-47 107,-95 161,-143 44,-40 113,-40 158,0 53,49 107,97 160,144 24,22 60,22 85,1 27,-24 55,-48 82,-72 42,-38 83,-77 125,-116 24,-23 25,-60 2,-82z"/>
   <path class="fil5" d="M984 3831c106,98 211,195 315,290 103,95 205,189 307,281 66,61 174,62 241,2 101,-92 204,-185 308,-279 105,-95 211,-191 319,-288 113,-103 38,-134 -39,-206 -32,-30 -64,-60 -96,-90 -23,-22 -60,-22 -85,-1 -56,48 -111,96 -166,143 -45,39 -113,39 -157,0 -53,-48 -106,-96 -160,-144 -24,-21 -61,-21 -85,0 -54,48 -107,95 -161,143 -44,38 -111,38 -156,-1 -55,-48 -109,-95 -164,-144 -25,-21 -62,-21 -85,0 -29,27 -59,54 -88,81 -80,73 -165,106 -48,213z"/>
   <path class="fil5" d="M548 1918c-47,-31 -95,-63 -143,-95 -26,-17 -62,-7 -80,21 -34,54 -68,108 -102,162 -6,9 -3,21 5,26 16,9 31,18 46,27 9,5 19,10 29,15 9,5 20,2 26,-7 14,-19 27,-39 41,-59 12,-16 33,-22 48,-13 19,10 38,21 57,32 8,4 19,1 25,-7 7,-10 14,-20 21,-30 10,-15 20,-31 30,-46 6,-9 5,-21 -3,-26z"/>
   <path class="fil5" d="M182 2171c39,22 78,44 115,65 37,20 74,41 109,60 24,13 56,4 73,-21 26,-38 51,-76 77,-114 26,-39 52,-78 78,-117 28,-41 4,-45 -22,-61 -11,-6 -22,-13 -33,-20 -8,-5 -19,-2 -25,7 -14,20 -28,39 -42,58 -11,16 -31,22 -47,14 -18,-11 -37,-22 -56,-32 -8,-5 -19,-2 -26,7 -13,20 -27,39 -41,59 -11,16 -32,22 -48,13 -19,-10 -39,-21 -59,-31 -9,-5 -20,-2 -26,7 -8,11 -16,22 -23,33 -21,31 -47,49 -4,73z"/>
   <path class="fil5" d="M3919 1545l-287 -287c-50,-50 -131,-50 -181,0l-286 286c-17,17 -17,44 0,60l87 87 58 54c17,16 43,16 60,0l116 -107c32,-30 81,-30 112,0l116 107c17,16 43,16 60,0l58 -54 87 -86c16,-16 16,-43 0,-60z"/>
   <path class="fil5" d="M3002 1888l449 450c50,49 131,49 181,0l449 -450c78,-78 23,-101 -34,-155l-70 -67c-17,-16 -44,-16 -61,0l-116 107c-31,29 -80,29 -112,0l-116 -107c-17,-16 -43,-16 -60,0l-116 107c-32,29 -80,29 -112,0l-116 -107c-17,-16 -43,-16 -60,0l-65 60c-60,55 -123,81 -41,162z"/>
   <path class="fil5" d="M1193 859c-38,-101 -75,-203 -113,-305 -19,-53 -74,-85 -122,-70 -95,27 -192,56 -291,85 -17,5 -26,24 -19,43 12,32 24,65 36,97 8,21 17,42 25,62 8,18 27,29 45,24 39,-11 77,-22 115,-33 32,-8 66,10 79,43 17,40 33,80 50,120 7,18 25,28 41,23 19,-6 37,-12 55,-17 28,-10 55,-20 82,-30 16,-5 23,-24 17,-42z"/>
   <path class="fil5" d="M430 754c32,87 64,173 96,260 32,86 64,172 96,259 21,56 82,86 135,65 79,-31 156,-61 232,-91 74,-29 147,-58 218,-86 73,-29 43,-65 20,-123 -10,-24 -19,-48 -29,-73 -7,-17 -24,-27 -40,-22 -36,12 -72,23 -109,34 -30,10 -64,-8 -78,-41 -16,-40 -33,-80 -49,-121 -7,-17 -26,-27 -43,-23 -38,11 -77,22 -116,33 -32,9 -68,-10 -82,-44 -17,-41 -34,-82 -51,-124 -7,-18 -27,-29 -45,-24 -23,6 -45,12 -68,17 -65,17 -122,10 -87,104z"/>
   <path class="fil5" d="M4993 3786c-22,-17 -44,-34 -67,-52 -11,-9 -28,-6 -37,7 -16,25 -33,50 -50,76 -3,4 -2,10 2,13 8,5 15,10 22,16 4,3 9,6 14,9 4,3 9,1 12,-3 7,-9 14,-19 20,-28 6,-8 16,-10 23,-5 9,6 18,12 27,19 4,2 9,1 12,-3 3,-5 6,-9 9,-14 5,-7 10,-15 14,-22 3,-4 2,-10 -1,-13z"/>
   <path class="fil5" d="M4817 3901c18,13 37,26 55,38 18,13 36,25 53,37 12,8 28,4 36,-9 12,-19 25,-38 37,-57 12,-19 24,-38 36,-57 12,-20 1,-23 -11,-32 -5,-4 -10,-7 -16,-11 -3,-3 -8,-2 -11,2 -7,10 -13,19 -19,28 -6,8 -15,10 -23,5 -8,-6 -17,-13 -26,-19 -4,-2 -9,-1 -12,3 -7,9 -14,19 -20,28 -6,8 -16,10 -24,5 -9,-6 -18,-12 -28,-18 -4,-3 -10,-2 -13,2 -4,6 -7,11 -11,17 -11,15 -24,23 -3,38z"/>
  </g>
 </g>
</svg>
