<svg xmlns="http://www.w3.org/2000/svg" width="200" height="200" viewBox="0 0 16666 16666" shape-rendering="geometricPrecision" text-rendering="geometricPrecision" image-rendering="optimizeQuality" fill-rule="evenodd" clip-rule="evenodd"><defs><style><![CDATA[
    .fil0 {fill:none}
    .fil3 {fill:#333333}
    .fil6 {fill:#999999}
    .fil4 {fill:#CF142B}
    .fil5 {fill:white}
    .fil2 {fill:#333333;fill-rule:nonzero}
    .fil1 {fill:#CF142B;fill-rule:nonzero}
   ]]></style></defs><g id="Layer_x0020_1"><g id="_1108299888"><path class="fil0" d="M0 0h16666v16666H0z"/><path class="fil1" d="M9737 11345H7085l-2644 4431-59-46 2654-4447 11-16h2690zM12154 4002h-2000v2904h-75V3925h2075z"/><path class="fil2" d="M3643 7932v6394h83V7932z"/><path class="fil2" d="M3729 3396l-19 4602 2485 1099-35 77-2509-1111-23-12v-26l19-4629z"/><path class="fil1" d="M11691 10345v4605l2251 1146-35 77-2275-1158-23-11v-4659z"/><path class="fil3" d="M9364 9087c-223-73-443-158-660-245-62-25-108-80-164-118-24-17-55-32-84-37-101-14-264-45-288-134-32-115-54-231-27-351 2-9 5-17 8-25s6-16 10-23c2-2 3-4 4-6 4-6 8-12 13-17 3-3 6-6 10-9 4-4 8-8 13-11 10-5 20-10 32-15h2c6-3 16-5 24-8 119-36 350-75 475-113 12-4 24-8 34-11 88-34 94-61 62-142-102-256-178-516-202-789-19-205-4-416-87-613-48-112-163-402-550-454-320-29-396-41-624 24-286 83-420 305-463 406-84 198-69 408-87 613-25 273-101 534-202 789-32 81-27 109 61 142 119 44 414 91 534 132 58 20 79 54 91 106 27 120 5 236-26 352-24 88-154 143-255 158-30 4-60 19-84 36-56 38-102 93-164 118-218 87-437 172-661 245l-27 10v630h3310v-630l-28-10z"/><path class="fil4" d="M10342 6297c-89 0-170 42-226 107-56-65-137-107-226-107-170 0-309 150-309 334 0 49 8 97 23 142 0 0 13 41 24 64 130 288 488 475 488 475s358-187 488-475c0 0 17-39 24-64 14-46 22-93 22-142 0-184-138-334-308-334zM10342 7505c-89 0-170 41-226 106-56-65-137-106-226-106-170 0-309 149-309 333 0 49 8 97 23 142 0 0 13 41 24 64 130 288 488 475 488 475s358-187 488-475c0 0 17-39 24-64 14-45 22-93 22-142 0-184-138-333-308-333zM10342 8712c-89 0-170 41-226 107-56-66-137-107-226-107-170 0-309 149-309 333 0 50 8 97 23 143 0 0 13 40 24 63 130 289 488 476 488 476s358-187 488-476c0 0 17-38 24-63 14-46 22-93 22-143 0-184-138-333-308-333z"/><path class="fil3" d="M8792 15207c-457-170-603-313-603-620 0-34 5-59 13-81 36-95 138-105 188-381 25-140 149-2 172-322 0-127-67-159-67-159s34-188 47-333c17-181-102-648-736-648h-16c-634 0-753 467-736 648 13 145 47 333 47 333s-67 32-67 159c24 320 147 182 172 322 50 276 152 286 188 381 8 22 13 47 13 81 0 307-146 450-603 620-458 171-664 345-664 463v777h3316v-777c0-118-206-292-664-463z"/><path class="fil4" d="M10343 15433c-90 0-170 41-226 106-57-65-137-106-226-106-171 0-309 149-309 333 0 49 8 97 22 142 0 0 13 41 25 64 130 288 488 475 488 475s358-187 488-475c0 0 16-39 24-64 13-45 22-93 22-142 0-184-138-333-308-333z"/><path class="fil3" d="M2857 2763c-457-170-603-313-603-620 0-34 5-60 13-81 36-95 138-106 188-381 25-140 148-2 172-322 0-127-67-159-67-159s34-189 47-334c17-180-102-648-736-648-3 0-6 1-8 1-3 0-6-1-8-1-634 0-753 468-737 648 14 145 48 334 48 334s-67 32-67 159c23 320 147 182 172 322 50 275 152 286 188 381 8 21 13 47 13 81 0 307-146 450-603 620-458 170-665 344-665 463v777h3317v-777c0-119-206-293-664-463zM4669 3340c25-44 53-86 39-141-8-33-30-60-66-80 9-23 21-65 6-107-14-37-45-62-80-76-8-48-29-96-65-128-116-99-419-38-543 8-114 42-191 56-313 56v544h170c81 52 145 126 224 181 47 33 142 96 174 340 4 30 15 50 33 60 24 12 53 3 75-10 159-92 5-252 61-377 47-108 147-43 234-65 84-20 101-66 101-102-1-44-29-86-50-103zM4669 1973c25-44 53-86 39-141-8-33-30-61-66-81 9-23 21-65 6-106-14-37-45-62-80-76-8-48-29-97-65-128-116-100-419-39-543 7-114 43-191 57-313 57v543l170 1c81 52 145 125 224 180 47 33 142 96 174 340 4 30 15 50 33 60 24 13 53 4 75-9 159-92 5-252 61-378 47-108 147-43 234-64 84-20 101-67 101-102-1-44-29-86-50-103zM15199 3363c-224-73-443-158-661-245-62-25-108-80-163-118-25-17-55-33-85-37-101-14-264-45-288-134-31-115-53-231-26-351 2-9 4-17 7-25s7-16 11-23c1-2 2-5 4-6 3-6 7-12 12-17 3-3 7-6 10-9 5-4 9-8 14-11 9-5 19-10 31-15h2c7-3 16-5 24-8 120-36 350-75 475-113 12-4 25-8 34-11 89-34 94-61 62-142-102-256-177-516-202-789-18-205-3-416-87-613-47-112-163-402-549-454-320-30-396-41-624 24-287 83-421 305-464 406-84 198-68 408-87 613-25 273-100 533-202 789-32 81-27 109 62 142 118 44 414 91 533 132 58 20 80 54 91 106 28 120 5 236-26 352-24 88-154 143-255 157-29 5-59 20-84 37-56 38-102 93-164 118-217 87-437 172-660 245l-28 10v630h3310v-630l-27-10z"/><path class="fil4" d="M16153 2988c-89 0-170 41-226 107-57-66-137-107-226-107-171 0-309 149-309 333 0 49 8 97 23 143 0 0 12 41 24 63 130 288 488 476 488 476s358-188 488-476c0 0 17-38 24-63 13-46 22-94 22-143 0-184-138-333-308-333z"/><ellipse class="fil5" cx="11651" cy="14957" rx="400" ry="413"/><path class="fil4" d="M11756 14758c-42 0-79 20-105 50-27-30-64-50-106-50-79 0-144 70-144 156 0 23 4 45 11 66 0 0 6 19 11 30 61 134 228 221 228 221s166-87 227-221c0 0 8-18 11-30 7-21 11-43 11-66 0-86-65-156-144-156z"/><path class="fil1" d="M11651 14513c118 0 226 50 304 130s126 191 126 314c0 122-48 234-126 314s-186 130-304 130c-119 0-227-50-305-130s-126-192-126-314c0-123 48-234 126-314s186-130 305-130zm267 167c-68-70-163-114-267-114-105 0-200 44-268 114v1c-69 70-111 168-111 276s42 206 111 276c68 71 163 115 268 115 104 0 199-44 267-115 69-70 111-168 111-276s-42-206-111-276v-1z"/><ellipse class="fil5" cx="3667" cy="8003" rx="400" ry="413"/><path class="fil2" d="M3667 7559c119 0 227 50 305 130s126 191 126 314-48 234-126 314-186 130-305 130c-118 0-226-50-304-130s-126-191-126-314c0-122 48-234 126-314s186-130 304-130zm268 168c-68-71-163-115-268-115-104 0-199 44-267 115h-1c-68 70-110 168-110 276s42 206 110 276h1c68 71 163 115 267 115 105 0 200-44 268-115 69-70 111-168 111-276s-42-206-111-276z"/><path class="fil3" d="M3865 8003c10-18 21-35 15-57-3-13-12-24-26-33 3-9 8-26 2-43-5-15-18-25-32-30-3-20-12-39-27-52-46-41-169-16-219 3-47 17-78 23-127 23v220h69c32 21 59 51 91 73 19 13 57 39 70 137 2 12 6 21 13 25 10 5 22 1 31-4 64-37 2-102 24-153 19-44 60-17 95-26 34-8 41-27 41-41 0-18-12-35-20-42z"/><path class="fil1" d="M11609 13463V8858l-1511-798 35-77 1535 810 23 11v4659zM10075 9372v6394h82V9372z"/><ellipse class="fil5" cx="10116" cy="11310" rx="400" ry="413"/><path class="fil4" d="M10221 11112c-41 0-79 19-105 50-26-31-64-50-105-50-80 0-144 69-144 155 0 23 4 45 10 67 0 0 6 19 11 29 61 135 228 222 228 222s167-87 227-222c0 0 8-18 12-29 6-22 10-44 10-67 0-86-64-155-144-155z"/><path class="fil1" d="M10116 10866c119 0 226 50 304 130 78 81 126 192 126 314 0 123-48 234-126 315-77 80-185 130-304 130s-227-50-304-130v-1c-78-80-126-191-126-314 0-122 48-233 126-314 78-80 185-130 304-130zm268 168c-69-71-163-114-268-114s-200 43-268 114-111 168-111 276 43 206 111 277c69 71 163 114 268 114s199-43 268-114c68-71 111-169 111-277s-43-205-111-276zM13120 5604l2811-1605-35-77-2835 1617-24 12v10153h83V5604z"/><ellipse class="fil5" cx="13083" cy="5595" rx="400" ry="413"/><path class="fil4" d="M13189 5396c-42 0-79 19-106 50-26-31-64-50-105-50-79 0-144 70-144 155 0 24 4 46 10 67 0 0 6 19 12 29 60 135 227 222 227 222s167-87 228-222c0 0 7-17 11-29 6-21 10-43 10-67 0-85-64-155-143-155z"/><path class="fil1" d="M13083 5151c119 0 227 49 305 130 77 80 126 191 126 314 0 122-49 233-126 314-78 80-186 130-305 130s-226-50-304-130c-78-81-126-192-126-314 0-123 48-234 126-314 78-81 186-130 304-130zm268 167c-68-70-163-114-268-114-104 0-199 44-268 114-68 71-111 169-111 277s43 206 111 276c69 71 164 114 268 114 105 0 200-43 268-114s111-168 111-276-43-206-111-277z"/><path class="fil6" d="M15827 15092c-436-163-575-300-575-593 0-32 4-56 12-77 34-90 132-100 179-363 24-134 142-2 165-308 0-121-65-151-65-151s33-180 46-319c16-172-98-618-703-618h-15c-321 0-504 125-602 268l371 62 119 3282h1702v-742c0-113-197-279-634-441z"/><path class="fil3" d="M15554 15264c-436-162-576-299-576-592 0-32 5-57 13-77 34-91 131-101 179-364 24-133 142-2 164-307 0-122-64-152-64-152s33-180 45-318c16-173-97-619-702-619-3 0-5 1-8 1s-5-1-8-1c-605 0-718 446-702 619 12 138 45 318 45 318s-64 30-64 152c22 305 140 174 164 307 48 263 145 273 180 364 7 20 12 45 12 77 0 293-140 430-576 592-437 163-634 329-634 442v741h3166v-741c0-113-197-279-634-442z"/><path class="fil2" d="M11944 3458H6180l-22-7-1795-1232 43-72 1786 1226h5752z"/><g><ellipse class="fil5" cx="6174" cy="3379" rx="400" ry="413"/><path class="fil2" d="M6175 2935c118 0 226 50 304 130s126 192 126 314c0 123-48 234-126 314-78 81-186 130-304 130-119 0-227-49-305-130-78-80-126-191-126-314 0-122 48-233 126-314 78-80 186-130 305-130zm267 168c-68-71-163-115-267-115-105 0-200 44-268 115-69 70-111 168-111 276s42 206 111 277c68 70 163 114 268 114 104 0 199-44 267-114 69-71 111-169 111-277s-42-206-111-276z"/><path class="fil3" d="M6372 3379c10-18 21-35 16-57-4-13-13-24-27-32 4-10 8-27 2-43-5-16-18-25-32-31-3-20-12-39-26-52-47-40-170-16-220 3-46 17-78 23-127 23v220h69c33 21 59 51 91 73 19 13 57 39 70 138 2 12 6 20 14 24 9 5 21 1 30-4 64-37 2-102 24-153 19-43 60-17 95-26 34-8 41-27 41-41 0-18-12-35-20-42z"/></g><g><path class="fil3" d="M2857 15207c-457-170-603-313-603-620 0-34 5-59 13-81 36-95 138-105 188-381 25-140 148-2 172-322 0-127-67-159-67-159s34-188 47-333c17-181-102-648-736-648h-16c-634 0-753 467-737 648 14 145 48 333 48 333s-67 32-67 159c23 320 147 182 172 322 50 276 152 286 188 381 8 22 13 47 13 81 0 307-146 450-603 620-458 171-665 345-665 463v777h3317v-777c0-118-206-292-664-463z"/><path class="fil4" d="M4407 15433c-89 0-169 41-226 106-56-65-137-106-226-106-170 0-308 149-308 333 0 49 8 97 22 142 0 0 13 41 24 64 130 288 488 475 488 475s358-187 488-475c0 0 17-39 24-64 14-45 23-93 23-142 0-184-138-333-309-333z"/></g><path class="fil3" d="M4666 14551c25-44 52-86 39-141-8-33-30-60-66-80 9-23 21-65 5-107-13-37-45-61-79-76-8-48-29-96-65-128-116-99-419-38-543 8-115 42-192 56-314 56v544h170c81 52 146 126 225 181 47 33 142 96 174 340 4 30 14 50 33 60 24 12 53 3 75-10 159-92 5-252 60-377 48-108 147-43 235-64 84-21 101-67 101-103-1-44-29-86-50-103zM3441 6006l239-702 239 702zM3441 10195l239 702 239-702z"/><path class="fil4" d="M12844 10164l239-702 239 702zM11412 12183l239-702 238 702zM9877 13683l239-702 239 702z"/><path class="fil3" d="M9534 3660l-681-247 681-246z"/><g><ellipse class="fil5" cx="10116" cy="4255" rx="400" ry="413"/><path class="fil4" d="M10221 4057c-41 0-79 19-105 49-26-30-64-49-105-49-80 0-144 69-144 155 0 23 4 45 10 66 0 0 6 20 11 30 61 135 228 222 228 222s167-87 227-222c0 0 8-18 12-30 6-21 10-43 10-66 0-86-64-155-144-155z"/><path class="fil1" d="M10116 3811c119 0 226 50 304 130 78 81 126 192 126 314 0 123-48 234-126 314-77 81-185 130-304 130s-227-49-305-130h1c-78-80-126-191-126-314 0-122 48-233 125-314h1c78-80 185-130 304-130zm268 168c-69-71-163-114-268-114s-200 43-268 114c-68 70-111 168-111 276s43 206 111 277c69 70 163 114 268 114s199-44 268-114c68-71 111-169 111-277s-43-205-111-276z"/></g><path class="fil4" d="M9877 5173l239 702 239-702z"/><g><ellipse class="fil5" cx="7066" cy="11310" rx="400" ry="413"/><path class="fil4" d="M7171 11112c-41 0-79 19-105 50-26-31-64-50-105-50-80 0-144 69-144 155 0 23 4 45 10 67 0 0 6 19 12 29 60 135 227 222 227 222s167-87 228-222c0 0 7-18 11-29 6-22 10-44 10-67 0-86-64-155-144-155z"/><path class="fil1" d="M7066 10866c119 0 227 50 304 130 78 81 126 192 126 314 0 123-48 234-126 315-77 80-185 130-304 130s-226-50-304-130v-1c-78-80-126-191-126-314 0-122 48-233 126-314 78-80 185-130 304-130zm268 168c-68-71-163-114-268-114s-199 43-268 114c-68 71-111 168-111 276s43 206 111 277c69 71 163 114 268 114s199-43 268-114c68-71 111-169 111-277s-43-205-111-276z"/></g><path class="fil4" d="M6200 13230l-558 469 150-727z"/></g></g></svg>