<?xml version="1.0" encoding="UTF-8"?>
<!DOCTYPE svg PUBLIC "-//W3C//DTD SVG 1.1//EN" "http://www.w3.org/Graphics/SVG/1.1/DTD/svg11.dtd">
<!-- Creator: CorelDRAW X7 -->
<svg xmlns="http://www.w3.org/2000/svg" xml:space="preserve" width="200px" height="200px" version="1.1" style="shape-rendering:geometricPrecision; text-rendering:geometricPrecision; image-rendering:optimizeQuality; fill-rule:evenodd; clip-rule:evenodd"
viewBox="0 0 3659 3659"
 xmlns:xlink="http://www.w3.org/1999/xlink">
 <defs>
  <style type="text/css">
   <![CDATA[
    .str3 {stroke:#1A1A1A;stroke-width:18.2796}
    .str1 {stroke:#0096DC;stroke-width:16.4646}
    .str0 {stroke:#009933;stroke-width:16.4646}
    .str2 {stroke:#FF6600;stroke-width:16.4646}
    .fil0 {fill:none}
    .fil6 {fill:#333333}
    .fil4 {fill:#4D4D4D}
    .fil7 {fill:white}
    .fil3 {fill:#0096DC;fill-rule:nonzero}
    .fil2 {fill:#33CC66;fill-rule:nonzero}
    .fil5 {fill:#4D4D4D;fill-rule:nonzero}
    .fil1 {fill:#FF6600;fill-rule:nonzero}
   ]]>
  </style>
 </defs>
 <g id="Layer_x0020_1">
  <metadata id="CorelCorpID_0Corel-Layer"/>
  <rect class="fil0" width="3659" height="3659"/>
  <g id="_968945888">
   <line class="fil0 str0" x1="2870" y1="2223" x2="3281" y2= "2806" />
   <path class="fil1" d="M1364 1241c7,-10 14,-20 21,-30 -7,-5 -15,-11 -23,-16 -7,10 -14,20 -22,30 8,5 16,11 24,16zm-55 103c-7,10 -14,20 -21,30 8,6 16,12 24,17 0,-1 1,-2 2,-3 2,2 4,4 7,6 7,-10 14,-21 21,-31 -8,-6 -16,-11 -25,-17 0,1 -1,2 -2,3 -2,-2 -4,-3 -6,-5zm195 -130c9,-13 18,-26 27,-39 -8,-6 -16,-12 -24,-17 -9,13 -18,26 -27,39 8,5 16,11 24,17zm-110 76c7,-10 14,-20 21,-30 -8,-5 -15,-11 -23,-17 -7,10 -15,20 -22,30 8,6 16,12 24,17zm-86 124c-8,-5 -16,-11 -24,-17 -1,1 -2,2 -2,3 -1,0 -2,-1 -3,-1 -7,10 -14,20 -21,30 9,6 17,12 25,17 1,-1 1,-2 2,-3 1,1 1,1 1,1 7,-10 15,-20 22,-30zm44 -115c-7,10 -15,20 -22,30 8,6 16,11 24,17 1,-1 2,-2 2,-3 0,0 1,1 1,1 7,-10 14,-21 21,-31 -8,-5 -16,-11 -24,-17 0,1 -1,2 -2,3 0,0 0,0 0,0zm-143 152c-7,10 -14,20 -21,30 8,6 16,11 24,17 4,-7 9,-13 13,-20 7,6 15,11 22,16 7,-10 14,-20 21,-30 -9,-7 -18,-13 -27,-19 -5,6 -9,12 -14,19 -6,-5 -12,-9 -18,-13zm15 159c7,-10 14,-20 21,-30 -8,-6 -16,-12 -24,-17 -7,10 -14,20 -21,30 8,6 16,11 24,17zm118 -131c7,-10 15,-20 22,-30 -8,-6 -16,-11 -24,-17 -7,10 -14,20 -21,30 8,6 15,11 23,17zm-281 218c-7,10 -14,20 -21,30 8,5 15,11 23,17 2,-3 5,-6 7,-9 1,1 3,2 4,3 7,-10 14,-20 22,-30 -1,0 -1,0 -1,0 -8,-6 -16,-12 -24,-17 -2,3 -4,6 -6,9 -1,-1 -3,-2 -4,-3zm86 29c7,-10 15,-20 22,-30 -8,-6 -16,-12 -24,-17 -7,10 -14,20 -22,30 8,6 16,11 24,17zm-42 -33c7,-10 14,-20 22,-30 -9,-6 -17,-12 -25,-17 -7,10 -14,20 -21,30 8,6 16,11 24,17zm-43 -52c7,-10 14,-20 22,-30 -8,-5 -16,-11 -24,-16 -7,10 -14,20 -22,30 8,5 16,11 24,16zm132 -76c-8,-7 -17,-13 -26,-19 -1,1 -2,2 -2,3 0,0 0,0 0,0 -8,10 -15,20 -22,30 8,5 16,11 24,17 1,-1 2,-2 2,-3 1,0 2,1 3,2 7,-10 14,-20 21,-30zm16 -18c7,-10 14,-20 21,-30 -9,-6 -19,-13 -28,-19 -7,10 -14,20 -21,30 9,6 19,13 28,19zm-73 98c8,-10 15,-20 22,-30 -9,-7 -18,-13 -27,-19 -7,10 -14,20 -21,30 9,6 18,13 26,19z"/>
   <line class="fil0 str1" x1="2003" y1="2223" x2="2413" y2= "2806" />
   <line class="fil0 str1" x1="1671" y1="2223" x2="1260" y2= "2806" />
   <line class="fil0 str2" x1="773" y1="2223" x2="363" y2= "2806" />
   <g>
    <path class="fil2" d="M2442 1667c7,10 14,20 21,30 -8,6 -16,11 -24,17 -7,-10 -14,-20 -21,-30 8,-6 16,-11 24,-17zm-56 -103c-7,-10 -14,-20 -21,-30 8,-6 16,-11 24,-17 1,1 1,2 2,3 2,-2 5,-4 7,-5 7,10 15,20 22,30 -9,6 -17,12 -25,18 -1,-1 -2,-2 -2,-3 -3,1 -5,3 -7,4zm195 131c9,13 18,26 28,39 -8,5 -16,11 -24,17 -9,-13 -19,-26 -28,-39 8,-6 16,-12 24,-17zm-109 -77c7,10 14,20 21,30 -8,6 -16,11 -24,17 -7,-10 -14,-20 -21,-30 8,-6 16,-11 24,-17zm-87 -124c-8,6 -16,11 -24,17 -1,-1 -1,-2 -2,-3 -1,0 -1,1 -2,1 -7,-10 -14,-20 -21,-30 8,-5 16,-11 24,-17 1,1 2,2 3,3 0,0 0,-1 1,-1 7,10 14,20 21,30zm44 115c-7,-10 -14,-20 -21,-30 8,-5 16,-11 24,-17 0,1 1,2 2,3 0,0 0,0 0,0 7,10 15,20 22,30 -8,6 -16,11 -24,17 -1,-1 -2,-2 -2,-3 -1,0 -1,0 -1,0zm-143 -152c-7,-10 -14,-20 -21,-30 8,-5 16,-11 24,-17 5,7 9,13 14,20 7,-5 14,-10 21,-15 7,10 14,20 21,30 -9,6 -18,12 -27,19 -4,-7 -9,-13 -13,-19 -7,4 -13,8 -19,12zm15 -159c7,11 14,21 22,31 -8,5 -16,11 -24,17 -7,-11 -14,-21 -22,-31 8,-5 16,-11 24,-17zm119 131c7,10 14,20 21,30 -8,6 -16,12 -24,17 -7,-10 -14,-20 -21,-30 8,-6 16,-11 24,-17zm-282 -217c-7,-10 -14,-20 -21,-31 8,-5 16,-11 24,-16 2,3 4,6 6,9 2,-2 3,-3 5,-4 7,10 14,20 21,30 0,0 0,1 -1,1 -7,5 -15,11 -23,16 -2,-2 -4,-5 -6,-8 -2,1 -3,2 -5,3zm87 -30c7,11 14,21 21,31 -8,5 -16,11 -24,17 -7,-10 -14,-21 -21,-31 8,-5 16,-11 24,-17zm-42 33c7,10 14,20 21,30 -8,6 -16,12 -25,18 -7,-10 -14,-20 -21,-30 8,-6 17,-12 25,-18zm-43 52c7,10 14,20 21,30 -8,6 -16,11 -24,17 -7,-10 -14,-20 -21,-30 8,-6 16,-11 24,-17zm132 77c-9,6 -18,12 -27,18 0,-1 -1,-1 -2,-2 0,0 0,0 0,0 -7,-10 -14,-20 -21,-30 8,-6 16,-12 24,-17 0,1 1,2 2,3 1,-1 2,-2 3,-2 7,10 14,20 21,30zm15 17c7,10 14,20 21,30 -9,7 -18,13 -27,20 -7,-10 -14,-20 -22,-30 10,-7 19,-14 28,-20zm-72 -98c7,11 14,21 21,31 -9,6 -18,12 -26,18 -8,-10 -15,-20 -22,-30 9,-6 18,-12 27,-19z"/>
   </g>
   <line class="fil0" x1="2135" y1="1168" x2="2558" y2= "1769" />
   <path class="fil3" d="M1832 1645c0,8 0,15 0,22 10,0 19,0 29,0 0,-7 0,-14 0,-22 -10,0 -19,0 -29,0zm12 -122l-29 0 0 -2 -1 0c0,8 0,15 0,22 10,0 20,0 30,0 0,-4 0,-13 0,-20zm-76 149c0,9 0,19 0,28 10,0 20,0 29,0 0,-9 0,-19 0,-28 -9,0 -19,0 -29,0zm45 -75c0,7 0,14 0,22 10,0 20,0 30,0 0,-8 0,-15 0,-22 -10,0 -20,0 -30,0zm14 -94c10,0 19,0 29,0 0,-6 0,-14 0,-22 -10,0 -20,0 -29,0 0,7 0,15 0,22zm16 75c0,-7 0,-15 0,-22 -10,0 -19,0 -29,0 0,1 0,1 0,2 0,0 -1,0 -1,0 0,7 0,15 0,22 10,0 20,0 30,0 0,-1 0,-1 0,-2 0,0 0,0 0,0zm29 -123c0,-7 0,-15 0,-22 -9,0 -19,0 -29,0 0,5 0,10 0,14 -9,0 -17,0 -26,0 0,8 0,15 0,22 11,0 22,0 33,0 0,-5 0,-9 0,-14 8,0 15,0 22,0zm-103 -72c0,7 0,15 0,22 9,0 19,0 29,0 0,-7 0,-15 0,-22 -10,0 -20,0 -29,0zm92 208c0,7 0,15 0,22 9,0 19,0 29,0 0,-7 0,-15 0,-22 -10,0 -20,0 -29,0zm-14 -322c-13,0 -19,0 -30,0 0,8 0,15 0,22 0,0 0,0 1,0 9,0 19,0 29,0 0,-7 0,-13 0,-22zm-83 31c0,8 0,15 0,22 10,0 20,0 30,0 0,-7 0,-14 0,-22 -10,0 -20,0 -30,0zm54 2c0,7 0,14 0,22 10,0 20,0 30,0 0,-8 0,-15 0,-22 -10,0 -20,0 -30,0zm46 52c0,7 0,14 0,22 10,0 20,0 29,0 0,-8 0,-15 0,-22 -9,0 -19,0 -29,0zm-45 41c11,0 21,0 32,0 0,-1 0,-2 0,-2 0,0 1,0 1,0 0,-8 0,-15 0,-22 -10,0 -20,0 -30,0 0,1 0,1 0,2 -1,0 -2,0 -3,0 0,7 0,15 0,22zm-3 14c0,7 0,14 0,21 11,0 23,0 34,0 0,-7 0,-14 0,-21 -11,0 -23,0 -34,0zm3 -73c0,8 0,15 0,22 11,0 22,0 33,0 0,-7 0,-14 0,-22 -11,0 -22,0 -33,0z"/>
   <g>
    <path class="fil4" d="M2067 536l-181 -181c-31,-31 -82,-31 -113,0l-181 181c-11,10 -11,27 0,38l55 55 36 33c11,10 28,10 38,0l73 -67c20,-19 51,-19 71,0l73 67c11,10 28,10 39,0l36 -33 54 -55c11,-10 11,-27 0,-38z"/>
    <path class="fil4" d="M1489 753l284 284c31,31 82,31 113,0l284 -284c49,-50 15,-64 -21,-98l-45 -43c-11,-10 -27,-10 -38,0l-73 68c-20,19 -51,19 -71,0l-73 -68c-11,-10 -27,-10 -38,0l-73 68c-20,19 -51,19 -71,0l-73 -68c-11,-10 -28,-10 -38,0l-41 38c-38,35 -78,51 -26,103z"/>
    <path class="fil5" d="M1829 129c157,0 299,63 401,166 103,102 166,244 166,401 0,156 -63,298 -166,401 -102,102 -244,166 -401,166 -156,0 -298,-64 -401,-166 -102,-103 -166,-245 -166,-401 0,-157 64,-299 166,-401 103,-103 245,-166 401,-166zm371 196c-95,-95 -226,-154 -371,-154 -144,0 -276,59 -371,154 -94,95 -153,226 -153,371 0,145 59,276 153,371 95,95 227,153 371,153 145,0 276,-58 371,-153 95,-95 154,-226 154,-371 0,-145 -59,-276 -154,-371z"/>
   </g>
   <g>
    <path class="fil4" d="M1082 1972l0 172c-24,12 -47,21 -69,27 -23,6 -45,9 -66,9 -54,0 -98,-18 -134,-53 -35,-36 -53,-81 -53,-135 0,-54 18,-100 54,-135 36,-36 81,-54 137,-54 20,0 40,3 59,9 19,5 37,14 54,25l-9 89c-16,-17 -32,-29 -49,-36 -16,-8 -33,-12 -51,-12 -32,0 -58,11 -79,32 -20,21 -31,48 -31,79 0,34 10,61 30,82 20,22 46,32 78,32 7,0 15,0 22,-2 8,-1 15,-3 24,-5l0 -52 -67 0 0 -72 150 0z"/>
    <path class="fil5" d="M937 1700c80,0 153,33 206,85 52,53 85,126 85,207 0,80 -33,153 -85,206 -53,53 -126,85 -206,85 -81,0 -154,-32 -207,-85 -52,-53 -85,-126 -85,-206 0,-81 33,-154 85,-207 53,-52 126,-85 207,-85zm192 99c-49,-49 -117,-79 -192,-79 -76,0 -144,30 -193,79 -49,49 -79,117 -79,193 0,75 30,143 79,192 49,49 117,80 193,80 75,0 143,-31 192,-80 49,-49 80,-117 80,-192 0,-76 -31,-144 -80,-193z"/>
   </g>
   <g>
    <path class="fil4" d="M2868 1972l0 172c-24,12 -47,21 -70,27 -22,6 -44,9 -65,9 -54,0 -99,-18 -134,-53 -36,-36 -54,-81 -54,-135 0,-54 18,-100 55,-135 36,-36 81,-54 136,-54 21,0 41,3 60,9 19,5 37,14 54,25l-9 89c-16,-17 -33,-29 -49,-36 -16,-8 -33,-12 -51,-12 -32,0 -58,11 -79,32 -21,21 -31,48 -31,79 0,34 10,61 30,82 20,22 46,32 78,32 7,0 14,0 22,-2 7,-1 15,-3 23,-5l0 -52 -67 0 0 -72 151 0z"/>
    <path class="fil5" d="M2722 1700c81,0 154,33 206,85 53,53 86,126 86,207 0,80 -33,153 -86,206 -52,53 -125,85 -206,85 -80,0 -153,-32 -206,-85 -53,-53 -85,-126 -85,-206 0,-81 32,-154 85,-207 53,-52 126,-85 206,-85zm193 99c-50,-49 -118,-79 -193,-79 -75,0 -143,30 -192,79 -49,49 -80,117 -80,193 0,75 31,143 80,192 49,49 117,80 192,80 75,0 143,-31 193,-80 49,-49 79,-117 79,-192 0,-76 -30,-144 -79,-193z"/>
   </g>
   <g>
    <path class="fil4" d="M1975 1972l0 172c-24,12 -47,21 -70,27 -22,6 -44,9 -65,9 -54,0 -99,-18 -134,-53 -36,-36 -53,-81 -53,-135 0,-54 18,-100 54,-135 36,-36 81,-54 136,-54 21,0 41,3 60,9 19,5 37,14 54,25l-9 89c-16,-17 -32,-29 -49,-36 -16,-8 -33,-12 -51,-12 -32,0 -58,11 -79,32 -21,21 -31,48 -31,79 0,34 10,61 30,82 20,22 46,32 78,32 7,0 14,0 22,-2 7,-1 15,-3 23,-5l0 -52 -67 0 0 -72 151 0z"/>
    <path class="fil5" d="M1829 1700c81,0 154,33 207,85 52,53 85,126 85,207 0,80 -33,153 -85,206 -53,53 -126,85 -207,85 -80,0 -153,-32 -206,-85 -53,-53 -85,-126 -85,-206 0,-81 32,-154 85,-207 53,-52 126,-85 206,-85zm193 99c-49,-49 -118,-79 -193,-79 -75,0 -143,30 -192,79 -49,49 -80,117 -80,193 0,75 31,143 80,192 49,49 117,80 192,80 75,0 144,-31 193,-80 49,-49 79,-117 79,-192 0,-76 -30,-144 -79,-193z"/>
   </g>
   <rect class="fil6 str3" x="121" y="2806" width="724" height="724" rx="73" ry="73"/>
   <rect class="fil6 str3" x="1019" y="2806" width="724" height="724" rx="73" ry="73"/>
   <rect class="fil6 str3" x="1916" y="2806" width="724" height="724" rx="73" ry="73"/>
   <rect class="fil6 str3" x="2813" y="2806" width="724" height="724" rx="73" ry="73"/>
   <path class="fil7" d="M459 3431l55 0 1 -60c54,-15 95,-38 103,-100 10,-70 -34,-97 -82,-120 -34,-16 -135,-38 -103,-93 18,-31 70,-32 113,-10 35,18 30,32 51,-8 6,-11 12,-17 13,-29 -24,-24 -58,-38 -94,-42l-2 -64 -55 0 -2 65c-53,10 -98,43 -103,100 -11,128 170,120 190,176 13,37 -30,72 -92,54 -73,-21 -51,-62 -87,-14 -6,7 -16,17 -18,26 6,15 30,31 46,38 22,11 39,17 64,21l2 60z"/>
   <path class="fil7" d="M1169 3108l0 33 47 0c-2,21 -1,37 0,51l-47 0 0 33 50 0c4,50 38,106 81,133 29,19 50,28 83,35 15,3 30,5 45,5l17 0c32,-1 68,-6 96,-20 2,-1 4,-1 6,-2l-12 -53c-1,-3 -2,-6 -3,-9 -3,1 -6,3 -9,4 -14,4 -29,7 -44,9 -40,5 -82,1 -115,-23 -19,-13 -29,-26 -38,-46 -5,-13 -7,-20 -8,-33l193 0 0 -33 -200 0c-1,-17 0,-34 0,-51l200 0 0 -33 -197 0c2,-20 17,-46 34,-63 5,-4 9,-8 14,-12 36,-31 90,-33 136,-22 6,1 13,3 20,5 2,1 5,2 8,3 2,-10 6,-22 9,-31l8 -33 -14 -5c-24,-7 -51,-11 -77,-12l-22 0c-27,1 -55,5 -80,16 -13,5 -27,11 -38,19 -10,7 -25,17 -33,26 -12,13 -22,23 -32,38 -15,24 -23,45 -29,71l-49 0z"/>
   <path class="fil7" d="M2102 2921c1,3 13,23 15,27l57 102c6,12 13,23 19,35l28 51c1,1 2,2 2,4l-95 0 0 44 112 0 0 44 -112 0 0 44 112 0 0 143 9 0 58 0 9 0 0 -143 112 0 0 -44 -112 0 0 -44 112 0c0,-4 1,-42 0,-43 0,-2 -5,-1 -7,-1l-88 0c1,-2 6,-12 7,-14 2,-2 3,-4 4,-7 3,-6 8,-14 12,-20l16 -31c7,-12 15,-25 21,-38l12 -20c4,-8 9,-16 13,-24l6 -10c5,-9 10,-18 15,-27 2,-4 14,-25 15,-28l-72 0c-3,4 -5,8 -7,13 -7,14 -15,29 -23,44l-51 100c-1,3 -2,4 -3,6l-8 16c-3,6 -11,18 -12,22l-68 -132c0,-1 -1,-1 -1,-3l-29 -56c-1,-1 -1,-2 -2,-3 -1,-2 -3,-5 -3,-7l-73 0z"/>
   <path class="fil7" d="M3033 3418c20,-16 52,-19 75,-14 13,3 26,8 39,11 42,10 92,11 135,6 11,-1 56,-8 73,-14l-27 -69c-15,3 -29,6 -45,8 -37,4 -74,5 -111,-5 -15,-4 -29,-11 -44,-16l-7 -2 2 -8c2,-5 7,-12 10,-18 5,-9 10,-19 13,-29 9,-22 6,-36 8,-59l0 -7 87 0 0 -33 0 0 0 -24 0 0 0 -7 -99 0 -3 -4c-9,-15 -13,-41 -13,-59 0,-22 5,-45 24,-58 35,-26 85,-9 97,32l92 -14c-4,-33 -19,-64 -44,-87 -41,-38 -97,-43 -149,-28 -40,11 -74,34 -94,72 -15,30 -21,70 -14,103 2,12 8,22 11,34l3 10 -56 0 0 63 0 0 0 0 73 0 1 7c2,33 -5,62 -23,90 -9,16 -30,43 -48,54 1,3 3,6 4,8 4,9 8,17 13,25 4,9 9,17 13,25 1,2 3,4 4,7z"/>
  </g>
 </g>
</svg>
