<?xml version="1.0" encoding="UTF-8"?>
<!DOCTYPE svg PUBLIC "-//W3C//DTD SVG 1.1//EN" "http://www.w3.org/Graphics/SVG/1.1/DTD/svg11.dtd">
<!-- Creator: CorelDRAW X7 -->
<svg xmlns="http://www.w3.org/2000/svg" xml:space="preserve" width="200px" height="200px" version="1.1" style="shape-rendering:geometricPrecision; text-rendering:geometricPrecision; image-rendering:optimizeQuality; fill-rule:evenodd; clip-rule:evenodd"
viewBox="0 0 177707 177707"
 xmlns:xlink="http://www.w3.org/1999/xlink">
 <defs>
  <style type="text/css">
   <![CDATA[
    .str0 {stroke:#0096DC;stroke-width:799.689}
    .str2 {stroke:#009933;stroke-width:799.689}
    .str1 {stroke:#4D4D4D;stroke-width:799.689}
    .fil0 {fill:none}
    .fil2 {fill:#0096DC}
    .fil8 {fill:#009933}
    .fil3 {fill:#4D4D4D}
    .fil4 {fill:#FF6600}
    .fil1 {fill:#0096DC;fill-rule:nonzero}
    .fil7 {fill:#009933;fill-rule:nonzero}
    .fil5 {fill:#4D4D4D;fill-rule:nonzero}
    .fil6 {fill:#E6E6E6;fill-rule:nonzero}
   ]]>
  </style>
 </defs>
 <g id="Layer_x0020_1">
  <metadata id="CorelCorpID_0Corel-Layer"/>
  <rect class="fil0" x="-1" y="-1" width="177708" height="177708"/>
  <g id="_1099341792">
   <g>
    <path class="fil1" d="M175327 85516c-859,659 -1908,908 -2904,776l-2 0c-997,-132 -1944,-645 -2602,-1505 -660,-859 -907,-1907 -776,-2904l1 -2c131,-997 644,-1944 1504,-2603 859,-659 1908,-906 2904,-774l2 0c997,132 1943,644 2603,1504 659,859 906,1908 775,2905l-1 2c-131,996 -643,1943 -1504,2601zm-2824 168c839,112 1723,-99 2450,-656 727,-557 1160,-1356 1270,-2194l0 -2c112,-839 -98,-1723 -654,-2450 -558,-727 -1357,-1159 -2195,-1270l-2 0c-838,-112 -1722,98 -2449,655 -728,557 -1161,1356 -1271,2195l0 2c-113,837 98,1722 655,2449 557,727 1357,1160 2194,1270l2 1z"/>
    <line class="fil0 str0" x1="160424" y1="103606" x2="171277" y2= "85267" />
    <line class="fil0 str0" x1="171242" y1="79077" x2="160389" y2= "60738" />
    <circle class="fil2" cx="172937" cy="82398" r="2911"/>
   </g>
   <g>
    <path class="fil1" d="M2380 85302c860,659 1908,907 2904,776l2 -1c997,-132 1945,-645 2603,-1504 659,-861 907,-1908 775,-2904l-1 -2c-131,-997 -644,-1945 -1504,-2603 -859,-659 -1907,-907 -2903,-775l-3 1c-997,131 -1943,643 -2602,1504 -659,859 -907,1907 -776,2904l1 2c131,997 644,1943 1504,2602zm2824 167c-838,111 -1723,-98 -2449,-656 -727,-556 -1161,-1356 -1271,-2194l0 -2c-111,-838 99,-1722 655,-2450 557,-726 1357,-1159 2194,-1270l2 0c839,-112 1722,98 2450,655 727,558 1160,1357 1271,2195l0 2c112,838 -99,1722 -655,2449 -557,728 -1357,1161 -2195,1271l-2 0z"/>
    <line class="fil0 str0" x1="17284" y1="103392" x2="6430" y2= "85053" />
    <line class="fil0 str0" x1="6466" y1="78862" x2="17318" y2= "60522" />
    <circle class="fil2" cx="4771" cy="82183" r="2911"/>
   </g>
   <path class="fil3" d="M108131 158623l0 10912 -3638 0 0 -10912 -3006 0 0 -3081 9650 0 0 3081 -3006 0zm11785 8481l-5012 0 -964 2431 -3861 0 5383 -13993 3971 0 5271 13993 -3878 0 -910 -2431zm-984 -2784l-1485 -4455 -36 0 -1504 4455 3025 0zm14142 -519l4399 5734 -4528 0 -3434 -5381 -37 0 0 5381 -3638 0 0 -13993 5438 0c1385,12 2543,362 3471,1048 927,686 1391,1779 1391,3275 0,966 -262,1822 -788,2572 -526,748 -1284,1209 -2274,1382l0 -18zm-3600 -5475l0 3488 353 0c62,13 124,19 184,19 62,0 118,0 168,0 544,-25 1042,-151 1494,-381 452,-229 678,-683 678,-1363 0,-687 -226,-1148 -678,-1380 -452,-232 -950,-359 -1494,-383 -50,0 -106,0 -168,0 -60,0 -122,0 -184,0l-353 0zm14550 297l0 10912 -3638 0 0 -10912 -3006 0 0 -3081 9651 0 0 3081 -3007 0zm12286 0l-4324 0 0 2338 4101 0 0 3080 -4101 0 0 2413 4324 0 0 3081 -7961 0 0 -13993 7961 0 0 3081zm9484 5178l4398 5734 -4528 0 -3433 -5381 -38 0 0 5381 -3637 0 0 -13993 5438 0c1385,12 2542,362 3471,1048 927,686 1391,1779 1391,3275 0,966 -263,1822 -789,2572 -526,748 -1283,1209 -2273,1382l0 -18zm-3601 -5475l0 3488 353 0c62,13 124,19 186,19 61,0 117,0 166,0 545,-25 1043,-151 1495,-381 451,-229 677,-683 677,-1363 0,-687 -226,-1148 -677,-1380 -452,-232 -950,-359 -1495,-383 -49,0 -105,0 -166,0 -62,0 -124,0 -186,0l-353 0z"/>
   <path class="fil4" d="M99269 159634l-1497 0 -1240 0c-776,-810 -1862,-1292 -3030,-1292 -1728,0 -3239,1053 -3876,2582l4645 0 3106 0 3402 0 24 0c63,641 123,923 123,1614 0,4100 -3324,7424 -7424,7424 -3001,0 -5681,-1805 -6833,-4519l1067 0 1497 0 1240 0c777,808 1862,1291 3029,1291 1728,0 3239,-1052 3876,-2583l-5319 0 -2431 0 -3402 0 -24 0 -86 -873c-26,-245 -37,-493 -37,-740 0,-4100 3324,-7423 7423,-7423 3001,0 5682,1804 6834,4519l-1067 0z"/>
   <path class="fil3" d="M29763 163801l4398 5734 -4528 0 -3434 -5381 -37 0 0 5381 -3637 0 0 -13993 5437 0c1385,12 2543,362 3470,1048 928,686 1392,1779 1392,3275 0,966 -262,1822 -788,2572 -526,748 -1284,1209 -2273,1382l0 -18zm-3601 -5475l0 3488 353 0c62,13 123,19 185,19 62,0 118,0 167,0 545,-25 1042,-151 1494,-381 452,-229 678,-683 678,-1363 0,-687 -226,-1148 -678,-1380 -452,-232 -949,-359 -1494,-383 -49,0 -105,0 -167,0 -62,0 -123,0 -185,0l-353 0zm16016 -3248c2017,12 3810,689 5383,2032 1571,1342 2357,3071 2357,5187 0,2265 -728,4114 -2181,5550 -1454,1434 -3307,2152 -5559,2152 -2240,0 -4089,-718 -5549,-2152 -1459,-1436 -2190,-3285 -2190,-5550 0,-2116 786,-3845 2357,-5187 1571,-1343 3366,-2013 5382,-2013l0 -19zm0 3526c-1088,13 -2019,393 -2793,1141 -773,749 -1159,1605 -1159,2571 0,1199 386,2195 1159,2988 774,792 1705,1188 2793,1188 1089,0 2020,-396 2794,-1191 773,-793 1159,-1792 1159,-2994 0,-969 -386,-1829 -1159,-2577 -774,-751 -1705,-1126 -2794,-1126zm11749 -3062l2430 9038 38 0 2932 -9038 2894 0 2748 9038 37 0 2635 -9038 3786 0 -4472 13993 -3712 0 -2450 -8110 -38 0 -2746 8110 -3693 0 -4176 -13993 3787 0zm18409 13993l0 -13993 5160 0c1956,12 3628,692 5020,2041 1393,1348 2088,3007 2088,4974 0,1967 -699,3622 -2096,4964 -1399,1343 -3069,2014 -5012,2014l-5160 0zm3639 -10912l0 7831 816 0c1088,13 2032,-294 2831,-921 797,-625 1196,-1621 1196,-2985 0,-1253 -371,-2221 -1114,-2902 -741,-683 -1701,-1023 -2876,-1023l-853 0z"/>
   <path class="fil4" d="M9641 167788c-1395,-1397 -2174,-3276 -2174,-5250 0,-1975 779,-3853 2174,-5249 1396,-1397 3276,-2174 5250,-2174 1974,0 3853,777 5249,2174l697 697 -2305 2303 -696 -696c-784,-784 -1836,-1220 -2945,-1220 -1109,0 -2161,436 -2945,1220 -785,785 -1221,1836 -1221,2945 0,1110 436,2161 1221,2945 784,784 1836,1220 2945,1220 1109,0 2161,-436 2945,-1220l696 -697 2305 2305 -697 697c-1396,1396 -3275,2174 -5249,2174 -1975,0 -3854,-778 -5250,-2174z"/>
   <path class="fil3" d="M103623 32194c24537,6525 42618,28891 42618,55483 0,31707 -25703,57410 -57410,57410 -31708,0 -57410,-25703 -57410,-57410 0,-26608 18102,-48985 42663,-55494l961 11559c-18690,5858 -32250,23312 -32250,43935 0,25426 20610,46036 46036,46036 25425,0 46036,-20610 46036,-46036 0,-20607 -13539,-38050 -32207,-43922l963 -11561z"/>
   <path class="fil3" d="M102169 49658c12119,4253 21589,14135 25272,26510l-12233 0c-2778,-6359 -7787,-11519 -14039,-14491l1000 -12019zm-25633 11999c-8069,3820 -14078,11283 -15902,20266l7436 0 48958 0 11674 0c269,1879 411,3800 411,5754 0,22247 -18035,40282 -40282,40282 -18247,0 -33659,-12134 -38611,-28773l12234 0c4440,10162 14579,17263 26377,17263 13921,0 25531,-9884 28197,-23018l-8245 0 -48149 0 -11675 0c-268,-1879 -410,-3800 -410,-5754 0,-17588 11273,-32540 26988,-38033l999 12013z"/>
   <line class="fil0" x1="79776" y1="31189" x2="83517" y2= "76168" />
   <line class="fil0" x1="97948" y1="31189" x2="94206" y2= "76168" />
   <path class="fil4" d="M97948 30991c-2969,-476 -6014,-723 -9117,-723 -3088,0 -6118,245 -9073,715l3759 45185 10689 0 3742 -45177z"/>
   <path class="fil5" d="M15572 24883c934,-549 2004,-668 2977,-415l2 1c973,253 1852,878 2399,1811 549,934 668,2004 415,2977l0 2c-253,973 -877,1851 -1811,2399 -934,549 -2005,668 -2978,415l-2 0c-973,-253 -1850,-878 -2399,-1812 -549,-933 -667,-2003 -414,-2977l1 -2c253,-973 876,-1850 1810,-2399zm2823 179c-818,-213 -1722,-112 -2511,352 -790,464 -1317,1203 -1529,2022l0 2c-214,819 -113,1722 351,2512 464,790 1204,1317 2022,1529l3 0c818,213 1721,113 2511,-351 789,-464 1317,-1205 1529,-2023l0 -2c213,-818 113,-1722 -351,-2512 -463,-789 -1204,-1317 -2023,-1529l-2 0z"/>
   <line class="fil0 str1" x1="45631" y1="52432" x2="19951" y2= "30824" />
   <line class="fil0 str1" x1="17563" y1="31855" x2="18400" y2= "53661" />
   <path class="fil5" d="M43744 21368c933,-549 2003,-667 2977,-414l1 0c974,252 1851,877 2400,1811 549,934 667,2003 414,2977l0 2c-253,973 -878,1851 -1811,2399 -935,549 -2004,667 -2977,415l-2 -1c-974,-253 -1850,-876 -2400,-1810 -548,-934 -667,-2005 -414,-2978l0 -2c253,-973 877,-1850 1812,-2399zm2823 178c-819,-213 -1722,-112 -2512,352 -790,465 -1317,1205 -1529,2023l-1 3c-213,817 -112,1721 352,2510 464,790 1205,1317 2023,1529l1 1c819,213 1722,112 2512,-352 789,-463 1317,-1204 1529,-2022l1 -2c213,-819 112,-1721 -352,-2511 -464,-790 -1205,-1317 -2023,-1529l-1 -2z"/>
   <path class="fil5" d="M16362 53911c933,-549 2005,-668 2977,-415l3 1c972,253 1850,878 2399,1811 549,934 667,2004 414,2977l-1 2c-252,973 -877,1851 -1810,2399 -934,549 -2005,668 -2978,415l-2 0c-972,-253 -1850,-878 -2399,-1812 -549,-933 -667,-2003 -414,-2977l0 -2c253,-973 877,-1850 1811,-2399zm2823 179c-818,-213 -1722,-112 -2511,352 -790,464 -1317,1205 -1529,2022l0 2c-213,819 -113,1722 351,2512 464,790 1204,1317 2023,1529l2 1c817,213 1721,112 2511,-352 789,-464 1317,-1205 1529,-2023l0 -2c213,-818 114,-1721 -351,-2512 -464,-789 -1204,-1316 -2023,-1529l-2 0z"/>
   <line class="fil0 str1" x1="42069" y1="25273" x2="21201" y2= "27799" />
   <path class="fil6" d="M12536 19718c2357,-1384 5059,-1683 7516,-1045l5 1c2457,638 4671,2214 6057,4572 1386,2358 1684,5059 1046,7515l-1 6c-638,2457 -2214,4672 -4571,6056 -2360,1387 -5060,1685 -7517,1047l-5 -1c-2457,-638 -4671,-2215 -6057,-4572 -1386,-2357 -1685,-5060 -1047,-7517l2 -4c638,-2457 2213,-4671 4572,-6058zm3705 -856c-1201,167 -2390,568 -3494,1216 -1104,649 -2033,1493 -2763,2460 -758,1005 -1303,2145 -1615,3343l-3 7c-309,1198 -388,2457 -215,3704 167,1201 568,2389 1218,3494 648,1104 1493,2033 2461,2764 1003,756 2141,1302 3338,1613l4 1 3 1c1198,311 2459,389 3707,217 1200,-168 2388,-569 3495,-1218 1103,-648 2032,-1493 2762,-2460 754,-998 1297,-2131 1610,-3319l-1 0 1 -5 6 -23c312,-1197 389,-2459 216,-3706 -167,-1201 -568,-2389 -1217,-3494 -649,-1105 -1493,-2033 -2460,-2764 -998,-753 -2132,-1296 -3319,-1609l0 1 -5 -1 -23 -6c-1196,-310 -2459,-389 -3706,-216z"/>
   <path class="fil5" d="M162134 24883c-934,-549 -2004,-668 -2977,-415l-2 1c-973,253 -1851,878 -2399,1811 -549,934 -668,2004 -415,2977l0 2c253,973 878,1851 1812,2399 934,549 2003,668 2977,415l2 0c973,-253 1850,-878 2399,-1812 549,-933 668,-2003 415,-2977l-1 -2c-253,-973 -877,-1850 -1811,-2399zm-2823 179c818,-213 1723,-112 2512,352 789,464 1317,1203 1529,2022l0 2c213,819 112,1722 -352,2512 -464,790 -1204,1317 -2022,1529l-2 0c-819,213 -1721,113 -2512,-351 -789,-464 -1317,-1205 -1529,-2023l-1 -2c-212,-818 -112,-1722 352,-2512 464,-789 1205,-1317 2023,-1529l2 0z"/>
   <line class="fil0 str1" x1="132076" y1="52432" x2="157755" y2= "30824" />
   <line class="fil0 str1" x1="160144" y1="31855" x2="159306" y2= "53661" />
   <path class="fil5" d="M133963 21368c-933,-549 -2004,-667 -2978,-414l-1 0c-974,252 -1851,877 -2400,1811 -549,934 -666,2003 -414,2977l1 2c253,973 877,1851 1810,2399 935,549 2004,667 2977,415l2 -1c974,-253 1851,-876 2401,-1810 547,-934 666,-2005 413,-2978l0 -2c-253,-973 -876,-1850 -1811,-2399zm-2823 178c818,-213 1722,-112 2511,352 790,465 1317,1205 1529,2023l1 3c213,817 112,1721 -351,2510 -464,790 -1205,1317 -2024,1529l-2 1c-817,213 -1721,112 -2510,-352 -789,-463 -1317,-1204 -1529,-2022l-1 -2c-213,-819 -113,-1721 351,-2511 464,-790 1205,-1317 2023,-1529l2 -2z"/>
   <path class="fil5" d="M161344 53911c-934,-549 -2004,-668 -2977,-415l-2 1c-973,253 -1850,878 -2399,1811 -549,934 -668,2004 -415,2977l1 2c252,973 878,1851 1810,2399 935,549 2005,668 2978,415l2 0c973,-253 1850,-878 2399,-1812 549,-933 667,-2003 415,-2977l-2 -2c-251,-973 -876,-1850 -1810,-2399zm-2823 179c819,-213 1722,-112 2511,352 790,464 1318,1205 1530,2022l0 2c213,819 112,1722 -352,2512 -464,790 -1204,1317 -2022,1529l-2 1c-818,213 -1722,112 -2512,-352 -789,-464 -1317,-1205 -1529,-2023l0 -2c-213,-818 -113,-1721 352,-2512 464,-789 1203,-1316 2022,-1529l2 0z"/>
   <line class="fil0 str1" x1="135638" y1="25273" x2="156505" y2= "27799" />
   <path class="fil6" d="M165170 19718c-2357,-1384 -5059,-1683 -7516,-1045l-5 1c-2457,638 -4671,2214 -6056,4572 -1387,2358 -1685,5059 -1047,7515l1 6c638,2457 2215,4672 4572,6056 2359,1387 5059,1685 7516,1047l5 -1c2457,-638 4671,-2215 6058,-4572 1385,-2357 1684,-5060 1046,-7517l-2 -4c-638,-2457 -2213,-4671 -4572,-6058zm-3705 -856c1201,167 2391,568 3493,1216 1106,649 2034,1493 2765,2460 757,1005 1302,2145 1614,3343l3 7c310,1198 388,2457 215,3704 -167,1201 -568,2389 -1217,3494 -650,1104 -1494,2033 -2461,2764 -1004,756 -2142,1302 -3339,1613l-4 1 -3 1c-1197,311 -2459,389 -3707,217 -1200,-168 -2388,-569 -3494,-1218 -1103,-648 -2033,-1493 -2762,-2460 -755,-998 -1298,-2131 -1610,-3319l1 0 -1 -5 -7 -23c-311,-1197 -389,-2459 -216,-3706 167,-1201 568,-2389 1218,-3494 648,-1105 1492,-2033 2459,-2764 998,-753 2132,-1296 3319,-1609l0 1 5 -1 23 -6c1197,-310 2459,-389 3706,-216z"/>
   <path class="fil5" d="M10795 138900c859,658 1908,907 2904,775l2 0c997,-132 1944,-644 2602,-1504 659,-861 907,-1908 776,-2905l-1 -2c-131,-996 -644,-1944 -1504,-2603 -860,-658 -1908,-906 -2904,-774l-2 0c-997,132 -1944,644 -2603,1504 -659,859 -906,1908 -775,2905l1 2c131,997 643,1943 1504,2602zm2824 167c-839,111 -1723,-98 -2450,-656 -727,-557 -1160,-1356 -1270,-2194l0 -2c-112,-838 98,-1722 655,-2450 557,-727 1356,-1159 2194,-1269l2 -2c838,-111 1722,99 2449,656 728,558 1161,1356 1271,2195l0 2c113,838 -97,1722 -655,2449 -557,727 -1357,1160 -2194,1271l-2 0z"/>
   <line class="fil0 str1" x1="43993" y1="115230" x2="15867" y2= "133539" />
   <line class="fil0 str1" x1="13622" y1="132223" x2="17118" y2= "110684" />
   <path class="fil5" d="M15125 110186c859,658 1908,907 2905,775l2 0c996,-133 1943,-645 2601,-1504 660,-861 908,-1908 776,-2905l0 -2c-132,-996 -645,-1944 -1505,-2602 -859,-659 -1907,-908 -2904,-775l-2 0c-997,132 -1943,644 -2603,1504 -658,860 -906,1907 -774,2904l0 2c132,997 644,1944 1504,2603zm2824 167c-839,111 -1723,-99 -2450,-656 -727,-557 -1159,-1356 -1270,-2194l0 -3c-112,-837 98,-1722 656,-2449 557,-727 1355,-1160 2194,-1270l2 -1c837,-111 1722,99 2449,656 727,557 1160,1357 1270,2194l1 3c112,838 -98,1722 -656,2449 -557,727 -1356,1160 -2194,1271l-2 0z"/>
   <path class="fil6" d="M7150 143655c2170,1662 4816,2289 7332,1956l6 0c2515,-334 4907,-1628 6569,-3798 1664,-2171 2290,-4816 1957,-7332l0 -5c-334,-2517 -1628,-4908 -3797,-6570 -2173,-1664 -4817,-2290 -7333,-1957l-5 1c-2516,333 -4906,1627 -6571,3797 -1662,2170 -2290,4816 -1956,7333l1 5c334,2515 1626,4906 3797,6570zm3573 1303c-1172,-312 -2303,-856 -3319,-1634 -1017,-779 -1836,-1731 -2442,-2779 -630,-1089 -1032,-2289 -1194,-3515l-3 -8c-160,-1226 -85,-2486 240,-3702 311,-1172 855,-2302 1635,-3319 779,-1017 1729,-1836 2780,-2442 1088,-630 2286,-1032 3510,-1193l4 -1 4 0c1226,-164 2488,-88 3705,237 1171,312 2302,856 3320,1636 1016,778 1835,1728 2441,2779 627,1082 1027,2272 1192,3489l-1 0 1 7 3 23c163,1224 86,2488 -238,3704 -312,1173 -855,2303 -1635,3320 -779,1017 -1730,1835 -2779,2442 -1083,626 -2273,1026 -3490,1191l0 -1 -6 0 -23 4c-1225,162 -2488,86 -3705,-238z"/>
   <path class="fil5" d="M166867 138900c-859,658 -1907,907 -2903,775l-2 0c-997,-132 -1945,-644 -2603,-1504 -659,-861 -907,-1908 -776,-2905l1 -2c132,-996 645,-1944 1504,-2603 860,-658 1908,-906 2904,-774l2 0c997,132 1944,644 2603,1504 659,859 907,1908 775,2905l-1 2c-131,997 -643,1943 -1504,2602zm-2824 167c839,111 1724,-98 2450,-656 727,-557 1161,-1356 1271,-2194l0 -2c111,-838 -99,-1722 -655,-2450 -557,-727 -1357,-1159 -2195,-1269l-2 -2c-838,-111 -1722,99 -2449,656 -727,558 -1161,1356 -1271,2195l0 2c-112,838 99,1722 655,2449 557,727 1357,1160 2194,1271l2 0z"/>
   <line class="fil0 str1" x1="133669" y1="115230" x2="161795" y2= "133539" />
   <line class="fil0 str1" x1="164040" y1="132223" x2="160544" y2= "110684" />
   <path class="fil5" d="M162537 110186c-859,658 -1908,907 -2905,775l-2 0c-996,-133 -1943,-645 -2601,-1504 -659,-861 -908,-1908 -776,-2905l0 -2c132,-996 646,-1944 1505,-2602 860,-659 1907,-908 2904,-775l2 0c997,132 1944,644 2603,1504 658,860 906,1907 774,2904l0 2c-132,997 -644,1944 -1504,2603zm-2824 167c839,111 1724,-99 2450,-656 727,-557 1159,-1356 1271,-2194l0 -3c111,-837 -99,-1722 -656,-2449 -558,-727 -1356,-1160 -2195,-1270l-2 -1c-837,-111 -1722,99 -2449,656 -726,557 -1160,1357 -1270,2194l-1 3c-111,838 99,1722 656,2449 557,727 1357,1160 2194,1271l2 0z"/>
   <path class="fil6" d="M170512 143655c-2170,1662 -4816,2289 -7331,1956l-7 0c-2515,-334 -4907,-1628 -6569,-3798 -1664,-2171 -2290,-4816 -1956,-7332l0 -5c333,-2517 1627,-4908 3797,-6570 2172,-1664 4817,-2290 7332,-1957l5 1c2516,333 4907,1627 6571,3797 1662,2170 2290,4816 1956,7333l-1 5c-334,2515 -1625,4906 -3797,6570zm-3573 1303c1172,-312 2303,-856 3319,-1634 1017,-779 1836,-1731 2442,-2779 630,-1089 1032,-2289 1195,-3515l2 -8c160,-1226 85,-2486 -240,-3702 -311,-1172 -855,-2302 -1635,-3319 -778,-1017 -1729,-1836 -2780,-2442 -1088,-630 -2285,-1032 -3510,-1193l-4 -1 -3 0c-1227,-164 -2489,-88 -3706,237 -1171,312 -2302,856 -3319,1636 -1016,778 -1836,1728 -2442,2779 -627,1082 -1027,2272 -1192,3489l1 0 -1 7 -3 23c-163,1224 -86,2488 238,3704 312,1173 856,2303 1635,3320 779,1017 1730,1835 2779,2442 1083,626 2274,1026 3491,1191l-1 -1 6 0 23 4c1225,162 2489,86 3705,-238z"/>
   <path class="fil7" d="M92198 9249c659,859 907,1908 776,2904l-1 2c-131,997 -645,1945 -1504,2603 -860,659 -1908,906 -2904,775l-2 -1c-997,-131 -1945,-644 -2603,-1504 -659,-859 -906,-1908 -775,-2904l1 -2c131,-997 643,-1943 1504,-2602 859,-660 1908,-907 2904,-776l2 1c997,131 1943,643 2602,1504zm167 2824c112,-839 -98,-1723 -655,-2449 -557,-728 -1357,-1161 -2194,-1271l-2 0c-839,-113 -1723,98 -2450,655 -727,557 -1160,1356 -1271,2194l0 2c-111,839 99,1722 655,2449 558,728 1357,1161 2195,1271l2 0c838,112 1722,-98 2449,-654 728,-558 1161,-1357 1271,-2195l0 -2z"/>
   <line class="fil0 str2" x1="128261" y1="24103" x2="91949" y2= "13299" />
   <line class="fil0 str2" x1="85759" y1="13334" x2="49481" y2= "24194" />
   <circle class="fil8" transform="matrix(-2.77654E-014 1.04836 1.04836 2.77654E-014 89079.2 11639.3)" r="2777"/>
  </g>
 </g>
</svg>
