<svg xmlns="http://www.w3.org/2000/svg" width="111.04" height="45.085" viewBox="0 0 2082 845" shape-rendering="geometricPrecision" text-rendering="geometricPrecision" image-rendering="optimizeQuality" fill-rule="evenodd" clip-rule="evenodd"><defs><style><![CDATA[
    .fil0 {fill:black}
   ]]></style></defs><g id="Layer_x0020_1"><g id="_917788928"><path class="fil0" d="M401 627v218h67V502h-67L237 772h-6L67 503v-1H0v343h67V627l141 218h52zM537 489h408.9v66.796H537zM537 634h408.9v66.796H537zM537 778h408.9v66.796H537zM1013 556h322c12 0 21 9 21 21v180c0 12-9 21-21 21h-255V634h-67v211h325c47 0 85-38 85-85V575c0-48-38-86-85-86h-325v67zM1491.83 845.285v-356.27h66.768v356.27zM1960 778h-245l123-195 122 195zm-368 67h490l-25-38-189-302-31-18-29 18-189 302-27 38z"/><g><path class="fil0" d="M1897 289h-332c-7 0-12-5-12-11v-45c0-12 10-21 22-21h322v-67h-332c-7 0-12-5-12-12V89c0-12 10-22 22-22h322V0h-332c-43 0-79 36-79 79 0 51-10 62 22 101-32 38-22 47-22 97 0 44 36 79 79 79h332v-67zM459 289H208c-51 0-92-41-92-91v-40c0-50 41-91 92-91h184v33h67V0H198C116 0 49 67 49 148v60c0 82 67 148 149 148h261v-67zM1007 145v211h66V212h119l133 144h90l-133-144h44c50 0 91-41 91-92V91c0-50-41-91-91-91h-319v67h322c12 0 21 9 21 21v36c0 11-9 21-21 21h-322zM731 356c63 0 134-5 172-42 33-32 37-91 37-136s-10-93-42-124C859 17 794 0 731 0c-59 0-123 15-161 48-37 32-48 82-48 130 0 53 17 114 59 147 37 29 96 31 150 31zm144-178c0-25-4-59-22-77-28-27-84-36-122-36-35 0-91 8-118 32-21 19-26 54-26 81 0 30 9 76 34 95 23 18 83 18 110 18 32 0 104-1 127-24 16-15 17-69 17-89z"/></g></g></g></svg>