<svg xmlns="http://www.w3.org/2000/svg" width="1070.477" height="812.58" fill-rule="evenodd" viewBox="0 0 183633 139393" shape-rendering="geometricPrecision" text-rendering="geometricPrecision" image-rendering="optimizeQuality" clip-rule="evenodd"><defs><style><![CDATA[  .str0{stroke:#66C;stroke-width:49.4044;stroke-opacity:.7}.fil2,.fil3{fill:none}.fil0{fill:#006;fill-opacity:.15}.fil1{fill:#006;fill-rule:nonzero;fill-opacity:.15}.path{stroke-dasharray:2000;stroke-dashoffset:1000;animation:dash 25s infinite linear forwards}@keyframes dash{to{stroke-dashoffset:99999}}.rotate{animation:rotating 20s infinite;transform-origin:50% 50%}@-webkit-keyframes rotating{from{-ms-transform:rotate(0);-moz-transform:rotate(0);-webkit-transform:rotate(0);-o-transform:rotate(0);transform:rotate(0)}to{-ms-transform:rotate(360deg);-moz-transform:rotate(360deg);-webkit-transform:rotate(360deg);-o-transform:rotate(360deg);transform:rotate(360deg)}}@keyframes rotating{from{-ms-transform:rotate(0);-moz-transform:rotate(0);-webkit-transform:rotate(0);-o-transform:rotate(0);transform:rotate(0)}to{-ms-transform:rotate(360deg);-moz-transform:rotate(360deg);-webkit-transform:rotate(360deg);-o-transform:rotate(360deg);transform:rotate(360deg)}}.rotate-rev{animation:rotating-rev 20s infinite;transform-origin:50% 50%}@-webkit-keyframes rotating-rev{from{-ms-transform:rotate(360deg);-moz-transform:rotate(360deg);-webkit-transform:rotate(360deg);-o-transform:rotate(360deg);transform:rotate(360deg)}to{-ms-transform:rotate(0);-moz-transform:rotate(0);-webkit-transform:rotate(0);-o-transform:rotate(0);transform:rotate(0)}}@keyframes rotating-rev{from{-ms-transform:rotate(360deg);-moz-transform:rotate(360deg);-webkit-transform:rotate(360deg);-o-transform:rotate(360deg);transform:rotate(360deg)}to{-ms-transform:rotate(0);-moz-transform:rotate(0);-webkit-transform:rotate(0);-o-transform:rotate(0);transform:rotate(0)}}
   ]]></style></defs><g id="Layer_x0020_1"><path d="M82757 88385c699 0 1265 566 1265 1265s-566 1265-1265 1265-1265-566-1265-1265 566-1265 1265-1265z" class="fil0"/><path d="M98555 86727c510 0 972 208 1306 542l1 1c335 335 542 797 542 1307s-207 972-542 1306v1c-334 335-797 542-1307 542-511 0-973-207-1308-542-335-334-542-797-542-1307 0-511 207-973 542-1308h1c334-334 797-542 1307-542zm997 852c-255-255-608-412-997-412-390 0-743 157-998 412v1c-255 255-413 607-413 997 0 389 158 742 413 997 256 255 608 413 998 413 389 0 742-158 997-413s413-607 413-997-158-743-413-998z" class="fil1"/><path d="M98774 87640v717h717v439h-717v717h-439v-717h-717v-439h717v-717z" class="fil1"/><g id="_1163768000"><path d="M40839 77554c423 0 807 172 1085 450v1c278 278 450 661 450 1085 0 423-172 807-450 1085v1c-278 277-662 449-1085 449-424 0-808-172-1086-449-278-278-450-662-450-1086s172-808 450-1086 662-450 1086-450zm828 707c-212-211-505-342-828-342-324 0-617 131-829 342l1 1c-212 212-343 504-343 828 0 323 131 616 343 828 211 212 504 343 828 343 323 0 616-131 828-343 211-212 342-505 342-828 0-324-131-617-342-829z" class="fil1"/><path d="M41021 78312v595h595v365h-595v595h-365v-595h-595v-365h595v-595z" class="fil1"/></g><path d="M54467 53936c420 0 801 170 1077 446l1 1c276 276 446 657 446 1077s-170 801-446 1077v1c-276 276-657 446-1078 446-284 0-550-77-777-212-110-66-211-144-301-234-276-276-447-657-447-1078s171-802 447-1078h1c276-276 656-446 1077-446zm822 702c-210-210-501-340-822-340s-612 130-822 340-340 501-340 822 130 612 340 822 501 340 822 340 612-130 822-340 340-501 340-822-130-612-340-822z" class="fil1"/><path d="M54648 54688v591h591v362h-591v591h-362v-591h-591v-362h591v-591zM42125 0c172 0 328 70 440 183 113 112 183 268 183 440s-70 328-183 441c-112 113-268 183-440 183s-328-70-441-183-183-269-183-441 70-328 183-440c113-113 269-183 441-183zm246 377c-63-63-150-102-246-102-97 0-184 39-247 102s-102 150-102 246c0 97 39 184 102 247s150 102 247 102c96 0 183-39 246-102s103-150 103-247c0-96-40-183-103-246zM102796 16022c309 0 588 125 790 328 202 202 327 481 327 790 0 308-125 587-327 789-202 203-481 328-790 328-308 0-587-125-790-328-202-202-327-481-327-789 0-309 125-588 327-790 203-203 482-328 790-328zm442 675c-113-113-269-183-442-183-172 0-329 70-442 183s-183 270-183 443c0 172 70 329 183 442s270 183 442 183c173 0 329-70 442-183s183-270 183-442c0-173-70-330-183-443zM136411 109563c365 0 696 149 936 388l1 1c239 240 388 571 388 936 0 366-149 697-388 937h-1c-240 240-571 388-936 388-366 0-697-148-937-388s-388-571-388-937c0-365 148-696 388-936v-1c240-239 571-388 937-388zm695 630c-178-178-424-288-695-288-272 0-518 110-696 288-177 178-287 424-287 695 0 272 110 518 287 696 178 177 424 287 696 287 271 0 517-110 695-287 178-178 288-424 288-696 0-271-110-517-288-695zM119772 93048c141 0 268 57 360 149h1c92 92 149 220 149 360 0 141-57 268-149 361h-1c-92 92-219 149-360 149s-268-57-360-149c-93-93-150-220-150-361 0-140 57-268 150-360 92-92 219-149 360-149zm207 302c-53-53-126-86-207-86s-154 33-207 86-86 126-86 207 33 154 86 207 126 86 207 86 154-33 207-86 86-126 86-207-33-154-86-207zM46882 50522c229 0 437 93 587 243h1c150 150 243 358 243 587s-93 436-243 586l-1 1c-150 150-358 243-587 243s-436-93-586-243l-1-1c-150-150-243-357-243-586s93-437 243-587h1c150-150 357-243 586-243zm208 623c-53-53-127-86-208-86-80 0-154 33-207 86s-85 126-85 207 32 154 85 207 127 86 207 86c81 0 155-33 208-86s85-126 85-207-32-154-85-207zM119949 71083c208 0 396 84 532 220v1c136 136 221 324 221 532 0 207-85 395-221 532-136 136-324 220-532 220s-396-84-532-220h-1c-136-137-220-325-220-532 0-208 84-396 220-532l1-1c136-136 324-220 532-220zm207 545c-53-52-126-85-207-85s-154 33-207 85c-53 53-86 127-86 208s33 154 86 207 126 86 207 86 154-33 207-86 86-126 86-207-33-155-86-208zM84785 104709h4689v440h-4689zM87844 101079h1630v439h-1630zM87272 108693h1630v439h-1630zM95158 103737v-1015h1769v1015h643v3470h-4856v-3470h2444zm1973 439h-3978v2592h3978v-2592zm-1533-542h890v-473h-890v473zM34441 95083v-1015h1769v1015h643v3470h-4856v-3470h2444zm1973 439h-3978v2592h3978v-2592zm-1533-542h890v-473h-890v473zM39108 51463v591h590v362h-590v591h-362v-591h-591v-362h591v-591zM76551 73582h2703v439h-2703zM74636 75683h2474v439h-2474zM80247 73582h1165v439h-1165zM72992 75683h980v439h-980zM69930 77621v-1015h1768v1015h644v3469h-4857v-3469h2445zm1972 439h-3978v2591h3978v-2591zm-1533-542h890v-473h-890v473zM57547 81654c348 0 665 141 894 370v1h1c229 229 370 546 370 894 0 349-141 665-370 894l-1 1c-229 229-546 371-894 371-349 0-665-142-894-371h-1v-1c-229-229-371-545-371-894 0-348 142-665 371-894l1-1c229-229 545-370 894-370zm662 603c-169-169-403-274-662-274s-493 105-662 274h-1c-169 169-273 403-273 662s104 493 273 662l1 1c169 169 403 273 662 273s493-104 662-273v-1c169-169 274-403 274-662s-105-493-274-662z" class="fil1"/><path d="M56229 80830c699 0 1265 567 1265 1265 0 699-566 1265-1265 1265-698 0-1265-566-1265-1265 0-698 567-1265 1265-1265z" class="fil0"/><path d="M59942 79655c235 0 448 95 603 250 154 155 250 368 250 603s-96 448-250 602v1c-155 154-368 249-603 249s-448-95-603-249v-1c-154-154-250-367-250-602s96-448 250-603c155-155 368-250 603-250zm446 406c-114-114-272-184-446-184-175 0-332 70-446 184h-1c-113 114-184 272-184 447 0 174 71 332 184 446h1c114 114 271 184 446 184 174 0 332-70 446-184h1c113-114 184-272 184-446 0-175-71-333-184-447h-1z" class="fil1"/><path d="M158559 95110c222 0 402 180 402 402s-180 402-402 402-402-180-402-402 180-402 402-402z" class="fil0"/><path d="M158559 94520c274 0 522 111 701 290h1c179 180 290 428 290 702 0 273-111 521-290 701h-1c-179 180-427 291-701 291s-521-111-701-291-291-428-291-701c0-274 111-522 291-702 180-179 427-290 701-290zm521 471c-133-133-317-216-521-216-203 0-387 83-521 216-133 133-215 317-215 521 0 203 82 387 215 520 134 133 318 216 521 216 204 0 388-83 521-216s215-317 215-520c0-204-82-388-215-521z" class="fil1"/><path d="M159501 90445c296 0 536 240 536 536s-240 536-536 536-536-240-536-536 240-536 536-536z" class="fil0"/><path d="M159501 89989c274 0 522 111 701 291h1c179 180 290 428 290 701 0 274-111 522-290 702h-1c-179 179-427 290-701 290-273 0-521-111-701-290-180-180-291-428-291-702 0-273 111-521 291-701s428-291 701-291zm521 472c-133-133-317-216-521-216-203 0-387 83-520 216-134 133-216 317-216 520 0 204 82 388 216 521 133 133 317 215 520 215 204 0 388-82 521-215s215-317 215-521c0-203-82-387-215-520z" class="fil1"/><path d="M168593 86956c274 0 496 222 496 496s-222 496-496 496-496-222-496-496 222-496 496-496z" class="fil0"/><path d="M168593 86228c338 0 644 137 865 358l1 1c221 221 358 527 358 865s-137 643-358 865h-1c-221 222-527 359-865 359s-644-137-865-359c-222-222-359-527-359-865s137-644 359-865v-1c221-221 527-358 865-358zm642 582c-164-165-391-266-642-266s-478 101-642 266c-164 164-266 391-266 642s102 478 266 642 391 266 642 266 478-102 642-266c165-164 266-391 266-642s-101-478-266-642zM165592 85281c353 0 674 144 906 376s375 552 375 906c0 353-143 674-375 906s-553 376-906 376c-354 0-674-144-906-376h-1c-232-233-375-553-375-906 0-354 143-674 375-906h1c232-232 552-376 906-376zm712 570c-182-183-434-295-712-295-279 0-531 112-713 294v1c-182 182-295 434-295 712s113 530 295 712v1c182 182 434 294 713 294 278 0 530-113 712-295s295-434 295-712-113-530-295-712zM153252 47330v-912h1590v912h578v3119h-4365v-3119h2197zm1774 395h-3576v2330h3576v-2330zm-1379-487h800v-425h-800v425zM154579 53965h3238v440h-3238zM152935 53965h979v440h-979zM159039 53965h1751v440h-1751zM151305 52822h2237v439h-2237zM149247 55323h3895v440h-3895zM154547 55323h-737v440h737zM156016 55452c209 0 399 85 536 222v1c137 137 222 327 222 536s-85 399-222 536c-137 138-327 223-536 223-210 0-399-85-536-223h-1c-137-137-222-327-222-536s85-399 222-536l1-1c137-137 326-222 536-222zm387 372c-99-99-236-161-387-161s-288 62-387 161-161 236-161 387 62 288 161 387 236 160 387 160 288-61 387-160 160-236 160-387-61-288-160-387zM179132 41471c146 0 278 59 374 155s155 228 155 374-59 278-155 374-228 155-374 155-278-59-374-155-155-228-155-374 59-278 155-374 228-155 374-155zm278 251c-71-71-169-115-278-115s-207 44-278 115-115 169-115 278 44 207 115 278 169 115 278 115 207-44 278-115 115-169 115-278-44-207-115-278z" class="fil1"/><path d="M147559 99355c222 0 402 180 402 402s-180 402-402 402-402-180-402-402 180-402 402-402z" class="fil0"/><path d="M147559 98647c306 0 583 125 784 325 201 201 325 479 325 785s-124 583-325 784-478 325-784 325-583-124-784-325-325-478-325-784 124-584 325-785c201-200 478-325 784-325z" class="fil1"/><path d="M146559 93253c222 0 402 180 402 402s-180 402-402 402-403-180-403-402 181-402 403-402z" class="fil0"/><path d="M146559 92376c352 0 672 143 903 375h1c231 231 374 551 374 904s-143 672-374 904h-1c-231 231-551 375-903 375-353 0-673-144-904-375h-1c-231-232-374-551-374-904s143-673 374-904h1c231-232 551-375 904-375zm582 697c-149-149-355-241-582-241-228 0-434 92-583 241-148 148-240 354-240 582 0 227 92 433 240 582 149 149 355 241 583 241 227 0 433-92 582-241s241-355 241-582c0-228-92-434-241-582z" class="fil1"/><g id="_1163759168"><path d="M172997 81172c194 0 351 157 351 351 0 193-157 350-351 350s-351-157-351-350c0-194 157-351 351-351z" class="fil0"/><path d="M172997 80658c239 0 455 96 611 253h1c156 157 253 373 253 612 0 238-97 454-253 611h-1c-156 157-372 254-611 254s-455-97-611-254h-1c-156-157-253-373-253-611 0-239 97-455 253-612h1c156-157 372-253 611-253zm454 411c-116-116-277-188-454-188s-338 72-454 188-188 276-188 454c0 177 72 338 188 454s277 187 454 187 338-71 454-187 188-277 188-454c0-178-72-338-188-454z" class="fil1"/></g><path d="M160583 84118c266 0 506 108 680 282s282 414 282 680c0 265-108 505-282 679s-414 282-680 282c-265 0-505-107-679-282-175-174-282-414-282-679 0-266 108-506 282-680s414-282 679-282zm428 534c-110-109-261-176-428-176s-318 67-427 176c-109 110-177 261-177 428s68 318 177 427 260 177 427 177 318-68 428-177c109-109 176-260 176-427s-67-318-176-428z" class="fil1"/><path d="M171822 82421c341 180 573 539 573 951 0 595-482 1077-1076 1077-443 0-822-267-988-648 121 44 252 67 388 67 316 0 602-128 809-335s335-493 335-808c0-105-14-207-41-304z" class="fil0"/><path d="M170719 81581c316 0 602 128 809 335s335 493 335 809c0 315-128 601-335 808s-493 335-809 335c-315 0-601-128-808-335s-335-493-335-808c0-316 128-602 335-809s493-335 808-335zm508 636c-130-130-309-211-508-211-198 0-378 81-508 210v1c-130 130-210 309-210 508 0 198 80 378 210 508s310 210 508 210c199 0 378-80 508-210h1c129-130 210-310 210-508 0-199-81-378-211-508z" class="fil1"/><path d="M35228 102532c699 0 1265 567 1265 1266 0 698-566 1265-1265 1265s-1265-567-1265-1265c0-699 566-1266 1265-1266z" class="fil0"/><path d="M43766 53652c83 0 159 33 214 88 54 55 88 130 88 214 0 83-34 158-88 213-55 55-131 89-214 89s-159-34-213-89h-1c-54-55-88-130-88-213 0-84 34-159 88-214h1c54-55 130-88 213-88zm75 226c-19-19-45-31-75-31-29 0-56 12-75 31-20 19-32 46-32 76 0 29 12 56 32 75 19 19 46 31 75 31 30 0 56-12 75-31 20-19 32-46 32-75 0-30-12-57-32-76zM87281 89928h2481v439h-2481z" class="fil1"/><path d="M90746 87301c222 0 402 180 402 402s-180 402-402 402-402-180-402-402 180-402 402-402z" class="fil0"/><path d="M90746 86594c306 0 583 124 784 325s325 478 325 784-124 584-325 784v1c-201 200-478 325-784 325s-583-125-784-325v-1c-201-200-325-478-325-784s124-583 325-784 478-325 784-325zm582 527c-149-149-355-241-582-241s-433 92-582 241-241 355-241 582c0 228 92 434 241 582 149 149 355 241 582 241s433-92 582-241c149-148 241-354 241-582 0-227-92-433-241-582zM87813 84415c355 0 676 143 908 376 233 232 376 553 376 908 0 354-143 675-376 907v1c-232 232-553 376-908 376-354 0-675-144-907-376l-1-1c-232-232-376-553-376-907 0-355 144-676 376-908h1c232-233 553-376 907-376zm674 610c-172-173-410-279-674-279-263 0-501 106-673 279-173 172-279 410-279 674 0 263 106 501 279 673 172 173 410 279 673 279 264 0 502-106 674-279 173-172 279-410 279-673 0-264-106-502-279-674z" class="fil1"/><path d="M104503 77870c309 0 560 252 560 561 0 310-251 561-560 561-310 0-561-251-561-561 0-309 251-561 561-561z" class="fil0"/><path d="M104503 77322c306 0 583 124 784 325s325 478 325 784-124 584-325 784v1c-201 200-478 325-784 325s-584-125-784-325l-1-1c-200-200-325-478-325-784s125-583 325-784h1c200-201 478-325 784-325zm582 527c-149-149-355-241-582-241-228 0-434 92-583 241-148 149-240 355-240 582 0 228 92 434 240 582 149 149 355 241 583 241 227 0 433-92 582-241 149-148 241-354 241-582 0-227-92-433-241-582zM134227 93456v716h716v439h-716v717h-440v-717h-716v-439h716v-716zM111903 85100h3649v439h-3649zM116478 85100h1518v439h-1518zM115220 83942h918v439h-918zM117121 83942h2777v439h-2777zM120709 83942h1389v439h-1389zM113804 82784h1877v439h-1877zM105507 82063c350 0 667 142 896 372h1c229 230 371 547 371 896 0 350-142 667-371 897h-1c-229 229-546 371-896 371s-667-142-896-371h-1c-229-230-371-547-371-897 0-349 142-666 371-896h1c229-230 546-372 896-372zm666 603c-171-170-406-275-666-275s-495 105-665 275c-171 170-276 406-276 665 0 260 105 496 276 666 170 170 405 275 665 275s495-105 666-275c170-170 275-406 275-666 0-259-105-495-275-665z" class="fil1"/><path d="M105507 82749c161 0 306 66 412 171 105 105 170 251 170 411 0 161-65 307-170 412-106 105-251 171-412 171s-306-66-411-171h-1c-105-105-170-251-170-412 0-160 65-306 170-411h1c105-105 250-171 411-171zm306 277c-78-78-187-127-306-127s-227 49-305 127c-79 78-127 186-127 305 0 120 48 228 127 306 78 78 186 126 305 126s228-48 306-126 126-186 126-306c0-119-48-227-126-305zM107465 81611c274 0 523 112 703 291v1c180 179 291 428 291 702s-111 522-291 702-429 291-703 291-522-111-702-291-291-428-291-702 111-523 291-702v-1c180-179 428-291 702-291zm522 472c-133-133-318-215-522-215-203 0-388 82-521 215-133 134-216 318-216 522s83 388 216 521c133 134 318 216 521 216 204 0 389-82 522-216 133-133 216-317 216-521s-83-388-216-522z" class="fil1"/><path d="M57400 101946c252 0 457 205 457 457 0 253-205 458-457 458-253 0-458-205-458-458 0-252 205-457 458-457z" class="fil0"/><path d="M59527 89009v456h457v280h-457v457h-280v-457h-457v-280h457v-456z" class="fil1"/><path d="M70981 89552c158 0 286 128 286 286s-128 286-286 286-286-128-286-286 128-286 286-286z" class="fil0"/><path d="M123501 70635l-343-785-88-201 218-28 868-112 96-851 24-218 202 84 809 337 509-689 130-176 133 174 532 696 785-343 201-87 28 217 112 869 851 96 218 24-84 202-337 809 689 508 176 131-174 133-696 531 343 786 87 200-217 28-869 112-96 852-24 218-202-84-809-338-508 689-131 177-132-174-532-697-786 343-200 88-28-218-112-868-852-96-218-25 84-201 338-809-689-509-177-130 174-133 697-532zm45-716l307 703 52 118-103 78-625 477 617 455 104 77-49 119-303 726 762 85 128 15 17 128 100 780 703-307 118-52 79 103 477 625 455-617 77-104 118 49 726 303 86-762 14-128 129-17 779-100-307-703-51-119 102-78 625-477-617-455-104-77 50-118 302-726-761-86-129-14-16-129-101-779-703 307-118 51-78-102-477-625-455 617-77 104-119-50-726-302-85 761-15 129-128 16-780 101z" class="fil1 rotate"/><path d="M125930 70291c277 0 528 113 710 295s295 433 295 710-113 528-295 709v1c-181 182-432 294-710 294-277 0-528-112-710-294s-294-433-294-710c0-278 112-529 294-710h1c181-182 432-295 709-295zm478 527c-122-122-291-197-478-197-186 0-355 75-477 197-122 123-198 291-198 478 0 186 76 355 198 477s291 198 477 198c187 0 355-76 478-198 122-122 197-291 197-477 0-187-75-356-197-478zM136325 69870h-7634l11-26 84-202-218-24-685-77h8771v14195h-9278v-164l-1-9507 7 3 202 84 24-218 96-852h6v10321l8615 4V69870zm-8950 3201v-50l5-2-5 52z" class="fil1"/><path d="M137855 68686l-10247-3-3-30-28-217-201 87-366 160h-559l-338-443h12188v18461h-12571v-223l-2-12152 74 96 132 174 131-177 112-152v11988h11678z" class="fil1"/><path d="M132014 84169c227 0 433 92 581 241h1c148 149 240 354 240 581s-92 432-240 581h-1c-148 149-354 241-581 241-226 0-432-92-580-241h-1c-148-149-240-354-240-581s92-432 240-581h1c148-149 354-241 580-241zm335 488c-86-85-204-138-335-138-130 0-248 53-333 138-86 85-139 204-139 334 0 131 53 249 139 334 85 86 203 138 333 138 131 0 249-52 335-138 85-85 138-203 138-334 0-130-53-249-138-334zM138240 75494h1388v439h-1388zM140241 75494h3246v439h-3246zM139805 74057h687v439h-687zM138912 77495h2210v439h-2210zM140055 78603h1781v439h-1781zM138190 78603h1146v439h-1146zM138697 80011h2117v439h-2117zM129977 66466h4329v440h-4329zM131564 65366h1513v439h-1513zM135231 66466h1513v440h-1513zM127683 66466h1105v440h-1105zM124378 76882c312 0 594 126 798 330l1 1c204 204 331 487 331 799 0 311-127 593-331 798h-1c-204 205-486 331-798 331s-594-126-798-331h-1c-204-205-331-487-331-798 0-312 127-595 331-799l1-1c204-204 486-330 798-330zm459 670c-117-117-280-190-459-190s-342 73-459 190c-118 118-190 280-190 460 0 179 72 341 190 459 117 117 280 190 459 190s342-73 459-190c118-118 190-280 190-459 0-180-72-342-190-460z" class="fil1"/><path d="M124378 77747c73 0 139 29 187 77s78 114 78 187c0 74-30 140-78 188s-114 77-187 77-139-29-187-77-78-114-78-188c0-73 30-139 78-187s114-77 187-77zm108 157c-28-28-66-45-108-45s-80 17-108 45c-27 27-44 65-44 107 0 43 17 81 44 108 28 28 66 45 108 45s80-17 108-45c27-27 44-65 44-108 0-42-17-80-44-107zM128432 115896h-2293l-41-106c-145-380-251-805-320-1273-68-462-100-969-98-1519 2-400 126-772 336-1080 213-312 516-559 871-702 90-56 191-105 302-147h1c105-41 218-76 339-106 28-18 52-41 72-65l5-6c-103-88-200-189-289-302-272-347-465-808-465-1313 0-537 172-1025 450-1380 287-366 686-593 1130-593s843 227 1130 593c278 355 450 843 450 1380 0 505-193 966-465 1313-89 113-186 214-289 302l5 6c20 24 44 47 72 65 121 30 234 65 339 106h1c111 42 212 91 302 147 355 143 657 390 871 702 210 308 334 680 335 1080 3 550-29 1057-97 1519-69 468-176 893-320 1273l-41 106h-2293zm-1244-4470l3 5 4 7 4 7 4 6 5 9 2 3 7 11 1 1 7 12 1 1 7 11 11 18 4 6 5 8 3 4 6 10 1 2 8 12 8 12 1 2 14 22 4 6 4 6 5 8 3 3 13 21 3 3v1l8 10 1 3 6 9 4 5 4 7 5 7 3 4 7 9 1 3 8 11h1l8 12 1 1 7 10 2 3 6 8 4 6 4 6 6 7 2 4 7 9 2 2 8 11 8 11 2 3 7 8 3 5 5 7 5 6 3 5 7 8 2 3 8 10v1l9 10v1l8 10 3 3 6 8 4 5 4 6 6 7 3 4 7 8 2 2 8 11 9 11 1 1 8 9 3 4 6 7 4 5 4 6 6 7 3 3 8 9 1 1 9 11 9 10 2 3 7 8 3 4 6 6 5 6 4 4 7 8 2 2 8 10h1l9 11 1 1 8 9 3 3 6 7 5 4 5 6 6 6 3 4 8 8 1 2 9 10c211 222 447 414 711 570 264-156 500-348 710-570l10-10 1-2 8-8 3-4 6-6 5-6 4-4 7-7 3-3 8-9 1-1 9-11 9-10 2-2 11-12 5-6 5-6 4-4 7-8 2-3 8-10h1l9-11 1-1 8-9 2-3 6-7 5-6 4-5 6-7 3-4 7-9 2-1 8-11h1l8-11 2-2 7-8 3-4 5-7 5-6 4-5 6-8 3-3 7-10 1-1 9-10v-1l8-10 2-3 6-8 4-5 5-6 5-7 3-5 7-8 2-3 8-11 8-11 2-2 6-9 3-4 6-7 4-6 4-6 6-8 2-3 7-10 1-1 8-12h1l7-11 2-3 6-9 4-4 4-7 5-7 3-5 7-9 1-3 8-10v-1l8-12 1-1 7-11 2-3 6-8 4-6 4-6 5-8 3-4 6-10 1-2 8-12 8-12 1-2 6-10 3-4 5-8 4-6 4-6 5-8 2-4 7-11 1-1 7-12 1-1 7-11 2-3 5-9 3-6 5-7 4-7 3-5c-38-18-78-35-119-51-99-38-209-71-326-100l-46-18c-69-40-127-92-175-151-7-8-13-15-19-23-67 38-134 70-202 96-91 35-182 57-270 66l-16 2h-2l-15 1h-2l-9 1h-16l-10 1h-35l-9-1h-16l-9-1h-8l-9-1h-2l-16-2c-89-9-179-31-270-66-68-26-135-58-202-96-6 8-12 15-19 23-48 59-106 111-175 151l-46 18c-117 29-227 62-326 100-41 16-81 33-119 51zm681-741l46 34c92 67 185 118 275 153 66 24 130 40 191 46h4l4 1h11l3 1h58l3-1h11l4-1h4c61-6 125-22 190-46 91-35 184-86 275-153l46-33c104-82 204-183 294-298 231-295 395-684 395-1111 0-462-145-879-380-1178-225-288-533-466-871-466s-646 178-871 466c-235 299-380 716-380 1178 0 427 164 816 394 1111 91 115 191 216 294 297zm-1502 4881h4130c117-329 204-696 263-1096 67-450 98-941 95-1470-1-332-104-641-279-896-153-225-362-408-606-530l-7 12-1 1-8 14v1l-8 12-2 3-6 11-3 5-6 8-4 7-4 7-5 9-3 4-7 11-9 14-1 1v1l-9 13v1l-8 13-2 3-7 10-3 5-5 8-5 7-4 6-5 9-3 4-7 11-2 2-8 13-9 13-1 2-8 11-2 3-7 10-3 5-5 8-5 7-4 6-7 8-2 4-8 11-1 2-9 13-9 12-1 2-8 11-3 3-6 9-4 6-5 7-5 7-4 5-7 9-2 4-8 11-1 1-10 12v1l-9 12-2 2-7 10-3 4-6 8-5 6-5 6-6 8-3 4-7 10-3 2-8 11-1 1-10 12v1l-9 11-2 3-8 9-3 4-6 8-5 6-5 6-6 8-3 4-8 9-2 2-9 11-1 1-10 12v1l-9 10-3 3-7 9-4 4-6 7-5 6-5 6-7 7-3 4-8 9-2 3-10 10v1l-10 11-1 1-9 10-3 3-7 8-4 5-6 7-6 6-5 5-7 7-3 4-9 9-1 2-10 11c-256 270-544 498-871 678l-79 43-79-43c-327-180-616-408-871-678l-10-11-2-2-8-9-3-4-8-7-4-5-6-6-6-7-4-5-7-8-3-3-9-10-1-1-10-11v-1l-10-10-2-3-8-9-3-4-7-7-5-6-5-6-6-7-4-4-7-9-3-3-9-10v-1l-10-12-1-1-9-11-2-2-8-9-3-4-6-8-5-6-5-6-6-8-4-4-7-9-2-3-9-11-1-1-9-12-1-1-9-11-2-2-7-10-4-4-5-8-5-6-5-6-6-8-3-4-8-10-1-2-9-12v-1l-10-12-1-1-8-11-2-4-7-9-4-5-5-7-5-7-4-6-7-9-2-3-8-11-1-2-9-12-9-13-1-2-8-11-3-4-6-9-4-5-5-7-5-8-3-5h-1l-8-13-8-11-1-2-9-13-8-13-2-2-7-11-3-4-5-9-5-6-4-7-5-8-4-5-6-10-2-3-8-13-1-1-8-13-1-1-7-12-2-3-7-11-3-5-5-8-4-7-4-7-6-8-3-5-6-11-2-3-8-12v-1l-8-14-1-1-7-12c-244 122-453 305-606 530-175 255-278 564-279 896-3 529 28 1020 95 1470 59 400 146 767 263 1096zM96652 80625h-2293l-41-106c-145-379-251-804-320-1272-68-462-100-970-98-1519 2-400 126-773 336-1080 213-312 516-559 871-702 90-56 191-105 302-148h1c105-40 218-75 339-105 28-19 52-41 72-66l5-6c-103-87-200-189-289-302-272-347-465-808-465-1313 0-536 172-1024 450-1379 287-367 686-594 1130-594s843 227 1130 594c278 355 450 843 450 1379 0 505-193 966-465 1313-89 113-186 215-289 302l5 6c20 25 44 47 72 66 121 30 234 65 339 105h1c111 43 212 92 302 148 355 143 657 389 871 702 210 307 334 680 335 1080 3 549-29 1057-97 1519-69 468-176 893-320 1272l-41 106h-2293zm-1244-4470l3 5 4 8 4 7 4 5 5 9 2 3 7 11 1 1 7 12 1 2 7 11 11 17 4 7 5 7 3 5 6 10 1 2 8 12 8 12 1 2 14 21 4 6 4 6 5 8 3 4 13 20 3 3v1l8 11 1 3 6 8 4 5 4 7 5 7 3 4 7 9 1 3 8 11h1l8 12 1 1 7 10 2 4 6 8 4 5 4 6 6 7 2 4 7 10 2 1 8 12 8 11 2 2 7 9 3 4 5 7 5 6 3 5 7 8 2 3 8 10v1l9 11v1l8 10 3 3 6 8 4 4 4 6 6 7 3 4 7 9 2 2 8 10v1l9 10 1 2 8 9 3 3 6 7 4 6 4 5 6 7 3 3 8 9 1 2 9 10v1l9 10 2 2 7 8 3 4 6 6 5 6 4 4 7 8 2 3 8 9 1 1 9 10 1 1 8 9 3 3 6 7 5 5 5 5 6 7 3 3 8 8 1 2 9 10c211 223 447 414 711 570 264-156 500-347 710-570l10-10 1-2 8-8 3-3 6-7 5-5 4-5 7-7 3-3 8-9 1-1 9-10v-1l9-9 2-3 11-12 5-6 5-6 4-4 7-8 2-2 8-10 1-1 9-10 1-2 8-9 2-3 6-7 5-5 4-6 6-7 3-3 7-9 2-2 8-10 1-1 8-10 2-2 7-9 3-4 5-7 5-6 4-4 6-8 3-3 7-10 1-1 9-11v-1l8-10 2-3 6-8 4-5 5-6 5-7 3-4 7-9 2-2 8-11 8-12 2-1 6-10 3-4 6-7 4-6 4-5 6-8 2-4 7-10 1-1 8-12h1l7-11 2-3 6-9 4-4 4-7 5-7 3-5 7-8 1-3 8-11v-1l8-12 1-1 7-10 2-4 6-8 4-6 4-6 5-7 3-5 6-9 1-2 8-12 8-12 1-2 6-10 3-5 5-7 4-7 4-5 5-9 2-3 7-11 1-2 7-12 1-1 7-11 2-3 5-9 3-5 5-7 4-8 3-5c-38-18-78-35-119-51-99-38-209-71-326-99l-46-18c-69-41-127-92-175-152-7-7-13-15-19-23-67 38-134 71-202 96-91 35-182 58-270 67l-16 1h-2l-15 1-2 1h-18l-2 1h-65l-2-1h-17l-2-1h-6l-9-1h-2l-16-1c-89-10-179-32-270-67-68-25-135-58-202-96-6 8-12 16-19 23-48 60-106 111-175 152l-46 18c-117 28-227 61-326 99-41 16-81 33-119 51zm681-740l46 33c92 67 185 119 275 153 66 25 130 41 191 46l4 1h9l2 1h14l4 1h36l3-1h15l2-1h9l4-1c61-5 125-22 190-46 91-34 184-86 275-153l46-33c104-82 204-182 294-298 231-294 394-684 394-1111 0-462-144-878-379-1177-225-288-533-466-871-466s-646 178-871 466c-235 299-380 715-380 1177 0 427 164 817 394 1111 91 116 191 216 294 298zm-1502 4881h4130c117-330 204-696 263-1097 67-450 98-940 95-1470-1-331-104-640-279-896-153-224-362-408-606-530l-7 12-1 2-8 13v1l-8 13-2 2-6 11-3 5-6 9-4 6-4 7-5 9-3 5-7 10-9 14-1 1v1l-9 14v1l-8 12-2 3-7 10-3 5-5 8-5 7-4 6-5 9-3 4-7 11-2 2-8 13v1l-9 12-1 2-8 11-2 4-7 9-3 5-5 8-5 7-4 6-7 9-2 4-8 10-1 2-9 13-9 13-1 1-8 11-3 4-6 9-4 5-5 7-5 8-4 5-7 9-2 3-8 11-1 1-10 13-9 12-2 2-7 10-3 4-7 8-4 6-5 7-6 7-3 5-7 9-3 3-8 11-1 1-10 12-9 12-2 2-8 10-3 4-6 7-5 6-5 6-6 8-3 4-8 9-2 3-9 11h-1l-10 12-1 1-8 11-3 2-7 9-4 4-6 8-5 6-5 5-7 8-3 3-8 10-2 2-10 11-10 11-1 2-9 10-3 3-7 8-4 4-6 7-6 6-5 5-7 8-3 3-9 9-1 2-10 11c-256 270-544 498-871 678l-79 44-79-44c-327-180-616-408-871-678l-10-11-2-2-8-9-3-3-8-8-4-5-6-6-6-7-4-4-7-8-3-3-9-10-1-2-10-11-10-11-2-2-8-10-3-3-7-8-5-5-5-6-6-8-4-4-7-9-3-2-9-11v-1l-10-12h-1l-9-11-2-3-8-9-3-4-6-8-5-6-5-6-6-7-4-4-7-10-2-2-9-12h-1l-9-12-1-1-9-11-2-3-7-9-4-5-5-7-5-7-5-6-6-8-3-4-8-10-1-2-9-12-10-13-1-1-8-11-2-3-7-9-4-6-5-7-5-7-4-5-7-9-2-4-8-11-1-1-9-13-9-13-1-2-8-10-3-4-6-9-4-6-5-7-5-8-3-5h-1l-8-13-8-11-1-2-9-13-8-13-2-2-7-11-3-4-5-9-5-6-4-7-5-8-4-5-6-10-2-3-8-12-1-1-8-14-1-1-7-12-2-3-7-10-3-5-5-9-4-7-4-6-6-9-3-5-6-11-2-2-8-13v-1l-8-13-1-2-7-12c-244 122-453 306-606 530-175 256-278 565-279 896-3 530 28 1020 95 1470 59 401 146 767 263 1097zM121218 52971c426 65 857 374 1403 776 320 236 796 410 1037 834-51-540-195-985-419-1308-119-171-261-308-422-404-160-95-341-151-540-164-310-20-666 63-1059 266zm672 8164h-2294l-40-106c-145-380-251-805-320-1273-68-462-100-969-98-1519 2-400 126-772 336-1080 213-312 516-559 871-702 89-56 191-105 302-148 105-40 219-75 340-105 28-19 51-41 72-65l5-6c-103-88-201-189-289-303-272-347-465-807-465-1312 0-506 152-968 402-1317l1-1c15-21 31-42 47-62 72-92 150-174 235-247l1 1c426-393 901-540 1302-513 252 16 482 88 686 209 203 121 379 290 525 501 370 534 550 1345 486 2335l-322 36c-64-218-143-415-234-592-65 366-227 697-434 962-89 114-186 215-289 303l5 6c20 24 44 46 72 65 121 30 234 65 339 105h1c111 43 212 92 302 148 355 143 657 390 871 702 210 308 333 680 335 1080 3 550-29 1057-98 1519-69 468-175 893-319 1273l-41 106h-2293zm-906-7752c-214 295-345 693-345 1133 0 427 164 816 394 1110 91 116 191 217 294 298l46 34c92 66 185 118 275 152 66 25 130 41 191 47h4l3 1h11l4 1h57l4-1h11l4-1h4c61-6 125-22 190-47 91-34 184-86 275-152l46-34c104-81 204-182 294-298 230-294 394-683 394-1110 0-42-1-83-3-124-239-49-521-240-711-381-647-476-1134-648-1442-628zm-338 3282l2 5 5 7 4 7 3 5 6 10 2 3 7 11v1l8 12 1 1 7 11 11 18 4 6 5 8 2 4 7 10 1 2 8 12 7 12 2 2 14 22 4 6 4 6 5 8 3 3 13 21 2 3h1l7 11 2 3 6 9 4 5 4 7 5 6 3 5 6 9 2 3 8 10v1l9 11 1 2 7 10 2 3 6 8 4 6 4 5 5 8 3 4 7 9 1 2 9 11 8 11 2 2 6 9 4 4 5 7 4 7 4 4 6 8 3 3 7 10 1 1 9 11v1l8 10 2 3 7 8 3 5 5 6 6 7 3 4 7 8 2 2 8 11 9 11 1 1 8 9 3 4 5 7 5 5 4 5 6 8 3 3 8 9 1 1 9 11 9 10 2 2 7 8 3 5 6 6 5 6 4 4 7 8 2 2 8 10h1l9 10 1 2 8 9 3 2 6 8 5 4 4 6 6 6 4 4 7 8 2 1 9 10c656 320 794 305 1421 0l10-10 1-1 8-8 3-4 6-6 5-6 4-4 7-8 2-2 9-9 1-2 9-10 9-10 2-2 11-12 5-6 5-6 4-5 7-8 2-2 8-10h1l9-11 1-1 7-9 3-3 6-8 5-5 4-5 6-7 3-4 7-9 2-1 8-11 9-11 2-2 7-8 3-4 5-7 5-6 4-5 6-8 2-3 8-10 1-1 8-11 1-1 8-10 2-3 6-8 4-4 5-7 5-7 3-4 7-9 1-2 9-11 8-11 1-2 7-9 3-4 6-8 4-5 4-6 5-8 3-3 7-10 1-2 8-11 1-1 7-10 2-3 6-9 3-5 5-6 5-7 3-5 6-9 2-3 8-11 8-12 1-1 7-11 2-3 6-8 3-6 5-6 5-8 2-4 7-10 1-2 8-12 8-12 1-2 6-10 3-4 5-8 4-6 3-6 6-8 2-4 7-11 1-1 7-12 1-1 7-11 2-3 5-10 3-5 5-7 4-7 3-5c-38-18-78-35-120-51v-1c-98-38-208-70-325-99l-46-18c-69-40-127-92-176-151-6-8-12-16-18-23-67 38-134 70-202 96-91 35-182 57-270 66l-16 2h-2l-15 1h-2l-9 1h-16l-10 1h-35l-9-1h-17l-8-1h-3l-5-1h-11l-16-2h-1c-88-9-178-31-270-66-67-26-135-58-201-96-6 7-12 15-19 23-49 59-106 111-175 151l-46 18c-118 29-227 61-326 99v1c-42 16-81 33-119 51zm-822 4140h4131c117-330 204-696 263-1096 66-450 98-941 95-1471-1-331-104-640-279-896-153-224-362-407-606-530l-7 13-1 1-8 14h-1l-7 13-2 3-7 11-2 4-6 9-4 7-4 7-6 8-3 5-6 11-9 14-1 1v1l-9 13v1l-8 12-2 3-7 11-3 5-5 8-5 7-4 6-6 9-2 4-7 11-2 2-8 13h-1l-8 13-1 1-8 12-2 3-7 10-3 5-6 8-5 7-3 5-7 9-2 4-8 11-1 2-9 12v1l-9 12-1 2-8 11-3 3-6 9-4 6-5 7-6 7-3 5-7 9-2 4-9 10-1 2-9 12v1l-9 12-2 2-7 10-3 4-7 8-4 6-5 6-6 8-3 4-8 9-2 3-8 11-1 1-10 12v1l-9 11-2 3-8 9-3 4-6 8-5 6-5 6-6 7-4 5-7 9-2 2-9 11-1 1-10 12-1 1-9 10-2 3-7 9-4 4-6 7-6 6-4 6-7 7-3 4-8 9-2 2-10 11v1l-10 11-1 1-9 10-3 3-7 8-5 5-6 6-5 7-5 5-7 7-3 4-9 9-1 2-11 10c-868 328-1050 346-1899 0l-10-10-2-2-8-9-4-4-7-7-4-5-6-7-6-6-4-5-8-8-2-3-9-10-1-1-10-11-1-1-9-11-2-2-8-9-4-4-6-7-5-6-5-6-6-7-4-4-8-9-2-3-9-10-1-1-9-12-1-1-9-11-2-2-8-9-3-5-7-7-4-6-5-6-6-8-4-4-7-9-2-3-9-11-1-1-9-12-1-1-9-11-2-3-7-9-4-4-6-8-4-6-5-6-6-8-3-4-8-10-1-2-9-12-1-1-9-12-1-2-8-10-2-4-7-9-4-5-5-7-5-7-4-6-7-9-2-3-8-11-1-2-9-13-9-12-2-2-7-11-3-4-6-9-4-5-5-7-5-8-4-5-8-13-8-12-1-1-9-13v-1l-8-12-2-2-7-11-3-4-6-9-4-6-4-7-6-8-3-5-6-11-2-3-8-12-1-1-8-13-1-1-8-13-1-2-7-11-3-5-5-8-5-7-4-7-5-9-3-4-6-11-2-3-8-13-8-14-1-1-8-13c-244 123-452 306-606 530-174 256-277 565-279 896-2 530 29 1021 96 1471 59 400 146 766 262 1096z" class="fil1"/><path d="M46808 34871l-128-850c-19-126-9-250 28-366v-1c38-115 102-221 193-312 90-92 195-159 310-198h-1c115-39 238-51 366-34h1l889 119c85 12 166-6 233-45 66-39 120-101 151-180l314-800c47-120 117-223 207-304s199-140 324-175c124-34 248-39 367-16 118 23 231 75 334 154l711 548c67 52 145 77 223 77 77-1 155-28 222-81l672-536c100-80 212-133 331-159 118-25 242-22 367 11 124 32 234 90 326 170 91 79 163 180 212 299l342 830c32 78 87 140 155 178 67 38 148 54 233 41l849-128c127-19 251-10 367 28 115 38 221 102 313 193 91 90 158 195 197 309h1c39 115 50 238 33 366v1l-119 889c-11 85 6 166 45 233 39 66 102 120 181 151l799 314c120 47 223 117 304 207s140 199 175 324c34 124 39 248 16 367-23 118-75 231-154 334l-548 711c-52 67-77 145-77 223 1 77 28 155 81 222l536 672c80 100 133 212 159 331 25 118 22 242-11 367-32 125-90 235-169 326h-1c-79 92-180 164-299 212l-830 342c-78 32-139 87-178 155-38 67-53 148-41 233l129 849c19 127 9 251-29 367-38 115-103 221-192 313-91 92-196 158-310 198h-1c-114 39-237 50-365 33l-890-119c-84-11-165 6-232 45s-121 102-152 181l-313 799c-48 120-118 223-208 304s-199 140-323 175c-125 34-249 39-367 16-119-23-232-75-335-154l-710-548c-68-52-146-77-224-77-77 1-155 28-222 81l-671 536c-101 80-213 133-332 159-118 25-242 22-367-11-124-32-234-89-326-169-91-79-163-180-212-300l-342-830c-32-78-87-139-155-178-67-38-148-53-232-41l-850 128c-127 19-250 9-366-28h-1c-115-37-221-102-312-193-93-90-159-195-198-309v-1c-39-114-51-237-34-364v-1l119-890c12-85-6-165-45-232s-101-121-181-152l-799-314c-120-47-222-117-304-207-81-90-140-199-174-323-35-125-40-249-17-367 23-119 75-232 154-335l548-710c52-68 77-146 77-224-1-77-28-155-81-222l-536-671c-80-101-133-213-158-332-26-118-22-242 10-367 32-124 90-234 169-326 79-91 180-163 300-212l830-342c78-32 140-87 178-155 38-67 54-148 41-232zm306-915l128 849c28 183-8 363-94 514-85 151-221 274-393 344l-829 342c-55 22-100 54-136 95h-1c-35 40-61 90-76 148-14 57-16 114-5 166 11 53 36 103 73 150l536 671c115 145 174 318 175 492 2 174-54 347-167 494l-549 711c-36 47-59 98-69 151-11 53-8 109 8 166 15 57 42 106 78 146s82 72 137 93l800 314c173 68 310 188 398 338s127 328 102 511v1l-119 890c-8 59-3 115 15 166 17 50 48 98 90 139 42 42 90 71 141 88 50 16 106 20 166 11l849-128c183-27 363 8 514 94s274 221 344 393l342 830c22 54 54 100 95 135v1c40 35 90 61 148 76 57 15 114 16 166 5s103-36 150-73l671-536c145-115 318-174 492-175 173-1 347 54 494 168l711 548c47 36 98 59 151 70 53 10 109 7 166-8 57-16 106-43 146-79s72-82 93-137l314-800c68-172 188-310 338-398s328-127 511-102h1l890 119c59 8 115 3 165-14v-1c51-17 99-47 140-89 42-43 72-91 88-141v-1c16-50 20-106 12-166l-129-849c-27-183 8-362 94-514 86-151 221-273 393-344l830-341c55-23 101-55 136-96h-1c36-41 62-91 77-148s16-113 5-166c-11-52-36-103-73-150l-536-671c-115-145-174-317-175-492-1-173 54-347 168-494l548-711c36-47 59-98 70-150 10-54 8-110-8-167s-43-106-79-146-82-71-137-93l-800-314c-172-67-310-188-398-338s-127-328-102-512l119-890c8-58 3-114-15-165v-1c-17-50-47-97-89-139-43-42-91-71-142-88-50-16-106-20-166-11l-849 128c-183 28-362-8-514-94-151-86-273-221-344-393l-341-829c-23-56-56-102-96-137s-90-61-148-76c-57-14-113-16-166-5-52 11-103 36-150 73l-671 536c-145 115-317 174-492 175-173 2-347-54-494-168l-711-548c-47-36-97-59-150-70-53-10-110-7-167 8-57 16-106 43-146 79s-71 82-93 137l-314 800c-67 173-188 310-338 398s-328 127-511 102h-1l-890-119c-58-8-114-3-165 15h-1c-50 17-97 47-139 90-42 42-71 90-88 141-16 50-20 106-11 166z" class="fil1 rotate"/><path d="M51314 35824c530 0 1010 215 1358 563l1 1c348 348 563 828 563 1359 0 530-215 1010-563 1358v1c-348 348-829 563-1359 563-531 0-1012-215-1360-563s-563-829-563-1359c0-531 215-1012 563-1360h1c348-348 828-563 1359-563zm1037 885c-265-265-632-429-1037-429-406 0-772 164-1037 429v1c-265 265-429 632-429 1037 0 404 164 771 429 1036 265 266 632 430 1037 430s771-164 1036-430l1 1c265-266 429-632 429-1037 0-406-164-772-429-1038z" class="fil1"/><path d="M53537 29237l-343-786-87-200 217-28 869-112 96-852 24-218 202 85 809 337 508-689 131-177 133 174 531 697 786-343 200-87 28 217 112 868 852 96 218 25-84 202-338 809 689 508 177 130-174 133-697 532 343 785 88 201-218 28-868 112-96 852-24 217-202-84-809-337-509 689-130 177-133-174-532-697-785 343-200 87-29-217-112-869-851-95-218-25 84-202 337-809-689-508-176-130 174-133 696-532zm46-717l307 704 51 118-102 78-625 477 617 455 104 77-50 118-302 726 761 86 129 14 16 129 101 779 703-307 118-51 78 102 477 625 455-617 77-104 119 50 726 303 85-762 15-128 128-17 780-101-307-703-52-118 103-78 625-477-617-455-104-77 49-119 303-726-762-85-128-15-17-128-100-780-703 307-118 52-79-102-477-625-455 616-77 105-118-50-726-303-86 762-14 128-129 17-779 100z" class="fil1 rotate-rev"/><path d="M55967 28893c277 0 528 113 709 294l1 1c182 182 294 433 294 709 0 277-112 528-294 710v1c-182 181-433 294-710 294-278 0-529-113-710-294-182-182-295-433-295-711 0-277 113-528 295-710 182-181 433-294 710-294zm477 527c-122-122-291-198-477-198-187 0-356 76-478 198h1c-123 122-198 291-198 477 0 187 75 356 198 478 122 122 290 197 477 197 186 0 355-75 477-197s198-291 198-478c0-186-76-355-198-477zM43938 32081c300 0 592 35 875 100 170 39 335 89 495 149-1-28-1-53-1-78 0-1352 548-2577 1434-3463 887-886 2111-1435 3464-1435 1102 0 2120 365 2939 981l50 116 343 786-54 41-122-175c-90-90-183-176-280-258-776-656-1780-1051-2876-1051-1232 0-2346 499-3153 1305-807 807-1306 1922-1306 3153 0 78 1 145 4 201 3 70 8 136 13 199l35 386-349-170c-232-114-478-201-734-260-248-57-508-88-777-88-953 0-1816 387-2441 1012-625 624-1011 1487-1011 2441 0 160 10 314 30 462 13 99 30 196 51 290h4796c22 39 47 76 75 112l262 328h-5470l-44-163c-46-166-81-337-104-509v-1c-23-173-35-347-35-519 0-1075 435-2048 1140-2752 704-704 1677-1140 2751-1140zm13722 322c23-2 47-5 71-7v-1c91-8 182-12 274-12 849 0 1618 344 2174 901 557 556 901 1325 901 2174 0 287-40 567-114 832-77 274-191 532-336 769l-64 106h-3628l259-336c26-34 49-68 69-104h3052c95-173 171-358 226-553 63-226 97-465 97-714 0-728-295-1387-772-1864s-1136-772-1864-772c-80 0-159 4-236 11v-1c-79 7-156 17-233 31l-137 24-80-112c-50-70-104-137-160-202l10-8 250 104 202 84 24-217 15-133zM55271 94661h-2293l-41-106c-144-380-250-805-320-1273-68-462-100-969-97-1519 1-400 125-772 335-1080 214-312 516-558 871-702 90-56 191-105 302-147h1c105-41 218-76 339-106 28-18 52-41 72-65l5-6c-103-88-200-189-289-302-271-347-465-808-465-1313 0-536 172-1025 450-1380 287-366 686-593 1130-593s843 227 1130 593c278 355 450 844 450 1380 0 505-193 966-465 1313-88 113-186 214-289 302l5 6c20 24 44 47 72 65 121 30 235 65 340 106 111 42 212 91 302 147 355 143 658 390 871 702 210 308 334 680 336 1080 2 550-30 1057-98 1519-69 468-175 893-320 1273l-40 106h-2294zm-1244-4470l3 5 4 7 5 7 3 6 5 9 2 3 7 11 1 1 7 12 1 2 7 10 11 18 4 6 5 8 3 4 6 10 1 2 8 12 8 12 1 2 14 22 4 6 4 6 6 8 2 3 14 21 2 3v1l8 11 2 2 6 9 3 5 5 7 4 7 4 4 6 9 2 3 7 11h1l8 12 1 1 7 10 3 3 5 8 4 6 4 6 6 7 3 4 7 9 1 2 8 11v1l8 10 2 3 7 9 3 4 5 7 5 6 4 5 6 8 2 3 8 10v1l9 11 1 1 8 9 2 3 6 8 4 5 5 6 5 7 3 4 7 8 2 3 8 10h1l8 11 2 1 7 9 3 4 6 7 4 5 5 6 6 7 2 3 8 9 1 2 9 10h1l8 10 2 3 7 8 4 4 5 6 5 6 4 4 7 8 2 2 9 10v1l9 10 1 1 8 9 3 3 7 7 4 4 5 6 6 6 3 4 8 8 1 2 10 10c210 223 446 414 710 570 264-156 500-347 711-570l9-10 2-2 7-8 3-4 6-6 5-6 5-4 6-7 3-3 8-9 1-1 9-10 1-1 8-10 2-2 11-12 5-6 6-6 3-4 7-8 2-3 9-10 9-10 1-2 8-9 3-3 6-7 4-6 4-5 6-7 3-4 8-9 1-1 9-11 8-10 2-3 7-8 3-4 6-7 4-6 4-5 7-8 2-3 8-9v-1l9-11 1-1 7-10 3-3 6-8 3-5 5-6 5-7 3-4 7-9 2-3 8-10v-1l8-11 2-2 7-9 2-4 6-7 4-6 4-6 6-8 2-3 7-10 1-1 9-12 8-11 1-3 7-9 3-4 5-7 4-7 4-5 6-9 2-2 7-11 1-1 7-12 1-1 7-11 3-3 5-8 4-6 4-6 5-8 3-4 6-10 2-2 7-12 8-12 1-2 7-10 2-4 5-8 4-6 4-6 5-8 2-4 7-10 1-2 8-12v-1l7-11 2-3 5-9 4-6 4-7 4-7 3-5c-38-18-78-35-119-51-99-38-208-71-326-99l-46-19c-69-40-127-92-175-151-7-8-13-15-19-23-66 38-134 70-202 96-91 35-181 57-270 66l-16 2h-1l-16 1h-2l-8 1h-17l-10 1h-35l-9-1h-16l-9-1h-8l-9-1h-2l-16-2c-88-9-179-31-270-66-68-26-135-58-202-96-6 8-12 15-18 23-49 59-107 111-176 151l-46 19c-117 28-227 61-326 99h1c-42 16-82 33-120 51zm681-741l47 34c91 67 184 118 275 153 65 24 129 40 190 46h4l4 1h7l4 1h25l4 1h7l3-1h26l3-1h7l4-1h4c61-6 125-22 191-46 90-35 183-86 275-153l46-33c103-82 203-182 294-298 230-294 394-684 394-1111 0-462-145-879-379-1178-226-288-534-466-872-466s-646 178-871 466c-234 299-379 716-379 1178 0 427 163 817 394 1111 90 115 190 216 293 297zm-1502 4882h4131c116-330 203-697 262-1097 67-450 98-941 96-1470-2-332-105-641-279-896-154-225-362-408-606-530l-8 12-1 1-8 14v1l-8 13-2 2-6 11-3 5-6 9-4 6-4 7-5 9-3 4-7 11-9 14v1l-1 1-8 13-1 1-8 13-2 3-6 10-4 5-5 8-4 7-4 6-6 9-3 4-7 11-2 2-8 13-9 13-1 2-8 11-2 3-6 10-4 5-5 8-5 7-4 6-6 8-3 4-7 11-2 2-9 13-9 12-1 2-8 11-2 4-7 8-4 6-5 7-5 7-4 5-7 9-2 4-8 11-1 1-9 13h-1l-9 12-1 2-8 10-3 4-6 8-5 6-5 6-5 8-4 4-7 10-2 3-9 10-1 2-9 12h-1l-9 11-2 3-7 9-4 5-6 7-5 6-5 6-6 8-3 4-8 9-2 2-9 11-1 1-9 12-1 1-9 10-3 3-7 9-4 4-6 7-5 6-5 6-7 7-3 4-8 9-2 3-9 11h-1l-10 11-1 1-9 10-3 3-7 8-4 5-6 7-6 6-4 5-8 8-3 3-8 9-2 2-10 11c-255 270-544 498-871 678l-79 43-79-43c-327-180-615-408-871-678l-10-11-1-2-9-9-3-3-7-8-5-5-6-6-6-7-4-5-7-8-3-3-9-10-1-1-10-11-10-11-2-3-8-9-3-4-7-7-5-6-5-6-6-7-4-4-7-9-3-3-8-10-1-1-10-12-1-1-9-11-2-2-7-9-4-4-6-8-5-6-5-6-6-8-3-4-8-9-2-3-9-11-10-12-1-2-8-10-3-3-7-10-3-4-6-8-5-6-4-6-7-8-3-4-7-10-2-2-9-12v-1l-9-12-2-1-8-11-2-4-7-9-4-5-5-7-5-7-4-6-6-8-3-4-8-11-1-2-9-12-9-13-1-2-8-11-2-4-7-8-4-6-4-7-6-8-3-5-9-13-8-11-1-2-8-13h-1l-8-13-2-2-7-11-3-4-5-9-4-6-5-7-5-8-3-5-7-10-2-3-8-13v-1l-9-13v-1l-8-12-2-3-7-11-3-5-5-8-4-7-4-6-6-9-2-5-7-11-2-3-8-12v-1l-8-14-1-1-7-12c-244 122-453 305-606 530-175 255-278 564-279 896-3 529 29 1020 95 1470 59 400 146 767 263 1097zM48671 82401h1705v439h-1705zM30909 63071c425 65 856 374 1402 777 321 236 796 410 1037 833-50-539-195-984-419-1307-119-172-261-308-422-404-160-95-341-152-540-165-310-20-665 63-1058 266zm671 8164h-2293l-41-106c-145-379-251-804-320-1272-68-462-100-969-98-1519 2-400 126-772 336-1080 213-312 516-559 871-702 90-56 191-105 302-148h1c105-40 218-75 339-105 28-19 52-41 72-66l5-6c-103-87-200-189-289-302-272-347-465-807-465-1313 0-505 153-967 403-1316v-1c16-21 31-42 47-62 72-92 151-175 235-248l1 1c426-392 902-539 1302-513 252 17 482 89 686 210 203 121 379 289 526 501 370 534 549 1345 485 2335l-322 35c-64-218-143-415-234-592-65 367-227 698-434 963-89 113-186 215-289 302l5 6c20 25 44 47 72 66 121 30 234 65 339 105h1c111 43 212 92 302 148 355 143 657 390 871 702 210 308 334 680 335 1080 3 550-29 1057-97 1519-69 468-176 893-320 1272l-41 106h-2293zm-905-7751c-215 295-346 693-346 1132 0 427 164 817 394 1111 91 116 191 216 294 298l46 33c92 67 185 119 275 153 66 25 130 41 191 47h11l2 1h16l4 1h36l3-1h17l2-1h11c61-6 125-22 190-47 91-34 184-86 275-153l46-33c104-82 204-182 294-298 231-294 394-684 394-1111 0-41-1-83-3-124-239-48-521-240-711-380-647-477-1134-648-1441-628zm-339 3281l3 5 4 8 4 7 4 5 5 9 2 3 7 12h1l7 13 1 1 7 11 11 17 4 7 5 8 2 4 7 10 1 2 8 12 8 12 1 2 14 21 4 7 4 5 5 8 3 4 13 20 3 3v1l7 11 2 3 6 9 4 4 4 7 5 7 3 5 7 9 1 2 8 11 1 1 8 11 1 1 7 10 2 4 6 8 4 5 4 6 6 8 2 3 7 10 2 1 8 12 8 11 2 2 7 9 3 4 5 7 5 6 3 5 6 8 3 3 7 10 1 1 9 11v1l8 10 3 3 6 8 4 4 4 6 6 7 3 4 7 9 2 2 8 10v1l9 10 1 2 8 9 3 3 6 7 4 6 4 5 6 7 3 3 8 9 1 2 9 10v1l9 10 2 2 7 8 3 4 6 6 5 6 4 5 7 7 2 3 8 9 1 1 9 10 1 1 8 9 3 3 6 7 5 5 5 5 6 7 3 3 8 8 1 2 9 10c656 320 794 304 1421 0l10-10 1-2 8-8 3-3 6-7 5-5 4-5 7-7 3-3 8-9 1-1 9-10v-1l9-9 2-3 11-12 5-6 5-6 4-4 7-8 2-2 8-10 1-1 9-10 1-2 8-9 2-3 6-7 5-5 4-6 6-7 3-3 7-9 2-2 8-10 1-1 8-10 2-2 7-9 3-4 5-7 5-6 4-4 6-8 3-3 7-10 1-1 9-11v-1l8-10 2-3 6-8 4-5 5-6 5-7 3-4 7-9 2-2 8-11 8-12 2-1 6-10 3-3 6-8 4-6 4-5 5-8 3-4 7-10 1-1 8-11 1-1 7-11 2-2 6-9 4-5 4-7 5-7 3-4 6-9 2-3 8-11v-1l8-11 1-2 7-10 2-4 6-8 4-5 4-7 5-7 2-5 7-9 1-2 8-12 8-12 1-2 6-10 3-4 5-8 4-7 4-5 5-9 2-3 7-11 1-1 7-13h1l7-12 2-3 5-9 3-5 5-7 4-8 3-5c-38-18-78-35-119-51-99-38-209-71-326-99l-46-18c-69-41-127-92-176-151l-18-24c-67 39-134 71-202 97-91 34-182 57-270 66l-16 1h-2l-15 1-2 1h-14l-4 1h-69l-3-1h-14l-2-1h-6l-9-1h-2l-16-1c-89-9-179-32-270-66-68-26-135-58-202-97-6 8-12 16-19 24-48 59-106 110-175 151l-46 18c-118 28-227 61-326 99-41 16-81 33-119 51zm-821 4141h4130c117-330 204-696 263-1097 66-449 98-940 95-1470-1-331-104-640-279-896-153-224-362-408-606-530l-7 12-1 2-8 13v1l-8 13-2 3-6 10-3 5-6 9-4 7-4 6-5 9-3 5-7 10-9 14-1 2-9 14v1l-8 12-2 3-7 10-3 5-5 8-5 7-4 6-5 9-3 5-7 10-2 3-8 12v1l-9 13-1 1-8 11-2 4-7 9-3 6-6 7-4 7-4 6-7 9-2 4-8 10-1 2-9 13-9 13-1 2-8 10-3 4-6 9-4 5-5 7-5 8-4 5-7 9-2 3-8 11-2 2-9 12-9 12-2 2-7 10-3 4-7 9-4 5-5 7-6 7-3 5-7 9-3 3-8 11-1 1-10 12v1l-9 11-2 2-8 10-3 4-6 8-5 5-5 6-6 8-4 4-7 9-2 3-9 11-1 1-10 11-1 1-8 11-3 2-7 9-4 5-6 7-5 6-5 5-7 8-3 4-8 9-2 2-10 11-10 12-1 1-9 10-3 3-7 8-4 5-6 6-6 6-5 5-7 8-3 3-9 9-1 2-10 11c-868 327-1051 346-1900 0l-10-11-2-2-8-9-3-3-8-8-4-5-6-6-6-6-4-5-7-8-3-3-9-10-1-1-10-12-10-11-2-2-8-9-3-4-7-8-5-5-5-6-6-7-4-5-7-9-3-2-9-11-1-1-9-11-1-1-9-11-2-3-8-9-3-4-6-8-5-6-5-5-6-8-4-4-7-10-2-2-9-11-1-1-9-12-1-1-9-11-2-3-7-9-4-5-5-7-5-7-5-5-6-9-3-4-8-10-1-2-9-12-10-12-1-2-8-11-2-3-7-9-4-5-5-8-5-7-4-5-7-9-2-4-8-11-1-1-9-13-9-13-1-2-8-10-3-4-6-9-4-6-5-7-5-7-3-6h-1l-8-13-8-11-1-1-9-13v-1l-8-12-2-3-7-10-3-5-6-9-4-6-4-7-5-8-4-5-6-10-2-3-8-12-1-1-8-14h-1l-7-13-2-3-7-10-3-5-5-9-4-6-4-7-6-9-3-5-6-10-2-3-8-13v-1l-8-13-1-2-7-12c-245 122-453 306-606 530-175 256-278 565-279 896-3 530 28 1021 95 1470 59 401 146 767 263 1097z" class="fil1"/><path d="M45303 97325c386 0 698 313 698 699 0 385-312 698-698 698s-698-313-698-698c0-386 312-699 698-699zM43909 93936c695 0 1257 563 1257 1257s-562 1257-1257 1257c-694 0-1257-563-1257-1257s563-1257 1257-1257z" class="fil0"/><path d="M83266 81653c283 0 540 115 725 301h1c186 186 301 443 301 726s-115 540-301 726-443 301-726 301c-284 0-541-115-726-301-186-186-301-443-301-726s115-540 301-726 443-301 726-301zm424 602c-108-108-258-175-424-175s-316 67-425 175c-108 109-176 259-176 425s68 316 176 425c109 108 259 175 425 175s316-67 424-175c109-109 176-259 176-425s-67-316-176-425zM43480 28842v426h426v261h-426v427h-261v-427h-426v-261h426v-426zM58717 40646h1337v439h-1337zM56176 43101h500v439h-500zM57616 39502h937v439h-937zM59903 39502h4254v439h-4254z" class="fil1"/><g id="_1163749856"><path d="M55823 40646h2265v439h-2199zM56780 38144h1473v439h-1123z" class="fil1"/></g><path d="M62555 32130c229 0 436 93 587 243v1c150 150 243 357 243 586s-93 437-243 587c-151 150-358 243-587 243s-436-93-587-243c-150-150-243-358-243-587s93-436 243-586v-1c151-150 358-243 587-243zm207 623c-53-53-126-86-207-86s-154 33-207 86-86 126-86 207 33 154 86 207 126 86 207 86 154-33 207-86 86-126 86-207-33-154-86-207zM70171 6827v-912h1590v912h578v3119h-4365V6827h2197zm1773 395h-3575v2330h3575V7222zm-1378-487h800v-425h-800v425zM173408 36074c-426 65-856 375-1402 777-321 236-796 410-1038 834 51-540 196-985 420-1308 119-172 261-308 422-404 160-95 341-151 540-164 310-21 665 63 1058 265zm-671 8165h2293l41-107c144-379 250-804 320-1272 68-462 100-969 97-1519-1-400-125-772-335-1080-214-312-516-559-871-702-90-56-191-105-302-148h-1c-105-40-218-75-339-105-28-19-52-41-72-66l-5-5c103-88 200-189 289-303 271-347 465-807 465-1312 0-506-153-968-403-1317l-1-1c-15-21-30-42-46-62-72-92-151-175-236-247v1c-426-393-902-540-1302-513-252 16-482 88-687 209-202 121-378 290-525 501-370 534-550 1345-485 2335l322 36c64-219 143-415 234-593 65 367 226 698 434 963 88 114 186 215 289 303l-5 5c-20 25-44 47-72 66-121 30-235 65-340 105-111 43-212 92-302 148-355 143-658 390-871 702-210 308-334 680-336 1080-2 550 30 1057 98 1519 69 468 175 893 320 1272l40 107h2294zm905-7752c214 295 345 693 345 1133 0 427-163 816-394 1110-90 116-190 217-293 298l-47 34c-91 66-184 118-275 152-65 25-129 41-190 47h-8l-4 1h-10l-4 1h-51l-3-1h-11l-3-1h-8c-61-6-125-22-191-47-90-34-183-86-275-152l-46-34c-103-81-203-182-294-298-230-294-394-683-394-1110 0-42 1-83 4-124 239-49 521-241 711-381 647-476 1134-648 1441-628zm339 3282l-3 5-4 7-5 7-3 5-5 10-2 2-7 12-1 1-7 12-1 1-7 11-11 18-4 6-5 8-3 4-6 10-1 2-8 12-8 12-1 2-14 22-4 6-4 5-6 9-2 3-14 20-2 4-8 11-2 3-6 9-3 5-5 6-4 7-4 5-6 9-2 2-7 11-1 1-8 11-1 2-7 10-3 3-5 8-4 5-4 6-6 8-3 4-7 9-1 2-8 11-8 11-2 2-7 9-3 4-5 7-5 6-4 5-6 8-2 3-8 10v1l-9 11-1 1-8 10-2 3-6 8-4 5-5 6-5 6-3 5-7 8-2 2-8 11h-1l-8 11-2 1-7 9-3 4-6 7-4 5-5 5-6 7-2 4-8 9-1 1-9 11h-1l-8 10-2 2-7 8-4 4-5 7-5 6-4 4-7 8-2 2-9 10-9 10-1 1-8 9-3 3-7 7-4 5-5 5-6 7-3 3-8 9-1 1-10 10c-656 320-793 305-1421 0l-9-10-2-1-7-9-3-3-6-7-5-5-5-5-6-7-3-3-8-9-1-1-9-10h-1l-8-10-2-2-11-12-5-6-6-7-3-4-7-8-2-2-9-10-9-11-1-1-8-9-3-4-6-7-4-5-4-5-6-7-3-4-8-9-1-1-9-11-8-11-2-2-7-8-3-5-6-6-4-6-4-5-7-8-2-3-8-10v-1l-9-11-1-1-7-10-3-3-6-8-3-5-5-6-5-7-3-4-7-9-2-2-8-11-8-11-2-2-7-9-2-4-6-8-4-6-4-5-6-8-2-3-7-10-1-2-9-11v-1l-8-11-1-2-7-9-3-5-5-7-4-6-4-5-6-9-2-3-7-11h-1l-7-12-1-1-7-11-3-3-5-9-4-5-4-6-5-8-3-4-6-10-2-2-7-12-8-12-1-2-7-10-2-4-5-8-4-6-4-6-5-9-2-3-7-11-1-1-8-12v-1l-7-12-2-2-6-10-3-5-4-7-4-7-3-5c38-18 78-35 119-51v-1c99-38 208-71 326-99l46-18c69-41 127-92 175-151 7-8 13-16 19-23 66 38 134 70 202 96 91 34 181 57 270 66l16 2h1l15 1h11l6 1h22l5 1h22l5-1h22l5-1h11l6-1h11l16-2c88-9 179-32 270-66 68-26 135-58 202-96 6 7 12 15 18 23 49 59 107 110 176 151l46 18c117 28 227 61 326 99l-1 1c42 16 82 33 120 51zm821 4140h-4131c-116-330-203-696-262-1096-67-450-98-941-96-1471 2-331 105-640 279-896 154-224 362-407 606-530l8 13 1 1 8 14 8 13 2 3 6 11 3 4 6 9 4 7 4 7 5 8 3 5 7 11 9 14v1l1 1 8 13 1 1 8 12 2 3 6 10 4 5 5 9 4 7 4 6 6 9 3 4 7 10 2 3 8 12v1l9 13 1 1 8 12 2 3 6 10 4 5 5 7 5 8 4 5 6 9 3 4 7 11 2 2 9 12 9 13 1 2 8 11 2 3 7 9 4 6 5 7 5 7 4 5 7 9 2 3 8 11 1 2 9 12h1l9 12 1 3 8 10 3 4 6 8 5 6 5 6 5 7 4 5 7 9 2 3 9 11 1 1 9 12 1 1 9 11 2 3 7 9 4 4 6 8 5 6 5 6 6 7 3 4 8 10 2 2 9 11 1 1 9 11 1 1 9 11 3 3 7 9 4 4 6 7 5 6 5 5 7 8 3 4 8 9 2 2 9 11 1 1 10 11 1 1 9 10 3 3 7 8 4 5 6 6 6 6 4 5 8 8 3 3 8 10 2 1 10 11c868 328 1050 346 1900 0l10-11 1-1 9-10 3-3 7-8 5-5 6-6 6-6 4-5 7-8 3-3 9-10 1-1 10-11v-1l10-11 2-2 8-9 3-4 7-8 5-5 5-6 6-7 4-4 7-9 2-3 9-11 1-1 10-11 1-1 9-11 2-2 7-10 4-4 6-7 5-6 5-6 6-8 3-4 8-9 2-3 9-11v-1l10-12 1-1 8-11 3-3 7-9 3-5 6-7 5-6 4-6 7-8 3-4 7-10 2-3 9-12 9-12 2-2 8-11 2-3 7-9 4-5 5-7 5-7 4-6 6-9 3-3 8-11 1-2 9-13 9-12 1-2 8-11 2-4 7-9 4-5 4-8 6-7 3-5v-1l9-12 8-12 1-1 8-13 1-1 8-12 2-3 7-10 3-5 5-8 4-7 5-6 5-9 3-5 7-10 2-3 8-12v-1l9-13v-1l8-13 2-2 7-11 3-5 5-8 4-7 4-7 6-9 2-4 7-11 2-3 8-13 8-14 1-1 7-13c244 123 453 306 606 530 175 256 278 565 279 896 3 530-29 1021-95 1471-59 400-146 766-263 1096zM128597 115896v3893c0 287 117 548 306 737s449 306 737 306h13103c378 0 721 154 970 403 248 248 402 591 402 969v3732c0 287 117 548 306 737s450 306 737 306h4196v329h-4196c-378 0-721-154-970-402-248-249-402-592-402-970v-3732c0-287-117-548-306-737-189-188-450-306-737-306h-13103c-378 0-722-154-970-402-249-249-403-592-403-970v-3893h330z" class="fil1"/><path d="M149354 126178h1394v2002h-1559v-2002h165zm1065 330h-900v1343h900v-1343z" class="fil1"/><path d="M152426 120741h5393c589 0 1125 241 1512 628 388 388 629 923 629 1513v14370c0 589-241 1125-629 1512-387 388-923 629-1512 629h-5393c-589 0-1124-241-1512-629-388-387-628-923-628-1512v-14370c0-590 240-1125 628-1513 388-387 923-628 1512-628zm-920 1773h7233c151 0 288 61 388 161 99 99 161 236 161 388v14237c0 151-62 288-161 387h-1c-100 100-237 161-387 161h-3228c28 21 54 43 78 67 119 119 193 284 193 466s-74 346-193 466c-42 41-89 77-140 106h2370c468 0 894-191 1202-499s499-734 499-1202v-14370c0-468-191-894-499-1202s-734-500-1202-500h-5393c-468 0-894 192-1202 500s-499 734-499 1202v14370c0 468 191 894 499 1202s734 499 1202 499h2370c-51-29-98-65-139-106h-1c-119-120-193-284-193-466s74-347 193-466h1c24-24 50-46 77-67h-3228c-150 0-287-61-387-161s-161-237-161-387v-14237c0-151 61-288 161-388 99-100 236-161 387-161zm3894 15590c-71-71-169-115-277-115-109 0-207 44-278 115-71 70-114 169-114 277s43 206 114 277 169 115 278 115c108 0 206-44 277-115s115-169 115-277-44-207-115-277zm3339-15151h-7233c-30 0-57 12-77 32h-1c-19 19-31 47-31 78v14237c0 30 12 58 31 77l1 1c19 19 47 31 77 31h7233c30 0 58-12 77-31v-1c20-20 33-47 33-77v-14237c0-31-13-58-33-78s-47-32-77-32z" class="fil1"/><path d="M155123 133890h-2663l-47-127c-168-452-291-959-371-1516-80-551-117-1156-114-1811 2-477 146-921 390-1287 247-373 599-667 1011-838 104-66 222-125 350-176h1c122-48 254-89 394-125 33-22 60-49 84-78l5-7c-119-104-232-226-335-361-315-413-540-962-540-1564 0-640 200-1222 523-1645 333-437 796-707 1312-707 515 0 979 270 1312 707 322 423 522 1005 522 1645 0 602-224 1151-540 1564-103 135-216 256-335 361l5 7c24 29 52 56 84 78 140 36 272 77 394 125h1c129 51 246 110 350 176 412 171 764 465 1012 838 244 366 387 810 389 1287 3 655-34 1260-113 1811-80 557-204 1064-372 1516l-46 127h-2663zm162-3445v3052h2236c135-393 236-830 305-1307 77-536 113-1121 110-1753-1-395-121-763-324-1068-177-267-420-486-703-632l-9 15-1 2-9 16-1 1-9 15-2 3-7 13-4 6-6 10-5 8-5 8-6 11-3 5-8 13-10 17-1 1-1 1-9 16-1 1-9 15-3 3-7 13-4 5-6 10-5 8-5 8-7 10-3 5-8 13-2 3-10 15v1l-10 15-1 2-9 13-3 4-7 12-5 6-6 9-5 8-5 7-7 11-3 4-9 13-1 3-11 15-10 15-2 2-9 13-3 4-7 11-5 6-6 9-6 8-4 6-8 11-3 4-9 13-2 2-10 15h-1l-10 14-2 3-9 12-3 5-8 9-5 7-5 8-7 9-4 5-9 11-2 4-10 13-1 1-11 14-1 1-10 13-3 3-8 12-4 5-7 9-6 7-6 7-7 9-4 5-9 11-2 3-11 13v1l-12 14-1 1-10 12-3 4-9 10-4 5-7 9-6 7-5 7-8 9-4 4-9 11-3 3-11 13-12 14-1 1-11 12-3 3-8 10-5 6-7 8-7 7-5 6-8 9-4 4-10 11-2 2-12 13c-277 302-589 560-940 767zm-329 3052v-3054c-349-207-659-464-936-765l-12-13-2-2-10-11-3-4-9-9-5-6-7-7-7-8-4-6-9-10-3-3-11-12-1-1-12-14-11-13-2-3-10-11-4-4-7-9-6-7-6-7-7-9-4-5-9-10-3-4-10-12-1-1-11-14-1-1-11-13-2-3-9-11-4-5-7-9-6-7-5-7-8-9-3-5-9-12-3-3-10-13-1-1-11-14-1-1-10-13-2-4-8-11-5-5-6-9-6-8-5-7-8-9-3-5-9-12-2-3-10-14h-1l-10-15-2-2-9-13-3-4-7-11-5-6-6-8-6-9-4-6-8-11-3-4-9-13-2-2-10-15-10-15-2-3-9-13-3-4-7-11-4-7-6-8-6-9-4-6h-1l-9-16-10-13-1-2-10-16-10-15-2-3-8-13-3-5-7-10-5-8-5-8-6-10-4-6-7-12-3-3-9-15v-1l-10-16-1-1-9-15-2-3-8-13-3-5-6-11-5-8-5-8-6-10-3-6-8-13-2-3-9-15-1-1-9-16-1-2-9-15c-283 146-525 365-703 632-203 305-322 673-324 1068-3 632 33 1217 110 1753 69 477 170 914 306 1307h2231zm-1245-7958c305 7 1159-93 1846-1409-138-58-283-90-434-90-393 0-751 213-1012 556-194 254-335 579-400 943zm2290-1099c-22 140-22 259-7 361 28 196 117 329 222 418 89 74 191 120 281 147-75-295-200-557-363-770-42-56-86-108-133-156zm565 1341c-30-4-61-10-93-17-151-33-343-106-510-246-170-144-312-355-357-660-3-15-4-29-6-44-754 1066-1617 1129-1928 1116-1 23-1 46-1 70 0 509 190 973 457 1324 105 138 221 257 341 355l54 40c106 79 214 141 319 182 76 29 150 48 221 55h5l4 1h9l4 1h13l4 1h41l5-1h12l4-1h9l4-1h5c71-7 145-26 221-55 105-41 213-103 319-182l54-40c120-97 236-217 341-355 267-351 458-815 458-1324 0-74-4-148-9-219zm-2888 2781l3 5 6 9 5 9 3 6 7 11 2 3 8 14 1 1 8 14 1 2 8 13 13 21 5 8 5 9 4 5 7 12 2 2 8 14h1l8 15 2 2 17 26 4 7 5 7 6 10 3 4 16 24 2 4 1 1 8 13 2 3 7 10 4 6 6 8 5 8 4 6 7 11 2 3 9 13h1l9 14 1 2 9 12 2 4 7 9 5 7 5 7 6 8 3 5 8 11 2 2 9 14h1l9 13 2 3 8 10 3 5 6 8 6 8 4 6 7 9 3 4 9 12 1 1 10 13 1 1 9 12 2 3 8 10 4 5 6 8 6 8 3 4 8 11 2 2 10 13h1l10 13 1 2 9 10 3 4 7 9 5 6 5 6 7 9 4 4 8 11 2 1 10 13h1l9 12 3 3 8 9 4 5 6 8 6 7 5 5 8 9 2 3 10 11 1 1 10 12 2 2 9 10 3 4 8 8 5 6 5 6 7 8 4 4 9 10 2 2 11 12c244 265 518 494 825 679 306-185 580-414 825-679l10-12 2-2 9-10 4-4 7-8 6-6 4-6 8-8 3-4 10-10 1-2 10-12 1-1 10-11 2-3 13-14 6-7 6-8 4-5 8-9 3-3 10-12 10-13 2-1 9-11 3-4 7-9 5-6 5-6 7-9 3-4 9-10 1-2 11-13 10-13 2-2 8-11 3-4 7-8 5-8 5-5 7-10 3-3 9-12v-1l10-13 1-1 9-12 3-4 7-9 4-6 6-8 6-8 4-5 7-10 2-3 10-13 9-14 2-2 8-11 3-5 7-8 4-7 5-7 7-9 3-4 8-12 1-2 9-14h1l9-13 2-3 7-11 4-6 5-8 6-8 4-6 7-10 2-3 9-13v-1l9-14 1-2 9-12 2-4 7-10 4-7 5-7 6-9 3-5 7-12 2-2 9-15 9-14 1-2 8-12 3-5 5-9 5-8 4-7 7-10 2-4 8-13 1-2 9-14v-1l8-14 2-3 7-11 4-6 5-9 5-9 3-5c-44-22-90-42-139-62h1c-115-45-242-84-379-118l-53-21c-80-49-147-110-204-181-7-9-14-18-21-28-78 46-156 85-235 115-105 41-211 68-313 79l-19 2h-2l-17 1h-3l-10 1h-6l-4 1h-28l-6 1h-13l-6-1h-28l-3-1h-7l-10-1h-9l-11-1h-1l-19-2h-1c-102-11-207-38-313-79-79-30-157-69-235-115-7 10-14 19-21 28-57 71-124 132-204 181l-53 21c-136 34-263 73-378 118-49 20-95 40-139 62zM152436 135150h2788v440h-2788zM155653 135150h2087v440h-2087zM152285 136280h5675v439h-5675zM72576 60194h2788v439h-2788zM75793 60194h2087v439h-2087zM72425 61324h5675v439h-5675zM73911 46661h2703v439h-2703zM74495 49486c487 74 979 428 1603 888 367 270 911 469 1187 953-58-617-224-1126-479-1495-137-196-299-352-483-462-183-109-390-173-618-188-354-23-761 72-1210 304zm768 9336h-2623l-46-122c-166-433-287-919-366-1454-78-529-114-1109-112-1738 2-457 144-883 384-1234 244-358 590-640 996-803 103-64 218-120 345-169h1c120-46 250-86 388-121 32-21 59-46 83-75l5-6c-117-100-229-217-330-346-311-397-532-923-532-1501s174-1107 460-1505v-1l1-1c18-24 35-47 54-71 82-105 172-199 269-283l1 1c487-449 1030-616 1488-586 289 19 552 101 785 240 232 137 433 331 601 572 423 611 628 1538 555 2670l-368 41c-74-249-164-474-268-677-74 419-259 798-496 1101-102 129-213 246-330 346l5 6c23 29 50 54 82 75 138 35 268 75 388 121h1c127 49 243 105 345 169 406 163 752 445 996 803 241 351 382 777 384 1234 3 629-34 1209-112 1738-79 535-200 1021-365 1454l-47 122h-2622zm-1036-8864c-245 337-394 792-394 1295 0 488 187 934 450 1270 104 132 218 247 336 341l53 38c105 76 211 135 314 174 75 29 148 47 218 54h9l4 1h13l4 1h58l4-1h12l4-1h9c70-7 143-26 218-54 103-39 210-98 314-174l53-38c118-94 232-208 336-341 263-336 451-782 451-1270 0-48-2-95-4-142-273-55-596-275-813-435-740-545-1297-741-1649-718zm-387 3752l3 6 5 9 5 8 4 6 6 10 2 4 8 12 1 1 9 14 1 2 7 12 13 20 5 8 5 9 3 5 8 11 1 2 9 14 9 13 1 3 17 25 4 7 5 6 6 10 2 3 16 24 3 3v1l9 13 2 3 7 10 3 5 6 8 5 8 4 5 7 10 2 3 9 13 10 14 1 1 8 12 3 4 6 9 5 6 5 6 6 9 3 4 8 11 2 2 9 13 10 13 1 2 8 10 4 5 6 8 5 7 4 6 7 9 3 3 9 12 1 1 9 12 1 1 9 12 3 3 7 9 4 6 6 7 6 7 3 5 8 10 2 2 10 12 10 12 2 2 8 11 4 4 6 8 5 6 5 6 7 8 4 4 8 10 2 2 10 12 10 11 2 3 8 9 4 5 7 7 5 7 5 5 8 8 2 3 10 11 1 1 10 12 1 1 9 10 3 3 8 9 5 5 5 6 7 7 4 4 9 10 2 2 10 11c750 366 908 348 1625 0l11-11 2-2 8-10 4-4 7-7 6-6 4-5 8-9 3-3 9-10 1-1 11-12 1-1 9-11 3-3 12-13 6-7 6-7 4-5 8-9 2-3 10-11h1l10-12 1-2 9-10 3-4 7-8 5-6 5-6 7-8 3-4 9-11 1-2 10-12 10-12 2-2 8-10 4-5 6-7 5-7 5-6 7-9 2-3 9-12 1-1 10-12 1-1 8-12 3-3 7-9 4-6 6-7 6-8 3-5 8-10 2-2 9-13 10-13 1-2 8-11 3-4 7-9 4-6 5-6 6-9 3-4 8-12 2-1 9-14 9-13 2-3 7-10 4-5 6-8 5-8 4-5 7-10 2-3 8-13 1-1 9-13 1-2 8-12 3-3 6-10 4-6 5-7 6-9 3-5 7-11 2-3 8-13 9-14 2-2 7-11 3-5 6-9 4-8 4-6 7-10 2-4 8-12 1-2 8-14 1-1 8-12 2-4 6-10 4-6 5-8 5-9 3-6c-43-20-89-40-136-58-113-44-238-81-373-114l-52-20c-79-47-145-106-201-173l-21-27c-76 44-154 81-231 110-104 40-208 65-309 76l-18 2h-2l-17 1h-3l-10 1h-18l-12 1h-40l-10-1h-19l-10-1h-2l-7-1h-12l-19-2c-101-11-205-36-309-76-77-29-154-66-231-110l-21 27c-55 67-122 126-201 173l-52 20c-134 33-259 70-372 114-48 18-94 38-137 58zm-939 4735h4724c133-377 232-796 300-1254 76-514 112-1075 109-1681-2-379-119-732-319-1025-175-256-414-466-693-606l-9 14-1 2-9 15v1l-9 15-2 3-8 12-3 6-6 10-5 7-5 8-6 10-3 6-8 12-10 16-1 1v1l-10 15-1 1-9 14-2 4-7 12-4 5-6 10-5 7-5 8-6 10-4 5-8 12-2 2-9 15-10 15-2 2-8 13-3 4-7 11-4 6-6 8-6 8-5 7-7 10-3 4-8 13-2 2-10 14v1l-10 14-2 2-9 12-3 4-7 11-4 6-6 8-6 8-5 6-7 11-3 3-9 13-2 1-10 15-11 14-2 2-8 12-4 4-7 10-5 6-6 7-6 9-4 5-9 11-2 3-10 13-1 1-11 14-11 13-2 3-9 11-3 5-8 8-5 7-6 7-7 9-4 4-8 11-3 3-10 12-1 1-11 13-1 1-10 13-3 3-8 10-5 5-7 8-6 7-5 6-8 9-3 4-10 11-2 2-11 13-12 13-1 1-10 12-3 3-9 9-5 6-6 7-7 7-5 6-8 9-4 3-10 11-2 2-11 13c-993 374-1201 395-2172 0l-12-13-2-2-10-11-3-3-8-9-6-6-6-7-7-7-5-6-8-9-3-3-11-12-1-1-11-13h-1l-11-13-2-2-9-11-4-4-8-9-5-6-6-7-7-8-4-5-9-10-2-3-11-13-1-1-11-13-1-1-10-12-2-3-9-11-4-4-7-9-6-7-5-7-7-8-4-5-9-11-2-3-10-13h-1l-11-14-1-1-10-13-2-3-8-11-4-5-7-9-6-7-5-6-7-10-3-4-9-12-2-2-10-14-11-15-1-1-9-13-3-3-8-11-4-6-6-8-6-8-5-6-7-11-3-4-9-12-1-2-11-15-10-14-1-2-9-13-3-4-7-10-5-7-5-8-6-8-4-6v-1l-10-14-9-13-1-2-10-15h-1l-9-15-2-2-8-12-3-5-7-10-5-8-5-7-6-10-3-6-8-11-2-4-9-14-1-1-9-15-1-1-9-14-2-3-8-12-3-6-6-10-5-8-5-7-6-10-3-6-8-12-1-3-9-15-1-1-9-15-1-2-8-14c-280 140-518 350-693 606-200 293-318 646-319 1025-3 606 32 1167 108 1681 68 458 168 877 301 1254z" class="fil1"/><path d="M74262 65478v-1041h-1695c-590 0-1125-241-1513-629-388-387-628-923-628-1512V47926c0-590 240-1125 628-1513 388-387 923-628 1513-628h5392c589 0 1125 241 1513 628 387 388 628 923 628 1513v14370c0 589-241 1125-628 1512-388 388-924 629-1513 629h-1695v1206h-2002v-165zm1389-2586c28 20 54 43 78 67 119 119 193 284 193 466s-74 346-193 466c-42 41-89 77-140 106h2370c468 0 894-191 1202-499s500-734 500-1202V47926c0-469-192-894-500-1202-308-309-734-500-1202-500h-5392c-469 0-894 191-1203 500-308 308-499 733-499 1202v14370c0 468 191 894 499 1202 309 308 734 499 1203 499h2369c-51-29-98-65-139-106-120-120-193-284-193-466s73-347 193-466c24-24 50-47 77-67h-3227c-151 0-288-61-387-161h-1c-100-100-161-237-161-387V48106c0-150 61-287 161-387 99-100 236-161 388-161h7232c151 0 288 61 388 161 99 99 161 236 161 387v14238c0 151-62 288-161 387h-1c-100 100-237 161-387 161h-3228zm-111 255c-71-70-169-114-277-114-109 0-207 44-278 114-70 71-114 169-114 278 0 108 44 206 114 277 71 71 169 115 278 115 108 0 206-44 277-115s115-169 115-277c0-109-44-207-115-278zm3339-15150h-7232c-31 0-58 12-78 32h-1c-19 19-31 47-31 77v14238c0 30 12 58 31 77l1 1c19 19 47 31 78 31h7232c31 0 58-12 77-31v-1c20-20 33-47 33-77V48106c0-30-13-57-33-77-19-20-47-32-77-32zm-2945 16440h-1343v876h1343v-876z" class="fil1"/><path d="M58331 78801v-1249m0-2519v-5477c0-545 444-989 988-989h14972c544 0 988-443 988-988v-1936" class="fil2"/><path d="M58166 78812v-1260h330v1263m-330-3782v-5477c0-318 130-606 339-815s497-338 814-338h14972c226 0 432-93 582-242 149-149 241-355 241-582v-1936h329v1936c0 318-129 606-338 815-208 209-497 338-814 338H59319c-227 0-433 93-582 242s-241 355-241 582v5477h-330z" class="fil1"/><path d="M58322 78801c626 0 1133 508 1133 1133 0 626-507 1134-1133 1134s-1133-508-1133-1134c0-625 507-1133 1133-1133z" class="fil0"/><path d="M58308 75033c347 0 662 141 891 369 228 229 369 543 369 890 0 348-141 662-369 891-229 228-544 369-891 369s-662-141-890-369h-1c-228-229-369-543-369-891 0-347 141-661 369-890h1c228-228 543-369 890-369zm659 600c-168-168-401-273-659-273-257 0-491 105-659 273-169 169-273 402-273 659 0 258 104 491 273 659v1c168 168 402 272 659 272 258 0 491-104 659-272l1-1c168-168 272-401 272-659 0-257-104-490-272-659h-1zM66895 87088c235 0 448 95 602 249l1 1c154 154 250 367 250 602s-96 448-250 603h-1c-154 155-367 250-602 250s-448-95-603-250-250-368-250-603 95-448 250-602v-1c155-154 368-249 603-249zm446 406c-114-114-272-184-446-184-175 0-332 70-446 184h-1c-114 114-184 272-184 446 0 175 70 333 184 447h1c114 114 271 184 446 184 174 0 332-70 446-184s185-272 185-447c0-174-71-332-185-446z" class="fil1"/><path d="M66895 86651c356 0 679 144 912 377 233 234 378 556 378 912 0 357-145 679-378 912-233 234-556 378-912 378s-679-144-912-378c-234-233-378-555-378-912 0-356 144-678 378-912 233-233 556-377 912-377zm757 533c-194-194-462-314-757-314-296 0-563 120-757 314-194 193-313 461-313 756 0 296 119 564 313 757 194 194 461 314 757 314 295 0 563-120 757-314 193-193 313-461 313-757 0-295-120-563-313-756zM52837 25486c115 0 219 47 294 122s121 179 121 293c0 115-46 218-121 294-75 75-179 121-294 121-114 0-218-46-293-121-75-76-122-179-122-294 0-114 47-218 122-293s179-122 293-122zm104 312c-26-27-63-43-104-43-40 0-77 16-103 43-27 26-43 63-43 103 0 41 16 77 43 104 26 26 63 43 103 43 41 0 78-17 104-43 26-27 43-63 43-104 0-40-17-77-43-103zM37866 101509c293 0 559 119 751 311l1 1c192 192 311 457 311 750s-119 559-311 751h-1c-192 192-458 311-751 311s-558-119-750-311h-1c-192-192-311-458-311-751s119-558 311-750l1-1c192-192 457-311 750-311zm293 770c-75-75-178-121-293-121-114 0-217 46-292 121-74 75-121 178-121 292s47 218 121 292c75 75 178 122 292 122 115 0 218-47 293-122 75-74 121-178 121-292s-46-217-121-292z" class="fil1"/><path d="M38405 99404c699 0 1266 566 1266 1265s-567 1265-1266 1265c-698 0-1265-566-1265-1265s567-1265 1265-1265zM104181 61615c222 0 403 180 403 402s-181 402-403 402-402-180-402-402 180-402 402-402z" class="fil0"/><path d="M90515 68027c306 0 583 124 784 325s325 478 325 784-124 584-325 784v1c-201 200-478 325-784 325s-583-125-784-325v-1c-201-200-325-478-325-784s124-583 325-784 478-325 784-325zm582 527c-149-149-355-241-582-241s-433 92-582 241-241 355-241 582c0 228 92 434 241 583 149 148 355 241 582 241s433-93 582-241c149-149 241-355 241-583 0-227-92-433-241-582z" class="fil1"/><path d="M70958 39400c222 0 402 180 402 402s-180 402-402 402-402-180-402-402 180-402 402-402zM72931 38028c364 0 659 295 659 658 0 364-295 659-659 659s-658-295-658-659c0-363 294-658 658-658zM156764 103566c699 0 1265 566 1265 1265s-566 1265-1265 1265c-698 0-1265-566-1265-1265s567-1265 1265-1265zM150210 96069c699 0 1266 567 1266 1266 0 698-567 1265-1266 1265-698 0-1265-567-1265-1265 0-699 567-1266 1265-1266zM163809 93427c618 0 1119 501 1119 1119s-501 1119-1119 1119-1119-501-1119-1119 501-1119 1119-1119z" class="fil0"/><path d="M151755 95911c399 0 723 323 723 722 0 400-324 723-723 723-99 0-194-20-280-56-9-353-164-671-406-894 96-288 367-495 686-495z" class="fil0"/><path d="M134446 80241h1349c64 0 117-53 117-118v-3c0-64-53-117-117-117h-1143c-111 0-201-91-201-202v-29c0-111 90-201 201-201h876v134h-876c-37 0-67 30-67 67v29c0 37 30 67 67 67h1143c138 0 252 114 252 252v3c0 139-114 252-252 252h-3063c106-89 232-134 375-134h1339zm-3162-19c44 0 79 36 79 79 0 44-35 79-79 79s-79-35-79-79c0-43 35-79 79-79zm1929-525h684c142 0 269-45 375-134h-1165c-134 0-253 40-355 118-186 143-373 344-546 508-67 63-171 63-239 0l-458-423c-125-117-319-117-444 0l-458 423c-68 63-171 63-239 0l-458-423c-125-117-318-117-444 0l-458 423c-67 63-171 63-239 0l-677-626-109 104 683 633c126 116 319 116 445 0l457-424c68-62 172-62 240 0l457 424c126 116 319 116 445 0l457-424c68-62 172-62 240 0l457 424c126 116 320 117 445 0 166-158 321-316 478-471 8-9 17-16 25-24 83-72 181-108 295-108h106zm332 197c44 0 79 35 79 78 0 44-35 79-79 79-43 0-79-35-79-79 0-43 36-78 79-78z" class="fil1"/><g id="_1163737344"><path d="M4933 58782l-1481-1482c-256-255-675-255-930 0l-1479 1479c-85 85-85 224 0 310l449 448 298 276c89 82 224 82 313 0l597-552c164-152 416-152 580 0l597 552c88 82 224 82 312 0l299-276 445-445c85-86 85-225 0-310z" class="fil1"/><path d="M200 60552l2321 2321c256 256 675 256 931 0l2321-2321c402-403 119-522-176-801l-365-345c-87-83-223-82-312 0l-597 552c-164 152-416 152-580 0l-597-552c-89-82-224-82-312 0l-597 552c-164 152-417 152-581 0l-597-552c-88-82-223-82-312 0l-334 309c-309 285-633 417-213 837z" class="fil1"/></g><g id="_1163720544"><path d="M182900 90483l-1045-1045c-180-181-475-181-656 0l-1042 1042c-61 61-61 159 0 219l316 316 210 195c63 58 158 58 221 0l421-389c115-107 293-107 409 0l421 389c62 58 158 58 220 0l211-195 314-314c60-60 60-158 0-218z" class="fil1"/><path d="M179562 91731l1637 1637c181 181 476 181 656 0l1637-1637c284-284 84-368-124-565l-257-243c-61-59-158-58-220 0l-421 389c-116 107-294 107-409 0l-421-389c-63-58-158-58-221 0l-421 389c-116 107-293 107-409 0l-421-389c-63-58-158-58-220 0l-236 218c-218 201-447 294-150 590z" class="fil1"/></g><g id="_1163712256"><path d="M134077 73864l-1649-1649c-56-56-120-98-188-126-71-29-148-44-225-44s-154 15-225 44c-61 25-120 62-171 110l-17 16-1645 1646-7 6c-6 7-10 16-14 24-4 11-7 24-7 37s3 26 7 37 11 21 21 31l499 499 11 11 316 292 1 1c10 9 22 16 34 21s26 7 39 7c14 0 27-2 39-7 13-5 24-12 35-22l664-614c59-55 126-96 196-124 74-28 151-43 228-43 76 0 153 15 227 43 70 28 137 69 196 124l664 614 1 1c10 9 21 16 34 21 12 5 25 7 39 7s27-2 39-7 24-12 34-21l1-1 316-292 11-11 496-496c9-9 16-20 21-31 4-11 6-23 6-37 0-13-2-25-7-37-4-10-11-20-20-30zm-1439-1859l1649 1649c37 37 65 80 85 127 20 49 30 100 30 150 0 51-10 102-30 150-13 32-31 63-53 91v5l-32 32-496 496-9 8-244 225v1l-83 77c-38 35-82 62-128 80-47 19-98 28-147 28-50 0-100-9-148-28-45-18-89-45-127-80l-60-56-604-559c-30-28-66-50-103-64-38-15-79-22-119-22-42 0-82 7-120 22-38 14-73 36-103 64l-664 615c-39 36-82 62-128 80-47 19-97 28-147 28s-100-9-147-28c-46-18-90-45-128-80l-60-56-267-247-9-8-499-499c-37-37-66-81-85-128-20-48-30-100-30-150s10-102 30-150v-1c19-46 47-89 85-126v-1l1645-1645 78-78 5 5c63-49 131-88 203-117 108-45 223-67 337-67 226 0 452 85 623 257z" class="fil1"/><path d="M129018 75808l2584 2584c56 56 120 98 188 126 71 29 148 44 225 44s154-15 225-44c68-28 132-70 188-126l2584-2584 11-12c113-115 161-195 164-257 2-52-35-103-91-159v-1c-21-20-41-39-61-57-34-30-53-47-71-63h-1c-11-10-25-22-70-62-22-20-47-42-75-69l-405-384c-9-8-20-15-32-20s-25-7-39-7-27 3-39 7c-13 5-25 13-35 22l-78 72v-1l-587 543v1c-58 54-125 95-196 123-73 29-151 43-227 43-77 0-154-14-227-43-71-28-138-69-196-123v-1l-558-515-107-99c-10-9-22-16-34-21s-26-8-39-8c-14 0-28 3-40 8-12 4-24 11-33 21h-1l-629 582-35 33c-59 54-126 95-197 123-73 29-150 43-227 43s-154-14-227-43c-71-28-138-69-196-123v-1l-587-543-78-71c-10-9-21-16-34-21-12-5-26-8-39-8-14 0-28 3-40 8-12 4-23 11-33 21h-1l-372 344c-45 42-85 77-123 109l-40 33c-32 28-64 54-84 72-25 22-49 43-70 65l-10 10c-51 53-84 102-81 155 4 66 54 152 176 274zm2374 2794l-2584-2584c-188-188-265-342-269-481-3-100 30-185 87-265l-10-5 106-107c26-26 55-52 85-79 35-30 63-54 90-77l70-58c28-24 55-48 82-73l372-345c39-35 82-62 127-80 48-19 98-28 148-28 49 0 99 9 147 28 46 18 89 45 127 80l36 33 629 582c31 29 66 50 103 65 37 14 78 22 119 22s82-8 120-22c37-15 72-37 103-65l77-72 587-543c39-35 82-62 127-80 48-19 98-28 148-28 49 0 99 9 147 28 46 18 89 45 127 80l35 33 629 582c31 28 66 50 103 65 38 14 79 22 120 22s82-8 119-22c38-15 73-37 103-65l629-582 36-33c38-35 81-62 128-80 47-19 98-29 147-29 50 0 100 10 148 29 46 19 89 46 127 82l406 384c46 44 92 83 134 120l1 1 6 5v1c54 46 104 90 142 128 113 114 188 227 184 374-3 122-65 256-213 418v2l-55 55-2584 2584-32 32h-2c-76 68-161 121-252 158-108 45-223 67-337 67s-229-22-337-67c-104-43-201-106-285-190h-1z" class="fil1"/></g><g id="_1153163312"><path d="M101848 70812l-876-876c-30-30-64-52-100-67-37-15-78-23-119-23s-82 8-119 23c-33 14-64 33-91 58l-9 9-874 874-4 4c-3 3-5 8-7 12-3 6-4 13-4 20s1 14 4 20c2 5 6 11 11 16l265 265 6 6 168 155c6 5 12 9 18 11 7 3 14 4 21 4s14-1 21-4c6-2 12-6 18-11l353-326c31-29 67-51 104-66 39-15 80-23 121-23s82 8 121 23c37 15 72 37 104 66l352 326h1c5 5 11 9 18 11 6 3 14 4 21 4s14-1 20-3v-1c7-2 13-6 18-11h1l168-155 6-6 263-264v1c5-5 8-11 11-17 2-6 4-12 4-19s-2-14-4-20-6-11-11-16zm-764-988l876 876c19 20 34 43 45 68 10 26 16 53 16 80 0 26-6 54-16 79-7 17-17 34-28 48v3l-17 17-264 263-5 5-129 119-44 42c-21 18-44 33-68 42-25 10-52 15-78 15-27 0-53-5-79-15-24-9-47-24-67-42l-32-30-321-297c-16-15-35-26-55-34s-41-12-63-12-44 4-64 12-38 19-54 34l-353 327c-21 18-44 33-68 42-25 10-52 15-78 15s-53-5-78-15c-25-9-48-24-68-42l-32-30-142-131-5-5-265-265c-19-19-34-42-45-67-10-26-16-53-16-80s6-54 16-80c10-25 25-48 45-68l874-874 41-41 3 3c34-26 70-47 108-62 57-24 118-36 179-36 120 0 240 45 331 136z" class="fil1"/><path d="M99162 71844l1372 1372v1c29 29 63 51 100 66 37 16 78 24 119 24s82-8 119-24c37-15 71-37 100-66v-1l1372-1372 6-6c61-61 86-104 87-136 2-28-18-55-48-85-11-11-21-21-32-31-18-16-28-25-38-33-6-6-14-12-38-33-11-11-25-23-39-37l-216-204c-5-4-10-8-16-10l-1-1c-6-2-13-3-20-3s-15 1-21 4c-7 2-13 6-19 11l-41 38-312 289c-31 29-66 50-104 65-39 15-80 23-120 23-41 0-82-8-121-23-38-15-73-36-104-65l-296-274-57-53c-5-5-12-8-18-11-7-3-14-4-21-4s-15 1-21 4c-7 2-13 6-18 11l-334 309-19 18c-31 29-67 50-104 65-39 15-80 23-121 23s-82-8-121-23c-37-15-73-36-104-65l-311-289h-1l-41-38c-5-5-11-8-18-11-6-3-14-4-21-4s-14 1-21 4c-6 2-12 6-18 11l-197 183c-24 22-46 41-66 58l-21 17c-17 15-34 29-45 38-13 12-26 24-37 35l-5 5c-27 28-45 55-43 82 2 36 29 82 93 146h1zm1260 1484l-1372-1372c-100-100-141-182-143-256-2-53 16-98 46-140l-5-3 56-57c14-14 29-28 45-42 19-16 33-28 48-41l37-31c15-12 30-25 44-38l197-183c21-19 44-34 68-43 25-10 52-15 78-15 27 0 53 5 78 15s48 24 68 42l19 18 334 309c16 15 35 27 54 34 21 8 42 12 64 12s43-4 63-12 39-19 55-34l41-38 312-288c21-19 44-34 68-43 25-10 52-15 78-15s53 5 78 15c24 10 47 24 68 42l18 18 335 309c16 15 34 27 54 34 20 8 42 12 64 12 21 0 43-4 63-12 20-7 39-19 55-34l334-309 19-18c20-18 43-33 67-42 26-10 53-15 79-15s53 5 78 15 48 24 68 43l215 204c25 24 49 45 72 64v1l3 3h1-1c29 24 56 48 76 68 60 60 100 121 98 198-2 65-35 137-114 222l1 1-30 30-1372 1372-17 17h-1c-40 36-86 64-134 84-57 24-118 36-179 36s-122-12-179-36c-55-23-107-56-151-101h-1z" class="fil1"/></g><g id="_1153163152"><path d="M168186 63621l-876-875c-29-30-64-52-100-67-37-16-78-24-119-24s-82 8-119 24c-33 13-64 33-91 58l-9 9-874 874-3 3c-4 4-6 8-8 13-2 6-4 12-4 19s2 14 4 20 6 11 11 16l265 265 6 6 168 156c6 5 12 8 18 11 7 2 14 4 21 4s15-2 21-4c6-3 13-6 18-12v1l353-327c31-29 67-51 104-65 39-16 80-23 121-23s82 7 121 23c37 14 72 36 104 65l352 327h1c5 5 11 8 18 11 7 2 14 4 21 4s14-1 20-4h1c6-3 12-6 17-11h1l168-156 6-6 263-263c5-5 9-10 11-16s4-13 4-20-2-14-4-20c-2-5-6-11-11-16zm-764-987l876 876c19 19 34 42 45 68 10 25 16 52 16 79s-6 54-16 80c-7 17-17 33-28 48v3l-17 17-264 263-5 4-129 120-44 41c-21 19-44 33-68 43-25 10-52 15-78 15-27 0-53-5-79-15-24-10-47-24-67-43l-32-29v-1l-321-296c-16-15-35-27-55-35-20-7-41-11-63-11s-44 4-64 11c-20 8-38 20-54 35l-353 326c-21 19-44 33-68 43-25 10-52 15-78 15s-53-5-78-15-48-24-68-43l-32-29v-1l-142-131-5-4-265-265c-19-20-34-43-45-68-10-26-16-53-16-80 0-26 6-54 16-79v-1c10-24 26-47 45-67l874-874 41-41 3 2c34-25 70-46 108-62 57-24 118-36 179-36 120 0 240 46 331 137z" class="fil1"/><path d="M165500 64654l1372 1372c29 30 64 52 100 67 37 15 78 23 119 23s82-8 119-23 71-37 100-67l1372-1372 7-6c60-62 85-104 86-137 2-28-18-55-48-85-11-11-21-21-32-31v1c-18-16-28-25-38-34-6-5-13-11-37-33h-1c-11-10-24-22-39-36l-215-204c-5-5-11-8-17-11-7-2-14-4-21-4s-15 2-21 4c-7 3-13 7-18 12l-42 38-311 288c-32 29-67 51-105 66-39 15-80 23-120 23-41 0-82-8-121-23-38-15-73-37-104-66l-296-274-57-52c-5-5-12-9-18-12-7-2-14-3-21-3s-15 1-21 3c-6 3-13 7-18 12l-334 309-19 17c-31 29-67 51-104 66-39 15-80 23-121 23s-82-8-121-23c-37-15-73-37-104-66l-311-288-42-38c-5-5-11-9-18-12-6-2-13-3-21-3-7 0-14 1-21 3-6 3-12 7-17 12h-1l-197 182c-24 23-46 41-66 58l-21 18c-17 15-34 28-45 38-13 12-26 23-37 35l-5 5c-27 28-45 54-43 82 2 35 29 81 93 146h1zm1260 1484l-1372-1373c-100-99-141-181-143-255-2-53 16-99 46-141l-5-3 56-56c14-14 29-28 45-42 19-16 34-29 48-41l37-31c15-13 30-26 44-39l198-183c20-19 43-33 67-42 25-10 52-15 78-15 27 0 53 5 79 14 24 10 47 24 67 43l19 17v1l334 309c16 15 35 26 55 34s41 12 63 12 43-4 64-12c19-8 38-19 54-34l42-38 311-289c21-19 44-33 68-42 25-10 52-15 78-15s53 5 78 14c24 10 47 24 68 43l18 17v1l335 309c16 15 34 26 54 34s42 12 64 12c21 0 43-4 63-12s39-19 55-34l334-309v-1l19-17c20-19 43-33 68-43s52-15 78-15 53 5 79 16c24 9 47 24 67 43l215 204c25 23 49 44 72 64l4 3c28 25 55 48 75 69 60 60 100 120 98 198-2 65-35 136-114 222l1 1-30 29-1372 1373-17 17h-1c-40 36-86 64-134 84-57 23-118 35-179 35s-122-12-179-35c-55-23-107-57-151-101h-1z" class="fil1"/></g><g id="_1153188656"><path d="M122068 94235l-492-492c-17-17-36-29-56-38-21-8-44-13-67-13s-46 5-67 13c-19 8-36 19-51 33l-5 5-491 491-2 2c-2 2-3 4-4 7s-2 7-2 11 1 8 2 11 3 6 6 9l149 149 3 3 95 87c3 3 6 5 10 7 4 1 8 2 12 2s8-1 11-2c4-2 7-4 11-7l198-183c17-16 37-29 58-37 22-8 45-13 68-13s46 5 68 13c21 8 40 21 58 37l198 183h1c2 3 6 5 9 7h1c3 1 7 2 11 2s8-1 12-2c4-2 7-4 10-7l95-87 3-3 148-148 6-9c1-4 2-7 2-11s-1-8-2-11-4-6-6-9zm-429-555l491 492c11 11 20 24 26 38 6 15 9 30 9 45s-3 30-9 45c-4 9-10 18-16 27v1l-10 10-148 147-2 3-73 67-25 23c-11 11-24 19-38 24-14 6-29 9-44 9s-30-3-44-9c-13-5-26-13-38-24l-18-16-180-167c-9-9-19-15-30-19-12-5-24-7-36-7s-24 2-36 7c-11 4-21 10-30 19l-199 183c-11 11-24 19-38 24-14 6-29 9-43 9-15 0-30-3-44-9-14-5-27-13-38-24l-18-16-80-74-3-3-149-148c-11-11-19-24-25-38-6-15-9-30-9-45s3-31 9-45 14-27 26-38h-1l491-491 23-23 2 2c19-15 39-27 60-35 33-14 67-20 101-20 67 0 135 25 186 76z" class="fil1"/><path d="M120559 94814l771 771c16 16 36 29 56 37 21 9 44 14 67 14s46-5 67-14c20-8 39-21 56-37l770-771 4-3c34-34 48-58 49-77 0-15-11-31-28-47l-18-18c-10-9-15-14-21-18-3-3-8-7-21-19-7-6-14-12-22-20l-121-115c-3-2-6-4-10-6-3-1-7-2-11-2s-8 1-12 2c-4 2-7 4-10 7l-23 21h-1l-175 162c-17 16-37 28-58 37-22 8-45 13-68 13s-46-5-68-13c-21-9-41-21-58-37l-166-154-32-29c-3-3-7-5-10-7-4-1-8-2-12-2s-8 1-12 2c-3 2-7 4-10 7l-188 173-10 10c-18 16-38 28-59 37-22 8-45 13-67 13-23 0-46-5-68-13-21-9-41-21-59-37l-175-162-23-21c-3-3-6-5-10-7-4-1-8-2-12-2s-8 1-11 2c-4 2-8 4-10 7h-1l-111 102c-13 13-25 23-36 33l-12 10c-10 8-19 16-25 21-8 7-15 13-21 19l-3 3c-15 16-25 31-24 47 1 19 16 45 52 81zm708 834l-770-771c-56-56-80-102-81-143-1-30 9-56 26-79l-3-2 32-32c8-8 16-15 25-23 11-9 19-16 27-23l21-18 24-21 111-103c12-11 25-19 38-24 15-6 30-9 44-9 15 0 30 3 44 9 14 5 27 13 38 24l11 9v1l187 173c9 9 20 15 31 19 11 5 23 7 36 7 12 0 24-2 35-7 11-4 22-11 31-19l23-21 175-162c12-11 24-19 38-24 14-6 29-9 44-9s30 3 44 9c13 5 26 13 38 24l10 9v1l188 173c9 9 19 15 31 19 11 5 23 7 35 7s25-2 36-7c11-4 21-10 31-19l187-173v-1l11-9c11-11 24-19 38-24 14-6 29-9 44-9s30 3 44 9c14 5 26 13 38 24l121 115c14 13 27 25 40 36l2 1v1c16 13 31 27 42 38 34 34 56 68 55 111-1 37-19 77-64 125h1l-17 17-770 771-10 9h-1c-22 20-47 36-75 47-32 14-66 20-100 20s-68-6-101-20c-31-13-60-31-85-56z" class="fil1"/></g><g id="_1153159952"><path d="M47077 53844l-525-525c-91-91-239-91-330 0l-524 524c-30 30-30 79 0 109l159 159 106 98c31 29 79 29 111 0l211-195c58-54 148-54 206 0l211 195c32 29 80 29 111 0l106-98 158-157c30-31 30-80 0-110z" class="fil1"/><path d="M45399 54471l823 823c91 90 239 90 330 0l822-823c143-143 43-185-62-284l-129-122c-31-30-80-29-111 0l-211 196c-59 53-148 53-206 0l-212-196c-31-29-79-29-110 0l-212 196c-58 53-147 53-206 0l-211-196c-32-29-80-29-111 0l-118 109c-110 102-225 148-76 297z" class="fil1"/></g><g id="_1153158800"><path d="M35105 96352l-529-528c-18-18-38-32-60-41-23-9-48-14-72-14-25 0-50 5-72 14-20 9-39 20-55 36l-6 5-527 527-2 2c-2 3-4 5-5 8-1 4-2 8-2 12s1 8 2 12c2 3 4 7 7 10l160 160 4 3 101 94c3 3 7 5 11 7 4 1 8 2 13 2 4 0 8-1 12-2 4-2 8-4 11-7l213-197c19-18 40-31 63-40s48-14 73-14c24 0 49 5 73 14 22 9 44 22 62 40l213 197h1c3 3 7 5 11 7 4 1 8 2 12 2 5 0 9-1 13-2 4-2 7-4 10-7h1l101-94 4-3 159-159c3-3 5-7 6-10 2-4 3-8 3-12s-1-8-3-12c-1-3-3-6-6-10zm-462-596l529 529c12 12 21 26 27 41 7 16 10 32 10 48s-3 33-10 48c-4 10-10 20-17 29v2l-10 10-159 159-3 2-78 73-27 25c-12 11-26 20-41 25-15 6-31 9-47 9s-32-3-47-9c-15-5-29-14-41-25l-19-18-194-179c-10-9-21-16-33-21s-25-7-38-7-26 2-39 7c-12 5-23 12-33 21l-213 197c-12 11-26 20-40 25-16 6-32 9-47 9-16 0-33-3-48-9-14-5-28-14-41-25l-19-18-86-80-2-2-160-160c-12-12-21-26-28-41-6-15-9-32-9-48s3-33 9-48 16-29 28-41l527-528 25-24 2 1c20-15 42-28 65-37 34-15 71-22 108-22 72 0 144 27 199 82z" class="fil1"/><path d="M33483 96976l828 828c18 18 39 31 61 40 22 10 47 14 72 14 24 0 49-4 72-14 22-9 42-22 60-40l828-828 4-4c36-37 51-63 52-82 1-17-11-34-29-52-6-6-13-12-19-18-11-10-17-15-23-20-4-4-8-7-23-20-7-7-15-14-24-22l-130-123c-3-3-6-5-10-7-4-1-8-2-12-2-5 0-9 1-13 2-4 2-8 4-11 7l-25 23-188 174c-19 18-40 31-63 40-24 9-48 14-73 14-24 0-49-5-73-14-22-9-44-22-63-40l-178-165-35-32c-3-3-7-5-11-7-4-1-8-2-12-2-5 0-9 1-13 2-4 2-7 4-11 7l-201 187-12 10c-19 18-40 31-63 40s-48 14-72 14c-25 0-50-5-73-14s-44-22-63-40l-188-174-25-23c-3-3-7-5-11-7-4-1-8-2-13-2-4 0-9 1-12 2-4 2-8 4-11 7l-120 110c-14 14-27 25-39 35l-13 11c-10 9-20 17-27 23-8 7-16 14-22 21l-4 3c-16 17-26 33-25 50 1 21 17 49 56 88zm761 895l-828-828c-61-60-85-110-87-154-1-32 10-60 28-85l-3-2 34-34c8-8 18-17 27-25 11-10 20-18 29-25l23-19c8-7 17-15 26-23l119-111c13-11 26-20 41-25 15-6 31-9 47-9s32 3 47 9c15 5 29 14 41 25l12 11 201 187c10 9 21 16 33 20 12 5 25 7 39 7 13 0 26-2 38-7s23-11 33-21l25-23 188-174c12-11 26-20 41-25 15-6 31-9 47-9s32 3 47 9c15 5 29 14 41 25l11 11 202 187c10 9 21 15 33 20s25 7 38 7 26-2 38-7 24-11 33-20l202-187 11-11c13-11 27-20 41-25 16-6 32-10 48-10s32 4 47 10 29 14 41 26l130 123c15 14 29 27 43 39l2 1v1c17 15 33 29 46 41 36 36 60 73 59 119-1 40-21 83-69 135h1l-18 18-829 828-10 11h-1c-24 21-51 38-80 50-35 15-72 22-108 22-37 0-74-7-108-22-34-13-65-34-92-61z" class="fil1"/></g><g id="_1153156368"><path d="M124812 118330l-1045-1045c-180-180-475-180-656 0l-1043 1043c-60 60-60 158 0 219l317 316 210 195c63 57 158 57 221 0l421-390c115-107 293-107 409 0l421 390c62 57 158 57 220 0l211-195 314-314c60-61 60-159 0-219z" class="fil1"/><path d="M121474 119579l1637 1637c180 180 476 180 656 0l1637-1637c284-284 84-368-124-566l-257-243c-62-58-158-58-220 0l-421 390c-116 107-294 107-409 0l-422-390c-62-58-158-58-220 0l-421 390c-116 107-293 107-409 0l-421-390c-63-58-158-58-221 0l-235 218c-218 202-447 294-150 591z" class="fil1"/></g><path d="M123880 123400c127 0 242 52 325 135h1c83 84 134 199 134 326s-51 242-134 325h-1c-83 84-198 135-325 135s-242-51-325-135c-84-83-135-198-135-325s51-242 135-326c83-83 198-135 325-135zm242 219c-62-61-148-100-242-100s-180 39-242 100c-61 62-100 147-100 242 0 94 39 180 100 241 62 62 148 100 242 100s180-38 242-100c61-61 100-147 100-241 0-95-39-180-100-242z" class="fil1"/><g id="_1153169712"><path d="M125627 125722l-620-620c-21-21-45-37-71-47-26-12-55-17-84-17s-58 5-85 17c-23 9-45 23-64 41l-6 6-619 619-3 2c-2 3-4 6-5 9-2 4-3 9-3 14s1 10 3 14 4 8 8 12l188 187 4 4 119 110v1c4 3 8 6 13 8 4 1 9 2 14 2 6 0 11-1 15-2 5-2 9-5 13-9v1l250-232c22-20 47-36 74-46 27-11 56-16 85-16s58 5 86 16c26 10 51 26 73 46l250 231 1 1c3 3 8 6 12 7 5 2 10 3 15 3s10-1 15-2v-1c4-1 9-4 12-7l1-1 119-110 4-4 186-186c4-3 6-8 8-12s3-9 3-14-1-9-3-14c-1-3-4-7-8-11zm-541-699l620 620c14 14 25 30 32 48 8 18 12 37 12 56s-4 39-12 57c-5 12-11 23-19 34v2l-13 12-186 186-3 3-92 85-32 29c-14 14-30 24-48 30-17 8-36 11-55 11s-37-3-55-11c-18-6-34-16-48-30l-23-21-227-210c-12-10-25-19-39-24-14-6-29-8-45-8-15 0-30 2-45 8-14 5-27 14-38 24l-250 231c-15 14-31 24-48 30-18 8-37 11-56 11-18 0-37-3-55-11-17-6-34-16-48-30l-23-21h1l-101-93-4-3-187-187c-14-14-25-31-32-48-8-19-11-38-11-57s3-38 11-56v-1c7-17 18-33 32-47l619-619 29-29 2 2c23-19 49-34 76-45 41-17 84-25 127-25 85 0 170 32 234 97z" class="fil1"/><path d="M123725 126453l972 972c21 21 45 37 70 47 27 11 56 17 85 17s58-6 84-17c26-10 50-26 71-47l972-972 4-4c43-43 61-74 62-97 1-19-13-39-34-60-8-8-16-15-23-22-13-11-20-17-27-23-4-4-10-8-27-24-8-7-17-15-28-25l-152-145c-4-3-8-6-12-7v-1c-5-1-10-2-15-2s-10 1-15 3c-4 1-9 4-13 8l-29 27-221 204c-22 20-47 36-73 46-28 11-57 17-86 17s-58-6-85-17c-27-10-52-26-74-46l-210-194-40-37c-4-4-8-6-13-8s-10-3-15-3-10 1-15 3c-4 2-8 4-12 8l-237 218v1l-13 12c-22 20-47 36-74 46-28 11-57 17-86 17-28 0-57-6-85-17-27-10-52-26-74-46l-221-204-29-27c-3-4-8-6-13-8-4-2-9-3-14-3-6 0-11 1-15 3-5 2-9 4-13 8l-140 129c-17 16-32 29-46 41l-15 13c-13 10-24 20-32 27-9 8-18 16-26 24l-4 4c-19 20-31 38-30 58 1 25 20 57 66 103zm893 1051l-972-972c-71-70-100-128-102-181-1-37 12-69 33-99l-4-2 40-41c10-9 21-19 32-29 14-12 24-20 34-29l27-22c10-9 20-18 30-28l140-129c15-13 31-24 48-30 18-7 37-11 56-11 18 0 37 4 55 11 17 7 34 16 48 30l13 12 237 219c11 11 25 19 38 24 15 6 30 9 45 9 16 0 31-3 45-9 14-5 28-13 39-24l29-27 221-204c14-13 31-24 48-30 18-7 37-11 55-11 19 0 38 4 56 11 17 7 33 16 47 30l14 12 236 219c12 11 25 19 39 24 14 6 30 9 45 9s31-3 45-9c14-5 27-13 39-24l236-219 14-12c14-14 30-24 48-30 18-7 37-11 55-11 19 0 38 4 56 11 17 7 33 17 48 30l152 145c18 16 35 31 51 45l2 2v1c20 17 39 34 54 48 42 43 71 85 69 140-1 46-25 97-80 158l-21 21-972 972-12 12h-1c-28 26-60 46-94 60-41 16-84 25-127 25s-86-9-127-25c-39-16-76-40-107-72z" class="fil1"/></g><path d="M113234 117484c699 0 1266 566 1266 1265 0 457-243 858-607 1080l-9-3-2-1-10-3-11-4-8-2-4-1-11-3-6-2h-2l-2-1-7-1-4-1-9-2h-2l-17-3h-3l-6-1h-1l-2-1h-3l-9-1h-8c-9-1-17-1-25-1h-10c-55 0-111 11-163 32-53 20-103 51-146 91l-40 37v1l-57 52c-27 2-54 3-82 3h-26l456-456 36-36v-6c25-32 45-67 60-103 23-55 35-114 35-171s-12-116-35-171c-22-53-54-103-96-145l-1189-1189c211-159 474-253 759-253z" class="fil0"/><g id="_1153143664"><path d="M113424 119165l-1877-1877c-63-63-136-111-214-143-80-34-168-50-255-50-88 0-175 16-256 50-70 29-137 70-195 124l-19 19-1873 1874-8 7c-7 8-12 17-16 27-5 13-8 27-8 42s3 30 8 42 13 24 24 35l568 568 13 13 359 333h2c11 11 24 19 38 24 14 6 29 8 44 8 16 0 31-2 45-8 14-5 27-13 39-24l756-700c68-62 144-109 224-140 83-33 171-50 259-50 87 0 175 17 258 50 80 31 156 78 223 140l756 700h2c11 11 24 19 38 24 14 6 29 8 44 8 16 0 32-2 45-7v-1c14-5 27-13 38-24h2l360-333 12-13 564-564h1c10-10 18-22 23-35s8-27 8-42-3-29-8-42c-5-12-13-24-24-35zm-1637-2116l1877 1877c42 42 74 92 96 145 23 55 35 114 35 171s-12 116-35 171c-15 36-35 71-60 103v6l-36 36-565 565-10 8-278 257-95 88c-43 41-92 71-145 92-54 21-111 32-168 32-56 0-113-11-167-32-53-21-102-51-145-92l-69-63h1l-688-636c-35-32-75-57-117-73-44-17-90-26-136-26-47 0-94 9-137 25-42 17-82 42-117 74l-756 699c-44 41-93 72-145 92-54 21-111 32-168 32-56 0-113-11-167-32-53-21-102-51-146-92l-68-63-304-282-10-8-569-569c-42-42-74-91-96-145-23-55-35-113-35-171 0-57 12-116 35-171 21-53 54-102 97-145h-1l1874-1873 88-88 6 5c71-55 149-100 231-134 123-50 254-76 384-76 256 0 514 98 709 293z" class="fil1"/><path d="M107666 121378l2942 2941-1 1c64 63 137 111 215 143 81 33 168 50 256 50 87 0 174-17 255-50 78-32 151-80 215-143l-1-1 2942-2941 13-13c128-131 182-223 186-293 3-59-39-117-104-182h1c-24-23-47-44-70-65-38-34-60-54-81-72-13-11-29-25-80-71v1c-26-23-54-48-85-78l-462-438c-11-10-23-17-36-23-13-5-28-8-44-8s-31 3-45 9c-14 5-28 13-40 24l-88 82v-1l-668 619c-67 62-143 109-224 140-83 33-171 50-259 50-87 0-175-17-258-50-81-31-157-78-223-140l-635-588-122-112c-11-10-24-18-39-24-14-6-29-8-44-8-16 0-32 2-45 8-14 5-27 13-39 24l-716 662v1l-41 37c-66 62-142 109-223 140-83 33-171 50-259 50-87 0-175-17-258-50-81-31-157-78-223-140l-669-618-88-82c-11-10-24-18-39-24-14-6-29-8-45-8-15 0-31 2-44 8-14 5-27 13-39 24l-424 392c-51 47-97 87-140 123v1l-45 38c-38 31-73 61-96 81-29 25-56 50-80 75l-12 11c-57 60-94 116-91 176 4 75 62 174 200 312zm2702 3181l-2941-2941c-214-214-302-390-307-548-3-114 35-211 99-302l-11-6 121-122c30-29 62-59 97-89 40-35 71-61 102-88l80-66c31-27 63-55 93-83l424-392c44-41 93-72 145-92 54-21 111-32 167-32 57 0 114 11 168 32 52 21 102 51 145 91l40 37v1l716 662h1c34 33 74 57 116 74 43 17 90 25 136 25 47 0 93-8 136-25s83-42 118-74l88-81 668-618c44-41 93-72 145-92 54-21 111-32 168-32 56 0 113 11 167 32 52 21 102 51 145 91l40 37v1l716 662c35 32 75 57 117 74 43 17 90 25 136 25 47 0 94-8 137-25 42-17 82-42 117-74l716-662v-1l40-37c43-40 93-71 146-91 54-22 111-32 168-32 56 0 113 10 168 32 52 21 101 52 144 93h1l461 437c54 50 105 95 153 138v-1l1 1 7 6h1l-1 1c61 53 118 103 162 146 129 129 214 258 210 425-4 140-75 292-244 476l1 2-63 63-2941 2942-37 36h-2c-86 78-183 138-286 180-124 51-255 77-384 77-130 0-261-26-385-77-118-48-228-121-324-216h-1z" class="fil1"/></g><g id="_1153181904"><path d="M50658 60196c769 205 1336 907 1336 1741 0 994-806 1800-1800 1800-995 0-1801-806-1801-1800 0-835 568-1537 1338-1741l30 363c-586 183-1011 731-1011 1378 0 797 646 1444 1444 1444 797 0 1444-647 1444-1444 0-647-425-1194-1011-1378l31-363z" class="fil1"/><path d="M50612 60744c380 134 677 444 793 832h-384c-87-200-244-362-440-455l31-377zm-804 377c-253 119-442 353-499 635h2135c9 59 13 119 13 181 0 698-566 1263-1263 1263-573 0-1056-380-1211-902h383c139 318 458 541 828 541 436 0 800-310 884-722h-2135c-8-59-13-119-13-180 0-552 354-1021 847-1193l31 377z" class="fil1"/><path d="M49910 60165l117 1411M50480 60165l-118 1411" class="fil2"/><path d="M50480 60159c-94-15-189-23-286-23s-192 8-285 22l118 1418h335l118-1417z" class="fil1"/></g><g id="_1153139568"><path d="M162502 74302c510 0 972 207 1307 541l1 1c334 335 541 797 541 1307s-207 972-541 1307v1c-335 334-797 541-1308 541-510 0-973-207-1307-541-335-335-542-798-542-1308 0-511 207-973 542-1308 335-334 797-541 1307-541zm998 851c-255-254-608-412-998-412s-742 158-997 412v1c-255 255-413 607-413 997 0 389 158 742 413 997s608 413 997 413c390 0 742-158 997-413h1c255-255 412-607 412-997s-158-743-412-998z" class="fil1"/><path d="M162722 75215v716h716v440h-716v716h-440v-716h-716v-440h716v-716z" class="fil1"/></g><path d="M155529 81951v-1015h1768v1015h644v3470h-4857v-3470h2445zm1972 439h-3978v2592h3978v-2592zm-1533-542h890v-473h-890v473z" class="fil1"/><g id="_1153167280"><path d="M154017 71305c905 241 1571 1066 1571 2046 0 1169-947 2117-2116 2117s-2117-948-2117-2117c0-981 668-1806 1573-2046l35 426c-689 216-1189 860-1189 1620 0 937 760 1697 1698 1697 937 0 1697-760 1697-1697 0-760-499-1403-1187-1619l35-427z" class="fil1"/><path d="M153963 71949c447 157 796 521 932 978h-451c-102-235-287-425-517-535l36-443zm-945 443c-297 140-519 416-586 747h2510c10 69 15 140 15 212 0 820-665 1485-1485 1485-673 0-1241-447-1424-1061h451c164 375 538 637 973 637 513 0 941-365 1039-849h-2509c-10-69-15-140-15-212 0-648 415-1200 995-1402l36 443z" class="fil1"/><path d="M153138 71268l138 1659M153808 71268l-138 1659" class="fil2"/><path d="M153808 71261c-110-17-222-27-336-27s-226 9-335 27l139 1666h394l138-1666z" class="fil1"/></g><g id="_1153167632"><path d="M93422 32004c1180 314 2050 1390 2050 2670 0 1525-1237 2762-2762 2762-1526 0-2762-1237-2762-2762 0-1280 871-2357 2052-2670l47 556c-900 282-1552 1122-1552 2114 0 1223 992 2215 2215 2215s2215-992 2215-2215c0-992-652-1831-1550-2113l47-557z" class="fil1"/><path d="M93352 32845c583 204 1038 680 1216 1275h-589c-134-306-375-554-675-697l48-578zm-1234 577c-388 184-677 543-765 975h3275c13 90 20 183 20 277 0 1070-868 1938-1938 1938-878 0-1619-584-1858-1384h589c213 488 701 830 1269 830 670 0 1228-475 1357-1107h-3275c-13-91-20-183-20-277 0-846 542-1566 1298-1830l48 578z" class="fil1"/><path d="M92274 31956l180 2164M93149 31956l-180 2164" class="fil2"/><path d="M93149 31946c-143-22-290-34-439-34s-294 11-437 34l181 2174h515l180-2174z" class="fil1"/></g><g id="_1153196240"><path d="M71203 98322c1552 413 2696 1827 2696 3509 0 2006-1626 3632-3631 3632-2006 0-3632-1626-3632-3632 0-1683 1145-3098 2699-3510l61 731c-1183 371-2040 1475-2040 2779 0 1609 1303 2912 2912 2912 1608 0 2912-1303 2912-2912 0-1303-857-2406-2038-2778l61-731z" class="fil1"/><path d="M71111 99427c767 269 1366 894 1599 1676h-774c-176-402-493-728-888-916l63-760zm-1621 759c-510 241-891 713-1006 1281h4306c17 119 26 241 26 364 0 1408-1141 2548-2548 2548-1155 0-2129-767-2443-1820h774c281 643 922 1092 1669 1092 880 0 1615-625 1783-1456h-4305c-17-118-26-240-26-364 0-1112 713-2058 1707-2405l63 760z" class="fil1"/><path d="M69695 98258l237 2845M70844 98258l-236 2845" class="fil2"/><path d="M70844 98246c-188-30-380-46-576-46s-387 16-574 45l237 2858h677l236-2857z" class="fil1"/></g><path d="M133698 34371h5392c589 0 1125 241 1512 629 388 387 629 923 629 1512v14370c0 590-241 1125-629 1513-387 387-923 628-1512 628h-1695v1206h-2002v-1206h-1695c-590 0-1125-241-1513-628-388-388-628-923-628-1513V36512c0-589 240-1125 628-1512 388-388 923-629 1513-629zm3367 18652h-1343v877h1343v-877zm-283-1544c28 20 54 42 78 66 119 119 193 284 193 466s-74 347-193 466c-42 42-89 77-140 107h2370c468 0 894-192 1202-500s499-734 499-1202V36512c0-468-191-894-499-1202s-734-499-1202-499h-5392c-469 0-894 191-1203 499-308 308-499 734-499 1202v14370c0 468 191 894 499 1202 309 308 734 500 1203 500h2369c-51-30-98-65-139-107-120-119-194-284-194-466s74-347 194-466c24-24 50-46 77-66h777zm-111 255c-71-71-169-115-277-115-109 0-207 44-278 115s-114 169-114 277 43 206 114 277 169 115 278 115c108 0 206-44 277-115s115-169 115-277-44-206-115-277z" class="fil1"/><path d="M132778 36144h7232c151 0 288 62 388 161 99 99 161 237 161 388v14237c0 151-62 288-161 388l-1-1c-100 100-237 162-387 162h-7232c-151 0-288-62-387-161l-1-1c-100-100-161-237-161-387V36693c0-151 61-288 161-388 99-99 236-161 388-161zm7232 439h-7232c-31 0-58 12-78 32h-1c-19 20-31 47-31 78v14237c0 30 12 58 31 77l1 1c19 19 47 31 78 31h7232c31 0 58-12 77-31v-1c20-20 33-47 33-77V36693c0-30-13-58-33-78s-47-32-77-32z" class="fil1"/><path d="M133707 46024h2788v439h-2788zM136924 46024h2087v439h-2087zM133556 47153h5675v439h-5675zM135042 35247h2703v439h-2703z" class="fil1"/><g id="_1153144304"><path d="M137188 39089c1319 351 2291 1553 2291 2982 0 1703-1382 3084-3085 3084-1704 0-3085-1381-3085-3084 0-1430 973-2633 2292-2982l52 621c-1004 315-1733 1252-1733 2361 0 1366 1107 2473 2474 2473 1366 0 2473-1107 2473-2473 0-1108-727-2045-1730-2360l51-622z" class="fil1"/><path d="M137110 40028c652 228 1161 759 1358 1424h-657c-149-341-418-619-754-778l53-646zm-1377 644c-434 206-756 607-854 1089h3657c15 101 22 205 22 310 0 1195-969 2164-2164 2164-981 0-1809-652-2075-1546h657c239 546 784 928 1418 928 748 0 1372-531 1515-1237h-3658c-14-101-22-204-22-309 0-946 606-1749 1450-2044l54 645z" class="fil1"/><path d="M135907 39035l201 2417M136884 39035l-202 2417" class="fil2"/><path d="M136884 39025c-160-26-324-39-490-39s-329 13-488 38l202 2428h574l202-2427z" class="fil1"/></g><path d="M136558 54229v4807c0 227 93 433 242 582s355 242 582 242h7610c317 0 605 129 814 338s338 497 338 814v5286c0 227 93 433 242 582s355 242 582 242h5516c317 0 605 129 814 338s338 497 338 814v2967h-329v-2967c0-227-93-432-241-582l-1 1c-149-150-355-242-581-242h-5516c-317 0-605-130-814-338h-1c-209-209-338-497-338-815v-5286c0-227-93-432-241-582l-1 1c-149-150-355-242-581-242h-7610c-317 0-605-130-814-338h-1c-209-209-338-497-338-815v-4807h329z" class="fil1"/><g id="_1153138448"><path d="M105949 49947l-2798-2798c-95-95-204-166-319-214-121-49-250-74-381-74s-261 25-382 74c-104 43-203 105-291 186l-28 28-2792 2793-11 11c-10 12-18 26-24 40-8 19-12 40-12 63 0 22 4 44 12 63 7 18 19 35 35 51l847 847 19 19 536 496 2 1c17 16 37 28 58 36h-1c21 8 44 12 67 12s46-4 66-12c21-8 41-20 58-37l1 1 1127-1043c100-93 214-163 333-210 124-49 255-73 385-73 131 0 262 24 386 73 119 47 232 117 333 210l1127 1042 2 1c17 16 36 28 57 36s43 12 66 12c24 0 47-4 66-11l1-1c20-8 40-20 57-36l2-1 537-496 18-19 841-841c15-15 27-33 35-52h1c7-19 11-40 11-62 0-23-4-44-12-63-7-18-19-36-35-52zm-2441-3155l2798 2798c63 63 111 137 144 217 34 82 51 169 51 255 0 85-17 172-51 254-23 54-52 106-89 154v8l-55 55-841 841-16 13-414 383v1l-141 131c-65 60-139 105-217 136-80 32-166 48-250 48s-169-16-250-48c-78-31-152-76-216-136l-102-94v-1l-1025-949c-52-47-111-84-175-109s-133-37-203-37c-69 0-138 12-202 37s-124 62-175 109l-1128 1044c-65 60-139 106-216 136-80 32-165 48-249 48-85 0-170-16-251-48-77-31-151-76-216-136l-101-94v-1l-454-420-16-13-847-847c-63-63-111-137-144-217-34-82-51-169-51-254 0-86 17-173 51-255v-1c33-78 81-151 145-215h-1l2793-2793 131-131 9 8c107-83 223-149 344-199 184-76 379-114 573-114 382 0 766 145 1057 436z" class="fil1"/><path d="M97365 53246l4385 4385c94 94 203 166 319 213 121 50 251 75 382 75 130 0 260-25 381-75 116-47 225-119 319-213l4385-4385 19-20c192-195 272-332 277-436 5-88-58-175-154-271h1c-35-35-69-67-104-98-57-51-90-79-121-107v1c-20-17-43-38-119-106h-1c-38-33-79-72-126-116l-688-652c-16-15-35-27-54-34l-1-1c-19-7-42-11-65-11-24 0-47 4-68 12-20 8-41 21-59 37l-131 121-996 922c-100 92-213 162-333 209-125 49-256 74-386 74s-261-25-385-74c-120-47-234-117-333-209l-947-876-181-168c-17-15-36-27-58-35-21-9-43-13-67-13-23 0-46 4-66 12-21 8-41 21-57 36h-1l-1067 988v1l-61 56c-99 92-213 161-333 208-124 49-255 74-385 74s-262-25-386-74c-120-47-233-117-333-209l-996-922-132-122c-16-15-36-27-57-35-21-9-44-13-67-13s-46 4-67 12-40 21-57 36h-1l-631 585c-77 70-145 129-209 184v1l-67 56c-56 47-109 91-144 121-42 38-82 74-119 111l-17 17c-86 89-141 174-137 262 6 113 93 259 299 466zm4028 4741l-4384-4384c-319-319-451-580-458-817-5-169 52-314 148-450l-17-8 181-182c44-44 92-88 144-133 59-52 106-92 152-131l119-99c47-41 94-82 139-124l632-584c65-61 139-106 216-137 81-32 166-48 250-48s169 16 250 48c78 31 151 76 215 135l61 56v1l1067 988h1c52 48 111 84 174 109 64 25 133 38 203 38 69 0 138-13 202-38s124-62 175-109l132-122 996-921c65-61 139-106 216-137 80-32 165-48 249-48 85 0 170 16 250 48 78 31 152 76 216 135l60 56v1l1068 988c51 48 111 84 174 109 65 25 134 38 203 38 70 0 139-13 203-38s123-61 175-109l1067-988v-1l60-56c65-59 139-105 217-135 81-32 167-48 251-48s169 16 251 49c77 31 151 77 215 138h1l688 651c79 75 156 142 228 205l1 1 11 9v1c90 79 175 153 240 218 193 193 320 385 313 633-6 209-111 436-363 710l2 3-95 94-4384 4385-55 55h-3c-128 115-273 205-427 268-184 76-379 114-572 114-194 0-389-38-573-114-176-73-341-180-483-322l-2-1z" class="fil1"/></g><g id="_1153195056"><path d="M97315 46148l-876-876c-29-30-64-52-100-67-37-15-78-23-119-23s-82 8-119 23c-33 14-64 33-91 58l-9 9-874 874-3 3c-4 4-6 9-8 13-3 6-4 13-4 20s1 14 4 20c2 5 6 11 11 16l265 265 6 6 168 155c6 5 12 9 18 11 7 3 14 4 21 4s15-1 21-4c6-2 13-6 18-11l353-326c31-29 67-51 104-66 39-15 80-23 121-23s82 8 121 23c37 15 72 37 104 66l352 326h1c5 5 11 9 18 11 6 3 14 4 21 4s14-1 20-3v-1c7-2 13-6 18-11h1l168-155 6-6 263-264v1c5-5 9-11 11-17s4-12 4-19-2-14-4-20-6-11-11-16zm-764-988l876 876c19 20 34 43 45 68 10 26 16 53 16 80 0 26-6 54-16 79-7 17-17 34-28 48v3l-17 17-264 263-5 5-129 119-44 42c-21 18-44 33-68 42-25 10-52 15-78 15-27 0-53-5-79-15-24-9-47-24-67-42l-32-30-321-297c-16-15-35-26-55-34s-41-12-63-12-44 4-64 12-38 19-54 34l-353 327c-21 18-44 33-68 42-25 10-52 15-78 15s-53-5-78-15c-25-9-48-24-68-42l-32-30-142-131-5-5-265-265c-19-19-34-42-45-67-10-26-16-53-16-80s6-54 16-80c10-25 25-48 45-68l874-874 41-41 3 3c34-26 70-47 108-63 57-23 118-35 179-35 120 0 240 45 331 136z" class="fil1"/><path d="M94629 47180l1372 1372v1c29 29 63 51 100 66 37 16 78 24 119 24s82-8 119-24c37-15 71-37 100-66v-1l1372-1372 6-6c61-61 86-104 87-136 2-28-18-55-48-85-11-11-21-21-32-31-18-16-28-25-38-33-6-6-13-12-37-33h-1c-11-11-25-23-39-37l-215-204c-5-4-11-8-17-10v-1c-7-2-14-3-21-3s-15 1-21 4c-7 2-13 6-19 11l-41 38-311 289c-32 29-67 50-105 65-39 15-80 23-120 23-41 0-82-8-121-23-38-15-73-36-104-65l-296-275v1l-57-53c-5-5-12-9-18-11-7-3-14-4-21-4s-15 1-21 4c-7 2-13 6-18 11l-334 309-19 18c-31 29-67 50-104 65-39 15-80 23-121 23s-82-8-121-23c-37-15-73-36-104-65l-311-289h-1l-41-38c-5-5-11-9-18-11-6-3-14-4-21-4s-14 1-21 4c-6 2-12 6-17 11h-1l-197 183c-24 22-46 41-66 58l-21 17c-17 15-34 29-45 38-13 12-26 24-37 35l-5 5c-27 28-45 55-43 82 2 36 29 82 93 146h1zm1260 1484l-1372-1372c-100-100-141-182-143-256-2-53 16-98 46-140l-5-3 56-57c14-14 29-28 45-42 19-16 34-28 48-41l37-31c15-12 30-25 44-38l198-183c20-19 43-34 67-43 25-10 52-15 78-15 27 0 53 5 79 15 24 10 47 24 67 42l19 18 334 309c16 15 35 27 55 34 20 8 41 12 63 12s43-4 64-12c19-8 38-19 54-34l41-38 312-288c21-19 44-34 68-43 25-10 52-15 78-15s53 5 78 15c24 10 47 24 68 42l18 18 335 309c16 15 34 27 54 34 20 8 42 12 64 12 21 0 43-4 63-12 20-7 39-19 55-34l334-309 19-18c20-18 43-33 68-42 25-10 52-15 78-15s53 5 78 15 48 24 68 43l215 204c25 24 49 45 72 64v1l4 2v1c28 24 55 48 75 68 60 60 100 121 98 198-2 65-35 137-114 222l1 1-30 30-1372 1372-17 17h-1c-40 36-86 64-134 84-57 24-118 36-179 36s-122-12-179-36c-55-23-107-56-151-101h-1z" class="fil1"/></g><path d="M98955 44813c222 0 402 180 402 402s-180 402-402 402-402-180-402-402 180-402 402-402z" class="fil0"/><g id="_1153173264"><path d="M97346 56910c285 0 544 116 731 303v1c188 187 303 445 303 731 0 285-115 543-303 731-187 187-445 303-731 303s-544-116-731-303c-188-187-303-446-303-731 0-286 115-545 303-732 187-187 446-303 731-303zm558 477c-143-143-340-231-558-231s-415 88-558 231-231 340-231 558 88 415 231 557c143 143 340 231 558 231s415-88 558-231v1c142-143 231-340 231-558s-89-416-231-558z" class="fil1"/><path d="M97469 57421v401h401v246h-401v400h-246v-400h-401v-246h401v-401z" class="fil1"/></g><g id="_1153187728"><path d="M95003 50669c193 0 350 157 350 351s-157 351-350 351c-194 0-351-157-351-351s157-351 351-351z" class="fil0"/><path d="M95003 50155c238 0 455 97 611 253l1 1c156 156 253 372 253 611s-97 455-253 611l-1 1c-156 156-373 253-611 253-239 0-455-97-612-253v-1c-156-156-253-372-253-611s97-455 253-611v-1c157-156 373-253 612-253zm454 411c-116-116-277-188-454-188-178 0-338 72-454 188s-188 277-188 454 72 338 188 454 276 188 454 188c177 0 338-72 454-188s188-277 188-454-72-338-188-454z" class="fil1"/></g><g id="_1153168432"><path d="M153510 121679h918v439h-918zM154642 121679h918v439h-918zM155817 121679h919v439h-919z" class="fil1"/></g><g id="_1153141168" class="path"><path d="M83142 83699l-290 4689M82302 82326l-9960-2572m-4857-1251l-7951-1916M60789 80606l21462 1918M130117 86701l-1112 20736M55845 83301L45625 97404m359 465l35518-8057m-9-217l-13321-1471m-2193-1092l-5490-5871M125007 118757l1887-2861M124432 117950l1794-2054" class="fil3 str0"/><g><path d="M170703 84255l-1434 2176m-1359 2036l-3481 5147m-1247 1858l-5618 8379M155560 105219l-17835 5499m-2166 1184l-11355 11632M125641 125578l30124-19972m2158-1283l22296-11935m-508-508l-14787 2573m-2196 382l-3184 554m-1946 371l-5148 1071m-3134 1398l-873 857m-1571 1541l-9516 9334m-2184 1397l-3993 1513M180095 90858l-10328-3059m-2348-695l-598-177m-2459-728l-2857-846m-1844-546l-1720-510m-4857-1439l-13029-3858M181124 89513l-8378-45274M179168 42528l2356 46775M167601 65958l13075 24003M154452 50449l2323 3516m290 440l23534 35633M156466 56821l24029 33321M163963 77283l5845 4750m2398 1949l7971 6478M173489 82151l6973 8024" class="fil3 str0"/><g><path d="M169768 83359l-3141 2448m-2079 1500l-4221 3124m-1677 1059l-6281 4762M157084 103607l1353-7111m418-1931l452-2611m416-1940l674-3991m384-1885l1302-6186m-926-532l-3860 4461m-3258 3540l-6645 7266m-1675 1932l-15255 16884M130834 111899l15811-11515m1734-1374l875-848m-26-1624l-47-165-1742-1792m-1755-1858l-7383-8131M127849 107442l-3353-28307m-267-2244l-2180-15914" class="fil3 str0"/></g></g><g><path d="M34148 70331l21021 11074m305 1706L44779 94285m-1761 1795l-3716 3697m-1785-9l-1198-1215m-3081-3470L4185 62139m-103 104l30387 40542m1972 653l614-182m1865-552l42646-12627m68-1010l-20920-8198m-3356-1530l-23130-9444M125814 112300L83891 90212m-362 441l10324 13084m2738 3470l10661 13511M119748 60991L99157 76792m-4825 3762l-5546 4307m-2030 1567l-3071 2362m-233-7120l9581-44253m-1321-167L80026 52189m-8946 11436L59020 79042m1376 744l7089-509m4857-75l21591-539m5447-122l4014-86m123 485l-14596 7525-136 73m-815 435l-4055 2166m107 488l5654-1629m35795-10274l258-71M42282 1227l6680 26287m7163-704L68605 9946M101759 17554L58403 32409m2524 2087l29118 905M5331 59499l40116-22334m1226 4510L33266 66619m-4438 1766L4939 61386M34988 102555l-386-4002m-335-3470l-2302-23848m64 0l32 147 6042 28058m1535 944l3472-4220M34266 69608l22875 6209m886-753l-3189-18125m-527-2995l-1789-10170" class="fil3 str0"/></g><path d="M84142 83215l2605 1768m2124 1444l958 652m1834 1248l34461 23448m1001-680l-19105-27666m-1129-1634l-1715-2483m-499 215l560 2565m541 2478l7187 32943M155529 81951l-627-7040m258-284l5562 1022M57857 102403l8798-203m948-2836l-9756-5646M67948 88685c358 147 2092 799 2765 1052m244 386l-688 8077M82253 90811l-9106 8808M58624 83583l7075 3874" class="fil3 str0"/><g><path d="M108142 52278l23415-7891M119138 58237l-11599-4281M97083 48132l1598 1373M91299 68352l5421-9584M91452 68542c1124-586 10421-5343 12371-6341M89936 70083l-6151 11711M99922 72828l-1724 3118M93146 37402l2368 8134" class="fil3 str0"/></g><path d="M98077 57214l1272-1271M53836 56643l-2435 3958m-1320-461l-3327-5049m-74-1644l111-1270m480-1558l2373-6867" class="fil3 str0"/></g></g></svg>