<svg xmlns="http://www.w3.org/2000/svg" width="400" height="632" viewBox="0 0 16771 26498" shape-rendering="geometricPrecision" text-rendering="geometricPrecision" image-rendering="optimizeQuality" fill-rule="evenodd" clip-rule="evenodd"><defs><style><![CDATA[
    .str0{stroke:#D8D8E8;stroke-width:80.4829}.str1{stroke:#CCF;stroke-width:27.9527}.fil0,.fil3{fill:none}.fil2{fill:#006;fill-opacity:.149020}.fil1{fill:#006;fill-rule:nonzero;fill-opacity:.149020}.path{stroke-dasharray:500;stroke-dashoffset:1000;animation:dash 88s infinite linear forwards}@keyframes dash{to{stroke-dashoffset:99999}}.rotate{animation:rotating 20s infinite;transform-origin:50% 50%}@-webkit-keyframes rotating{from{-ms-transform:rotate(0);-moz-transform:rotate(0);-webkit-transform:rotate(0);-o-transform:rotate(0);transform:rotate(0)}to{-ms-transform:rotate(360deg);-moz-transform:rotate(360deg);-webkit-transform:rotate(360deg);-o-transform:rotate(360deg);transform:rotate(360deg)}}@keyframes rotating{from{-ms-transform:rotate(0);-moz-transform:rotate(0);-webkit-transform:rotate(0);-o-transform:rotate(0);transform:rotate(0)}to{-ms-transform:rotate(360deg);-moz-transform:rotate(360deg);-webkit-transform:rotate(360deg);-o-transform:rotate(360deg);transform:rotate(360deg)}}.rotate-rev{animation:rotating-rev 20s infinite;transform-origin:50% 50%}@-webkit-keyframes rotating-rev{from{-ms-transform:rotate(360deg);-moz-transform:rotate(360deg);-webkit-transform:rotate(360deg);-o-transform:rotate(360deg);transform:rotate(360deg)}to{-ms-transform:rotate(0);-moz-transform:rotate(0);-webkit-transform:rotate(0);-o-transform:rotate(0);transform:rotate(0)}}@keyframes rotating{from{-ms-transform:rotate(360deg);-moz-transform:rotate(360deg);-webkit-transform:rotate(360deg);-o-transform:rotate(360deg);transform:rotate(360deg)}to{-ms-transform:rotate(0);-moz-transform:rotate(0);-webkit-transform:rotate(0);-o-transform:rotate(0);transform:rotate(0)}}.rotating{-webkit-animation:rotating 2s linear infinite;-moz-animation:rotating 2s linear infinite;-ms-animation:rotating 2s linear infinite;-o-animation:rotating 2s linear infinite;animation:rotating 2s linear infinite}.pulse{animation:pulsating 3s infinite}@-webkit-keyframes pulsating{0%,100%{opacity:1}50%{opacity:0}}@keyframes pulsating{0%,100%{opacity:1}50%{opacity:0}}
	}
	
   ]]></style></defs><g id="Layer_x0020_1"><path class="fil0" d="M0 0h16771v26498H0z"/><path id="Cog_01" class="fil1 rotate" d="M2891 4008l-32-208c-4-31-2-61 7-89 9-29 25-54 47-77 22-22 48-39 76-48 28-10 58-13 89-9l218 30c21 2 40-2 57-11 16-10 29-25 37-45l76-195c12-29 29-54 51-74s49-35 79-43c31-8 61-10 90-4s56 18 82 38l173 134c17 12 36 19 55 18 19 0 38-6 54-19l164-131c25-20 52-33 81-39s59-5 90 2c30 8 57 22 80 42 22 19 40 44 52 73l83 203c8 19 21 34 38 43 16 10 36 14 57 10l207-31c31-5 62-2 90 7s54 25 76 47c23 22 39 48 49 76 9 28 12 58 8 89l-29 218c-3 20 1 40 11 57 10 16 25 29 44 37l196 76c29 12 54 29 74 51s34 49 42 79c9 30 10 61 4 90-5 29-18 56-37 81l-134 174c-13 17-19 36-19 55s7 38 20 54l131 164c19 25 32 52 39 81 6 29 5 59-3 90-8 30-22 57-41 80-20 22-45 39-74 51l-202 84c-20 8-35 21-44 38-9 16-13 36-10 57l31 207c5 31 3 61-7 90-9 28-25 54-47 76-22 23-47 39-75 49h-1c-27 9-57 12-89 8l-217-29c-21-3-41 1-57 11-16 9-29 25-37 44l-77 195c-11 30-28 55-50 75-22 19-49 34-79 42-31 9-61 10-90 4-29-5-57-18-82-37l-174-134c-16-13-35-19-54-19s-38 7-54 20l-165 131c-24 19-51 32-81 38-28 7-59 6-89-2-31-8-57-22-80-41-22-20-40-44-52-74l-83-203c-8-19-22-34-38-43-17-9-36-13-57-10l-208 31c-31 5-61 2-89-7s-54-25-77-47c-22-22-39-47-48-75v-1c-10-28-13-58-8-89l29-217c3-21-2-41-11-57-10-16-25-30-44-37l-196-77c-29-11-54-29-74-51s-34-48-43-79c-8-30-9-60-4-89 6-29 19-57 38-82l134-174c12-16 19-35 19-54-1-19-7-38-20-55l-131-164c-20-24-33-52-39-81s-5-59 3-89c7-31 22-58 41-80s44-40 73-52l203-83c19-8 34-22 44-38 9-17 13-37 10-57zm74-224l32 208c6 45-2 88-23 125s-54 67-96 85l-203 83c-13 5-24 13-33 23s-15 22-19 36c-3 14-4 28-1 41s9 25 18 37l131 164c28 35 42 77 42 120 1 42-13 85-41 121l-133 173c-9 12-15 24-18 37-2 13-1 27 2 41 4 14 11 26 20 36 8 9 20 17 33 22l196 77c42 17 75 46 97 83 21 36 31 80 25 125l-29 217c-2 15-1 28 3 41 5 12 12 24 22 34 11 10 22 17 35 21 12 4 26 5 40 3l208-31c45-7 89 2 126 23 36 21 66 54 84 96l83 203c6 13 13 24 23 33 10 8 22 15 37 18 14 4 27 4 40 2 13-3 25-9 37-18l164-131c35-28 77-43 120-43 42 0 85 13 121 41l174 134c11 9 23 15 36 17 13 3 27 2 41-2s26-10 36-19 17-20 23-34l76-195c17-42 46-76 83-97 36-22 80-31 125-25l217 29c15 2 28 1 41-4 12-4 24-11 34-22 10-10 18-22 22-34 4-13 5-26 2-41l-31-207c-7-45 2-89 23-126s54-67 96-84l203-84c13-5 24-13 33-23s15-22 19-36c3-14 4-28 1-41-3-12-9-25-18-36l-131-164c-28-36-42-78-43-120 0-43 14-85 41-121l134-174c9-11 15-24 17-37 3-13 2-27-2-40-4-14-10-27-19-36-9-10-20-18-33-23l-196-77c-42-16-76-46-97-82-22-37-31-81-25-125l29-218c2-14 1-28-4-40v-1c-4-12-11-23-22-34-10-10-22-17-34-21s-26-5-41-3l-207 32c-45 6-89-2-126-23s-67-54-84-96l-83-203c-6-14-14-25-24-34-10-8-22-14-36-18s-28-4-41-1c-12 2-25 8-36 18l-164 130c-36 29-78 43-120 43-43 1-85-13-121-41l-174-134c-11-8-24-14-37-17-13-2-26-2-40 2s-26 11-36 19c-10 9-18 20-23 34l-76 195c-17 43-47 76-83 98-37 21-80 31-125 25l-218-29c-14-2-28-1-40 3-13 4-24 12-34 22-11 10-18 22-22 35-4 12-5 26-3 40z"/><path class="fil1" d="M3992 4241c129 0 247 52 332 137v1c85 85 138 202 138 332 0 129-53 247-138 332s-202 138-332 138-247-53-332-138-138-203-138-332c0-130 53-248 138-333s202-137 332-137zm253 216c-64-65-154-105-253-105s-189 40-254 105c-64 65-104 155-104 254s40 188 104 253c65 65 155 105 254 105s188-40 253-105 105-154 105-253-40-189-105-254z"/><path id="Cog_02" class="fil1 rotate-rev" d="M4535 2631l-83-192-22-49 53-7 213-27 23-208 6-54 49 21 198 82 124-168 32-43 33 42 130 171 192-84 48-22 7 53 28 213 208 23 53 6-20 49-83 198 169 124 43 32-43 33-170 130 84 192 21 49-53 7-212 27-24 208-6 53-49-20-198-83-124 169-32 43-32-43-130-170-192 84-49 21-7-53-28-212-208-24-53-6 21-49 82-198-168-124-43-32 42-32 170-130zm11-175l75 172 13 28-25 20-153 116 151 111 26 19-13 29-74 178 187 21 31 3 4 31 25 191 171-75 29-13 19 25 117 153 111-151 19-25 29 12 177 74 21-186 4-32 31-4 191-24-75-172-13-29 25-19 153-117-151-111-25-19 12-29 74-177-186-21-32-3-4-32-24-190-172 75-29 12-19-25-117-152-111 150-19 26-29-12-177-74-21 186-4 31-31 4-191 25z"/><path class="fil1" d="M5129 2547c68 0 129 27 174 72 44 44 72 106 72 173 0 68-28 129-72 174-45 44-106 72-174 72s-129-28-173-72c-45-45-72-106-72-174 0-67 27-129 72-173 44-45 105-72 173-72zm117 129c-30-30-71-49-117-49-45 0-87 19-117 49-29 29-48 71-48 116 0 46 19 87 48 117 30 30 72 48 117 48 46 0 87-18 117-48s48-71 48-117c0-45-18-87-48-116zM2189 3326c73 0 145 8 214 24 42 10 82 22 121 37v-19c0-331 134-630 350-847 217-216 516-350 847-350 269 0 518 89 718 239l13 29 83 192-13 10-30-43c-22-22-44-43-68-63-190-160-435-257-703-257-301 0-574 122-771 319s-319 470-319 771c0 19 0 35 1 49 1 17 2 33 3 48l9 95-85-42c-57-27-117-49-180-63-61-14-124-22-190-22-233 0-444 95-596 248-153 152-248 363-248 596 0 39 3 77 8 113 3 24 7 48 12 71h1172c6 9 12 19 19 27l64 80H1283l-11-39c-11-41-20-83-25-125-6-42-9-85-9-127 0-262 107-500 279-672s410-279 672-279zm3354 79c6-1 11-1 17-2 22-2 45-3 67-3 208 0 396 84 532 220s220 324 220 531c0 71-10 139-28 204-19 67-47 130-82 188l-16 25h-886l63-82c6-8 12-16 17-25h746c23-42 41-88 55-135 15-55 24-114 24-175 0-177-73-339-189-455-117-117-278-189-456-189-19 0-39 1-57 3l-1-1c-19 2-38 5-56 8l-34 6-19-27c-13-17-26-34-40-50l3-2 61 26 49 20 6-53 4-32zM2077 2534v104h104v64h-104v105h-64v-105h-104v-64h104v-104zM5801 5419h327v108h-327zM5180 6019h123v108h-123zM5532 5140h229v107h-229zM6091 5140h1040v107H6091z"/><g id="_1159005536"><path class="fil1" d="M5094 5419h554v108h-538zM5328 4808h360v107h-274z"/></g><path class="fil1" d="M6739 3338c56 0 107 23 144 59 36 37 59 88 59 144s-23 107-59 143c-37 37-88 60-144 60s-106-23-143-60c-37-36-60-87-60-143s23-107 60-144c37-36 87-59 143-59zm51 152c-13-13-31-21-51-21-19 0-37 8-50 21s-21 31-21 51 8 38 21 50c13 13 31 21 50 21 20 0 38-8 51-21 13-12 21-30 21-50s-8-38-21-51zM4364 1714c28 0 54 12 72 30s30 44 30 72-12 53-30 71c-18 19-44 30-72 30s-53-11-71-30c-19-18-30-43-30-71s11-54 30-72c18-18 43-30 71-30zm26 76c-7-6-16-10-26-10s-19 4-25 10c-7 7-11 16-11 26 0 9 4 18 11 25 6 6 15 10 25 10s19-4 26-10c6-7 10-16 10-25 0-10-4-19-10-26zM10313 18627c89 0 170 36 229 94v1c58 58 95 139 95 228 0 90-37 171-95 229-59 59-140 95-229 95-90 0-171-36-229-95-59-58-95-139-95-229 0-89 36-170 95-228v-1c58-58 139-94 229-94zm170 153c-44-43-104-70-170-70-67 0-127 27-170 70-44 44-71 104-71 170 0 67 27 127 71 170 43 44 103 71 170 71 66 0 126-27 170-71 43-43 70-103 70-170 0-66-27-126-70-170zM8656 2224c92 0 176 38 237 98 61 61 98 145 98 238 0 92-37 176-98 237s-145 98-237 98c-93 0-177-37-237-98h-1c-60-61-98-145-98-237 0-93 38-177 98-238h1c60-60 144-98 237-98zm136 199c-35-35-83-56-136-56-54 0-102 21-137 56-34 35-56 83-56 137 0 53 22 101 56 136 35 35 83 57 137 57 53 0 101-22 136-57s57-83 57-136c0-54-22-102-57-137zM1730 9231c50 0 96 21 130 54 33 34 54 80 54 130 0 51-21 97-54 130-34 34-80 54-130 54-51 0-97-20-130-54-34-33-54-79-54-130 0-50 20-96 54-130 33-33 79-54 130-54zm50 134c-13-13-31-21-50-21-20 0-38 8-51 21s-21 30-21 50 8 38 21 51 31 21 51 21c19 0 37-8 50-21s21-31 21-51-8-37-21-50z"/><path class="fil2" d="M14522 20346c54 0 98 44 98 99 0 54-44 98-98 98s-98-44-98-98c0-55 44-99 98-99z"/><path class="fil1" d="M14522 20202c67 0 128 27 172 71 43 44 71 105 71 172 0 66-28 127-71 171-44 44-105 71-172 71s-127-27-171-71-71-105-71-171c0-67 27-128 71-172s104-71 171-71zm127 115c-32-32-77-52-127-52s-95 20-127 52c-33 33-53 78-53 128 0 49 20 94 53 127 32 32 77 52 127 52s95-20 127-52c33-33 53-78 53-127 0-50-20-95-53-128z"/><path class="fil2" d="M14752 19206c73 0 131 59 131 131 0 73-58 131-131 131-72 0-131-58-131-131 0-72 59-131 131-131z"/><path class="fil1" d="M14752 19095c67 0 128 27 172 71s71 104 71 171-27 128-71 172-105 71-172 71c-66 0-127-27-171-71s-71-105-71-172 27-127 71-171 105-71 171-71zm128 115c-33-32-78-53-128-53-49 0-94 21-127 53-32 33-52 78-52 127 0 50 20 95 52 128 33 32 78 52 127 52 50 0 95-20 128-52 32-33 52-78 52-128 0-49-20-94-52-127z"/><path class="fil2" d="M13619 13111c67 0 121 54 121 121s-54 121-121 121-122-54-122-121 55-121 122-121z"/><path class="fil1" d="M13407 13444c-54-55-88-129-88-212s34-157 88-211c54-55 129-88 212-88 82 0 157 33 211 88 54 54 88 128 88 211s-34 157-88 211c-54 55-129 88-211 88-63 0-121-19-169-52m326-404c-41-40-96-65-157-65-62 0-117 25-157 65s-65 96-65 157 25 117 65 157 95 65 157 65c61 0 116-25 157-65 40-40 65-96 65-157s-25-117-65-157zM12885 12701c87 0 165 35 222 92 56 57 91 135 91 222 0 86-35 164-91 221-57 57-135 92-222 92-86 0-165-35-221-92-57-57-92-135-92-221 0-87 35-165 92-222 56-56 135-92 221-92zm174 140c-44-45-106-72-174-72s-130 27-174 71v1c-45 44-72 106-72 174s27 129 72 174c44 44 106 72 174 72s130-28 174-72c45-45 72-106 72-174s-27-130-72-174zM1427 22772c75 0 143 31 192 80s80 117 80 192c0 74-31 142-80 191s-117 80-192 80c-74 0-142-31-191-80s-80-117-80-191c0-75 31-143 80-192s117-80 191-80z"/><path id="Center_02" class="fil2 pulse" d="M1183 21454c54 0 98 44 98 98s-44 98-98 98-98-44-98-98 44-98 98-98z"/><path class="fil1" d="M1183 21240c86 0 164 35 221 91 56 57 91 135 91 221s-35 165-91 221c-57 57-135 92-221 92s-164-35-221-92c-57-56-92-135-92-221s35-164 92-221c57-56 135-91 221-91zm142 170c-36-36-87-59-142-59-56 0-106 23-142 59-37 36-59 87-59 142 0 56 22 106 59 142 36 37 86 59 142 59 55 0 106-22 142-59 37-36 59-86 59-142 0-55-22-106-59-142z"/><path id="Center_03" class="fil2 pulse" d="M14695 11697c47 0 86 38 86 86 0 47-39 86-86 86s-86-39-86-86c0-48 39-86 86-86z"/><path class="fil1" d="M14695 11571c58 0 111 24 149 62 39 39 62 92 62 150s-23 111-62 149c-38 39-91 62-149 62s-111-23-149-62h-1c-38-38-61-91-61-149s23-111 61-150h1c38-38 91-62 149-62zm111 101c-28-29-68-46-111-46s-83 17-111 46c-28 28-46 67-46 111 0 43 18 82 46 111 28 28 68 46 111 46s83-18 111-46c28-29 46-68 46-111 0-44-18-83-46-111zM11661 12417c65 0 124 26 166 69 43 43 69 101 69 166s-26 124-69 166c-42 43-101 69-166 69s-123-26-166-69c-43-42-69-101-69-166s26-123 69-166c42-42 101-69 166-69zm104 131c-26-27-63-43-104-43s-78 16-104 43c-27 26-44 63-44 104s17 78 44 105c26 26 63 43 104 43s78-17 104-43c27-27 44-64 44-105s-17-78-44-104z"/><path class="fil2" d="M14408 12002c83 45 140 132 140 233 0 145-118 263-263 263-108 0-201-65-242-158 30 10 62 16 95 16 77 0 147-31 198-82 50-50 82-120 82-197 0-26-4-51-10-75z"/><path class="fil1" d="M14138 11797c77 0 147 31 198 82s82 120 82 198c0 77-32 147-82 197-51 51-121 82-198 82s-147-31-197-82c-51-50-82-120-82-197 0-78 31-147 82-198 50-51 120-82 197-82zm124 155c-31-31-75-51-124-51-48 0-92 20-124 51-32 32-51 76-51 125 0 48 19 92 51 124s76 51 124 51c49 0 93-19 124-51h1c31-32 51-76 51-124 0-49-20-93-52-125zM13008 1392v176h175v107h-175v175h-107v-175h-175v-107h175v-176zM881 12657h371v107H881zM574 12374h224v107H574zM1038 12374h679v107h-679zM1915 12374h340v107h-340z"/><path id="Cog_03" class="fil1 rotate" d="M2598 9122l-84-192-21-49 53-7 212-27 23-208 6-54 50 21 197 82 125-168 32-43 32 42 130 171 192-84 49-22 7 53 27 213 208 23 54 6-21 49-83 198 169 124 43 32-42 33-171 130 84 192 21 49-53 7-212 27-23 208-6 53-50-20-197-83-125 169-31 43-33-43-130-170-192 84-49 21-7-53-27-212-208-24-54-6 21-49 83-198-169-124-43-32 42-32 171-130zm11-175l75 172 13 28-26 20-152 116 150 111 26 19-12 29-74 178 186 21 31 3 4 31 25 191 172-75 29-13 19 25 116 153 112-151 18-25 29 12 178 74 21-186 3-31 32-5 190-24-75-172-12-29 25-19 152-117-150-111-26-19 12-29 74-177-186-21-31-3-4-32-25-190-172 75-29 12-19-25-116-152-112 150-18 26-29-12-178-74-21 186-3 31-32 4-190 25z"/><path class="fil1" d="M3192 9038c67 0 129 27 173 72 45 44 72 106 72 173 0 68-27 129-72 174-44 44-106 72-173 72-68 0-130-28-174-72-44-45-72-106-72-174 0-67 28-129 72-173 45-45 106-72 174-72zm116 129c-30-30-71-49-116-49-46 0-87 19-117 49-30 29-48 71-48 116 0 46 18 87 48 117s71 48 117 48c45 0 86-18 116-48s48-71 48-117c0-45-18-87-48-116zM5732 8935H3866l3-7 21-49-54-6-167-19h2144v3470H3545V9960l1 1 50 20 6-53 23-208h2v2522l2105 1V8935zm-2187 782v-12l1-1-1 13z"/><path class="fil1" d="M6106 8646l-2504-1-1-8-7-53-49 22-89 39h-137l-83-109h2979v4513H3143v-55l-1-2970 18 23 33 43 31-43 28-37v2929h2854z"/><path class="fil1" d="M4679 12430c55 0 105 22 142 58v1c36 36 58 86 58 142 0 55-22 105-58 142-37 36-87 58-142 58-56 0-106-22-142-58-37-37-59-87-59-142 0-56 22-106 59-142v-1c36-36 86-58 142-58zm81 119c-21-21-50-34-81-34-32 0-61 13-82 34s-34 50-34 82c0 31 13 60 34 81s50 34 82 34c31 0 60-13 81-34s34-50 34-81c0-32-13-61-34-82zM6200 10309h339v108h-339zM6689 10309h794v108h-794zM6583 9958h168v108h-168zM6364 10799h540v107h-540zM6644 11069h435v108h-435zM6188 11069h280v108h-280zM6312 11413h517v108h-517zM4181 8103h1058v107H4181zM4568 7834h370v107h-370zM5465 8103h369v107h-369zM3620 8103h270v107h-270zM2812 10649c76 0 145 30 195 80v1c50 49 81 119 81 195s-31 145-81 195-119 81-195 81-145-31-195-81-81-119-81-195 31-146 81-195v-1c50-50 119-80 195-80zm112 163c-28-28-68-46-112-46s-83 18-112 46c-29 29-47 69-47 113s18 83 47 112 68 46 112 46 84-17 112-46c29-29 47-68 47-112s-18-84-47-113z"/><path class="fil1" d="M2812 10860c18 0 34 7 46 19s19 28 19 46-7 34-19 45c-12 12-28 19-46 19s-34-7-46-19c-11-11-19-27-19-45s8-34 19-46c12-12 28-19 46-19zm26 38c-6-6-16-11-26-11s-19 5-26 11c-7 7-11 16-11 27 0 10 4 19 11 26s16 11 26 11 20-4 26-11c7-7 11-16 11-26 0-11-4-20-11-27zM8363 20174h-561l-10-26c-35-92-61-196-78-311-17-113-24-236-24-371 1-98 31-189 82-264 52-76 126-136 213-171 22-14 47-26 74-36 26-10 53-19 83-26 7-5 13-10 18-16l1-2c-25-21-49-46-71-74-66-84-113-197-113-320 0-132 42-251 109-338 71-89 168-145 277-145 108 0 206 56 276 145 68 87 110 206 110 338 0 123-47 236-114 320-21 28-45 53-70 74l1 2c5 6 11 11 17 16 30 7 58 16 83 26 28 10 52 22 74 36 87 35 161 95 213 171 51 75 82 166 82 264 1 135-7 258-24 371-17 115-43 219-78 311l-10 26h-560zm-304-1092v1l1 2 1 2 1 1 2 2v1l2 3 2 3 2 3 2 4 1 2 1 2 1 1 2 2v1l2 2 2 3v1l4 5 1 2v1l2 2v1l4 5v1l2 2 1 1 1 2 1 1 1 2 1 2 1 1 2 2v1l2 2v1l2 2v1l2 2 1 1 1 2 1 1 1 2 1 1 1 1 2 3 2 3 2 3 2 2 1 1 1 2 1 2 1 1 2 2 2 3 2 3h1l1 2 1 1 2 2v1l2 2 1 1 1 1 1 2 1 1 2 3 2 2v1l2 2 1 1 1 1 1 2 2 1 1 2h1l2 3 2 3 2 2 1 1 1 2 1 1 2 1 1 2 1 1 1 2h1l2 2v1l2 2h1l2 3 2 2 1 1 1 1 2 2v1l2 2h1l2 3c52 54 109 101 174 139 64-38 122-85 173-139l3-3 2-2 1-1 1-2 1-1 1-1 2-2h1l2-3 2-2v-1l2-2h1l2-3 2-2 1-1 1-1 2-2v-1l2-2 2-3h1l2-3 2-2 1-1 1-2 1-1 1-1 2-2v-1l2-2 2-3 1-1 2-2v-1l2-1 1-2 1-1 1-2 1-1 2-2 2-3 2-3h1l1-2 1-1 1-2 1-2 1-1 2-2 2-3 2-3h1l1-3 1-1 1-1 1-2 1-1 2-2v-1l2-2v-1l2-2v-1l2-2 1-1 1-2 1-1 1-2 1-2 1-1 2-2v-1l2-2 2-3v-1l2-2v-1l2-2 1-1 1-2 1-2 1-1 1-2 1-1 1-3 2-2 1-1 1-2 1-1 1-2 1-2 1-1 1-2 1-1 1-3h1l1-3h1l1-3 1-1 1-2 1-1 1-2 1-2 1-1c-10-5-19-9-29-13-25-9-51-17-80-24l-11-4c-17-10-31-23-43-37-2-2-3-4-5-6-16 9-33 17-49 23-22 9-44 14-66 17h-9l-2 1h-21l-2-1h-9c-21-3-43-8-66-17-16-6-33-14-49-23-1 2-3 4-4 6-12 14-27 27-43 37l-12 4c-28 7-55 15-79 24-10 4-20 8-29 13zm166-181l11 8c23 16 46 29 68 37 16 6 31 10 46 12h25c15-2 31-6 47-12 22-8 45-21 67-37l11-8c25-20 50-45 72-73 56-72 96-167 96-271 0-113-35-215-92-288-55-71-131-114-213-114-83 0-158 43-213 114-58 73-93 175-93 288 0 104 40 199 96 271 22 28 47 53 72 73zm-367 1193h1009c29-81 50-170 65-268 16-110 24-230 23-360 0-81-26-156-68-219-38-54-89-99-148-129l-2 3-2 4-2 3-1 1-1 2-1 1-1 3-1 1-1 2-2 2v1l-2 3-2 3-1 1-2 3-2 3v1l-2 2-1 2-1 2-1 1-1 2-1 2-1 1-2 3-2 3-2 3-1 1-2 3-2 3-1 1-1 2-1 2-1 1-1 2-1 1-2 3-2 3-3 3v1l-2 3h-1l-1 3-1 1-1 2-2 1-1 2-1 2-1 1-2 2v1l-2 3-3 3-2 3v1l-2 2-1 1-1 2-2 2-1 1-1 2-1 1-2 2v1l-3 2v1l-2 2v1l-2 2-1 1-2 2-1 2-1 1-1 2-1 1-2 2-1 1-2 2v1l-2 2-1 1-2 2v1l-2 2-1 1-2 2-1 1-1 2-2 2v1l-2 2h-1l-2 3-3 3-2 3h-1l-2 2-1 1-1 2-2 2-1 1-1 2h-1l-2 3h-1l-2 3c-63 66-133 122-213 166l-19 10-20-10c-80-44-150-100-212-166l-3-3-2-3h-1l-2-2-1-1-1-2-2-2-1-1-2-2-3-3-2-3-3-3-2-2-1-1-2-2-1-2-1-1-2-2v-1l-2-2-1-1-2-2v-1l-3-2v-1l-2-2-1-1-1-2-1-1-2-2-1-1-1-2-2-2v-1l-2-2-1-1-2-2v-1l-2-2-1-1-2-2v-1l-2-2-1-1-1-2-2-2-1-1-1-2-1-1-2-3-2-3-3-3v-1l-2-2-1-1-1-2-1-2-1-1-2-2-1-1-1-3h-1l-2-3v-1l-2-3-2-3h-1l-2-3v-1l-2-2-1-1-1-2-1-2-1-1-2-3-2-3v-1l-2-3h-1l-2-3-2-3v-1l-2-2-1-2-1-1-1-2-1-2-2-2v-1l-2-3-2-3v-1l-2-3h-1l-1-3-1-1-1-2-1-2-1-1-2-3v-1l-2-2v-1l-2-3-2-4h-1l-1-3c-60 30-111 75-148 129-43 63-68 138-69 219 0 130 7 250 24 360 14 98 35 187 64 268zM8403 20174v952c0 70 29 134 75 180s110 75 180 75h3202c93 0 177 37 237 98 61 61 99 145 99 237v912c0 70 28 134 75 180 46 46 109 75 180 75h1025v81h-1025c-93 0-177-38-237-99-61-61-99-144-99-237v-912c0-70-28-134-75-180-46-46-110-75-180-75H8658c-93 0-176-37-237-98s-99-145-99-237v-952h81z"/><path class="fil1" d="M13476 22687h341v490h-381v-490h40zm260 81h-220v328h220v-328z"/><path class="fil1" d="M14227 21359h1318c144 0 275 58 370 153 94 95 153 226 153 370v3512c0 144-59 275-153 370-95 94-226 153-370 153h-1318c-144 0-275-59-370-153-94-95-153-226-153-370v-3512c0-144 59-275 153-370 95-95 226-153 370-153zm-225 433h1768c37 0 70 15 95 39 24 24 39 58 39 95v3480c0 37-15 70-39 94-25 25-58 40-95 40h-789c7 5 13 10 19 16 29 29 47 69 47 114 0 44-18 85-47 114-10 10-22 19-34 26h579c115 0 219-47 294-122 75-76 122-180 122-294v-3512c0-115-47-219-122-294s-179-122-294-122h-1318c-114 0-218 47-294 122-75 75-122 179-122 294v3512c0 114 47 218 122 294 76 75 180 122 294 122h579c-12-7-24-16-34-26-29-29-47-70-47-114 0-45 18-85 47-114 6-6 12-11 19-16h-789c-37 0-70-15-94-40h-1c-24-24-39-58-39-94v-3480c0-37 15-70 40-95h-1c25-24 58-39 95-39zm952 3810c-17-17-41-28-68-28-26 0-50 11-68 28-17 17-28 41-28 68 0 26 11 50 28 68 18 17 42 28 68 28 27 0 51-11 68-28 17-18 28-42 28-68 0-27-11-51-28-68zm816-3703h-1768c-7 0-14 3-19 8s-8 11-8 19v3480c0 7 3 14 8 18v1c5 4 12 7 19 7h1768c7 0 14-3 19-7v-1c5-4 8-11 8-18v-3480c0-7-3-14-8-19s-12-8-19-8z"/><path class="fil1" d="M14886 24572h-651l-11-31c-41-110-71-234-91-370-19-135-28-283-28-443 1-117 36-225 96-315 60-91 146-162 247-204 25-17 54-31 85-43 30-12 63-22 97-31 8-5 14-12 20-19l2-2c-30-25-57-55-82-88-77-101-132-235-132-382 0-157 49-299 127-402 82-107 195-173 321-173s239 66 321 173c79 103 127 245 127 402 0 147-54 281-132 382-25 33-52 63-81 88l1 2c6 7 12 14 20 19 35 9 67 19 97 31 31 12 60 26 85 43 101 42 187 113 248 204 59 90 94 198 95 315 1 160-9 308-28 443-19 136-50 260-91 370l-11 31h-651zm40-842v746h546c33-96 58-203 75-319 19-131 27-274 27-429-1-96-30-186-79-261-44-65-103-118-172-154l-2 4h-1l-2 4-2 4-1 1-2 3-1 1-1 3-1 2-1 2-2 2-1 1-2 4-2 4h-1l-2 4-2 4-1 1-2 3-1 1-1 3-1 2-2 1-1 3-1 1-2 3v1l-3 4-2 4h-1l-2 3-1 1-1 3-1 2-2 2-1 2-1 2-2 2-1 1-2 4-3 4-2 3-1 1-2 3-1 1-2 3-1 1-1 2-2 3-1 1-2 3v1l-3 3-3 4-2 3-1 1-2 3-1 1-1 3-2 1-1 2-2 2-1 2-2 2v1l-3 3v1l-3 3-2 4h-1l-2 3-1 1-2 2-1 2-2 2-1 2-1 1-3 3v1l-3 3-3 4-2 3-1 1-2 2-1 2-2 2-2 1-1 2-2 2-1 1-2 3v1l-3 3-3 3-1 1-2 2-1 1-2 3-1 1-2 2-1 2-2 1-2 2-1 1-2 3-1 1-2 3c-68 74-145 137-230 187zm-81 746v-746c-85-51-161-114-228-187l-3-3-1-1-2-3-1-1-2-2-1-1-2-2-2-2-1-1-2-3-1-1-2-2-1-1-3-3-2-3-1-1-2-3-1-1-2-2-1-2-2-1-2-2-1-2-2-2v-1l-3-3-3-4-3-3v-1l-3-3v-1l-2-2-2-2-1-2-2-2-1-1-2-3-3-4-3-3v-1l-2-3-1-1-2-2-1-2-2-2-1-2-1-1-2-3-1-1-2-3-1-1-2-3-3-4-3-3v-1l-2-3-1-1-2-3-1-2-1-1-2-3-1-1-2-3v-1l-3-3-3-4-2-4-1-1-2-2-1-2-1-2-2-2-1-2-2-4-2-3h-1l-2-4-2-4-1-1-2-3-1-1-1-3-1-1-2-2-1-3-1-1-2-3-1-1-2-4-2-4h-1l-2-4-2-4-1-1-2-2-1-2-1-2-1-3-1-1-2-3-1-1-2-4-2-4v-1l-2-3c-70 35-129 89-172 154-50 75-79 165-80 261 0 155 9 298 27 429 17 116 42 223 75 319h545zm-304-1945c75 2 283-23 451-344-33-14-69-22-106-22-96 0-183 52-247 136-48 62-82 141-98 230zm560-268c-6 34-6 63-2 88 7 48 29 80 54 102 22 18 47 29 69 36-18-72-49-136-89-188-10-14-21-27-32-38zm138 327c-7-1-15-2-23-4-37-8-84-26-125-60-41-35-76-87-87-161 0-4-1-7-1-11-185 260-395 276-472 273v17c0 124 47 238 112 323 26 34 54 63 83 87l13 10c26 19 53 34 79 44 18 8 36 12 54 14h8l1 1h10l1-1h9c17-2 35-6 54-14 25-10 52-25 78-44l13-10c29-24 57-53 83-87 65-85 112-199 112-323 0-18-1-36-2-54zm-706 680l1 1 1 2 1 3 1 1 2 3v1l2 3 3 4 2 3 3 5 1 2 1 3 1 1 2 3 3 4 2 3v1l4 6 1 2 1 2 2 2 1 1 3 6 1 1 2 3 1 1 2 3 1 1 1 2 1 2 1 1 2 3v1l3 3 2 3v1l2 3 1 1 2 2 1 2 1 1 2 2v1l2 3 1 1 2 3 2 3 1 1 2 3 1 1 1 2 1 2 1 1 2 2 1 1 2 3 3 4 2 3 1 1 2 2 1 1 1 2 1 2 1 1 2 3h1l2 3 3 3v1l2 3 1 1 2 2 1 1 1 2 2 2 1 1 2 2v1l3 3 2 3 1 1 2 2 1 1 1 2 2 2 1 1 2 2 1 1 2 3 3 3 2 3 1 1 2 2 1 1 2 2 1 1 1 1 2 3h1l2 3c60 65 127 121 202 166 75-45 142-101 202-166l2-3h1l2-3 1-1 2-1 1-2 1-1 2-2 1-1 2-3 3-3 3-3v-1l3-3 2-2 1-2 1-1 2-2 1-1 2-3 3-3v-1l2-2 1-1 2-2 1-2 1-1 2-2 1-1 2-3v-1l3-3 2-3h1l2-3 1-1 1-2 1-2 2-1 1-2 1-1 2-3 3-4 2-3 1-1 2-2 1-1 1-2 1-2 1-1 2-3 1-1 2-3 2-3 1-1 2-3 1-1 1-2 1-1 1-2 2-2 1-1 2-3v-1l2-3 3-3v-1l2-3 1-1 1-2 2-2 1-1 1-3 1-1 2-3 2-4h1l1-3 1-1 2-2 1-2 1-2 1-2 1-1 2-3v-1l3-3 2-4 2-3 1-1 1-3 1-2 1-1 2-3v-1l2-3h1l2-4 2-3v-1l2-3 1-1 1-3 1-2 1-1c-11-5-22-10-34-15-28-11-59-21-92-29l-13-5c-20-12-36-27-50-44-2-3-4-5-5-7-19 11-38 20-58 28-25 10-51 17-76 19l-5 1h-12l-3 1h-10l-3-1h-12l-5-1c-25-2-50-9-76-19-19-8-39-17-58-28-1 2-3 4-5 7-14 17-30 32-50 44l-13 5c-33 8-64 18-92 29-12 5-23 10-34 15z"/><path id="txt_01_01" class="fil1" d="M14229 24880h682v108h-682z"/><path id="txt_01_02" class="fil1" d="M15016 24880h510v108h-510z"/><path id="txt_01_03" class="fil1" d="M14193 25156h1387v108h-1387z"/><path class="fil2" d="M10728 17170c170 0 309 139 309 310 0 170-139 309-309 309-171 0-310-139-310-309 0-171 139-310 310-310zM2075 22142c171 0 310 139 310 310 0 170-139 309-310 309-170 0-309-139-309-309 0-171 139-310 309-310zM15805 19935c151 0 274 122 274 274 0 151-123 273-274 273s-273-122-273-273c0-152 122-274 273-274z"/><path class="fil1" d="M5273 11470h329c16 0 29-13 29-29v-1c0-16-13-29-29-29h-279c-27 0-49-22-49-49v-7c0-27 22-49 49-49h214v33h-214c-9 0-16 7-16 16v7c0 9 7 17 16 17h279c34 0 62 27 62 61v1c0 34-28 61-62 61h-748c26-21 57-32 91-32h328zm-773-5c11 0 19 9 19 19 0 11-8 20-19 20s-19-9-19-20c0-10 8-19 19-19zm471-128h168c34 0 65-11 91-33h-285c-32 0-61 10-86 29-46 35-91 84-134 124-16 15-42 15-58 0l-112-104c-31-28-78-28-109 0l-111 104c-17 15-42 15-59 0l-112-104c-30-28-78-28-108 0l-112 104c-17 15-42 15-59 0l-165-153-27 25 167 155c31 28 78 28 109 0l112-104c16-15 42-15 58 0l112 104c31 28 78 28 109 0l112-104c16-15 41-15 58 0l112 104c31 28 78 29 108 0 41-39 79-77 117-115l6-6c21-18 45-26 72-26h26zm82 48c10 0 19 8 19 19s-9 19-19 19c-11 0-20-8-20-19s9-19 20-19z"/><g id="_1158999488"><path class="fil1" d="M7499 9027l-255-256c-44-44-117-44-161 0l-255 255c-14 15-14 39 0 54l78 77 51 48c15 14 39 14 54 0l103-96c28-26 72-26 100 0l103 96c15 14 38 14 54 0l51-48 77-77c15-15 15-39 0-53z"/><path class="fil1" d="M6683 9332l400 400c44 44 117 44 161 0l400-400c69-70 20-90-31-138l-62-60c-16-14-39-14-54 0l-103 95c-28 27-72 27-100 0l-103-95c-15-14-39-14-54 0l-103 95c-28 27-72 27-100 0l-103-95c-15-14-38-14-54 0l-57 54c-53 49-109 71-37 144z"/></g><g id="_1159007200"><path class="fil1" d="M5183 9911l-403-403c-14-14-30-24-46-31-18-7-36-11-55-11s-38 4-55 11c-15 6-30 15-42 27l-4 4-402 402-2 2c-1 2-3 4-3 6-2 2-2 5-2 9 0 3 0 6 2 9 1 2 2 5 5 7l122 122 2 3 78 71c2 3 5 4 8 6 3 1 6 1 10 1 3 0 6 0 9-1 3-2 6-3 9-6l162-150c15-13 31-23 48-30 18-7 37-11 56-11 18 0 37 4 55 11 17 7 34 17 48 30l162 150h1c2 3 5 4 8 6 3 1 6 1 9 1 4 0 7 0 10-1 3-2 6-3 8-6l78-71 2-3 122-121c2-2 4-5 5-8 1-2 1-5 1-9 0-3 0-6-1-9-1-2-3-5-5-7zm-352-454l403 403c9 9 16 19 21 31s7 24 7 36c0 13-2 25-7 37-4 8-8 15-13 22v2l-8 7-121 122-2 1-60 56-20 19c-10 8-20 15-32 19-11 5-23 7-36 7-12 0-24-2-36-7-11-4-21-11-31-19l-14-14-148-137c-8-7-16-12-25-15-10-4-19-6-29-6s-20 2-30 6c-9 3-17 8-25 15l-162 151c-10 8-20 15-31 19-12 5-24 7-36 7s-25-2-36-7c-12-4-22-11-32-19l-14-14-65-61-3-1-122-122c-9-9-16-20-20-32-5-12-8-24-8-36 0-13 3-25 8-37 4-11 11-22 20-31l402-402 19-19 2 1c15-12 32-22 49-29 27-11 55-16 83-16 55 0 110 21 152 63z"/><path class="fil1" d="M3946 10386l632 632c13 13 29 24 46 30 17 8 36 11 55 11s37-3 55-11c16-6 32-17 46-30l631-632 3-3c28-28 39-48 40-63 0-12-9-25-22-39-5-5-10-9-15-14-8-7-13-11-18-15-3-2-6-5-17-15-5-5-11-11-18-17l-99-94c-3-2-5-4-8-5s-6-2-9-2c-4 0-7 1-10 2s-6 3-9 6l-19 17-143 133c-14 13-31 23-48 30-18 7-37 11-56 11-18 0-37-4-55-11-17-7-34-17-48-30l-136-126-27-24c-2-3-5-4-8-6-3-1-6-1-9-1-4 0-7 0-10 1s-6 3-8 5l-154 143-9 8c-14 13-30 23-48 30s-37 11-55 11c-19 0-38-4-56-11-17-7-33-17-48-30l-143-133-19-17c-3-3-5-4-9-6-3-1-6-1-9-1-4 0-7 0-10 1s-6 3-8 5l-91 85c-11 10-21 18-30 26l-10 8c-8 7-15 14-20 18-7 5-12 11-18 16l-2 2c-13 13-20 25-20 38 1 16 13 37 43 67zm580 683l-631-631c-46-46-65-84-66-118-1-24 7-45 21-65l-2-1 26-26c6-7 13-13 21-19 8-8 15-14 22-19l17-15c6-5 13-11 20-17l91-85c9-8 20-15 31-19 11-5 24-7 36-7s24 2 36 7c11 4 22 11 31 19l9 8 153 143c8 7 16 12 25 15 10 4 20 6 30 6s20-2 29-6c9-3 18-8 25-15l19-18 143-133c10-8 20-15 32-19 11-5 23-7 36-7 12 0 24 2 36 7 11 4 21 11 31 19l8 8 154 143c7 7 16 12 25 15 9 4 19 6 29 6s20-2 30-6c9-3 17-8 25-15l153-143 9-8c9-8 20-15 31-19 12-5 24-7 37-7 12 0 24 2 36 7 11 4 21 11 31 20l99 94c11 10 22 20 33 29l1 2c13 11 26 22 35 31 28 28 46 56 45 91-1 30-16 63-52 102v1l-14 13-631 632-8 8c-19 16-40 29-62 38-26 11-54 17-82 17s-56-6-83-17c-25-10-49-25-69-46h-1z"/></g><g id="_1159022304"><path class="fil1" d="M13519 7408l-214-214c-7-8-15-13-24-17-10-4-19-5-29-5s-20 1-30 5c-8 4-15 8-22 14l-2 3-214 213v1c-1 1-2 2-2 3-1 2-1 3-1 5s0 3 1 5c0 1 1 2 2 4l65 64 2 2 41 38c1 1 3 2 4 3 2 0 3 1 5 1s4-1 5-1c2-1 3-2 5-3l86-80c8-7 16-12 25-16 10-4 20-6 30-6s20 2 29 6c10 4 18 9 26 16l86 80c2 1 3 2 5 3 1 0 3 1 5 1s3-1 5-1c1-1 3-2 4-3l41-38 2-2 64-64c1-1 2-2 3-4 0-1 1-3 1-5 0-1-1-3-1-4-1-2-2-3-3-4zm-187-242l214 214c5 5 9 11 11 17 3 6 4 13 4 19 0 7-1 14-4 20-1 4-4 8-6 12l-5 4-64 65-1 1-32 29-11 10c-5 5-10 8-16 11-6 2-13 3-19 3-7 0-13-1-19-3-6-3-12-6-17-11l-8-7-78-73c-4-3-9-6-14-8-4-2-10-3-15-3s-11 1-16 3c-4 2-9 5-13 8l-86 80c-5 5-11 8-17 11-6 2-12 3-19 3-6 0-13-1-19-3-6-3-11-6-16-11l-8-7-35-32-1-1-65-65c-5-5-8-10-11-17-3-6-4-13-4-19 0-7 1-13 4-20 3-6 6-11 11-16l214-214 10-10v1c9-6 17-12 27-15 14-6 29-9 44-9 29 0 58 11 80 33z"/><path class="fil1" d="M12863 7660l335 335c7 8 16 13 24 17 10 4 20 5 30 5s19-1 29-5c9-4 17-9 24-17l335-335 2-2c15-14 21-25 21-33 1-7-4-13-12-21l-7-7h-1c-4-4-6-6-9-8-1-2-3-3-9-8-3-3-6-6-10-9l-52-50c-1-1-3-2-4-3-2 0-4-1-5-1-2 0-4 1-6 1-1 1-3 2-4 3l-10 9-76 71c-8 7-17 12-26 16s-19 6-29 6-20-2-30-6c-9-4-18-9-25-16l-73-67-13-13c-2-1-3-2-5-3-2 0-3-1-5-1s-4 1-5 1c-2 1-3 2-4 3h-1l-81 76-5 4c-7 7-16 12-25 16-10 4-20 6-30 6s-20-2-29-6-18-9-26-16l-76-71-10-9c-1-1-3-2-4-3-2 0-4-1-6-1-1 0-3 1-5 1-1 1-3 2-4 3l-48 45c-6 5-11 10-16 14l-5 4c-5 4-9 7-11 10-4 2-7 5-10 8l-1 1c-6 7-11 14-10 20 0 9 7 20 23 36zm308 363l-336-336c-24-24-34-44-35-62 0-13 4-24 12-35h-2l14-14c3-4 7-7 11-10 5-4 8-7 12-10l9-8c3-3 7-6 11-9l48-45c5-5 10-8 16-11 7-2 13-3 19-3 7 0 13 1 20 3 6 3 11 6 16 11l5 4 81 76c4 3 9 6 14 8s10 3 15 3c6 0 11-1 16-3s9-5 13-8l10-10 76-70c5-5 11-8 17-11 6-2 13-3 19-3s13 1 19 3c6 3 12 6 17 11l4 4 82 76c4 3 8 6 13 8s10 3 16 3c5 0 10-1 15-3s10-5 14-8l81-76 5-4c5-5 10-8 16-11 7-2 13-3 20-3 6 0 13 1 19 3 6 3 11 6 16 11l53 50c6 6 12 11 17 16h1c7 6 14 12 19 17 14 15 24 30 24 48-1 16-9 34-28 55l-7 7-336 336-4 4c-10 9-21 15-33 20-14 6-29 9-43 9-15 0-30-3-44-9-14-5-26-13-37-24z"/></g><g id="_1159005568"><path class="fil1" d="M10167 3006l-324-324c-11-11-23-19-37-25s-29-8-44-8-30 2-44 8c-12 5-23 12-34 22l-3 3-323 323-1 1c-1 2-2 3-3 5s-1 5-1 7c0 3 0 5 1 7 1 3 2 5 4 6l98 98 2 3 62 57h1c2 2 4 3 6 4 3 1 5 2 8 2s5-1 8-2c2-1 4-2 6-4l131-121c11-10 25-18 38-24 15-6 30-8 45-8s30 2 45 8c13 6 26 14 38 24l130 121h1c2 2 4 3 6 4 3 1 5 2 8 2s5-1 7-2h1c2-1 4-2 6-4l62-57 3-3 97-97c2-2 3-4 4-6s1-5 1-7c0-3 0-5-1-7s-2-5-4-6zm-282-365l323 323c7 8 13 16 17 25 4 10 6 20 6 30s-2 20-6 29c-3 7-6 13-10 18v1l-7 6-97 98-2 1-48 44v1l-16 15c-8 7-16 12-25 15-10 4-19 6-29 6s-20-2-29-6c-9-3-18-8-25-15l-12-11-118-110c-6-5-13-10-21-13-7-2-15-4-23-4s-16 2-24 4c-7 3-14 8-20 13l-130 121c-8 7-16 12-25 15-9 4-19 6-29 6s-20-2-29-6c-9-3-18-8-25-15l-12-11-52-49-2-1-98-98c-7-8-13-16-17-25-4-10-6-20-6-30s2-20 6-29 10-18 17-25l323-323 15-16 1 1c13-9 26-17 40-23 21-8 44-13 66-13 45 0 89 17 123 51z"/><path class="fil1" d="M9174 3387l507 507c11 11 24 20 37 25 14 6 29 9 44 9s30-3 44-9c14-5 26-14 37-25l507-507 3-2c22-23 31-39 32-51 0-10-7-20-18-31-4-4-8-8-12-11-7-6-10-9-14-13-2-2-5-4-14-12-4-4-9-8-15-13l-79-76c-2-1-4-3-6-4-3-1-5-1-8-1s-5 1-8 1c-2 1-5 3-7 5l-15 14-115 106c-12 11-25 19-39 25-14 5-29 8-44 8s-30-3-45-8c-14-6-27-14-38-25l-110-101-21-19c-2-2-4-3-6-4-3-1-5-2-8-2s-5 1-8 2c-2 0-4 2-6 4l-124 114-7 6c-11 11-25 19-38 25-15 5-30 8-45 8s-30-3-45-8c-14-6-27-14-38-25l-115-106-16-14c-2-2-4-3-6-4-3-1-5-2-8-2s-5 1-8 2c-2 0-4 2-6 4l-74 67c-8 8-16 15-24 22l-7 6c-7 6-13 11-17 14-5 5-10 9-14 13l-2 2c-10 10-16 20-16 30 1 13 11 30 35 54zm466 549l-507-508c-37-36-52-67-53-94-1-20 6-36 17-52l-2-1 21-21c5-5 11-10 16-15 7-6 13-11 18-16l14-11c5-5 11-9 16-14l73-68c8-7 16-12 25-16 9-3 19-5 29-5s20 2 29 5c9 4 17 9 25 16l7 6 123 115c6 5 13 9 20 12 8 3 16 5 24 5s16-2 23-5c8-3 15-7 21-12l15-14 115-107c8-7 16-12 25-16 9-3 19-5 29-5s19 2 29 5c9 4 17 9 25 16l7 6 123 115c6 5 13 9 20 12 8 3 16 5 24 5s16-2 23-5c8-3 15-7 21-12l123-115 7-6c7-7 16-12 25-16 9-3 19-5 29-5s20 2 29 5c9 4 18 9 25 16l80 76c9 8 18 16 26 23l1 2c11 9 21 17 28 25 22 22 37 44 36 73 0 24-12 50-42 82l1 1-11 10-508 508-6 6c-15 13-32 24-50 31-21 9-43 13-66 13-22 0-45-4-66-13-20-8-39-21-56-37z"/></g><g id="_1158974592"><path class="fil1" d="M7478 20769l-255-255c-45-44-117-44-161 0l-255 255c-14 14-14 38 0 53l78 77 51 48c15 14 39 14 54 0l103-95c28-26 72-26 100 0l103 95c15 14 38 14 54 0l51-48 77-76c15-15 15-39 0-54z"/><path class="fil1" d="M6662 21074l400 401c44 44 116 44 161 0l400-401c69-69 20-90-31-138l-62-59c-16-14-39-14-54 0l-103 95c-29 26-72 26-100 0l-103-95c-15-14-39-14-54 0l-103 95c-28 26-72 26-100 0l-103-95c-15-14-38-14-54 0l-57 53c-54 49-109 72-37 144z"/></g><path class="fil1" d="M7250 22009c31 0 59 12 80 32v1c20 20 33 48 33 79s-13 59-33 80c-21 20-49 33-80 33s-59-13-79-33c-21-21-33-49-33-80s12-59 33-79v-1c20-20 48-32 79-32zm59 53c-15-15-36-24-59-24s-44 9-59 24-24 36-24 59 9 44 24 59 36 25 59 25 44-10 59-25 25-36 25-59-10-44-25-59z"/><g id="_1158986304"><path class="fil1" d="M7677 22576l-151-152c-6-5-11-9-18-11-6-3-13-4-20-4s-14 1-21 4c-6 2-11 5-16 10l-1 1-152 152c-1 1-1 2-1 2-1 1-1 3-1 4s0 2 1 3c0 1 1 2 1 3l46 46 1 1 29 27h1c0 1 2 1 3 2h7c1-1 2-1 3-2l61-57c6-5 12-9 18-11 7-3 14-4 21-4s14 1 21 4c6 2 12 6 18 11l61 57c1 1 2 1 3 2h7c1-1 3-1 3-2h1l29-27 1-1 45-46c1 0 2-1 2-3 1-1 1-2 1-3s0-2-1-3c0-1-1-2-2-3zm-132-171l152 152c3 3 6 7 7 11 2 5 3 9 3 14s-1 9-3 14c-1 3-3 6-5 8v1l-2 3-46 45-1 1-22 21-8 7c-3 3-7 6-12 7-4 2-9 3-13 3-5 0-9-1-14-3-4-1-8-4-12-7l-5-5-56-52c-2-2-6-4-9-6-3-1-7-2-11-2s-8 1-11 2c-3 2-7 4-9 6l-62 57c-3 3-7 6-11 7-5 2-9 3-14 3-4 0-9-1-13-3-5-1-9-4-12-7l-6-5-24-23-1-1-46-46c-3-3-6-7-8-11-1-5-2-10-2-14 0-5 1-10 2-14 2-4 5-8 8-12l151-151 8-7c6-4 12-8 19-10 10-5 20-7 31-7 20 0 41 8 57 24z"/><path class="fil1" d="M7212 22755l238 237c5 5 11 9 17 12 7 2 14 4 21 4s14-2 20-4c7-3 13-7 18-12l237-237 1-1c11-11 15-18 15-24 0-5-3-10-8-15-2-2-4-3-6-5-3-3-5-4-6-6-1-1-3-2-7-6-2-1-4-3-7-6l-37-35c-1-1-2-2-3-2s-2-1-3-1c-2 0-3 1-4 1s-2 1-3 2l-7 7-54 49v1c-6 4-12 8-18 11-7 2-14 4-21 4s-14-2-21-4c-7-3-13-7-18-11v-1l-51-47-10-9c-1-1-2-2-3-2-2 0-3-1-4-1s-3 1-4 1-2 1-3 2l-58 53v1l-3 3c-5 5-11 8-18 11-7 2-14 4-21 4s-14-2-21-4c-6-3-12-7-18-11v-1l-54-49-7-7c-1-1-2-2-3-2s-2-1-4-1c-1 0-2 1-3 1s-2 1-3 2l-34 32c-5 3-8 7-12 10l-3 3c-3 2-6 5-8 6-2 2-5 4-7 6l-1 1c-4 5-7 10-7 14 0 6 5 14 16 26zm218 256l-237-237c-17-17-25-31-25-44 0-9 3-17 8-25h-1l10-10c2-2 5-5 8-7 3-3 6-5 8-7l6-6c3-2 6-4 8-6l34-32c4-3 8-6 12-7 4-2 9-3 13-3 5 0 10 1 14 3 4 1 8 4 12 7l3 3 58 54c3 2 6 4 9 5 4 2 7 2 11 2s8 0 11-2c4-1 7-3 10-6l7-6 54-50c3-3 7-6 11-7 5-2 9-3 14-3s9 1 14 3c4 1 8 4 11 7l3 3 58 54c3 2 6 4 10 5 3 2 7 2 11 2s7 0 11-2c3-1 6-3 9-5l58-54 3-3c4-3 8-6 12-7 4-2 9-3 14-3 4 0 9 1 13 3 4 1 8 4 12 7l37 35c4 4 9 8 13 12v-1 1c5 4 10 8 13 12 11 10 18 21 17 34 0 11-6 24-20 39h1l-6 5-237 237-3 3c-7 7-15 12-23 15-10 4-21 6-31 6-11 0-21-2-31-6s-19-10-27-18z"/></g><path class="fil1" d="M12130 10018c125 0 238 51 319 132l1 1c81 81 132 194 132 319s-51 238-132 319v1c-82 81-195 132-320 132s-238-51-320-132c-81-82-132-195-132-320s51-238 132-320h1c81-81 194-132 319-132zm244 208c-63-62-149-101-244-101s-181 39-244 101c-62 63-101 149-101 244s39 181 101 244c63 62 149 101 244 101s181-39 244-101c62-63 101-149 101-244s-39-182-101-244z"/><path id="Plus_01" class="fil1" d="M12184 10241v175h175v108h-175v175h-108v-175h-175v-108h175v-175z"/><path class="fil1" d="M10426 11888v-248h432v248h157v848H9828v-848h598zm482 107h-973v633h973v-633zm-375-133h218v-115h-218v115z"/><g id="_1158973600"><path class="fil1" d="M10056 9286c221 58 384 260 384 500 0 285-231 517-517 517s-517-232-517-517c0-240 163-442 384-500l9 104c-169 53-291 210-291 396 0 229 186 414 415 414s415-185 415-414c0-186-122-343-291-396l9-104z"/><path class="fil1" d="M10043 9443c109 38 195 127 228 239h-110c-25-57-71-104-127-131l9-108zm-231 108c-73 35-127 102-143 183h613c3 17 4 34 4 52 0 200-163 363-363 363-165 0-303-110-348-260h110c40 92 132 156 238 156 125 0 230-89 254-208h-613c-3-16-4-34-4-51 0-159 101-294 243-343l9 108z"/><path class="fil3" d="M9841 9277l34 405M10005 9277l-34 405"/><path class="fil1" d="M10005 9275c-27-4-54-7-82-7s-55 3-82 7l34 407h96l34-407z"/></g><g id="_1159001792"><path class="fil1" d="M14492 21588h224v107h-224zM14769 21588h224v107h-224zM15056 21588h224v107h-224z"/></g><path class="fil1" d="M1361 18234h682v107h-682zM2148 18234h510v107h-510zM1324 18510h1388v107H1324zM1688 14926h660v107h-660zM1830 15616c119 19 240 105 392 217 90 66 223 115 290 233-14-150-54-275-117-365-33-48-73-86-118-113s-95-42-151-46c-86-6-186 18-296 74zm188 2282h-641l-11-30c-41-106-70-224-90-355-19-129-28-271-27-425 0-112 35-216 94-302 59-87 144-156 243-196 25-15 54-29 85-41 29-11 61-21 95-29 7-6 14-12 20-19l1-1c-29-25-56-53-81-85-76-97-130-226-130-367s43-270 113-368c4-6 9-12 13-17 20-26 42-49 66-70v1c119-110 252-151 364-144 70 5 135 25 192 59 56 34 106 81 147 140 103 149 153 376 135 653l-90 9c-18-61-40-115-65-165-18 102-63 195-121 269-25 32-52 60-81 85l1 1c6 7 13 13 20 19 34 8 66 18 95 29 31 12 60 26 85 41 99 40 184 109 243 196 59 86 93 190 94 302 1 154-8 296-27 425-20 131-49 249-90 355l-11 30h-641zm-253-2166c-60 82-97 193-97 316 0 120 46 228 111 311 25 32 53 60 82 83l13 9c25 19 51 33 76 43 19 7 37 11 54 13h9l1 1h8l1-1h9c17-2 35-6 53-13 26-10 52-24 77-43l13-9c29-23 57-51 82-83 65-83 110-191 110-311v-34c-67-14-146-68-199-107-181-133-317-181-403-175zm-95 917l1 1 1 2 2 2v2l2 2v1l2 3 1 1 2 3 2 3 3 5 1 2 1 2 1 1 2 3v1l2 3 3 3v1l4 6 1 2 1 1 2 3v1l4 5 1 1 2 3 1 1 1 3 1 1 1 2 2 2 1 1 1 3h1l2 3v1l2 3h1l2 3v1l2 2 1 2 1 1 2 2 1 1 2 3v1l2 3 3 3 2 3 1 1 1 2 2 2 1 1 1 2 1 1 2 3 3 3v1l2 2 1 1 1 2 1 2 2 1 1 2 1 1 2 3h1l2 3 3 3v1l2 2 1 1 1 2 2 2 1 1 2 2v1l2 3h1l2 3 3 3 2 3 1 1 2 2 1 1 1 1 2 3h1l2 3 3 3 2 3 1 1 2 2 1 1 2 1 1 2 1 1 2 2 1 1 2 3c184 89 222 85 398 0l2-3 1-1 2-2 1-1 1-2 2-1 1-1 2-2v-1l3-3 3-3 2-3h1l3-4 1-1 2-2 1-1 2-3 3-3 2-3 3-3v-1l2-2 1-1 2-2 1-2 1-1 2-2v-1l3-3 2-3h1l2-3 1-1 1-2 1-1 2-2 1-2 1-1 2-2v-1l3-3 2-3 1-1 1-2 1-1 2-2 1-2 1-1 2-3 3-3 2-3v-1l2-3 1-1 2-2 1-1 1-2 2-2v-1l2-3h1l2-3v-1l2-3h1l1-3 1-1 2-2 1-2 1-1 1-3 1-1 2-3 2-3h1l2-3v-1l2-3 1-1 1-2 1-2 1-1 2-3v-1l2-3 3-3v-1l2-3 1-1 1-2 1-2 1-1 2-3v-1l2-3 2-3 1-1 1-3 1-1 2-2v-2l2-2 1-2 1-1c-11-5-22-10-34-14v-1c-27-10-58-19-91-27l-13-5c-19-12-35-26-49-43-1-2-3-4-5-6-18 11-37 20-56 27-26 10-51 16-76 18l-4 1h-12l-3 1h-10l-3-1h-12l-4-1c-25-2-50-8-76-18-19-7-38-16-56-27-2 2-4 4-5 6-14 17-30 31-50 43l-12 5c-33 8-64 17-91 27v1c-12 4-23 9-34 14zm-229 1157h1154c33-92 57-194 74-306 18-126 27-263 26-411 0-93-29-179-78-251-43-62-101-114-169-148l-2 4-3 4-2 4-2 3-1 2-2 2-1 2-1 2-1 2-1 2-2 3-3 3v1l-2 4-3 3v1l-2 3-1 2-1 2-2 2-1 1-1 3-1 1-2 3-1 1-2 3-2 4h-1l-2 4v1l-2 2-1 2-2 2-1 2-1 1-2 3-1 1-2 3v1l-3 3-2 4h-1l-2 3v1l-2 3-1 1-2 2-1 2-1 2-2 2-1 1-2 3v1l-3 3-3 3v1l-2 3-1 1-2 2-1 2-1 2-2 2-1 1-2 3h-1l-2 3v1l-3 3-3 3v1l-2 3-1 1-2 2-1 2-2 1-1 2-1 2-2 2-1 1-3 3-2 3-1 1-2 3h-1l-2 3-1 1-2 2-1 2-1 1-2 2-1 1-3 3v1l-3 3-3 3-2 3-1 1-2 2-1 1-2 2-2 2-1 1-2 3h-1l-2 3-1 1-3 3c-242 91-293 96-530 0l-3-3-1-1-2-3h-1l-2-3-1-1-2-2-2-2-1-1-2-2-1-1-2-3-3-3-3-3v-1l-3-3-1-1-2-2-1-1-1-2-2-2-1-1-2-3h-1l-2-3-1-1-2-3-3-3-1-1-2-2-1-2-1-2-2-1-1-2-2-2-1-1-2-3v-1l-3-3-3-3v-1l-2-3h-1l-2-3-1-1-2-2-1-2-1-2-2-2-1-1-2-3v-1l-3-3-3-3v-1l-2-3-1-1-2-2-1-2-1-2-2-2-1-1-2-3v-1l-3-3-2-4-3-3v-1l-2-3-1-1-2-3-1-1-1-2-2-2-1-2-2-3-2-4h-1l-2-4-2-3-1-1-2-3-1-1-1-3-1-1-2-2-1-2-1-2-2-3v-1l-3-3-2-4-3-4-2-3-1-2-1-2-1-2-2-2-1-2-1-2-2-3-2-4-3-4-2-4c-68 34-127 86-169 148-49 72-78 158-78 251-1 148 8 285 26 411 17 112 41 214 74 306z"/><path class="fil1" d="M1773 19525v-255h-414c-144 0-275-58-370-153-94-95-153-226-153-370v-3512c0-144 59-275 153-370 95-94 226-153 370-153h1318c144 0 275 59 370 153 94 95 153 226 153 370v3512c0 144-59 275-153 370-95 95-226 153-370 153h-414v295h-490v-40zm340-632c7 5 13 10 19 16 29 29 47 70 47 114 0 45-18 85-47 114-10 10-22 19-34 26h579c114 0 218-47 294-122 75-75 122-179 122-294v-3512c0-114-47-218-122-294-76-75-180-122-294-122H1359c-114 0-218 47-294 122-75 76-122 180-122 294v3512c0 115 47 219 122 294 76 75 180 122 294 122h579c-12-7-24-16-34-26-29-29-47-69-47-114 0-44 18-85 47-114 6-6 12-11 19-16h-789c-37 0-70-15-94-39h-1v-1c-24-24-39-57-39-94v-3480c0-37 15-70 39-95 25-24 58-39 95-39h1768c37 0 70 15 95 39 24 25 39 58 39 95v3480c0 37-15 70-39 95-25 24-58 39-95 39h-789zm-27 62c-18-17-42-28-68-28s-50 11-68 28c-17 18-28 42-28 68 0 27 11 51 28 68 18 17 42 28 68 28s50-11 68-28c17-17 28-41 28-68 0-26-11-50-28-68zm816-3703H1134c-7 0-14 3-19 8s-8 12-8 19v3480c0 7 3 14 8 19s12 8 19 8h1768c7 0 14-3 19-8s8-12 8-19v-3480c0-7-3-14-8-19s-12-8-19-8zm-720 4018h-328v215h328v-215zM13947 978h1318c144 0 275 59 370 153 94 95 153 226 153 370v3512c0 144-59 275-153 370-95 95-226 153-370 153h-414v295h-490v-295h-414c-144 0-275-58-370-153-94-95-153-226-153-370V1501c0-144 59-275 153-370 95-94 226-153 370-153zm823 4558h-328v215h328v-215zm-69-377c7 5 13 10 19 16 29 29 47 70 47 114s-18 85-47 114c-10 10-22 19-34 26h579c114 0 218-47 294-122 75-75 122-179 122-294V1501c0-115-47-219-122-294-76-75-180-122-294-122h-1318c-114 0-218 47-294 122-75 75-122 179-122 294v3512c0 115 47 219 122 294 76 75 180 122 294 122h579c-12-7-24-16-34-26-29-29-47-70-47-114s18-85 47-114c6-6 12-11 19-16h190zm-27 62c-18-17-42-28-68-28s-50 11-68 28c-17 18-28 42-28 68 0 27 11 50 28 68 18 17 42 28 68 28s50-11 68-28c17-18 28-41 28-68 0-26-11-50-28-68z"/><path class="fil1" d="M13722 1411h1768c37 0 70 15 95 39 24 25 39 58 39 95v3480c0 37-15 70-39 95v-1c-25 25-58 40-95 40h-1768c-37 0-70-15-94-39l-1-1c-24-24-39-57-39-94V1545c0-37 15-70 39-95 25-24 58-39 95-39zm1768 107h-1768c-7 0-14 3-19 8s-8 12-8 19v3480c0 7 3 14 8 19s12 8 19 8h1768c7 0 14-3 19-8s8-12 8-19V1545c0-7-3-14-8-19s-12-8-19-8z"/><path class="fil1" d="M13949 3826h682v107h-682zM14736 3826h510v107h-510zM13912 4102h1388v107h-1388zM14276 1192h660v107h-660zM14800 2131c323 86 560 379 560 729 0 416-338 753-754 753s-754-337-754-753c0-350 238-644 560-729l13 152c-246 76-424 306-424 577 0 333 271 604 605 604s605-271 605-604c0-271-178-500-423-577l12-152z"/><path class="fil1" d="M14781 2360c159 56 284 186 332 348h-161c-36-83-102-151-184-190l13-158zm-336 158c-106 50-185 148-209 266h894c3 25 5 50 5 76 0 292-237 529-529 529-240 0-442-160-507-378h161c58 133 191 226 346 226 183 0 335-129 370-302h-894c-3-25-5-50-5-75 0-231 148-428 354-500l14 158z"/><path class="fil3" d="M14487 2118l49 590M14726 2118l-49 590"/><path id="CS_bit" class="fil1 pulse" d="M14726 2115c-39-6-79-9-120-9s-80 3-119 9l49 593h141l49-593z"/><g id="_1247387936"><path class="fil1" d="M4759 23585l-255-255c-44-44-116-44-161 0l-254 255c-15 14-15 38 0 53l77 77 51 48c16 14 39 14 54 0l103-95c28-26 72-26 100 0l103 95c15 14 39 14 54 0l51-48 77-76c15-15 15-39 0-54z"/><path class="fil1" d="M3943 23890l400 400c44 44 117 44 161 0l400-400c69-69 20-90-30-138l-63-59c-15-15-39-14-54 0l-103 95c-28 26-72 26-100 0l-103-95c-15-14-39-14-54 0l-103 95c-28 26-71 26-100 0l-103-95c-15-14-38-14-53 0l-58 53c-53 49-109 72-37 144z"/></g><g id="_1247402848"><path class="fil1" d="M9537 14321l-921-921c-31-31-67-55-105-71-40-16-82-24-125-24s-86 8-126 24c-34 15-67 35-96 62l-9 9-919 919-4 4c-3 4-6 8-8 13-2 6-4 13-4 21 0 7 2 14 4 20 3 6 7 12 12 17l279 279 6 6 176 164h1c6 5 12 9 19 12 7 2 14 4 22 4 7 0 15-2 22-4 6-3 13-7 19-12l371-343c33-31 70-54 109-69 41-17 85-25 128-25 42 0 86 8 126 25 40 15 77 38 110 69l371 343h1c5 5 12 9 18 12 7 2 15 4 22 4 8 0 15-2 22-4 7-3 13-7 19-12l177-164 6-6 277-277c5-5 9-11 12-17 2-6 4-13 4-20 0-8-2-15-4-21-3-6-6-12-12-17zm-803-1039l921 921c20 21 36 45 47 72s17 55 17 84c0 28-6 56-17 83-7 18-17 35-29 51v3l-18 18-277 277-5 4-137 126-46 43c-22 20-46 35-71 45-27 11-55 16-83 16-27 0-56-5-82-16-26-10-50-25-71-45l-34-31-337-312c-17-16-37-28-58-36s-44-12-66-12c-23 0-46 4-67 12s-41 20-58 36l-371 343c-21 20-46 35-71 45-27 11-55 16-82 16-28 0-56-5-83-16-25-10-49-25-71-45l-33-31-150-138-5-4-279-279c-20-21-36-45-47-71-11-28-17-56-17-84s6-57 17-84c11-26 27-50 48-71h-1l920-920 43-43 3 3c35-27 73-49 113-66 61-25 125-37 189-37 126 0 252 48 348 143z"/><path class="fil1" d="M6712 15407l1443 1443c31 31 67 55 105 70 40 17 83 25 126 25s85-8 125-25c38-15 74-39 105-70l1443-1443 7-7c63-64 89-109 91-143 2-29-19-58-51-90-11-11-22-22-34-32-18-17-29-26-39-35h-1c-6-5-14-12-39-35v1c-12-12-26-24-42-39l-226-214c-5-5-11-9-18-12-6-2-14-4-21-4-8 0-16 2-23 4-7 3-13 7-19 13l-43 40v-1l-328 304c-33 30-70 53-110 69-41 16-84 24-127 24s-86-8-127-24c-39-16-76-39-109-69l-312-288-59-56c-6-5-13-9-20-11-6-3-14-4-21-4-8 0-16 1-23 4-6 2-13 6-18 11l-352 325v1l-20 18c-32 30-70 53-109 69-41 16-84 24-127 24s-86-8-127-24c-40-16-77-39-110-69l-328-304-43-40c-5-5-12-9-19-11-7-3-14-4-22-4s-15 1-22 4c-7 2-13 6-19 11l-208 193c-25 23-48 42-69 60v1l-22 18c-18 16-35 30-47 40-14 12-27 25-39 37l-6 5c-28 29-46 57-45 86 2 38 31 86 99 154zm1326 1561l-1444-1444c-105-105-148-191-150-268-2-56 17-104 48-149l-5-2 59-60c15-15 31-29 48-44 19-17 35-30 50-43l39-33c15-13 31-27 46-41l208-192c21-20 45-35 71-45s54-16 82-16 56 6 82 16 50 25 71 45l20 18 352 325c17 16 36 28 57 36 21 9 44 13 67 13s45-4 66-13c21-8 41-20 58-36l43-40 328-303c22-20 46-35 71-45 27-10 55-16 83-16 27 0 55 6 82 16 25 10 50 25 71 45l20 18 351 325c17 16 37 28 57 36 22 9 44 13 67 13s46-4 67-13c21-8 41-20 58-36l351-325 20-18c21-20 45-35 71-45 27-11 55-16 83-16 27 0 55 6 82 16 26 10 50 26 71 46l227 214c26 25 51 47 75 68l4 3c29 26 58 51 79 72 63 63 105 127 103 208-2 69-37 144-120 234l1 1-31 31-1443 1444-18 17h-2c-42 38-89 68-140 89-60 25-125 37-188 37-64 0-128-12-189-37-58-24-112-60-159-106z"/></g><path class="fil0 str0" d="M2020 19521v560c0 303 247 551 550 551h2020c303 0 550-248 550-551v-1714c0-165 65-307 190-416l2103-1823M14607 5791v2683c0 303-247 550-550 550h-2385c-128 0-238-38-339-117L8590 6757c-137-108-210-258-210-433V4822c0-303-248-550-551-550H6266"/><g id="Links"><path class="fil0 str1 path" d="M6849 21261l-2148 2266M7295 22224l104 212M11886 12719l699 207M10644 17777l-243 862m-401 397l-992 273M15595 20034l-656-542m-236 83l-131 632m-278 156l-3676-1304M10530 17242l-941-1130M10903 17225l2547-3746M12749 13297l-1878 3908M9248 13797c179-181 833-844 1026-1061"/><g><path class="fil0 str1 path" d="M13915 12244l-779 583M14469 12047l89-103m-50-62l-122 64M12483 10752l1437 1150M1387 21789l466 448m-6 423l-219 201M4619 13049l-2488 1663m-151 0l-588-2231"/><path class="fil0 str1" d="M2020 19565l-746 1688"/><path class="fil0 str1 path" d="M10404 9976l1293 364M7413 9562l2415 2329M12933 7766l-2497 1950M7523 9452l1884 291M9934 10303l-66 1604"/><g><path class="fil0 str1 path" d="M8978 2653c110 47 362 156 451 199M7359 8887l1972-5260M6914 3438l1448-716M6549 3610l-293 129M10444 3335c428 0 2980-1 2980-1M6956 8899l-976-3372M14572 5831l-1147 1428M4732 7834l-748-1892"/></g></g></g><path id="Center_01" class="fil2 pulse" d="M1427 22945c55 0 99 44 99 99 0 54-44 98-99 98-54 0-98-44-98-98 0-55 44-99 98-99z"/></g></svg>