<?xml version="1.0" encoding="UTF-8"?>
<!DOCTYPE svg PUBLIC "-//W3C//DTD SVG 1.1//EN" "http://www.w3.org/Graphics/SVG/1.1/DTD/svg11.dtd">
<!-- Creator: CorelDRAW X7 -->
<svg xmlns="http://www.w3.org/2000/svg" xml:space="preserve" width="4.16667in" height="6.58333in" version="1.1" style="shape-rendering:geometricPrecision; text-rendering:geometricPrecision; image-rendering:optimizeQuality; fill-rule:evenodd; clip-rule:evenodd"
viewBox="0 0 16771 26498"
 xmlns:xlink="http://www.w3.org/1999/xlink">
 <defs>
  <style type="text/css">
   <![CDATA[
    .str0 {stroke:#D8D8E8;stroke-width:80.4829}
    .str1 {stroke:#CCCCFF;stroke-width:27.9527}
    .fil0 {fill:none}
    .fil3 {fill:none}
    .fil2 {fill:#000066;fill-opacity:0.149020}
    .fil1 {fill:#000066;fill-rule:nonzero;fill-opacity:0.149020}
	
	.path {
	  stroke-dasharray: 500;
	  stroke-dashoffset: 1000;
	  animation: dash 88s infinite linear forwards;
	}

	@keyframes dash {
		to {
		stroke-dashoffset: 99999;
		}
	}
	
	.rotate {
	  animation: rotating 20s infinite;
      transform-origin: 50% 50%;
	}
	
	@-webkit-keyframes rotating /* Safari and Chrome */ {
	  from {
		-ms-transform: rotate(0deg);
		-moz-transform: rotate(0deg);
		-webkit-transform: rotate(0deg);
		-o-transform: rotate(0deg);
		transform: rotate(0deg);
	  }
	  to {
		-ms-transform: rotate(360deg);
		-moz-transform: rotate(360deg);
		-webkit-transform: rotate(360deg);
		-o-transform: rotate(360deg);
		transform: rotate(360deg);
	  }
	}
	@keyframes rotating {
	  from {
		-ms-transform: rotate(0deg);
		-moz-transform: rotate(0deg);
		-webkit-transform: rotate(0deg);
		-o-transform: rotate(0deg);
		transform: rotate(0deg);
	  }
	  to {
		-ms-transform: rotate(360deg);
		-moz-transform: rotate(360deg);
		-webkit-transform: rotate(360deg);
		-o-transform: rotate(360deg);
		transform: rotate(360deg);
	  }
	}
	.rotating {
	  -webkit-animation: rotating 2s linear infinite;
	  -moz-animation: rotating 2s linear infinite;
	  -ms-animation: rotating 2s linear infinite;
	  -o-animation: rotating 2s linear infinite;
	  animation: rotating 2s linear infinite;
	}
	
	.rotate-rev {
	  animation: rotating-rev 20s infinite;
      transform-origin: 50% 50%;
	}
	
	@-webkit-keyframes rotating-rev /* Safari and Chrome */ {
	  from {
		-ms-transform: rotate(360deg);
		-moz-transform: rotate(360deg);
		-webkit-transform: rotate(360deg);
		-o-transform: rotate(360deg);
		transform: rotate(360deg);
	  }
	  to {
		-ms-transform: rotate(0deg);
		-moz-transform: rotate(0deg);
		-webkit-transform: rotate(0deg);
		-o-transform: rotate(0deg);
		transform: rotate(0deg);
	  }
	}
	@keyframes rotating {
	  from {
		-ms-transform: rotate(360deg);
		-moz-transform: rotate(360deg);
		-webkit-transform: rotate(360deg);
		-o-transform: rotate(360deg);
		transform: rotate(360deg);
	  }
	  to {
		-ms-transform: rotate(0deg);
		-moz-transform: rotate(0deg);
		-webkit-transform: rotate(0deg);
		-o-transform: rotate(0deg);
		transform: rotate(0deg);
	  }
	}
	.rotating {
	  -webkit-animation: rotating 2s linear infinite;
	  -moz-animation: rotating 2s linear infinite;
	  -ms-animation: rotating 2s linear infinite;
	  -o-animation: rotating 2s linear infinite;
	  animation: rotating 2s linear infinite;
	}
	
   ]]>
  </style>
 </defs>
 <g id="Layer_x0020_1">
  <metadata id="CorelCorpID_0Corel-Layer"/>
  <rect class="fil0" width="16771" height="26498"/>
  <path id="Cog_01" class="fil1 rotate" d="M2891 4008l-32 -208c-4,-31 -2,-61 7,-89l0 0c9,-29 25,-54 47,-77 22,-22 48,-39 76,-48l0 0c28,-10 58,-13 89,-9l0 0 218 30 0 0c21,2 40,-2 57,-11 16,-10 29,-25 37,-45l76 -195c12,-29 29,-54 51,-74 22,-20 49,-35 79,-43 31,-8 61,-10 90,-4 29,6 56,18 82,38l173 134c17,12 36,19 55,18 19,0 38,-6 54,-19l164 -131c25,-20 52,-33 81,-39 29,-6 59,-5 90,2 30,8 57,22 80,42 22,19 40,44 52,73l83 203c8,19 21,34 38,43 16,10 36,14 57,10l207 -31c31,-5 62,-2 90,7 28,9 54,25 76,47 23,22 39,48 49,76l0 0c9,28 12,58 8,89l0 0 -29 218c-3,20 1,40 11,57 10,16 25,29 44,37l196 76c29,12 54,29 74,51 20,22 34,49 42,79 9,30 10,61 4,90 -5,29 -18,56 -37,81l-134 174c-13,17 -19,36 -19,55 0,19 7,38 20,54l131 164c19,25 32,52 39,81 6,29 5,59 -3,90 -8,30 -22,57 -41,80l0 0c-20,22 -45,39 -74,51l-202 84c-20,8 -35,21 -44,38 -9,16 -13,36 -10,57l31 207c5,31 3,61 -7,90l0 0c-9,28 -25,54 -47,76 -22,23 -47,39 -75,49l-1 0c-27,9 -57,12 -89,8l0 0 -217 -29 0 0c-21,-3 -41,1 -57,11 -16,9 -29,25 -37,44l-77 195c-11,30 -28,55 -50,75 -22,19 -49,34 -79,42 -31,9 -61,10 -90,4 -29,-5 -57,-18 -82,-37l-174 -134c-16,-13 -35,-19 -54,-19 -19,0 -38,7 -54,20l-165 131c-24,19 -51,32 -81,38 -28,7 -59,6 -89,-2 -31,-8 -57,-22 -80,-41l0 0c-22,-20 -40,-44 -52,-74l-83 -203c-8,-19 -22,-34 -38,-43 -17,-9 -36,-13 -57,-10l-208 31c-31,5 -61,2 -89,-7l0 0c-28,-9 -54,-25 -77,-47 -22,-22 -39,-47 -48,-75l0 -1c-10,-28 -13,-58 -8,-89l0 0 29 -217 0 0c3,-21 -2,-41 -11,-57 -10,-16 -25,-30 -44,-37l-196 -77c-29,-11 -54,-29 -74,-51 -20,-22 -34,-48 -43,-79 -8,-30 -9,-60 -4,-89 6,-29 19,-57 38,-82l134 -174c12,-16 19,-35 19,-54 -1,-19 -7,-38 -20,-55l-131 -164c-20,-24 -33,-52 -39,-81 -6,-29 -5,-59 3,-89 7,-31 22,-58 41,-80l0 0c19,-22 44,-40 73,-52l203 -83c19,-8 34,-22 44,-38 9,-17 13,-37 10,-57zm74 -224l32 208c6,45 -2,88 -23,125 -21,37 -54,67 -96,85l-203 83c-13,5 -24,13 -33,23l0 0c-9,10 -15,22 -19,36 -3,14 -4,28 -1,41 3,13 9,25 18,37l131 164c28,35 42,77 42,120 1,42 -13,85 -41,121l-133 173c-9,12 -15,24 -18,37 -2,13 -1,27 2,41 4,14 11,26 20,36 8,9 20,17 33,22l196 77c42,17 75,46 97,83 21,36 31,80 25,125l0 0 -29 217 0 0c-2,15 -1,28 3,41l0 0c5,12 12,24 22,34 11,10 22,17 35,21l0 0c12,4 26,5 40,3l208 -31c45,-7 89,2 126,23 36,21 66,54 84,96l83 203c6,13 13,24 23,33l0 0c10,8 22,15 37,18 14,4 27,4 40,2 13,-3 25,-9 37,-18l164 -131c35,-28 77,-43 120,-43 42,0 85,13 121,41l174 134c11,9 23,15 36,17 13,3 27,2 41,-2 14,-4 26,-10 36,-19 10,-9 17,-20 23,-34l76 -195c17,-42 46,-76 83,-97 36,-22 80,-31 125,-25l0 0 217 29 0 0c15,2 28,1 41,-4l0 0c12,-4 24,-11 34,-22 10,-10 18,-22 22,-34l0 0c4,-13 5,-26 2,-41l-31 -207c-7,-45 2,-89 23,-126 21,-37 54,-67 96,-84l203 -84c13,-5 24,-13 33,-23l0 0c9,-10 15,-22 19,-36 3,-14 4,-28 1,-41 -3,-12 -9,-25 -18,-36l-131 -164c-28,-36 -42,-78 -43,-120 0,-43 14,-85 41,-121l134 -174c9,-11 15,-24 17,-37 3,-13 2,-27 -2,-40 -4,-14 -10,-27 -19,-36 -9,-10 -20,-18 -33,-23l-196 -77c-42,-16 -76,-46 -97,-82 -22,-37 -31,-81 -25,-125l29 -218 0 0c2,-14 1,-28 -4,-40l0 -1c-4,-12 -11,-23 -22,-34 -10,-10 -22,-17 -34,-21 -12,-4 -26,-5 -41,-3l-207 32c-45,6 -89,-2 -126,-23 -37,-21 -67,-54 -84,-96l-83 -203c-6,-14 -14,-25 -24,-34 -10,-8 -22,-14 -36,-18 -14,-4 -28,-4 -41,-1 -12,2 -25,8 -36,18l-164 130c-36,29 -78,43 -120,43 -43,1 -85,-13 -121,-41l-174 -134c-11,-8 -24,-14 -37,-17 -13,-2 -26,-2 -40,2 -14,4 -26,11 -36,19 -10,9 -18,20 -23,34l-76 195c-17,43 -47,76 -83,98 -37,21 -80,31 -125,25l0 0 -218 -29 0 0c-14,-2 -28,-1 -40,3l0 0c-13,4 -24,12 -34,22 -11,10 -18,22 -22,35l0 0c-4,12 -5,26 -3,40z"/>
  <path class="fil1" d="M3992 4241c129,0 247,52 332,137l0 1c85,85 138,202 138,332 0,129 -53,247 -138,332l0 0c-85,85 -202,138 -332,138 -130,0 -247,-53 -332,-138 -85,-85 -138,-203 -138,-332 0,-130 53,-248 138,-333l0 0c85,-85 202,-137 332,-137zm253 216c-64,-65 -154,-105 -253,-105 -99,0 -189,40 -254,105l0 0c-64,65 -104,155 -104,254 0,99 40,188 104,253 65,65 155,105 254,105 99,0 188,-40 253,-105l0 0c65,-65 105,-154 105,-253 0,-99 -40,-189 -105,-254z"/>
  <path id="Cog_02" class="fil1 rotate-rev" d="M4535 2631l-83 -192 -22 -49 53 -7 213 -27 23 -208 6 -54 49 21 198 82 124 -168 32 -43 33 42 130 171 192 -84 48 -22 7 53 28 213 208 23 53 6 -20 49 -83 198 169 124 43 32 -43 33 -170 130 84 192 21 49 -53 7 -212 27 -24 208 -6 53 -49 -20 -198 -83 -124 169 -32 43 -32 -43 -130 -170 -192 84 -49 21 -7 -53 -28 -212 -208 -24 -53 -6 21 -49 82 -198 -168 -124 -43 -32 42 -32 170 -130zm11 -175l75 172 13 28 -25 20 -153 116 151 111 26 19 -13 29 -74 178 187 21 31 3 4 31 25 191 171 -75 29 -13 19 25 117 153 111 -151 19 -25 29 12 177 74 21 -186 4 -32 31 -4 191 -24 -75 -172 -13 -29 25 -19 153 -117 -151 -111 -25 -19 12 -29 74 -177 -186 -21 -32 -3 -4 -32 -24 -190 -172 75 -29 12 -19 -25 -117 -152 -111 150 -19 26 -29 -12 -177 -74 -21 186 -4 31 -31 4 -191 25z"/>
  <path class="fil1" d="M5129 2547c68,0 129,27 174,72l0 0c44,44 72,106 72,173 0,68 -28,129 -72,174l0 0c-45,44 -106,72 -174,72 -68,0 -129,-28 -173,-72 -45,-45 -72,-106 -72,-174 0,-67 27,-129 72,-173l0 0c44,-45 105,-72 173,-72zm117 129c-30,-30 -71,-49 -117,-49 -45,0 -87,19 -117,49l0 0c-29,29 -48,71 -48,116 0,46 19,87 48,117 30,30 72,48 117,48 46,0 87,-18 117,-48l0 0c30,-30 48,-71 48,-117 0,-45 -18,-87 -48,-116z"/>
  <path class="fil1" d="M2189 3326c73,0 145,8 214,24 42,10 82,22 121,37 0,-7 0,-13 0,-19 0,-331 134,-630 350,-847 217,-216 516,-350 847,-350 269,0 518,89 718,239l13 29 83 192 -13 10 -30 -43c-22,-22 -44,-43 -68,-63 -190,-160 -435,-257 -703,-257 -301,0 -574,122 -771,319 -197,197 -319,470 -319,771 0,19 0,35 1,49 1,17 2,33 3,48l9 95 -85 -42c-57,-27 -117,-49 -180,-63 -61,-14 -124,-22 -190,-22 -233,0 -444,95 -596,248 -153,152 -248,363 -248,596 0,39 3,77 8,113l0 0c3,24 7,48 12,71l929 0 243 0c6,9 12,19 19,27l64 80 -326 0 -970 0 -41 0 -11 -39c-11,-41 -20,-83 -25,-125l0 0c-6,-42 -9,-85 -9,-127 0,-262 107,-500 279,-672 172,-172 410,-279 672,-279zm3354 79c6,-1 11,-1 17,-2l0 0c22,-2 45,-3 67,-3 208,0 396,84 532,220 136,136 220,324 220,531 0,71 -10,139 -28,204 -19,67 -47,130 -82,188l-16 25 -30 0 -491 0 -365 0 63 -82c6,-8 12,-16 17,-25l285 0 461 0c23,-42 41,-88 55,-135 15,-55 24,-114 24,-175 0,-177 -73,-339 -189,-455 -117,-117 -278,-189 -456,-189 -19,0 -39,1 -57,3l-1 -1c-19,2 -38,5 -56,8l-34 6 -19 -27c-13,-17 -26,-34 -40,-50l3 -2 61 26 49 20 6 -53 4 -32z"/>
  <polygon class="fil1" points="2077,2534 2077,2638 2181,2638 2181,2702 2077,2702 2077,2807 2013,2807 2013,2702 1909,2702 1909,2638 2013,2638 2013,2534 "/>
  <polygon class="fil1" points="5801,5419 6128,5419 6128,5527 5801,5527 "/>
  <polygon class="fil1" points="5180,6019 5303,6019 5303,6127 5180,6127 "/>
  <polygon class="fil1" points="5532,5140 5761,5140 5761,5247 5532,5247 "/>
  <polygon class="fil1" points="6091,5140 7131,5140 7131,5247 6091,5247 "/>
  <g id="_1159005536">
   <polygon class="fil1" points="5094,5419 5648,5419 5648,5527 5110,5527 "/>
   <polygon class="fil1" points="5328,4808 5688,4808 5688,4915 5414,4915 "/>
  </g>
  <path class="fil1" d="M6739 3338c56,0 107,23 144,59l0 0c36,37 59,88 59,144 0,56 -23,107 -59,143l0 0c-37,37 -88,60 -144,60 -56,0 -106,-23 -143,-60l0 0c-37,-36 -60,-87 -60,-143 0,-56 23,-107 60,-144l0 0c37,-36 87,-59 143,-59zm51 152c-13,-13 -31,-21 -51,-21 -19,0 -37,8 -50,21 -13,13 -21,31 -21,51 0,20 8,38 21,50 13,13 31,21 50,21 20,0 38,-8 51,-21 13,-12 21,-30 21,-50 0,-20 -8,-38 -21,-51z"/>
  <path class="fil1" d="M4364 1714c28,0 54,12 72,30l0 0c18,18 30,44 30,72 0,28 -12,53 -30,71l0 0c-18,19 -44,30 -72,30 -28,0 -53,-11 -71,-30l0 0c-19,-18 -30,-43 -30,-71 0,-28 11,-54 30,-72l0 0c18,-18 43,-30 71,-30zm26 76c-7,-6 -16,-10 -26,-10 -10,0 -19,4 -25,10 -7,7 -11,16 -11,26 0,9 4,18 11,25 6,6 15,10 25,10 10,0 19,-4 26,-10 6,-7 10,-16 10,-25 0,-10 -4,-19 -10,-26z"/>
  <path class="fil1" d="M10313 18627c89,0 170,36 229,94l0 1c58,58 95,139 95,228 0,90 -37,171 -95,229l0 0c-59,59 -140,95 -229,95 -90,0 -171,-36 -229,-95l0 0c-59,-58 -95,-139 -95,-229 0,-89 36,-170 95,-228l0 -1c58,-58 139,-94 229,-94zm170 153c-44,-43 -104,-70 -170,-70 -67,0 -127,27 -170,70 -44,44 -71,104 -71,170 0,67 27,127 71,170 43,44 103,71 170,71 66,0 126,-27 170,-71 43,-43 70,-103 70,-170 0,-66 -27,-126 -70,-170z"/>
  <path class="fil1" d="M8656 2224c92,0 176,38 237,98l0 0c61,61 98,145 98,238 0,92 -37,176 -98,237l0 0c-61,61 -145,98 -237,98 -93,0 -177,-37 -237,-98l-1 0c-60,-61 -98,-145 -98,-237 0,-93 38,-177 98,-238l1 0c60,-60 144,-98 237,-98zm136 199c-35,-35 -83,-56 -136,-56 -54,0 -102,21 -137,56 -34,35 -56,83 -56,137 0,53 22,101 56,136 35,35 83,57 137,57 53,0 101,-22 136,-57 35,-35 57,-83 57,-136 0,-54 -22,-102 -57,-137z"/>
  <path class="fil1" d="M1730 9231c50,0 96,21 130,54l0 0c33,34 54,80 54,130 0,51 -21,97 -54,130l0 0c-34,34 -80,54 -130,54 -51,0 -97,-20 -130,-54l0 0c-34,-33 -54,-79 -54,-130 0,-50 20,-96 54,-130l0 0c33,-33 79,-54 130,-54zm50 134c-13,-13 -31,-21 -50,-21 -20,0 -38,8 -51,21 -13,13 -21,30 -21,50 0,20 8,38 21,51 13,13 31,21 51,21 19,0 37,-8 50,-21 13,-13 21,-31 21,-51 0,-20 -8,-37 -21,-50z"/>
  <path class="fil2" d="M14522 20346c54,0 98,44 98,99 0,54 -44,98 -98,98 -54,0 -98,-44 -98,-98 0,-55 44,-99 98,-99z"/>
  <path class="fil1" d="M14522 20202c67,0 128,27 172,71l0 0c43,44 71,105 71,172 0,66 -28,127 -71,171l0 0c-44,44 -105,71 -172,71 -67,0 -127,-27 -171,-71l0 0c-44,-44 -71,-105 -71,-171 0,-67 27,-128 71,-172l0 0c44,-44 104,-71 171,-71zm127 115c-32,-32 -77,-52 -127,-52 -50,0 -95,20 -127,52 -33,33 -53,78 -53,128 0,49 20,94 53,127 32,32 77,52 127,52 50,0 95,-20 127,-52 33,-33 53,-78 53,-127 0,-50 -20,-95 -53,-128z"/>
  <path class="fil2" d="M14752 19206c73,0 131,59 131,131 0,73 -58,131 -131,131 -72,0 -131,-58 -131,-131 0,-72 59,-131 131,-131z"/>
  <path class="fil1" d="M14752 19095c67,0 128,27 172,71l0 0c44,44 71,104 71,171 0,67 -27,128 -71,172l0 0c-44,44 -105,71 -172,71 -66,0 -127,-27 -171,-71l0 0c-44,-44 -71,-105 -71,-172 0,-67 27,-127 71,-171l0 0c44,-44 105,-71 171,-71zm128 115c-33,-32 -78,-53 -128,-53 -49,0 -94,21 -127,53 -32,33 -52,78 -52,127 0,50 20,95 52,128 33,32 78,52 127,52 50,0 95,-20 128,-52 32,-33 52,-78 52,-128 0,-49 -20,-94 -52,-127z"/>
  <path class="fil2" d="M13619 13111c67,0 121,54 121,121 0,67 -54,121 -121,121 -67,0 -122,-54 -122,-121 0,-67 55,-121 122,-121z"/>
  <path class="fil1" d="M13407 13444c-54,-55 -88,-129 -88,-212 0,-83 34,-157 88,-211 54,-55 129,-88 212,-88 82,0 157,33 211,88 54,54 88,128 88,211 0,83 -34,157 -88,211 -54,55 -129,88 -211,88 -63,0 -121,-19 -169,-52m326 -404c-41,-40 -96,-65 -157,-65 -62,0 -117,25 -157,65 -40,40 -65,96 -65,157 0,61 25,117 65,157 40,40 95,65 157,65 61,0 116,-25 157,-65 40,-40 65,-96 65,-157 0,-61 -25,-117 -65,-157z"/>
  <path class="fil1" d="M12885 12701c87,0 165,35 222,92 56,57 91,135 91,222 0,86 -35,164 -91,221l0 0c-57,57 -135,92 -222,92 -86,0 -165,-35 -221,-92l0 0 0 0c-57,-57 -92,-135 -92,-221 0,-87 35,-165 92,-222l0 0c56,-56 135,-92 221,-92zm174 140c-44,-45 -106,-72 -174,-72 -68,0 -130,27 -174,71l0 1c-45,44 -72,106 -72,174 0,68 27,129 72,174l0 0c44,44 106,72 174,72 68,0 130,-28 174,-72l0 0c45,-45 72,-106 72,-174 0,-68 -27,-130 -72,-174z"/>
  <path class="fil1" d="M1427 22772c75,0 143,31 192,80 49,49 80,117 80,192 0,74 -31,142 -80,191 -49,49 -117,80 -192,80 -74,0 -142,-31 -191,-80 -49,-49 -80,-117 -80,-191 0,-75 31,-143 80,-192 49,-49 117,-80 191,-80z"/>
  <path id="Center_02" class="fil2" d="M1183 21454c54,0 98,44 98,98 0,54 -44,98 -98,98 -54,0 -98,-44 -98,-98 0,-54 44,-98 98,-98z"/>
  <path class="fil1" d="M1183 21240c86,0 164,35 221,91l0 0c56,57 91,135 91,221 0,86 -35,165 -91,221l0 0c-57,57 -135,92 -221,92 -86,0 -164,-35 -221,-92l0 0c-57,-56 -92,-135 -92,-221 0,-86 35,-164 92,-221l0 0c57,-56 135,-91 221,-91zm142 170c-36,-36 -87,-59 -142,-59 -56,0 -106,23 -142,59 -37,36 -59,87 -59,142 0,56 22,106 59,142 36,37 86,59 142,59 55,0 106,-22 142,-59 37,-36 59,-86 59,-142 0,-55 -22,-106 -59,-142z"/>
  <path id="Center_03" class="fil2" d="M14695 11697c47,0 86,38 86,86 0,47 -39,86 -86,86 -47,0 -86,-39 -86,-86 0,-48 39,-86 86,-86z"/>
  <path class="fil1" d="M14695 11571c58,0 111,24 149,62l0 0c39,39 62,92 62,150 0,58 -23,111 -62,149l0 0c-38,39 -91,62 -149,62 -58,0 -111,-23 -149,-62l-1 0c-38,-38 -61,-91 -61,-149 0,-58 23,-111 61,-150l1 0c38,-38 91,-62 149,-62zm111 101c-28,-29 -68,-46 -111,-46 -43,0 -83,17 -111,46 -28,28 -46,67 -46,111 0,43 18,82 46,111 28,28 68,46 111,46 43,0 83,-18 111,-46 28,-29 46,-68 46,-111 0,-44 -18,-83 -46,-111z"/>
  <path class="fil1" d="M11661 12417c65,0 124,26 166,69 43,43 69,101 69,166 0,65 -26,124 -69,166l0 0c-42,43 -101,69 -166,69 -65,0 -123,-26 -166,-69l0 0 0 0c-43,-42 -69,-101 -69,-166 0,-65 26,-123 69,-166l0 0c42,-42 101,-69 166,-69zm104 131c-26,-27 -63,-43 -104,-43 -41,0 -78,16 -104,43l0 0c-27,26 -44,63 -44,104 0,41 17,78 44,105l0 0c26,26 63,43 104,43 41,0 78,-17 104,-43l0 0c27,-27 44,-64 44,-105 0,-41 -17,-78 -44,-104z"/>
  <path class="fil2" d="M14408 12002c83,45 140,132 140,233 0,145 -118,263 -263,263 -108,0 -201,-65 -242,-158 30,10 62,16 95,16 77,0 147,-31 198,-82l0 0c50,-50 82,-120 82,-197 0,-26 -4,-51 -10,-75z"/>
  <path class="fil1" d="M14138 11797c77,0 147,31 198,82 51,51 82,120 82,198 0,77 -32,147 -82,197l0 0c-51,51 -121,82 -198,82 -77,0 -147,-31 -197,-82l0 0 0 0c-51,-50 -82,-120 -82,-197 0,-78 31,-147 82,-198l0 0c50,-51 120,-82 197,-82zm124 155c-31,-31 -75,-51 -124,-51 -48,0 -92,20 -124,51l0 0c-32,32 -51,76 -51,125 0,48 19,92 51,124l0 0c32,32 76,51 124,51 49,0 93,-19 124,-51l1 0c31,-32 51,-76 51,-124 0,-49 -20,-93 -52,-125z"/>
  <polygon class="fil1" points="13008,1392 13008,1568 13183,1568 13183,1675 13008,1675 13008,1850 12901,1850 12901,1675 12726,1675 12726,1568 12901,1568 12901,1392 "/>
  <polygon class="fil1" points="881,12657 1252,12657 1252,12764 881,12764 "/>
  <polygon class="fil1" points="574,12374 798,12374 798,12481 574,12481 "/>
  <polygon class="fil1" points="1038,12374 1717,12374 1717,12481 1038,12481 "/>
  <polygon class="fil1" points="1915,12374 2255,12374 2255,12481 1915,12481 "/>
  <path id="Cog_03" class="fil1 rotate" d="M2598 9122l-84 -192 -21 -49 53 -7 212 -27 23 -208 6 -54 50 21 197 82 125 -168 32 -43 32 42 130 171 192 -84 49 -22 7 53 27 213 208 23 54 6 -21 49 -83 198 169 124 43 32 -42 33 -171 130 84 192 21 49 -53 7 -212 27 -23 208 -6 53 -50 -20 -197 -83 -125 169 -31 43 -33 -43 -130 -170 -192 84 -49 21 -7 -53 -27 -212 -208 -24 -54 -6 21 -49 83 -198 -169 -124 -43 -32 42 -32 171 -130zm11 -175l75 172 13 28 -26 20 -152 116 150 111 26 19 -12 29 -74 178 186 21 31 3 4 31 25 191 172 -75 29 -13 19 25 116 153 112 -151 18 -25 29 12 178 74 21 -186 3 -31 32 -5 190 -24 -75 -172 -12 -29 25 -19 152 -117 -150 -111 -26 -19 12 -29 74 -177 -186 -21 -31 -3 -4 -32 -25 -190 -172 75 -29 12 -19 -25 -116 -152 -112 150 -18 26 -29 -12 -178 -74 -21 186 -3 31 -32 4 -190 25z"/>
  <path class="fil1" d="M3192 9038c67,0 129,27 173,72l0 0c45,44 72,106 72,173 0,68 -27,129 -72,174l0 0c-44,44 -106,72 -173,72 -68,0 -130,-28 -174,-72 -44,-45 -72,-106 -72,-174 0,-67 28,-129 72,-173l0 0c45,-45 106,-72 174,-72zm116 129c-30,-30 -71,-49 -116,-49 -46,0 -87,19 -117,49l0 0c-30,29 -48,71 -48,116 0,46 18,87 48,117 30,30 71,48 117,48 45,0 86,-18 116,-48l0 0c30,-30 48,-71 48,-117 0,-45 -18,-87 -48,-116z"/>
  <path class="fil1" d="M5732 8935l-1866 0 3 -7 21 -49 -54 -6 -167 -19 2103 0 41 0 0 41 0 3389 0 40 -41 0 -2187 0 -40 0 0 -40 0 -2324 1 1 50 20 6 -53 23 -208 2 0 0 2522 2105 1 0 -3308zm-2187 782l0 -12 1 -1 -1 13z"/>
  <polygon class="fil1" points="6106,8646 3602,8645 3601,8637 3594,8584 3545,8606 3456,8645 3319,8645 3236,8536 6160,8536 6215,8536 6215,8591 6215,12994 6215,13049 6160,13049 3197,13049 3143,13049 3143,12994 3142,10024 3160,10047 3193,10090 3224,10047 3252,10010 3252,12939 6106,12939 "/>
  <path class="fil1" d="M4679 12430c55,0 105,22 142,58l0 1c36,36 58,86 58,142 0,55 -22,105 -58,142l0 0c-37,36 -87,58 -142,58 -56,0 -106,-22 -142,-58l0 0c-37,-37 -59,-87 -59,-142 0,-56 22,-106 59,-142l0 -1c36,-36 86,-58 142,-58zm81 119c-21,-21 -50,-34 -81,-34 -32,0 -61,13 -82,34 -21,21 -34,50 -34,82 0,31 13,60 34,81 21,21 50,34 82,34 31,0 60,-13 81,-34 21,-21 34,-50 34,-81 0,-32 -13,-61 -34,-82z"/>
  <polygon class="fil1" points="6200,10309 6539,10309 6539,10417 6200,10417 "/>
  <polygon class="fil1" points="6689,10309 7483,10309 7483,10417 6689,10417 "/>
  <polygon class="fil1" points="6583,9958 6751,9958 6751,10066 6583,10066 "/>
  <polygon class="fil1" points="6364,10799 6904,10799 6904,10906 6364,10906 "/>
  <polygon class="fil1" points="6644,11069 7079,11069 7079,11177 6644,11177 "/>
  <polygon class="fil1" points="6188,11069 6468,11069 6468,11177 6188,11177 "/>
  <polygon class="fil1" points="6312,11413 6829,11413 6829,11521 6312,11521 "/>
  <polygon class="fil1" points="4181,8103 5239,8103 5239,8210 4181,8210 "/>
  <polygon class="fil1" points="4568,7834 4938,7834 4938,7941 4568,7941 "/>
  <polygon class="fil1" points="5465,8103 5834,8103 5834,8210 5465,8210 "/>
  <polygon class="fil1" points="3620,8103 3890,8103 3890,8210 3620,8210 "/>
  <path class="fil1" d="M2812 10649c76,0 145,30 195,80l0 1c50,49 81,119 81,195 0,76 -31,145 -81,195l0 0c-50,50 -119,81 -195,81 -76,0 -145,-31 -195,-81l0 0c-50,-50 -81,-119 -81,-195 0,-76 31,-146 81,-195l0 -1c50,-50 119,-80 195,-80zm112 163c-28,-28 -68,-46 -112,-46 -44,0 -83,18 -112,46 -29,29 -47,69 -47,113 0,44 18,83 47,112 29,29 68,46 112,46 44,0 84,-17 112,-46 29,-29 47,-68 47,-112 0,-44 -18,-84 -47,-113z"/>
  <path class="fil1" d="M2812 10860c18,0 34,7 46,19l0 0c12,12 19,28 19,46 0,18 -7,34 -19,45l0 0c-12,12 -28,19 -46,19 -18,0 -34,-7 -46,-19l0 0c-11,-11 -19,-27 -19,-45 0,-18 8,-34 19,-46l0 0c12,-12 28,-19 46,-19zm26 38c-6,-6 -16,-11 -26,-11 -10,0 -19,5 -26,11 -7,7 -11,16 -11,27 0,10 4,19 11,26 7,7 16,11 26,11 10,0 20,-4 26,-11 7,-7 11,-16 11,-26 0,-11 -4,-20 -11,-27z"/>
  <path class="fil1" d="M8363 20174l-533 0 -28 0 -10 -26c-35,-92 -61,-196 -78,-311 -17,-113 -24,-236 -24,-371 1,-98 31,-189 82,-264 52,-76 126,-136 213,-171 22,-14 47,-26 74,-36l0 0c26,-10 53,-19 83,-26 7,-5 13,-10 18,-16l1 -2c-25,-21 -49,-46 -71,-74 -66,-84 -113,-197 -113,-320 0,-132 42,-251 109,-338 71,-89 168,-145 277,-145 108,0 206,56 276,145 68,87 110,206 110,338 0,123 -47,236 -114,320 -21,28 -45,53 -70,74l1 2c5,6 11,11 17,16 30,7 58,16 83,26l0 0c28,10 52,22 74,36 87,35 161,95 213,171 51,75 82,166 82,264 1,135 -7,258 -24,371 -17,115 -43,219 -78,311l-10 26 -27 0 -533 0zm-304 -1092l0 1 1 2 1 2 1 1 2 2 0 1 2 3 0 0 2 3 0 0 2 3 2 4 1 2 1 2 1 1 2 2 0 1 2 2 0 0 2 3 0 1 4 5 1 2 0 1 2 2 0 1 4 5 0 1 0 0 2 2 1 1 1 2 1 1 1 2 1 2 1 1 2 2 0 1 2 2 0 1 2 2 0 1 2 2 1 1 1 2 1 1 1 2 1 1 1 1 2 3 0 0 2 3 0 0 2 3 0 0 2 2 1 1 1 2 1 2 1 1 2 2 0 0 2 3 0 0 2 3 1 0 1 2 1 1 2 2 0 1 2 2 1 1 1 1 1 2 1 1 2 3 0 0 2 2 0 1 2 2 1 1 1 1 1 2 2 1 1 2 1 0 2 3 0 0 2 3 0 0 2 2 1 1 1 2 1 1 2 1 1 2 1 1 1 2 1 0 2 2 0 1 2 2 1 0 2 3 0 0 2 2 1 1 1 1 2 2 0 1 2 2 1 0 2 3c52,54 109,101 174,139 64,-38 122,-85 173,-139l3 -3 0 0 2 -2 1 -1 1 -2 1 -1 1 -1 2 -2 1 0 2 -3 0 0 2 -2 0 -1 2 -2 1 0 2 -3 2 -2 1 -1 1 -1 2 -2 0 -1 2 -2 0 0 2 -3 1 0 2 -3 0 0 2 -2 1 -1 1 -2 1 -1 1 -1 2 -2 0 -1 2 -2 0 0 2 -3 1 -1 2 -2 0 -1 2 -1 1 -2 1 -1 1 -2 1 -1 2 -2 0 0 2 -3 0 0 2 -3 1 0 1 -2 1 -1 1 -2 1 -2 1 -1 2 -2 0 0 2 -3 0 0 2 -3 1 0 1 -3 1 -1 1 -1 1 -2 1 -1 2 -2 0 -1 2 -2 0 -1 2 -2 0 -1 2 -2 1 -1 1 -2 1 -1 1 -2 1 -2 1 -1 2 -2 0 -1 2 -2 0 0 2 -3 0 -1 2 -2 0 -1 2 -2 1 -1 1 -2 1 -2 1 -1 1 -2 1 -1 1 -3 0 0 2 -2 1 -1 1 -2 1 -1 1 -2 1 -2 1 -1 1 -2 1 -1 1 -3 1 0 1 -3 1 0 1 -3 1 -1 1 -2 1 -1 1 -2 1 -2 1 -1c-10,-5 -19,-9 -29,-13l0 0c-25,-9 -51,-17 -80,-24l-11 -4c-17,-10 -31,-23 -43,-37 -2,-2 -3,-4 -5,-6 -16,9 -33,17 -49,23 -22,9 -44,14 -66,17l0 0 -4 0 0 0 -4 0 -1 0 -2 1 -1 0 -1 0 0 0 -2 0 -2 0 0 0 -2 0 -1 0 -1 0 -2 0 -1 0 -1 0 -1 0 0 0 -2 0 -1 0 -1 0 -1 0 -1 0 -2 -1 -1 0 -1 0 -2 0 -1 0 -4 0 0 0c-21,-3 -43,-8 -66,-17 -16,-6 -33,-14 -49,-23 -1,2 -3,4 -4,6 -12,14 -27,27 -43,37l-12 4c-28,7 -55,15 -79,24l0 0c-10,4 -20,8 -29,13zm166 -181l11 8c23,16 46,29 68,37 16,6 31,10 46,12l0 0 1 0 1 0 1 0 0 0 1 0 1 0 1 0 0 0 1 0 0 0 1 0 1 0 1 0 0 0 1 0 1 0 1 0 1 0 0 0 1 0 1 0 0 0 1 0 1 0 1 0 0 0 1 0 1 0 0 0 1 0 0 0 1 0 1 0 1 0 0 0c15,-2 31,-6 47,-12 22,-8 45,-21 67,-37l11 -8c25,-20 50,-45 72,-73 56,-72 96,-167 96,-271 0,-113 -35,-215 -92,-288 -55,-71 -131,-114 -213,-114 -83,0 -158,43 -213,114 -58,73 -93,175 -93,288 0,104 40,199 96,271 22,28 47,53 72,73zm-367 1193l505 0 504 0c29,-81 50,-170 65,-268 16,-110 24,-230 23,-360 0,-81 -26,-156 -68,-219 -38,-54 -89,-99 -148,-129l-2 3 0 0 -2 4 0 0 -2 3 -1 1 -1 2 -1 1 -1 3 -1 1 -1 2 -2 2 0 1 -2 3 -2 3 0 0 -1 1 -2 3 0 0 -2 3 0 1 -2 2 -1 2 -1 2 -1 1 -1 2 -1 2 -1 1 -2 3 0 0 -2 3 0 0 -2 3 -1 1 -2 3 0 0 -2 3 -1 1 -1 2 -1 2 -1 1 -1 2 -1 1 -2 3 0 0 -2 3 0 0 -3 3 0 1 -2 3 -1 0 -1 3 -1 1 -1 2 -2 1 -1 2 -1 2 -1 1 -2 2 0 1 -2 3 0 0 -3 3 0 0 -2 3 0 1 -2 2 -1 1 -1 2 -2 2 -1 1 -1 2 -1 1 -2 2 0 1 -3 2 0 1 -2 2 0 1 -2 2 -1 1 -2 2 -1 2 -1 1 -1 2 -1 1 -2 2 -1 1 -2 2 0 1 -2 2 -1 1 -2 2 0 1 -2 2 -1 1 -2 2 -1 1 -1 2 -2 2 0 1 -2 2 -1 0 -2 3 0 0 -3 3 0 0 -2 3 -1 0 -2 2 -1 1 -1 2 -2 2 -1 1 -1 2 -1 0 -2 3 -1 0 -2 3c-63,66 -133,122 -213,166l-19 10 -20 -10c-80,-44 -150,-100 -212,-166l-3 -3 0 0 -2 -3 -1 0 -2 -2 -1 -1 -1 -2 -2 -2 -1 -1 -2 -2 0 0 -3 -3 0 0 -2 -3 0 0 -3 -3 0 0 -2 -2 -1 -1 -2 -2 -1 -2 -1 -1 -2 -2 0 -1 -2 -2 -1 -1 -2 -2 0 -1 -3 -2 0 -1 -2 -2 -1 -1 -1 -2 -1 -1 -2 -2 -1 -1 -1 -2 -2 -2 0 -1 -2 -2 -1 -1 -2 -2 0 -1 -2 -2 -1 -1 -2 -2 0 -1 -2 -2 -1 -1 -1 -2 -2 -2 -1 -1 -1 -2 -1 -1 -2 -3 0 0 -2 -3 0 0 -3 -3 0 -1 -2 -2 -1 -1 -1 -2 -1 -2 -1 -1 -2 -2 -1 -1 -1 -3 -1 0 -2 -3 0 -1 -2 -3 0 0 -2 -3 -1 0 -2 -3 0 -1 -2 -2 -1 -1 -1 -2 -1 -2 -1 -1 0 0 -2 -3 -2 -3 0 -1 -2 -3 -1 0 -2 -3 0 0 -2 -3 0 -1 -2 -2 -1 -2 -1 -1 -1 -2 -1 -2 -2 -2 0 -1 -2 -3 0 0 -2 -3 0 -1 -2 -3 -1 0 -1 -3 -1 -1 -1 -2 -1 -2 -1 -1 -2 -3 0 -1 -2 -2 0 -1 -2 -3 0 0 -2 -4 -1 0 -1 -3c-60,30 -111,75 -148,129 -43,63 -68,138 -69,219 0,130 7,250 24,360 14,98 35,187 64,268z"/>
  <path class="fil1" d="M8403 20174l0 952c0,70 29,134 75,180 46,46 110,75 180,75l3202 0c93,0 177,37 237,98 61,61 99,145 99,237l0 912c0,70 28,134 75,180 46,46 109,75 180,75l1025 0 0 81 -1025 0c-93,0 -177,-38 -237,-99 -61,-61 -99,-144 -99,-237l0 -912c0,-70 -28,-134 -75,-180 -46,-46 -110,-75 -180,-75l-3202 0c-93,0 -176,-37 -237,-98 -61,-61 -99,-145 -99,-237l0 -952 81 0z"/>
  <path class="fil1" d="M13476 22687l301 0 40 0 0 41 0 408 0 41 -40 0 -301 0 -40 0 0 -41 0 -408 0 -41 40 0zm260 81l-220 0 0 328 220 0 0 -328z"/>
  <path class="fil1" d="M14227 21359l1318 0c144,0 275,58 370,153 94,95 153,226 153,370l0 3512c0,144 -59,275 -153,370 -95,94 -226,153 -370,153l-1318 0c-144,0 -275,-59 -370,-153 -94,-95 -153,-226 -153,-370l0 -3512c0,-144 59,-275 153,-370 95,-95 226,-153 370,-153zm-225 433l1768 0c37,0 70,15 95,39 24,24 39,58 39,95l0 3480c0,37 -15,70 -39,94l0 0c-25,25 -58,40 -95,40l-789 0c7,5 13,10 19,16l0 0c29,29 47,69 47,114 0,44 -18,85 -47,114l0 0c-10,10 -22,19 -34,26l579 0c115,0 219,-47 294,-122 75,-76 122,-180 122,-294l0 -3512c0,-115 -47,-219 -122,-294 -75,-75 -179,-122 -294,-122l-1318 0c-114,0 -218,47 -294,122 -75,75 -122,179 -122,294l0 3512c0,114 47,218 122,294 76,75 180,122 294,122l579 0c-12,-7 -24,-16 -34,-26l0 0c-29,-29 -47,-70 -47,-114 0,-45 18,-85 47,-114l0 0c6,-6 12,-11 19,-16l-789 0c-37,0 -70,-15 -94,-40l0 0 -1 0c-24,-24 -39,-58 -39,-94l0 -3480c0,-37 15,-70 40,-95l-1 0c25,-24 58,-39 95,-39zm952 3810c-17,-17 -41,-28 -68,-28 -26,0 -50,11 -68,28 -17,17 -28,41 -28,68 0,26 11,50 28,68 18,17 42,28 68,28 27,0 51,-11 68,-28 17,-18 28,-42 28,-68 0,-27 -11,-51 -28,-68zm816 -3703l-1768 0c-7,0 -14,3 -19,8l0 0c-5,5 -8,11 -8,19l0 3480c0,7 3,14 8,18l0 1c5,4 12,7 19,7l1768 0c7,0 14,-3 19,-7l0 -1c5,-4 8,-11 8,-18l0 -3480c0,-7 -3,-14 -8,-19 -5,-5 -12,-8 -19,-8z"/>
  <path class="fil1" d="M14886 24572l-619 0 -32 0 -11 -31c-41,-110 -71,-234 -91,-370 -19,-135 -28,-283 -28,-443 1,-117 36,-225 96,-315 60,-91 146,-162 247,-204 25,-17 54,-31 85,-43l0 0c30,-12 63,-22 97,-31 8,-5 14,-12 20,-19l2 -2c-30,-25 -57,-55 -82,-88 -77,-101 -132,-235 -132,-382 0,-157 49,-299 127,-402 82,-107 195,-173 321,-173 126,0 239,66 321,173 79,103 127,245 127,402 0,147 -54,281 -132,382 -25,33 -52,63 -81,88l1 2c6,7 12,14 20,19 35,9 67,19 97,31l0 0c31,12 60,26 85,43 101,42 187,113 248,204 59,90 94,198 95,315 1,160 -9,308 -28,443 -19,136 -50,260 -91,370l-11 31 -32 0 -619 0zm40 -842l0 746 546 0c33,-96 58,-203 75,-319 19,-131 27,-274 27,-429 -1,-96 -30,-186 -79,-261 -44,-65 -103,-118 -172,-154l-2 4 -1 0 -2 4 0 0 -2 4 -1 1 -2 3 -1 1 -1 3 -1 2 -1 2 -2 2 -1 1 -2 4 -2 4 0 0 -1 0 -2 4 0 0 -2 4 -1 1 -2 3 -1 1 -1 3 -1 2 -2 1 -1 3 -1 1 -2 3 0 1 -3 4 0 0 -2 4 -1 0 -2 3 -1 1 -1 3 -1 2 -2 2 -1 2 -1 2 -2 2 -1 1 -2 4 0 0 -3 4 0 0 -2 3 -1 1 -2 3 -1 1 -2 3 -1 1 -1 2 -2 3 -1 1 -2 3 0 1 -3 3 0 0 -3 4 0 0 -2 3 -1 1 -2 3 -1 1 -1 3 -2 1 -1 2 -2 2 -1 2 -2 2 0 1 -3 3 0 1 -3 3 0 0 -2 4 -1 0 -2 3 -1 1 -2 2 -1 2 -2 2 -1 2 -1 1 -3 3 0 1 -3 3 0 0 -3 4 0 0 -2 3 -1 1 -2 2 -1 2 -2 2 -2 1 -1 2 -2 2 -1 1 -2 3 0 1 -3 3 0 0 -3 3 -1 1 -2 2 -1 1 -2 3 -1 1 -2 2 -1 2 -2 1 -2 2 -1 1 -2 3 -1 1 -2 3c-68,74 -145,137 -230,187zm-81 746l0 -746c-85,-51 -161,-114 -228,-187l-3 -3 -1 -1 -2 -3 -1 -1 -2 -2 -1 -1 -2 -2 -2 -2 -1 -1 -2 -3 -1 -1 -2 -2 -1 -1 -3 -3 0 0 -2 -3 -1 -1 -2 -3 -1 -1 -2 -2 -1 -2 -2 -1 -2 -2 -1 -2 -2 -2 0 -1 -3 -3 0 0 -3 -4 0 0 -3 -3 0 -1 -3 -3 0 -1 -2 -2 -2 -2 -1 -2 -2 -2 -1 -1 -2 -3 0 0 -3 -4 0 0 -3 -3 0 -1 -2 -3 -1 -1 -2 -2 -1 -2 -2 -2 -1 -2 -1 -1 -2 -3 -1 -1 -2 -3 -1 -1 -2 -3 0 0 -3 -4 0 0 -3 -3 0 -1 -2 -3 -1 -1 -2 -3 -1 -2 -1 -1 -2 -3 -1 -1 -2 -3 0 -1 -3 -3 0 0 -3 -4 0 0 -2 -4 -1 -1 -2 -2 -1 -2 -1 -2 -2 -2 -1 -2 0 0 -2 -4 -2 -3 -1 0 -2 -4 0 0 -2 -4 -1 -1 -2 -3 -1 -1 -1 -3 -1 -1 -2 -2 -1 -3 -1 -1 -2 -3 -1 -1 -2 -4 0 0 -2 -4 -1 0 -2 -4 0 0 -2 -4 -1 -1 -2 -2 -1 -2 -1 -2 -1 -3 -1 -1 -2 -3 -1 -1 -2 -4 0 0 -2 -4 0 -1 -2 -3c-70,35 -129,89 -172,154 -50,75 -79,165 -80,261 0,155 9,298 27,429 17,116 42,223 75,319l545 0zm-304 -1945c75,2 283,-23 451,-344 -33,-14 -69,-22 -106,-22 -96,0 -183,52 -247,136 -48,62 -82,141 -98,230zm560 -268c-6,34 -6,63 -2,88 7,48 29,80 54,102 22,18 47,29 69,36 -18,-72 -49,-136 -89,-188 -10,-14 -21,-27 -32,-38zm138 327c-7,-1 -15,-2 -23,-4 -37,-8 -84,-26 -125,-60 -41,-35 -76,-87 -87,-161 0,-4 -1,-7 -1,-11 -185,260 -395,276 -472,273 0,5 0,11 0,17 0,124 47,238 112,323 26,34 54,63 83,87l13 10c26,19 53,34 79,44 18,8 36,12 54,14l0 0 1 0 1 0 1 0 0 0 1 0 1 0 1 0 1 0 0 0 1 0 1 1 1 0 0 0 1 0 1 0 1 0 1 0 1 0 1 0 1 0 1 0 0 0 1 0 1 -1 1 0 0 0 1 0 1 0 1 0 1 0 0 0 1 0 1 0 1 0 1 0c17,-2 35,-6 54,-14 25,-10 52,-25 78,-44l13 -10c29,-24 57,-53 83,-87 65,-85 112,-199 112,-323 0,-18 -1,-36 -2,-54zm-706 680l1 1 1 2 1 3 1 1 2 3 0 1 2 3 0 0 3 4 0 0 2 3 3 5 1 2 1 3 1 1 2 3 0 0 3 4 0 0 2 3 0 1 4 6 1 2 1 2 2 2 1 1 3 6 1 1 0 0 2 3 1 1 2 3 1 1 1 2 1 2 1 1 2 3 0 1 3 3 0 0 2 3 0 1 2 3 1 1 2 2 1 2 1 1 2 2 0 1 2 3 1 1 2 3 0 0 2 3 1 1 2 3 1 1 1 2 1 2 1 1 2 2 1 1 2 3 0 0 3 4 0 0 2 3 1 1 2 2 1 1 1 2 1 2 1 1 2 3 1 0 2 3 0 0 3 3 0 1 2 3 1 1 2 2 1 1 1 2 2 2 1 1 2 2 0 1 3 3 0 0 2 3 1 1 2 2 1 1 1 2 2 2 1 1 2 2 1 1 2 3 0 0 3 3 0 0 2 3 1 1 2 2 1 1 2 2 1 1 1 1 2 3 1 0 2 3c60,65 127,121 202,166 75,-45 142,-101 202,-166l2 -3 1 0 2 -3 1 -1 2 -1 1 -2 1 -1 2 -2 1 -1 2 -3 0 0 3 -3 0 0 3 -3 0 -1 3 -3 2 -2 1 -2 1 -1 2 -2 1 -1 2 -3 0 0 3 -3 0 -1 2 -2 1 -1 2 -2 1 -2 1 -1 2 -2 1 -1 2 -3 0 -1 3 -3 0 0 2 -3 1 0 2 -3 1 -1 1 -2 1 -2 2 -1 1 -2 1 -1 2 -3 0 0 3 -4 0 0 2 -3 1 -1 2 -2 1 -1 1 -2 1 -2 1 -1 2 -3 1 -1 2 -3 0 0 2 -3 1 -1 2 -3 1 -1 1 -2 1 -1 1 -2 2 -2 1 -1 2 -3 0 -1 2 -3 0 0 3 -3 0 -1 2 -3 1 -1 1 -2 2 -2 1 -1 1 -3 1 -1 2 -3 0 0 2 -4 1 0 1 -3 1 -1 2 -2 1 -2 1 -2 1 -2 1 -1 2 -3 0 -1 3 -3 0 0 2 -4 0 0 2 -3 1 -1 1 -3 1 -2 1 -1 2 -3 0 -1 2 -3 1 0 2 -4 0 0 2 -3 0 -1 2 -3 1 -1 1 -3 1 -2 1 -1c-11,-5 -22,-10 -34,-15l0 0c-28,-11 -59,-21 -92,-29l-13 -5c-20,-12 -36,-27 -50,-44 -2,-3 -4,-5 -5,-7 -19,11 -38,20 -58,28 -25,10 -51,17 -76,19l0 0 -5 1 0 0 -5 0 0 0 -3 0 -1 0 -1 0 -1 0 -1 0 -3 1 0 0 -2 0 -1 0 -2 0 -1 0 -2 0 -2 0 0 0 0 0 -3 -1 -1 0 -1 0 -1 0 -1 0 -3 0 0 0 -2 0 -3 0 0 0 -5 -1 0 0c-25,-2 -50,-9 -76,-19 -19,-8 -39,-17 -58,-28 -1,2 -3,4 -5,7 -14,17 -30,32 -50,44l-13 5c-33,8 -64,18 -92,29l0 0c-12,5 -23,10 -34,15z"/>
  <polygon id="txt_01_01" class="fil1" points="14229,24880 14911,24880 14911,24988 14229,24988 "/>
  <polygon id="txt_01_02" class="fil1" points="15016,24880 15526,24880 15526,24988 15016,24988 "/>
  <polygon id="txt_01_03" class="fil1" points="14193,25156 15580,25156 15580,25264 14193,25264 "/>
  <path class="fil2" d="M10728 17170c170,0 309,139 309,310 0,170 -139,309 -309,309 -171,0 -310,-139 -310,-309 0,-171 139,-310 310,-310z"/>
  <path class="fil2" d="M2075 22142c171,0 310,139 310,310 0,170 -139,309 -310,309 -170,0 -309,-139 -309,-309 0,-171 139,-310 309,-310z"/>
  <path class="fil2" d="M15805 19935c151,0 274,122 274,274 0,151 -123,273 -274,273 -151,0 -273,-122 -273,-273 0,-152 122,-274 273,-274z"/>
  <path class="fil1" d="M5273 11470l329 0c16,0 29,-13 29,-29l0 -1c0,-16 -13,-29 -29,-29l-279 0c-27,0 -49,-22 -49,-49l0 -7c0,-27 22,-49 49,-49l214 0 0 33 -214 0c-9,0 -16,7 -16,16l0 7c0,9 7,17 16,17l279 0c34,0 62,27 62,61l0 1c0,34 -28,61 -62,61l-329 0 -275 0 -53 0 -91 0c26,-21 57,-32 91,-32l328 0zm-773 -5c11,0 19,9 19,19 0,11 -8,20 -19,20 -11,0 -19,-9 -19,-20 0,-10 8,-19 19,-19zm471 -128l168 0c34,0 65,-11 91,-33l-91 0 -53 0 -115 0 -3 0 -23 0c-32,0 -61,10 -86,29 -46,35 -91,84 -134,124 -16,15 -42,15 -58,0l-112 -104c-31,-28 -78,-28 -109,0l-111 104c-17,15 -42,15 -59,0l-112 -104c-30,-28 -78,-28 -108,0l-112 104c-17,15 -42,15 -59,0l-165 -153 -27 25 0 0 167 155c31,28 78,28 109,0l112 -104c16,-15 42,-15 58,0l112 104c31,28 78,28 109,0l112 -104c16,-15 41,-15 58,0l112 104c31,28 78,29 108,0 41,-39 79,-77 117,-115 2,-2 4,-4 6,-6 21,-18 45,-26 72,-26l23 0 3 0zm82 48c10,0 19,8 19,19 0,11 -9,19 -19,19 -11,0 -20,-8 -20,-19 0,-11 9,-19 20,-19z"/>
  <g id="_1158999488">
   <path class="fil1" d="M7499 9027l-255 -256c-44,-44 -117,-44 -161,0l-255 255c-14,15 -14,39 0,54l78 77 51 48c15,14 39,14 54,0l103 -96c28,-26 72,-26 100,0l103 96c15,14 38,14 54,0l51 -48 77 -77c15,-15 15,-39 0,-53z"/>
   <path class="fil1" d="M6683 9332l400 400c44,44 117,44 161,0l400 -400c69,-70 20,-90 -31,-138l-62 -60c-16,-14 -39,-14 -54,0l-103 95c-28,27 -72,27 -100,0l-103 -95c-15,-14 -39,-14 -54,0l-103 95c-28,27 -72,27 -100,0l-103 -95c-15,-14 -38,-14 -54,0l-57 54c-53,49 -109,71 -37,144z"/>
  </g>
  <g id="_1159007200">
   <path class="fil1" d="M5183 9911l-403 -403c-14,-14 -30,-24 -46,-31 -18,-7 -36,-11 -55,-11 -19,0 -38,4 -55,11 -15,6 -30,15 -42,27l-4 4 -402 402 -2 2c-1,2 -3,4 -3,6 -2,2 -2,5 -2,9 0,3 0,6 2,9 1,2 2,5 5,7l122 122 2 3 78 71 0 0c2,3 5,4 8,6l0 0c3,1 6,1 10,1 3,0 6,0 9,-1 3,-2 6,-3 9,-6l0 0 162 -150c15,-13 31,-23 48,-30 18,-7 37,-11 56,-11 18,0 37,4 55,11 17,7 34,17 48,30l162 150 1 0c2,3 5,4 8,6l0 0c3,1 6,1 9,1 4,0 7,0 10,-1l0 0c3,-2 6,-3 8,-6l0 0 78 -71 2 -3 122 -121 0 0c2,-2 4,-5 5,-8l0 0c1,-2 1,-5 1,-9 0,-3 0,-6 -1,-9 -1,-2 -3,-5 -5,-7zm-352 -454l403 403c9,9 16,19 21,31 5,12 7,24 7,36 0,13 -2,25 -7,37 -4,8 -8,15 -13,22l0 2 -8 7 -121 122 -2 1 -60 56 0 0 -20 19c-10,8 -20,15 -32,19 -11,5 -23,7 -36,7 -12,0 -24,-2 -36,-7 -11,-4 -21,-11 -31,-19l-14 -14 0 0 -148 -137c-8,-7 -16,-12 -25,-15 -10,-4 -19,-6 -29,-6 -10,0 -20,2 -30,6 -9,3 -17,8 -25,15l-162 151c-10,8 -20,15 -31,19 -12,5 -24,7 -36,7 -12,0 -25,-2 -36,-7 -12,-4 -22,-11 -32,-19l-14 -14 0 0 -65 -61 -3 -1 -122 -122c-9,-9 -16,-20 -20,-32 -5,-12 -8,-24 -8,-36 0,-13 3,-25 8,-37l0 0c4,-11 11,-22 20,-31l0 0 402 -402 19 -19 2 1c15,-12 32,-22 49,-29 27,-11 55,-16 83,-16 55,0 110,21 152,63z"/>
   <path class="fil1" d="M3946 10386l632 632 0 0c13,13 29,24 46,30 17,8 36,11 55,11 19,0 37,-3 55,-11 16,-6 32,-17 46,-30l0 0 631 -632 3 -3c28,-28 39,-48 40,-63 0,-12 -9,-25 -22,-39l0 0c-5,-5 -10,-9 -15,-14l0 0c-8,-7 -13,-11 -18,-15l0 0c-3,-2 -6,-5 -17,-15l0 0c-5,-5 -11,-11 -18,-17l-99 -94c-3,-2 -5,-4 -8,-5l0 0c-3,-1 -6,-2 -9,-2 -4,0 -7,1 -10,2 -3,1 -6,3 -9,6l-19 17 0 0 -143 133 0 0c-14,13 -31,23 -48,30 -18,7 -37,11 -56,11 -18,0 -37,-4 -55,-11 -17,-7 -34,-17 -48,-30l0 0 -136 -126 0 0 -27 -24c-2,-3 -5,-4 -8,-6 -3,-1 -6,-1 -9,-1 -4,0 -7,0 -10,1 -3,1 -6,3 -8,5l0 0 -154 143 0 0 -9 8c-14,13 -30,23 -48,30 -18,7 -37,11 -55,11 -19,0 -38,-4 -56,-11 -17,-7 -33,-17 -48,-30l0 0 -143 -133 0 0 -19 -17c-3,-3 -5,-4 -9,-6 -3,-1 -6,-1 -9,-1 -4,0 -7,0 -10,1 -3,1 -6,3 -8,5l0 0 -91 85c-11,10 -21,18 -30,26l0 0 -10 8c-8,7 -15,14 -20,18 -7,5 -12,11 -18,16l-2 2c-13,13 -20,25 -20,38 1,16 13,37 43,67l0 0zm580 683l-631 -631c-46,-46 -65,-84 -66,-118 -1,-24 7,-45 21,-65l-2 -1 26 -26c6,-7 13,-13 21,-19 8,-8 15,-14 22,-19l17 -15c6,-5 13,-11 20,-17l91 -85c9,-8 20,-15 31,-19 11,-5 24,-7 36,-7 12,0 24,2 36,7 11,4 22,11 31,19l9 8 0 0 153 143 0 0c8,7 16,12 25,15 10,4 20,6 30,6 10,0 20,-2 29,-6 9,-3 18,-8 25,-15l19 -18 0 0 143 -133c10,-8 20,-15 32,-19 11,-5 23,-7 36,-7 12,0 24,2 36,7 11,4 21,11 31,19l8 8 0 0 154 143c7,7 16,12 25,15 9,4 19,6 29,6 10,0 20,-2 30,-6 9,-3 17,-8 25,-15l153 -143 0 0 9 -8c9,-8 20,-15 31,-19 12,-5 24,-7 37,-7 12,0 24,2 36,7 11,4 21,11 31,20l0 0 99 94c11,10 22,20 33,29l0 0 0 0 1 2 0 0 0 0c13,11 26,22 35,31 28,28 46,56 45,91 -1,30 -16,63 -52,102l0 1 -14 13 -631 632 -8 8 0 0c-19,16 -40,29 -62,38 -26,11 -54,17 -82,17 -28,0 -56,-6 -83,-17 -25,-10 -49,-25 -69,-46l-1 0z"/>
  </g>
  <g id="_1159022304">
   <path class="fil1" d="M13519 7408l-214 -214c-7,-8 -15,-13 -24,-17 -10,-4 -19,-5 -29,-5 -10,0 -20,1 -30,5 -8,4 -15,8 -22,14l-2 3 -214 213 0 1c-1,1 -2,2 -2,3 -1,2 -1,3 -1,5 0,2 0,3 1,5 0,1 1,2 2,4l65 64 2 2 41 38 0 0c1,1 3,2 4,3l0 0c2,0 3,1 5,1 2,0 4,-1 5,-1 2,-1 3,-2 5,-3l0 0 86 -80c8,-7 16,-12 25,-16 10,-4 20,-6 30,-6 10,0 20,2 29,6 10,4 18,9 26,16l86 80 0 0c2,1 3,2 5,3l0 0c1,0 3,1 5,1 2,0 3,-1 5,-1l0 0c1,-1 3,-2 4,-3l0 0 41 -38 2 -2 64 -64 0 0c1,-1 2,-2 3,-4l0 0c0,-1 1,-3 1,-5 0,-1 -1,-3 -1,-4 -1,-2 -2,-3 -3,-4zm-187 -242l214 214c5,5 9,11 11,17 3,6 4,13 4,19 0,7 -1,14 -4,20 -1,4 -4,8 -6,12l0 0 -5 4 -64 65 -1 1 -32 29 0 0 -11 10c-5,5 -10,8 -16,11 -6,2 -13,3 -19,3 -7,0 -13,-1 -19,-3 -6,-3 -12,-6 -17,-11l-8 -7 0 0 -78 -73c-4,-3 -9,-6 -14,-8 -4,-2 -10,-3 -15,-3 -5,0 -11,1 -16,3 -4,2 -9,5 -13,8l-86 80c-5,5 -11,8 -17,11 -6,2 -12,3 -19,3 -6,0 -13,-1 -19,-3 -6,-3 -11,-6 -16,-11l-8 -7 0 0 -35 -32 -1 -1 -65 -65c-5,-5 -8,-10 -11,-17 -3,-6 -4,-13 -4,-19 0,-7 1,-13 4,-20l0 0c3,-6 6,-11 11,-16l0 0 214 -214 10 -10 0 1c9,-6 17,-12 27,-15 14,-6 29,-9 44,-9 29,0 58,11 80,33z"/>
   <path class="fil1" d="M12863 7660l335 335 0 0c7,8 16,13 24,17 10,4 20,5 30,5 10,0 19,-1 29,-5 9,-4 17,-9 24,-17l0 0 335 -335 2 -2c15,-14 21,-25 21,-33 1,-7 -4,-13 -12,-21l0 0c-2,-2 -5,-5 -7,-7l-1 0c-4,-4 -6,-6 -9,-8l0 0c-1,-2 -3,-3 -9,-8l0 0c-3,-3 -6,-6 -10,-9l-52 -50c-1,-1 -3,-2 -4,-3l0 0c-2,0 -4,-1 -5,-1 -2,0 -4,1 -6,1 -1,1 -3,2 -4,3l-10 9 0 0 -76 71 0 0c-8,7 -17,12 -26,16 -9,4 -19,6 -29,6 -10,0 -20,-2 -30,-6 -9,-4 -18,-9 -25,-16l0 0 -73 -67 0 0 -13 -13c-2,-1 -3,-2 -5,-3 -2,0 -3,-1 -5,-1 -2,0 -4,1 -5,1 -2,1 -3,2 -4,3l-1 0 -81 76 0 0 -5 4c-7,7 -16,12 -25,16 -10,4 -20,6 -30,6 -10,0 -20,-2 -29,-6 -9,-4 -18,-9 -26,-16l0 0 -76 -71 0 0 -10 -9c-1,-1 -3,-2 -4,-3 -2,0 -4,-1 -6,-1 -1,0 -3,1 -5,1 -1,1 -3,2 -4,3l0 0 -48 45c-6,5 -11,10 -16,14l0 0 -5 4c-5,4 -9,7 -11,10 -4,2 -7,5 -10,8l-1 1c-6,7 -11,14 -10,20 0,9 7,20 23,36l0 0zm308 363l-336 -336c-24,-24 -34,-44 -35,-62 0,-13 4,-24 12,-35l-2 0 14 -14c3,-4 7,-7 11,-10 5,-4 8,-7 12,-10l9 -8c3,-3 7,-6 11,-9l48 -45c5,-5 10,-8 16,-11 7,-2 13,-3 19,-3 7,0 13,1 20,3 6,3 11,6 16,11l5 4 0 0 81 76 0 0c4,3 9,6 14,8 5,2 10,3 15,3 6,0 11,-1 16,-3 5,-2 9,-5 13,-8l10 -10 0 0 76 -70c5,-5 11,-8 17,-11 6,-2 13,-3 19,-3 6,0 13,1 19,3 6,3 12,6 17,11l4 4 0 0 82 76c4,3 8,6 13,8 5,2 10,3 16,3 5,0 10,-1 15,-3 5,-2 10,-5 14,-8l81 -76 0 0 5 -4c5,-5 10,-8 16,-11 7,-2 13,-3 20,-3 6,0 13,1 19,3 6,3 11,6 16,11l0 0 53 50c6,6 12,11 17,16l0 0 0 0 1 0 0 0 0 0c7,6 14,12 19,17 14,15 24,30 24,48 -1,16 -9,34 -28,55l0 0 -7 7 -336 336 -4 4 0 0c-10,9 -21,15 -33,20 -14,6 -29,9 -43,9 -15,0 -30,-3 -44,-9 -14,-5 -26,-13 -37,-24l0 0z"/>
  </g>
  <g id="_1159005568">
   <path class="fil1" d="M10167 3006l-324 -324c-11,-11 -23,-19 -37,-25 -14,-6 -29,-8 -44,-8 -15,0 -30,2 -44,8 -12,5 -23,12 -34,22l-3 3 -323 323 -1 1c-1,2 -2,3 -3,5 -1,2 -1,5 -1,7 0,3 0,5 1,7 1,3 2,5 4,6l98 98 2 3 62 57 1 0c2,2 4,3 6,4l0 0c3,1 5,2 8,2 3,0 5,-1 8,-2 2,-1 4,-2 6,-4l0 0 131 -121c11,-10 25,-18 38,-24 15,-6 30,-8 45,-8 15,0 30,2 45,8 13,6 26,14 38,24l130 121 1 0c2,2 4,3 6,4l0 0c3,1 5,2 8,2 3,0 5,-1 7,-2l1 0c2,-1 4,-2 6,-4l0 0 62 -57 3 -3 97 -97 0 0c2,-2 3,-4 4,-6l0 0c1,-2 1,-5 1,-7 0,-3 0,-5 -1,-7 -1,-2 -2,-5 -4,-6zm-282 -365l323 323c7,8 13,16 17,25 4,10 6,20 6,30 0,10 -2,20 -6,29 -3,7 -6,13 -10,18l0 1 -7 6 -97 98 -2 1 -48 44 0 1 -16 15c-8,7 -16,12 -25,15 -10,4 -19,6 -29,6 -10,0 -20,-2 -29,-6 -9,-3 -18,-8 -25,-15l-12 -11 0 0 -118 -110c-6,-5 -13,-10 -21,-13 -7,-2 -15,-4 -23,-4 -8,0 -16,2 -24,4 -7,3 -14,8 -20,13l-130 121c-8,7 -16,12 -25,15 -9,4 -19,6 -29,6 -10,0 -20,-2 -29,-6 -9,-3 -18,-8 -25,-15l-12 -11 0 0 -52 -49 -2 -1 -98 -98c-7,-8 -13,-16 -17,-25 -4,-10 -6,-20 -6,-30 0,-10 2,-20 6,-29l0 0c4,-9 10,-18 17,-25l0 0 323 -323 15 -16 1 1c13,-9 26,-17 40,-23 21,-8 44,-13 66,-13 45,0 89,17 123,51z"/>
   <path class="fil1" d="M9174 3387l507 507 0 0c11,11 24,20 37,25 14,6 29,9 44,9 15,0 30,-3 44,-9 14,-5 26,-14 37,-25l0 0 507 -507 3 -2c22,-23 31,-39 32,-51 0,-10 -7,-20 -18,-31l0 0c-4,-4 -8,-8 -12,-11l0 0c-7,-6 -10,-9 -14,-13l0 0c-2,-2 -5,-4 -14,-12l0 0c-4,-4 -9,-8 -15,-13l-79 -76c-2,-1 -4,-3 -6,-4l0 0c-3,-1 -5,-1 -8,-1 -3,0 -5,1 -8,1 -2,1 -5,3 -7,5l-15 14 0 0 -115 106 0 0c-12,11 -25,19 -39,25 -14,5 -29,8 -44,8 -15,0 -30,-3 -45,-8 -14,-6 -27,-14 -38,-25l0 0 -110 -101 0 0 -21 -19c-2,-2 -4,-3 -6,-4 -3,-1 -5,-2 -8,-2 -3,0 -5,1 -8,2 -2,0 -4,2 -6,4l0 0 -124 114 0 0 -7 6c-11,11 -25,19 -38,25 -15,5 -30,8 -45,8 -15,0 -30,-3 -45,-8 -14,-6 -27,-14 -38,-25l0 0 -115 -106 0 0 -16 -14c-2,-2 -4,-3 -6,-4 -3,-1 -5,-2 -8,-2 -3,0 -5,1 -8,2 -2,0 -4,2 -6,4l0 0 -74 67c-8,8 -16,15 -24,22l0 0 -7 6c-7,6 -13,11 -17,14 -5,5 -10,9 -14,13l-2 2c-10,10 -16,20 -16,30 1,13 11,30 35,54l0 0zm466 549l-507 -508c-37,-36 -52,-67 -53,-94 -1,-20 6,-36 17,-52l-2 -1 21 -21c5,-5 11,-10 16,-15 7,-6 13,-11 18,-16l14 -11c5,-5 11,-9 16,-14l73 -68c8,-7 16,-12 25,-16 9,-3 19,-5 29,-5 10,0 20,2 29,5 9,4 17,9 25,16l7 6 0 0 123 115 0 0c6,5 13,9 20,12 8,3 16,5 24,5 8,0 16,-2 23,-5 8,-3 15,-7 21,-12l15 -14 0 0 115 -107c8,-7 16,-12 25,-16 9,-3 19,-5 29,-5 10,0 19,2 29,5 9,4 17,9 25,16l7 6 0 0 123 115c6,5 13,9 20,12 8,3 16,5 24,5 8,0 16,-2 23,-5 8,-3 15,-7 21,-12l123 -115 0 0 7 -6c7,-7 16,-12 25,-16 9,-3 19,-5 29,-5 10,0 20,2 29,5 9,4 18,9 25,16l0 0 80 76c9,8 18,16 26,23l0 0 0 0 1 2 0 0 0 0c11,9 21,17 28,25 22,22 37,44 36,73 0,24 -12,50 -42,82l1 1 -11 10 -508 508 -6 6 0 0c-15,13 -32,24 -50,31 -21,9 -43,13 -66,13 -22,0 -45,-4 -66,-13 -20,-8 -39,-21 -56,-37l0 0z"/>
  </g>
  <g id="_1158974592">
   <path class="fil1" d="M7478 20769l-255 -255c-45,-44 -117,-44 -161,0l-255 255c-14,14 -14,38 0,53l78 77 51 48c15,14 39,14 54,0l103 -95c28,-26 72,-26 100,0l103 95c15,14 38,14 54,0l51 -48 77 -76c15,-15 15,-39 0,-54z"/>
   <path class="fil1" d="M6662 21074l400 401c44,44 116,44 161,0l400 -401c69,-69 20,-90 -31,-138l-62 -59c-16,-14 -39,-14 -54,0l-103 95c-29,26 -72,26 -100,0l-103 -95c-15,-14 -39,-14 -54,0l-103 95c-28,26 -72,26 -100,0l-103 -95c-15,-14 -38,-14 -54,0l-57 53c-54,49 -109,72 -37,144z"/>
  </g>
  <path class="fil1" d="M7250 22009c31,0 59,12 80,32l0 1c20,20 33,48 33,79 0,31 -13,59 -33,80l0 0c-21,20 -49,33 -80,33 -31,0 -59,-13 -79,-33l0 0c-21,-21 -33,-49 -33,-80 0,-31 12,-59 33,-79l0 -1c20,-20 48,-32 79,-32zm59 53c-15,-15 -36,-24 -59,-24 -23,0 -44,9 -59,24 -15,15 -24,36 -24,59 0,23 9,44 24,59 15,15 36,25 59,25 23,0 44,-10 59,-25 15,-15 25,-36 25,-59 0,-23 -10,-44 -25,-59z"/>
  <g id="_1158986304">
   <path class="fil1" d="M7677 22576l-151 -152c-6,-5 -11,-9 -18,-11 -6,-3 -13,-4 -20,-4 -7,0 -14,1 -21,4 -6,2 -11,5 -16,10l-1 1 -152 152 0 0c-1,1 -1,2 -1,2 -1,1 -1,3 -1,4 0,1 0,2 1,3 0,1 1,2 1,3l46 46 1 1 29 27 1 0c0,1 2,1 3,2l0 0c1,0 2,0 3,0 1,0 3,0 4,0 1,-1 2,-1 3,-2l0 0 61 -57c6,-5 12,-9 18,-11 7,-3 14,-4 21,-4 7,0 14,1 21,4 6,2 12,6 18,11l61 57 0 0c1,1 2,1 3,2l0 0c1,0 3,0 4,0 1,0 2,0 3,0l0 0c1,-1 3,-1 3,-2l1 0 29 -27 1 -1 45 -46 0 0c1,0 2,-1 2,-3l0 0c1,-1 1,-2 1,-3 0,-1 0,-2 -1,-3 0,-1 -1,-2 -2,-3zm-132 -171l152 152c3,3 6,7 7,11 2,5 3,9 3,14 0,5 -1,9 -3,14 -1,3 -3,6 -5,8l0 1 -2 3 -46 45 -1 1 -22 21 0 0 -8 7c-3,3 -7,6 -12,7 -4,2 -9,3 -13,3 -5,0 -9,-1 -14,-3 -4,-1 -8,-4 -12,-7l-5 -5 0 0 -56 -52c-2,-2 -6,-4 -9,-6 -3,-1 -7,-2 -11,-2 -4,0 -8,1 -11,2 -3,2 -7,4 -9,6l-62 57c-3,3 -7,6 -11,7 -5,2 -9,3 -14,3 -4,0 -9,-1 -13,-3 -5,-1 -9,-4 -12,-7l-6 -5 0 0 -24 -23 -1 -1 -46 -46c-3,-3 -6,-7 -8,-11 -1,-5 -2,-10 -2,-14 0,-5 1,-10 2,-14l0 0c2,-4 5,-8 8,-12l0 0 151 -151 8 -7 0 0c6,-4 12,-8 19,-10 10,-5 20,-7 31,-7 20,0 41,8 57,24z"/>
   <path class="fil1" d="M7212 22755l238 237 0 0c5,5 11,9 17,12 7,2 14,4 21,4 7,0 14,-2 20,-4 7,-3 13,-7 18,-12l0 0 237 -237 1 -1c11,-11 15,-18 15,-24 0,-5 -3,-10 -8,-15l0 0c-2,-2 -4,-3 -6,-5l0 0c-3,-3 -5,-4 -6,-6l0 0c-1,-1 -3,-2 -7,-6l0 0c-2,-1 -4,-3 -7,-6l-37 -35c-1,-1 -2,-2 -3,-2l0 0c-1,0 -2,-1 -3,-1 -2,0 -3,1 -4,1 -1,0 -2,1 -3,2l-7 7 0 0 -54 49 0 1c-6,4 -12,8 -18,11 -7,2 -14,4 -21,4 -7,0 -14,-2 -21,-4 -7,-3 -13,-7 -18,-11l0 -1 -51 -47 0 0 -10 -9c-1,-1 -2,-2 -3,-2 -2,0 -3,-1 -4,-1 -1,0 -3,1 -4,1 -1,0 -2,1 -3,2l0 0 -58 53 0 1 -3 3c-5,5 -11,8 -18,11 -7,2 -14,4 -21,4 -7,0 -14,-2 -21,-4 -6,-3 -12,-7 -18,-11l0 -1 -54 -49 0 0 -7 -7c-1,-1 -2,-2 -3,-2 -1,0 -2,-1 -4,-1 -1,0 -2,1 -3,1 -1,0 -2,1 -3,2l0 0 -34 32c-5,3 -8,7 -12,10l0 0 -3 3c-3,2 -6,5 -8,6 -2,2 -5,4 -7,6l-1 1c-4,5 -7,10 -7,14 0,6 5,14 16,26l0 0zm218 256l-237 -237c-17,-17 -25,-31 -25,-44 0,-9 3,-17 8,-25l-1 0 10 -10c2,-2 5,-5 8,-7 3,-3 6,-5 8,-7l6 -6c3,-2 6,-4 8,-6l34 -32c4,-3 8,-6 12,-7 4,-2 9,-3 13,-3 5,0 10,1 14,3 4,1 8,4 12,7l3 3 0 0 58 54 0 0c3,2 6,4 9,5 4,2 7,2 11,2 4,0 8,0 11,-2 4,-1 7,-3 10,-6l7 -6 0 0 54 -50c3,-3 7,-6 11,-7 5,-2 9,-3 14,-3 5,0 9,1 14,3 4,1 8,4 11,7l3 3 0 0 58 54c3,2 6,4 10,5 3,2 7,2 11,2 4,0 7,0 11,-2 3,-1 6,-3 9,-5l58 -54 0 0 3 -3c4,-3 8,-6 12,-7 4,-2 9,-3 14,-3 4,0 9,1 13,3 4,1 8,4 12,7l0 0 37 35c4,4 9,8 13,12l0 -1 0 1 0 0 0 0 0 0c5,4 10,8 13,12 11,10 18,21 17,34 0,11 -6,24 -20,39l1 0 -6 5 -237 237 -3 3 0 0c-7,7 -15,12 -23,15 -10,4 -21,6 -31,6 -11,0 -21,-2 -31,-6 -10,-4 -19,-10 -27,-18l0 0z"/>
  </g>
  <path class="fil1" d="M12130 10018c125,0 238,51 319,132l1 1c81,81 132,194 132,319 0,125 -51,238 -132,319l0 1c-82,81 -195,132 -320,132 -125,0 -238,-51 -320,-132 -81,-82 -132,-195 -132,-320 0,-125 51,-238 132,-320l1 0c81,-81 194,-132 319,-132zm244 208c-63,-62 -149,-101 -244,-101 -95,0 -181,39 -244,101l0 0c-62,63 -101,149 -101,244 0,95 39,181 101,244 63,62 149,101 244,101 95,0 181,-39 244,-101l0 0c62,-63 101,-149 101,-244 0,-95 -39,-182 -101,-244z"/>
  <polygon id="Plus_01" class="fil1" points="12184,10241 12184,10416 12359,10416 12359,10524 12184,10524 12184,10699 12076,10699 12076,10524 11901,10524 11901,10416 12076,10416 12076,10241 "/>
  <path class="fil1" d="M10426 11888l0 -195 0 -53 53 0 325 0 54 0 0 53 0 195 103 0 54 0 0 53 0 741 0 54 -54 0 -1079 0 -54 0 0 -54 0 -741 0 -53 54 0 544 0zm482 107l-973 0 0 633 973 0 0 -633zm-375 -133l218 0 0 -115 -218 0 0 115z"/>
  <g id="_1158973600">
   <path class="fil1" d="M10056 9286c221,58 384,260 384,500 0,285 -231,517 -517,517 -286,0 -517,-232 -517,-517 0,-240 163,-442 384,-500l9 104c-169,53 -291,210 -291,396 0,229 186,414 415,414 229,0 415,-185 415,-414 0,-186 -122,-343 -291,-396l9 -104z"/>
   <path class="fil1" d="M10043 9443c109,38 195,127 228,239l-110 0c-25,-57 -71,-104 -127,-131l9 -108zm-231 108c-73,35 -127,102 -143,183l67 0 441 0 105 0c3,17 4,34 4,52 0,200 -163,363 -363,363 -165,0 -303,-110 -348,-260l110 0c40,92 132,156 238,156 125,0 230,-89 254,-208l-74 0 -434 0 -105 0c-3,-16 -4,-34 -4,-51 0,-159 101,-294 243,-343l9 108z"/>
   <line class="fil3" x1="9841" y1="9277" x2="9875" y2= "9682" />
   <line class="fil3" x1="10005" y1="9277" x2="9971" y2= "9682" />
   <path class="fil1" d="M10005 9275c-27,-4 -54,-7 -82,-7 -28,0 -55,3 -82,7l34 407 96 0 34 -407z"/>
  </g>
  <g id="_1159001792">
   <polygon class="fil1" points="14492,21588 14716,21588 14716,21695 14492,21695 "/>
   <polygon class="fil1" points="14769,21588 14993,21588 14993,21695 14769,21695 "/>
   <polygon class="fil1" points="15056,21588 15280,21588 15280,21695 15056,21695 "/>
  </g>
  <polygon class="fil1" points="1361,18234 2043,18234 2043,18341 1361,18341 "/>
  <polygon class="fil1" points="2148,18234 2658,18234 2658,18341 2148,18341 "/>
  <polygon class="fil1" points="1324,18510 2712,18510 2712,18617 1324,18617 "/>
  <polygon class="fil1" points="1688,14926 2348,14926 2348,15033 1688,15033 "/>
  <path class="fil1" d="M1830 15616c119,19 240,105 392,217 90,66 223,115 290,233 -14,-150 -54,-275 -117,-365 -33,-48 -73,-86 -118,-113 -45,-27 -95,-42 -151,-46 -86,-6 -186,18 -296,74zm188 2282l-609 0 -32 0 -11 -30c-41,-106 -70,-224 -90,-355 -19,-129 -28,-271 -27,-425 0,-112 35,-216 94,-302 59,-87 144,-156 243,-196 25,-15 54,-29 85,-41l0 0c29,-11 61,-21 95,-29 7,-6 14,-12 20,-19l1 -1c-29,-25 -56,-53 -81,-85 -76,-97 -130,-226 -130,-367 0,-141 43,-270 113,-368l0 0 0 0c4,-6 9,-12 13,-17 20,-26 42,-49 66,-70l0 1c119,-110 252,-151 364,-144 70,5 135,25 192,59 56,34 106,81 147,140 103,149 153,376 135,653l-90 9c-18,-61 -40,-115 -65,-165 -18,102 -63,195 -121,269 -25,32 -52,60 -81,85l1 1c6,7 13,13 20,19 34,8 66,18 95,29l0 0c31,12 60,26 85,41 99,40 184,109 243,196 59,86 93,190 94,302 1,154 -8,296 -27,425 -20,131 -49,249 -90,355l-11 30 -32 0 -609 0zm-253 -2166c-60,82 -97,193 -97,316 0,120 46,228 111,311 25,32 53,60 82,83l13 9c25,19 51,33 76,43 19,7 37,11 54,13l0 0 1 0 1 0 1 0 0 0 1 0 1 0 1 0 1 0 0 0 1 0 1 0 1 1 0 0 1 0 1 0 1 0 1 0 1 0 1 0 1 0 1 0 0 0 1 -1 1 0 1 0 0 0 1 0 1 0 1 0 1 0 0 0 1 0 1 0 1 0 0 0c17,-2 35,-6 53,-13 26,-10 52,-24 77,-43l13 -9c29,-23 57,-51 82,-83 65,-83 110,-191 110,-311 0,-11 0,-23 0,-34 -67,-14 -146,-68 -199,-107 -181,-133 -317,-181 -403,-175zm-95 917l1 1 1 2 2 2 0 2 2 2 0 1 2 3 1 1 2 3 0 0 2 3 3 5 1 2 1 2 1 1 2 3 0 1 2 3 0 0 3 3 0 1 4 6 1 2 1 1 2 3 0 1 4 5 1 1 0 0 2 3 1 1 1 3 1 1 1 2 2 2 1 1 1 3 1 0 2 3 0 1 2 3 1 0 2 3 0 1 2 2 1 2 1 1 2 2 1 1 2 3 0 1 2 3 0 0 3 3 0 0 2 3 1 1 1 2 2 2 1 1 1 2 1 1 2 3 0 0 3 3 0 1 2 2 1 1 1 2 1 2 2 1 1 2 1 1 2 3 1 0 2 3 0 0 3 3 0 1 2 2 1 1 1 2 2 2 1 1 2 2 0 1 2 3 1 0 2 3 0 0 3 3 0 0 2 3 1 1 2 2 1 1 1 1 2 3 1 0 2 3 0 0 3 3 0 0 2 3 1 1 2 2 1 1 2 1 1 2 1 1 2 2 1 1 2 3c184,89 222,85 398,0l2 -3 1 -1 2 -2 1 -1 1 -2 2 -1 1 -1 2 -2 0 -1 3 -3 0 0 3 -3 0 0 2 -3 1 0 3 -4 1 -1 2 -2 1 -1 2 -3 0 0 3 -3 0 0 2 -3 0 0 3 -3 0 -1 2 -2 1 -1 2 -2 1 -2 1 -1 2 -2 0 -1 3 -3 0 0 2 -3 1 0 2 -3 1 -1 1 -2 1 -1 2 -2 1 -2 1 -1 2 -2 0 -1 3 -3 0 0 2 -3 1 -1 1 -2 1 -1 2 -2 1 -2 1 -1 2 -3 0 0 3 -3 0 0 2 -3 0 -1 2 -3 1 -1 2 -2 1 -1 1 -2 2 -2 0 -1 2 -3 1 0 2 -3 0 -1 2 -3 1 0 1 -3 1 -1 2 -2 1 -2 1 -1 1 -3 1 -1 2 -3 0 0 2 -3 1 0 2 -3 0 -1 2 -3 1 -1 1 -2 1 -2 1 -1 2 -3 0 -1 2 -3 0 0 3 -3 0 -1 2 -3 1 -1 1 -2 1 -2 1 -1 2 -3 0 -1 2 -3 0 0 2 -3 1 -1 1 -3 1 -1 2 -2 0 -2 2 -2 1 -2 1 -1c-11,-5 -22,-10 -34,-14l0 -1c-27,-10 -58,-19 -91,-27l-13 -5c-19,-12 -35,-26 -49,-43 -1,-2 -3,-4 -5,-6 -18,11 -37,20 -56,27 -26,10 -51,16 -76,18l0 0 -4 1 -1 0 -4 0 -1 0 -2 0 -1 0 -1 0 -1 0 -1 0 -3 1 0 0 -2 0 -2 0 -1 0 -2 0 -1 0 -2 0 0 0 0 0 -3 -1 -1 0 -1 0 -1 0 -1 0 -3 0 0 0 -2 0 -2 0 -1 0 -4 -1 0 0c-25,-2 -50,-8 -76,-18 -19,-7 -38,-16 -56,-27 -2,2 -4,4 -5,6 -14,17 -30,31 -50,43l-12 5c-33,8 -64,17 -91,27l0 1c-12,4 -23,9 -34,14zm-229 1157l577 0 577 0c33,-92 57,-194 74,-306 18,-126 27,-263 26,-411 0,-93 -29,-179 -78,-251 -43,-62 -101,-114 -169,-148l-2 4 0 0 -3 4 0 0 -2 4 0 0 -2 3 -1 2 -2 2 -1 2 -1 2 -1 2 -1 2 -2 3 -3 3 0 1 0 0 -2 4 0 0 -3 3 0 1 -2 3 -1 2 -1 2 -2 2 -1 1 -1 3 -1 1 -2 3 -1 1 -2 3 0 0 -2 4 -1 0 -2 4 0 1 -2 2 -1 2 -2 2 -1 2 -1 1 -2 3 -1 1 -2 3 0 1 -3 3 0 0 -2 4 -1 0 -2 3 0 1 -2 3 -1 1 -2 2 -1 2 -1 2 -2 2 -1 1 -2 3 0 1 -3 3 0 0 -3 3 0 1 -2 3 -1 1 -2 2 -1 2 -1 2 -2 2 -1 1 -2 3 -1 0 -2 3 0 1 -3 3 0 0 -3 3 0 1 -2 3 -1 1 -2 2 -1 2 -2 1 -1 2 -1 2 -2 2 -1 1 -3 3 0 0 -2 3 -1 1 -2 3 -1 0 -2 3 -1 1 -2 2 -1 2 -1 1 -2 2 -1 1 -3 3 0 1 -3 3 0 0 -3 3 0 0 -2 3 -1 1 -2 2 -1 1 -2 2 -2 2 -1 1 -2 3 -1 0 -2 3 -1 1 -3 3c-242,91 -293,96 -530,0l-3 -3 -1 -1 -2 -3 -1 0 -2 -3 -1 -1 -2 -2 -2 -2 -1 -1 -2 -2 -1 -1 -2 -3 0 0 -3 -3 0 0 -3 -3 0 -1 -3 -3 -1 -1 -2 -2 -1 -1 -1 -2 -2 -2 -1 -1 -2 -3 -1 0 -2 -3 -1 -1 -2 -3 0 0 -3 -3 -1 -1 -2 -2 -1 -2 -1 -2 -2 -1 -1 -2 -2 -2 -1 -1 -2 -3 0 -1 -3 -3 0 0 -3 -3 0 -1 -2 -3 -1 0 -2 -3 -1 -1 -2 -2 -1 -2 -1 -2 -2 -2 -1 -1 -2 -3 0 -1 -3 -3 0 0 -3 -3 0 -1 -2 -3 -1 -1 -2 -2 -1 -2 -1 -2 -2 -2 -1 -1 -2 -3 0 -1 -3 -3 0 0 -2 -4 0 0 -3 -3 0 -1 -2 -3 -1 -1 -2 -3 -1 -1 -1 -2 -2 -2 -1 -2 0 0 -2 -3 -2 -4 -1 0 -2 -4 0 0 -2 -3 -1 -1 -2 -3 -1 -1 -1 -3 -1 -1 -2 -2 -1 -2 -1 -2 -2 -3 0 -1 -3 -3 0 0 -2 -4 0 0 -3 -4 0 0 -2 -3 -1 -2 -1 -2 -1 -2 -2 -2 -1 -2 -1 -2 -2 -3 0 0 -2 -4 0 0 -3 -4 0 0 -2 -4c-68,34 -127,86 -169,148 -49,72 -78,158 -78,251 -1,148 8,285 26,411 17,112 41,214 74,306z"/>
  <path class="fil1" d="M1773 19525l0 -255 -414 0c-144,0 -275,-58 -370,-153 -94,-95 -153,-226 -153,-370l0 -3512c0,-144 59,-275 153,-370 95,-94 226,-153 370,-153l1318 0c144,0 275,59 370,153 94,95 153,226 153,370l0 3512c0,144 -59,275 -153,370 -95,95 -226,153 -370,153l-414 0 0 255 0 40 -41 0 -204 0 -204 0 -41 0 0 -40zm340 -632c7,5 13,10 19,16l0 0c29,29 47,70 47,114 0,45 -18,85 -47,114l0 0c-10,10 -22,19 -34,26l579 0c114,0 218,-47 294,-122 75,-75 122,-179 122,-294l0 -3512c0,-114 -47,-218 -122,-294 -76,-75 -180,-122 -294,-122l-1318 0c-114,0 -218,47 -294,122 -75,76 -122,180 -122,294l0 3512c0,115 47,219 122,294 76,75 180,122 294,122l579 0c-12,-7 -24,-16 -34,-26l0 0c-29,-29 -47,-69 -47,-114 0,-44 18,-85 47,-114l0 0c6,-6 12,-11 19,-16l-789 0c-37,0 -70,-15 -94,-39l-1 0 0 -1c-24,-24 -39,-57 -39,-94l0 -3480c0,-37 15,-70 39,-95l0 0c25,-24 58,-39 95,-39l1768 0c37,0 70,15 95,39 24,25 39,58 39,95l0 3480c0,37 -15,70 -39,95l0 0c-25,24 -58,39 -95,39l-789 0zm-27 62c-18,-17 -42,-28 -68,-28 -26,0 -50,11 -68,28 -17,18 -28,42 -28,68 0,27 11,51 28,68 18,17 42,28 68,28 26,0 50,-11 68,-28 17,-17 28,-41 28,-68 0,-26 -11,-50 -28,-68zm816 -3703l-1768 0c-7,0 -14,3 -19,8l0 0c-5,5 -8,12 -8,19l0 3480c0,7 3,14 8,19l0 0c5,5 12,8 19,8l1768 0c7,0 14,-3 19,-8l0 0c5,-5 8,-12 8,-19l0 -3480c0,-7 -3,-14 -8,-19 -5,-5 -12,-8 -19,-8zm-720 4018l-328 0 0 215 328 0 0 -215z"/>
  <path class="fil1" d="M13947 978l1318 0c144,0 275,59 370,153 94,95 153,226 153,370l0 3512c0,144 -59,275 -153,370 -95,95 -226,153 -370,153l-414 0 0 255 0 40 -41 0 -408 0 -41 0 0 -40 0 -255 -414 0c-144,0 -275,-58 -370,-153 -94,-95 -153,-226 -153,-370l0 -1671 0 -1841c0,-144 59,-275 153,-370 95,-94 226,-153 370,-153zm823 4558l-328 0 0 215 328 0 0 -215zm-69 -377c7,5 13,10 19,16l0 0c29,29 47,70 47,114 0,44 -18,85 -47,114l0 0c-10,10 -22,19 -34,26l579 0c114,0 218,-47 294,-122 75,-75 122,-179 122,-294l0 -3512c0,-115 -47,-219 -122,-294 -76,-75 -180,-122 -294,-122l-1318 0c-114,0 -218,47 -294,122 -75,75 -122,179 -122,294l0 3512c0,115 47,219 122,294 76,75 180,122 294,122l579 0c-12,-7 -24,-16 -34,-26l0 0c-29,-29 -47,-70 -47,-114 0,-44 18,-85 47,-114l0 0c6,-6 12,-11 19,-16l190 0zm-27 62c-18,-17 -42,-28 -68,-28 -26,0 -50,11 -68,28 -17,18 -28,42 -28,68 0,27 11,50 28,68 18,17 42,28 68,28 26,0 50,-11 68,-28 17,-18 28,-41 28,-68 0,-26 -11,-50 -28,-68z"/>
  <path class="fil1" d="M13722 1411l1768 0c37,0 70,15 95,39 24,25 39,58 39,95l0 3480c0,37 -15,70 -39,95l0 -1c-25,25 -58,40 -95,40l-1768 0c-37,0 -70,-15 -94,-39l-1 -1 0 0c-24,-24 -39,-57 -39,-94l0 -3480c0,-37 15,-70 39,-95l0 0c25,-24 58,-39 95,-39zm1768 107l-1768 0c-7,0 -14,3 -19,8l0 0c-5,5 -8,12 -8,19l0 3480c0,7 3,14 8,19l0 0c5,5 12,8 19,8l1768 0c7,0 14,-3 19,-8l0 0c5,-5 8,-12 8,-19l0 -3480c0,-7 -3,-14 -8,-19 -5,-5 -12,-8 -19,-8z"/>
  <polygon class="fil1" points="13949,3826 14631,3826 14631,3933 13949,3933 "/>
  <polygon class="fil1" points="14736,3826 15246,3826 15246,3933 14736,3933 "/>
  <polygon class="fil1" points="13912,4102 15300,4102 15300,4209 13912,4209 "/>
  <polygon class="fil1" points="14276,1192 14936,1192 14936,1299 14276,1299 "/>
  <path class="fil1" d="M14800 2131c323,86 560,379 560,729 0,416 -338,753 -754,753 -416,0 -754,-337 -754,-753 0,-350 238,-644 560,-729l13 152c-246,76 -424,306 -424,577 0,333 271,604 605,604 334,0 605,-271 605,-604 0,-271 -178,-500 -423,-577l12 -152z"/>
  <path class="fil1" d="M14781 2360c159,56 284,186 332,348l-161 0c-36,-83 -102,-151 -184,-190l13 -158zm-336 158c-106,50 -185,148 -209,266l97 0 643 0 154 0c3,25 5,50 5,76 0,292 -237,529 -529,529 -240,0 -442,-160 -507,-378l161 0c58,133 191,226 346,226 183,0 335,-129 370,-302l-108 0 -632 0 -154 0c-3,-25 -5,-50 -5,-75 0,-231 148,-428 354,-500l14 158z"/>
  <line class="fil3" x1="14487" y1="2118" x2="14536" y2= "2708" />
  <line class="fil3" x1="14726" y1="2118" x2="14677" y2= "2708" />
  <path id="CS_bit" class="fil1" d="M14726 2115c-39,-6 -79,-9 -120,-9 -41,0 -80,3 -119,9l49 593 141 0 49 -593z"/>
  <g id="_1247387936">
   <path class="fil1" d="M4759 23585l-255 -255c-44,-44 -116,-44 -161,0l-254 255c-15,14 -15,38 0,53l77 77 51 48c16,14 39,14 54,0l103 -95c28,-26 72,-26 100,0l103 95c15,14 39,14 54,0l51 -48 77 -76c15,-15 15,-39 0,-54z"/>
   <path class="fil1" d="M3943 23890l400 400c44,44 117,44 161,0l400 -400c69,-69 20,-90 -30,-138l-63 -59c-15,-15 -39,-14 -54,0l-103 95c-28,26 -72,26 -100,0l-103 -95c-15,-14 -39,-14 -54,0l-103 95c-28,26 -71,26 -100,0l-103 -95c-15,-14 -38,-14 -53,0l-58 53c-53,49 -109,72 -37,144z"/>
  </g>
  <g id="_1247402848">
   <path class="fil1" d="M9537 14321l-921 -921c-31,-31 -67,-55 -105,-71 -40,-16 -82,-24 -125,-24 -43,0 -86,8 -126,24 -34,15 -67,35 -96,62l-9 9 -919 919 -4 4c-3,4 -6,8 -8,13 -2,6 -4,13 -4,21 0,7 2,14 4,20 3,6 7,12 12,17l279 279 6 6 176 164 1 0c6,5 12,9 19,12l0 0c7,2 14,4 22,4 7,0 15,-2 22,-4 6,-3 13,-7 19,-12l0 0 371 -343c33,-31 70,-54 109,-69 41,-17 85,-25 128,-25 42,0 86,8 126,25 40,15 77,38 110,69l371 343 1 0c5,5 12,9 18,12l0 0c7,2 15,4 22,4 8,0 15,-2 22,-4l0 0c7,-3 13,-7 19,-12l0 0 177 -164 6 -6 277 -277 0 0c5,-5 9,-11 12,-17l0 0c2,-6 4,-13 4,-20 0,-8 -2,-15 -4,-21 -3,-6 -6,-12 -12,-17zm-803 -1039l921 921c20,21 36,45 47,72 11,27 17,55 17,84 0,28 -6,56 -17,83 -7,18 -17,35 -29,51l0 3 -18 18 -277 277 -5 4 -137 126 0 0 -46 43c-22,20 -46,35 -71,45 -27,11 -55,16 -83,16 -27,0 -56,-5 -82,-16 -26,-10 -50,-25 -71,-45l-34 -31 0 0 -337 -312c-17,-16 -37,-28 -58,-36 -21,-8 -44,-12 -66,-12 -23,0 -46,4 -67,12 -21,8 -41,20 -58,36l-371 343c-21,20 -46,35 -71,45 -27,11 -55,16 -82,16 -28,0 -56,-5 -83,-16 -25,-10 -49,-25 -71,-45l-33 -31 0 0 -150 -138 -5 -4 -279 -279c-20,-21 -36,-45 -47,-71 -11,-28 -17,-56 -17,-84 0,-28 6,-57 17,-84l0 0c11,-26 27,-50 48,-71l-1 0 920 -920 43 -43 3 3c35,-27 73,-49 113,-66 61,-25 125,-37 189,-37 126,0 252,48 348,143z"/>
   <path class="fil1" d="M6712 15407l1443 1443 0 0c31,31 67,55 105,70 40,17 83,25 126,25 43,0 85,-8 125,-25 38,-15 74,-39 105,-70l0 0 1443 -1443 7 -7c63,-64 89,-109 91,-143 2,-29 -19,-58 -51,-90l0 0c-11,-11 -22,-22 -34,-32l0 0c-18,-17 -29,-26 -39,-35l-1 0c-6,-5 -14,-12 -39,-35l0 1c-12,-12 -26,-24 -42,-39l-226 -214c-5,-5 -11,-9 -18,-12l0 0c-6,-2 -14,-4 -21,-4 -8,0 -16,2 -23,4 -7,3 -13,7 -19,13l-43 40 0 -1 -328 304 0 0c-33,30 -70,53 -110,69 -41,16 -84,24 -127,24 -43,0 -86,-8 -127,-24 -39,-16 -76,-39 -109,-69l0 0 -312 -288 0 0 -59 -56c-6,-5 -13,-9 -20,-11 -6,-3 -14,-4 -21,-4 -8,0 -16,1 -23,4 -6,2 -13,6 -18,11l0 0 -352 325 0 1 -20 18c-32,30 -70,53 -109,69 -41,16 -84,24 -127,24 -43,0 -86,-8 -127,-24 -40,-16 -77,-39 -110,-69l0 0 -328 -304 0 0 -43 -40c-5,-5 -12,-9 -19,-11 -7,-3 -14,-4 -22,-4 -8,0 -15,1 -22,4 -7,2 -13,6 -19,11l0 0 -208 193c-25,23 -48,42 -69,60l0 1 -22 18c-18,16 -35,30 -47,40 -14,12 -27,25 -39,37l-6 5c-28,29 -46,57 -45,86 2,38 31,86 99,154l0 0zm1326 1561l-1444 -1444c-105,-105 -148,-191 -150,-268 -2,-56 17,-104 48,-149l-5 -2 59 -60c15,-15 31,-29 48,-44 19,-17 35,-30 50,-43l39 -33c15,-13 31,-27 46,-41l208 -192c21,-20 45,-35 71,-45 26,-10 54,-16 82,-16 28,0 56,6 82,16 26,10 50,25 71,45l20 18 0 0 352 325 0 0c17,16 36,28 57,36 21,9 44,13 67,13 23,0 45,-4 66,-13 21,-8 41,-20 58,-36l43 -40 0 0 328 -303c22,-20 46,-35 71,-45 27,-10 55,-16 83,-16 27,0 55,6 82,16 25,10 50,25 71,45l20 18 0 0 351 325c17,16 37,28 57,36 22,9 44,13 67,13 23,0 46,-4 67,-13 21,-8 41,-20 58,-36l351 -325 0 0 20 -18c21,-20 45,-35 71,-45 27,-11 55,-16 83,-16 27,0 55,6 82,16 26,10 50,26 71,46l0 0 227 214c26,25 51,47 75,68l0 0 0 0 4 3 0 0 0 0c29,26 58,51 79,72 63,63 105,127 103,208 -2,69 -37,144 -120,234l1 1 -31 31 -1443 1444 -18 17 -2 0c-42,38 -89,68 -140,89 -60,25 -125,37 -188,37 -64,0 -128,-12 -189,-37 -58,-24 -112,-60 -159,-106l0 0z"/>
  </g>
  <path class="fil0 str0" d="M2020 19521l0 560c0,303 247,551 550,551l2020 0c303,0 550,-248 550,-551l0 -1714c0,-165 65,-307 190,-416l2103 -1823"/>
  <path class="fil0 str0" d="M14607 5791l0 2683c0,303 -247,550 -550,550l-2385 0c-128,0 -238,-38 -339,-117l-2743 -2150c-137,-108 -210,-258 -210,-433l0 -1502c0,-303 -248,-550 -551,-550l-1563 0"/>
  <g id="Links">
   <line class="fil0 str1 path" x1="6849" y1="21261" x2="4701" y2= "23527" />
   <line class="fil0 str1 path" x1="7295" y1="22224" x2="7399" y2= "22436" />
   <line class="fil0 str1 path" x1="11886" y1="12719" x2="12585" y2= "12926" />
   <g>
    <g>
     <path class="fil0 str1 path" d="M10644 17777l-243 862m-401 397l-992 273"/>
     <path class="fil0 str1 path" d="M15595 20034l-656 -542m-236 83l-131 632m-278 156l-3676 -1304"/>
     <line class="fil0 str1 path" x1="10530" y1="17242" x2="9589" y2= "16112" />
     <line class="fil0 str1 path" x1="10903" y1="17225" x2="13450" y2= "13479" />
     <line class="fil0 str1 path" x1="12749" y1="13297" x2="10871" y2= "17205" />
     <path class="fil0 str1 path" d="M9248 13797c179,-181 833,-844 1026,-1061"/>
    </g>
    <g>
     <line class="fil0 str1 path" x1="13915" y1="12244" x2="13136" y2= "12827" />
     <path class="fil0 str1 path" d="M14469 12047l89 -103m-50 -62l-122 64"/>
     <line class="fil0 str1 path" x1="12483" y1="10752" x2="13920" y2= "11902" />
     <g>
      <path class="fil0 str1 path" d="M1387 21789l466 448m-6 423l-219 201"/>
      <path class="fil0 str1 path" d="M4619 13049l-2488 1663m-151 0l-588 -2231"/>
      <line class="fil0 str1" x1="2020" y1="19565" x2="1274" y2= "21253" />
      <g>
       <g>
        <line class="fil0 str1 path" x1="10404" y1="9976" x2="11697" y2= "10340" />
        <line class="fil0 str1 path" x1="7413" y1="9562" x2="9828" y2= "11891" />
        <line class="fil0 str1 path" x1="12933" y1="7766" x2="10436" y2= "9716" />
        <line class="fil0 str1 path" x1="7523" y1="9452" x2="9407" y2= "9743" />
        <line class="fil0 str1 path" x1="9934" y1="10303" x2="9868" y2= "11907" />
       </g>
       <g>
        <path class="fil0 str1 path" d="M8978 2653c110,47 362,156 451,199"/>
        <g>
         <line class="fil0 str1 path" x1="7359" y1="8887" x2="9331" y2= "3627" />
         <line class="fil0 str1 path" x1="6914" y1="3438" x2="8362" y2= "2722" />
         <line class="fil0 str1 path" x1="6549" y1="3610" x2="6256" y2= "3739" />
         <path class="fil0 str1 path" d="M10444 3335c428,0 2980,-1 2980,-1"/>
         <line class="fil0 str1 path" x1="6956" y1="8899" x2="5980" y2= "5527" />
         <line class="fil0 str1 path" x1="14572" y1="5831" x2="13425" y2= "7259" />
         <line class="fil0 str1 path" x1="4732" y1="7834" x2="3984" y2= "5942" />
        </g>
       </g>
      </g>
     </g>
    </g>
   </g>
  </g>
  <path id="Center_01" class="fil2" d="M1427 22945c55,0 99,44 99,99 0,54 -44,98 -99,98 -54,0 -98,-44 -98,-98 0,-55 44,-99 98,-99z"/>
 </g>
</svg>
