<?xml version="1.0" encoding="UTF-8"?>
<!DOCTYPE svg PUBLIC "-//W3C//DTD SVG 1.1//EN" "http://www.w3.org/Graphics/SVG/1.1/DTD/svg11.dtd">
<!-- Creator: CorelDRAW X7 -->
<svg xmlns="http://www.w3.org/2000/svg" xml:space="preserve" width="0.18in" height="0.126665in" version="1.1" style="shape-rendering:geometricPrecision; text-rendering:geometricPrecision; image-rendering:optimizeQuality; fill-rule:evenodd; clip-rule:evenodd"
viewBox="0 0 348 245"
 xmlns:xlink="http://www.w3.org/1999/xlink">
 <defs>
  <style type="text/css">
   <![CDATA[
    .fil2 {fill:none}
    .fil0 {fill:red}
    .fil1 {fill:yellow}
   ]]>
  </style>
   <clipPath id="id0">
    <path d="M26 0l297 0c14,0 25,12 25,26l0 193c0,15 -11,26 -25,26l-297 0c-14,0 -26,-11 -26,-26l0 -193c0,-14 12,-26 26,-26z"/>
   </clipPath>
 </defs>
 <g id="Layer_x0020_1">
  <metadata id="CorelCorpID_0Corel-Layer"/>
  <g>
  </g>
  <g style="clip-path:url(#id0)">
   <g>
    <rect class="fil0" x="-16" y="-2" width="381" height="260"/>
    <g id="_1015454896">
     <polygon class="fil1" points="45,50 53,23 60,49 89,49 67,66 75,93 53,76 31,93 39,68 18,50 "/>
     <polygon class="fil1" points="124,23 128,17 127,24 134,26 127,28 127,36 123,30 117,32 121,27 117,20 "/>
     <polygon class="fil1" points="145,60 151,57 148,63 154,67 147,67 144,74 142,67 135,67 141,63 139,56 "/>
     <polygon class="fil1" points="104,133 108,127 108,134 115,136 109,139 109,146 105,140 98,143 101,137 97,132 "/>
     <polygon class="fil1" points="136,100 138,93 140,100 147,100 142,104 143,111 138,107 132,111 134,104 129,100 "/>
    </g>
   </g>
  </g>
  <path class="fil2" d="M26 0l297 0c14,0 25,12 25,26l0 193c0,15 -11,26 -25,26l-297 0c-14,0 -26,-11 -26,-26l0 -193c0,-14 12,-26 26,-26z"/>
 </g>
</svg>
