<?xml version="1.0" encoding="UTF-8"?>
<!DOCTYPE svg PUBLIC "-//W3C//DTD SVG 1.1//EN" "http://www.w3.org/Graphics/SVG/1.1/DTD/svg11.dtd">
<!-- Creator: CorelDRAW X7 -->
<svg xmlns="http://www.w3.org/2000/svg" xml:space="preserve" width="488px" height="160px" version="1.1" style="shape-rendering:geometricPrecision; text-rendering:geometricPrecision; image-rendering:optimizeQuality; fill-rule:evenodd; clip-rule:evenodd"
viewBox="0 0 12871 4229"
 xmlns:xlink="http://www.w3.org/1999/xlink">
 <defs>
  <style type="text/css">
   <![CDATA[
    .fil8 {fill:#09A158}
    .fil7 {fill:#4486F7}
    .fil5 {fill:#9BA5AF}
    .fil0 {fill:#CCCCCC}
    .fil6 {fill:#CED8E2}
    .fil4 {fill:#CFD8E1}
    .fil9 {fill:#D94237}
    .fil3 {fill:#E1E8EE}
    .fil10 {fill:#FAC63E}
    .fil2 {fill:#4D4D4D;fill-rule:nonzero}
    .fil1 {fill:#CCCCCC;fill-rule:nonzero}
    .fil12 {fill:white;fill-opacity:0.250980}
    .fil11 {fill:url(#id0)}
   ]]>
  </style>
  <linearGradient id="id0" gradientUnits="userSpaceOnUse" x1="5087.16" y1="981.528" x2="11411.6" y2="981.528">
   <stop offset="0" style="stop-opacity:1; stop-color:#5CC6D0"/>
   <stop offset="0.490196" style="stop-opacity:1; stop-color:#2EAFD5"/>
   <stop offset="1" style="stop-opacity:1; stop-color:#0098DA"/>
  </linearGradient>
 </defs>
 <g id="Layer_x0020_1">
  <metadata id="CorelCorpID_0Corel-Layer"/>
  <path class="fil0" d="M452 6l11968 0c245,0 445,201 445,446l0 3324c0,246 -200,447 -445,447l-11968 0c-245,0 -446,-201 -446,-447l0 -3324c0,-245 201,-446 446,-446z"/>
  <path id="_1" class="fil1" d="M12420 12l-11968 0 0 -12 11968 0 0 0 0 12zm451 440l-11 0 0 0 -1 -22 -2 -23 -3 -22 -3 -22 -6 -20 -5 -21 -8 -21 -7 -20 -9 -19 -10 -19 -10 -19 -12 -18 -12 -17 -13 -16 -14 -16 -15 -16 -15 -15 -16 -13 -17 -13 -17 -13 -18 -11 -18 -11 -19 -10 -20 -9 -19 -8 -21 -6 -21 -6 -22 -5 -21 -4 -22 -3 -22 -2 -22 0 0 -12 23 1 22 1 23 4 22 4 22 4 21 7 22 7 19 8 20 9 20 10 20 11 17 11 19 13 16 14 17 14 15 15 15 16 15 16 13 17 12 18 12 18 12 19 9 19 10 20 8 21 7 21 5 21 6 22 4 22 2 23 3 23 0 23 0 0zm-11 3324l0 -3324 11 0 0 3324 0 0 -11 0zm-440 452l0 -11 0 0 22 -1 22 -1 22 -3 21 -4 22 -5 21 -6 21 -7 19 -8 20 -9 19 -9 18 -11 18 -12 17 -12 17 -13 16 -14 15 -14 15 -16 14 -16 13 -16 12 -18 12 -17 10 -19 10 -19 9 -20 7 -20 8 -20 5 -20 6 -22 3 -22 3 -22 2 -22 1 -23 11 0 0 23 -3 24 -2 22 -4 22 -6 22 -5 21 -7 21 -8 21 -10 20 -9 19 -12 19 -12 19 -12 17 -13 18 -15 16 -15 16 -15 15 -17 14 -16 13 -19 13 -17 12 -20 11 -20 10 -20 9 -19 8 -22 7 -21 6 -22 6 -22 3 -23 3 -22 2 -23 0 0 0 0 0zm-11968 -11l11968 0 0 11 -11968 0 0 0 0 -11zm-452 -441l12 0 0 0 0 24 2 21 3 23 4 21 5 22 6 20 6 20 8 20 9 20 10 20 11 18 11 17 13 18 13 16 13 16 15 16 16 14 16 14 16 14 17 12 19 11 18 11 18 9 20 9 20 8 20 7 22 6 21 5 21 4 22 3 23 2 22 0 0 12 -23 -1 -23 -2 -22 -3 -23 -3 -21 -6 -22 -5 -21 -8 -21 -8 -19 -9 -20 -10 -19 -11 -18 -12 -18 -13 -17 -13 -16 -14 -16 -15 -15 -16 -14 -16 -14 -18 -12 -17 -12 -19 -11 -19 -10 -19 -9 -20 -8 -21 -7 -20 -6 -22 -5 -21 -4 -23 -3 -22 -2 -23 -1 -24 0 0 0 0zm12 -3324l0 3324 -12 0 0 -3324 0 0 12 0zm440 -452l0 12 0 0 -22 0 -23 2 -22 3 -22 4 -20 5 -22 6 -20 6 -20 8 -20 9 -18 10 -19 11 -18 11 -17 13 -16 13 -16 13 -16 15 -15 16 -13 16 -13 16 -13 17 -11 18 -11 19 -10 19 -9 19 -8 20 -6 21 -6 21 -5 20 -4 22 -3 22 -2 23 0 22 -12 0 1 -23 1 -23 4 -23 4 -22 4 -22 7 -21 7 -21 8 -21 9 -20 10 -19 11 -19 11 -18 13 -18 14 -17 14 -16 15 -16 16 -15 16 -14 17 -14 18 -13 18 -11 19 -11 19 -10 20 -9 21 -8 21 -7 21 -7 22 -4 22 -4 23 -4 23 -1 23 -1 0 0 0 0z"/>
  <path id="_10" class="fil2" d="M11501 3324c-6,-35 -8,-74 -8,-116 0,-43 2,-82 8,-116 5,-34 14,-67 28,-99 13,-31 30,-58 52,-79 21,-21 49,-38 85,-51 34,-12 75,-18 121,-18 38,0 72,4 101,12 29,8 53,21 72,38 19,16 35,35 47,55 12,20 21,45 28,75 5,29 9,58 11,85 3,27 4,60 4,98l0 44 -460 0c2,27 4,51 8,71 4,22 10,43 19,64 9,21 21,39 34,52 14,14 32,25 55,34 23,8 50,13 81,13 49,0 92,-4 126,-9 35,-7 69,-16 103,-31l0 84c-62,27 -139,41 -229,41 -46,0 -87,-6 -122,-19 -35,-13 -63,-30 -84,-50 -22,-22 -39,-48 -52,-79 -14,-32 -23,-65 -28,-100l0 1zm89 -151l364 0c0,-21 0,-39 -1,-53 -1,-14 -1,-30 -5,-50 -2,-18 -5,-34 -9,-45 -5,-12 -11,-25 -19,-39 -8,-12 -18,-23 -30,-30 -12,-7 -26,-13 -44,-18 -18,-6 -37,-8 -59,-8 -32,0 -59,5 -82,13 -24,10 -43,22 -56,36 -15,15 -26,32 -35,55 -8,22 -14,44 -17,65 -3,22 -6,46 -7,74l0 0z"/>
  <path class="fil3" d="M821 1208l2805 0 0 1952c0,140 -116,255 -256,255l-2294 0c-140,0 -255,-115 -255,-255l0 -1952z"/>
  <path id="_1_0" class="fil1" d="M3626 1213l-2805 0 0 -11 2805 0 5 6 -5 5 0 0zm0 -11l5 0 0 6 -5 -6zm-6 1958l0 -1952 11 0 0 1952 0 0 -11 0zm-250 261l0 -11 0 0 13 -1 12 -1 13 -1 12 -3 12 -2 12 -4 11 -3 12 -5 11 -5 11 -6 10 -6 11 -6 9 -8 10 -7 9 -8 8 -8 8 -9 8 -8 8 -10 7 -10 6 -10 7 -10 5 -11 5 -11 5 -12 3 -11 4 -12 2 -12 3 -12 1 -13 1 -12 1 -13 11 0 -1 13 -1 14 -1 13 -2 12 -4 13 -3 12 -4 12 -5 12 -5 11 -6 12 -6 11 -7 10 -8 11 -7 10 -9 9 -8 9 -9 9 -9 8 -10 7 -11 8 -10 7 -11 6 -11 6 -12 5 -12 5 -12 4 -12 3 -12 3 -13 3 -13 1 -14 1 -13 1 0 0zm-2294 -11l2294 0 0 11 -2294 0 0 0 0 -11zm-260 -250l11 0 0 0 1 13 0 12 2 13 2 12 3 12 3 12 4 11 5 12 5 11 5 11 7 10 6 11 6 9 8 10 8 9 8 8 9 8 9 8 9 7 10 8 10 6 11 6 10 6 11 5 12 5 12 3 11 4 12 2 12 3 13 1 12 1 13 1 0 11 -13 -1 -13 -1 -13 -1 -13 -3 -13 -3 -12 -3 -12 -4 -12 -5 -12 -5 -11 -6 -10 -6 -11 -7 -10 -8 -10 -7 -10 -8 -9 -9 -9 -9 -8 -9 -8 -10 -7 -11 -6 -10 -6 -11 -6 -12 -6 -11 -4 -12 -4 -12 -4 -12 -3 -12 -2 -13 -2 -13 -1 -14 0 -13 0 0 0 0zm11 -1952l0 1952 -11 0 0 -1952 5 -6 6 6 0 0zm-11 0l0 -6 5 0 -5 6z"/>
  <rect class="fil4" x="821" y="1208" width="2804" height="1107"/>
  <polygon class="fil5" points="1814,814 2633,814 2671,939 2633,1010 1814,1010 1772,936 "/>
  <polygon class="fil6" points="1607,1215 1814,1215 1814,814 1610,1003 "/>
  <polygon class="fil6" points="2840,1228 2633,1228 2633,814 2836,1003 "/>
  <path class="fil7" d="M2226 2773c237,0 429,193 429,429 0,78 -21,150 -57,213l-745 0c-36,-63 -56,-135 -56,-213 0,-236 192,-429 429,-429z"/>
  <path class="fil8" d="M1694 3297c7,40 19,78 35,114l-666 0c-12,-68 -18,-139 -18,-210 0,-256 81,-493 220,-687l429 783 0 0z"/>
  <path class="fil9" d="M2226 2020c458,0 854,260 1050,641l-1050 0c-299,0 -540,242 -540,540 0,33 3,65 8,96l-429 -783c0,0 320,-494 961,-494l0 0z"/>
  <path class="fil10" d="M3276 2661c80,159 126,340 126,530 0,72 -7,141 -19,210l-3 14 -670 0 8 -14c27,-65 42,-136 42,-210 0,-261 -186,-479 -432,-529l0 -1 948 0 0 0z"/>
  <path class="fil2" d="M6011 1689c39,0 71,11 95,33 24,22 35,51 35,86 0,36 -11,65 -35,87 -24,20 -55,32 -95,32l-105 0 0 -238 105 0zm1 34l-69 0 0 169 69 0c28,0 50,-8 66,-23 16,-14 25,-35 25,-61 0,-25 -9,-46 -25,-61 -17,-16 -39,-24 -66,-24z"/>
  <path id="_1_1" class="fil2" d="M6661 1899c32,0 58,-8 78,-26 20,-17 29,-39 29,-65 0,-27 -9,-48 -30,-66 -20,-17 -45,-26 -77,-26 -31,0 -57,9 -77,26 -20,18 -30,39 -30,66 0,26 10,48 30,65 20,18 46,26 77,26l0 0zm0 35c-43,0 -77,-12 -104,-36 -28,-24 -42,-54 -42,-90 0,-36 14,-67 41,-90 27,-24 62,-36 105,-36 43,0 78,12 105,35 27,24 41,55 41,91 0,36 -14,66 -41,90 -27,24 -62,36 -105,36l0 0z"/>
  <polygon id="_2" class="fil2" points="7249,1927 7168,1689 7205,1689 7263,1863 7323,1689 7354,1689 7413,1863 7471,1689 7508,1689 7428,1927 7401,1927 7338,1744 7275,1927 "/>
  <polygon id="_3" class="fil2" points="7890,1927 7890,1689 7909,1689 8060,1855 8060,1689 8097,1689 8097,1927 8078,1927 7927,1760 7927,1927 "/>
  <polygon id="_4" class="fil2" points="8515,1927 8515,1689 8551,1689 8551,1892 8729,1892 8729,1927 "/>
  <path id="_5" class="fil2" d="M9222 1899c31,0 58,-8 78,-26 20,-17 29,-39 29,-65 0,-27 -9,-48 -29,-66 -21,-17 -47,-26 -78,-26 -32,0 -57,9 -77,26 -20,18 -31,39 -31,66 0,26 11,48 31,65 20,18 45,26 77,26zm0 35c-42,0 -77,-12 -104,-36 -28,-24 -42,-54 -42,-90 0,-36 14,-67 42,-90 27,-24 61,-36 104,-36 43,0 78,12 105,35 27,24 41,55 41,91 0,36 -14,66 -41,90 -27,24 -62,36 -105,36l0 0z"/>
  <path id="_6" class="fil2" d="M9805 1835l93 0 -46 -91 -47 91 0 0zm-86 92l121 -238 24 0 121 238 -40 0 -30 -61 -126 0 -31 61 -39 0 0 0z"/>
  <path id="_7" class="fil2" d="M10463 1689c39,0 70,11 94,33 24,22 35,51 35,86 0,36 -11,65 -34,87 -24,20 -55,32 -95,32l-106 0 0 -238 106 0zm0 34l-68 0 0 169 68 0c28,0 51,-8 67,-23 17,-14 25,-35 25,-61 0,-25 -9,-46 -26,-61 -17,-16 -38,-24 -66,-24z"/>
  <polygon class="fil2" points="7199,2312 7199,2422 7162,2422 7162,2184 7382,2184 7382,2218 7199,2218 7199,2278 7317,2278 7317,2312 "/>
  <path id="_1_2" class="fil2" d="M7804 2283l127 0c12,0 22,-3 29,-8 7,-6 11,-14 11,-24 0,-11 -4,-19 -11,-24 -7,-6 -17,-9 -29,-9l-127 0 0 65zm0 35l0 104 -37 0 0 -237 164 0c24,0 43,5 57,17 14,11 20,28 20,49 0,17 -5,31 -16,43 -11,13 -25,20 -42,23l66 105 -41 0 -67 -104 -104 0z"/>
  <path id="_2_3" class="fil2" d="M8537 2394c32,0 57,-8 77,-26 20,-17 31,-39 31,-65 0,-27 -11,-48 -31,-66 -20,-17 -45,-25 -77,-25 -32,0 -58,8 -78,25 -20,18 -29,39 -29,66 0,26 9,48 29,65 20,18 46,26 78,26zm0 35c-42,0 -78,-12 -105,-36 -27,-24 -40,-54 -40,-90 0,-36 13,-67 40,-91 27,-23 63,-35 105,-35 43,0 78,12 105,35 27,24 41,54 41,91 0,36 -14,66 -41,90 -28,24 -62,36 -105,36z"/>
  <polygon id="_3_4" class="fil2" points="9079,2422 9079,2184 9110,2184 9208,2323 9305,2184 9336,2184 9336,2422 9299,2422 9299,2251 9208,2383 9117,2251 9117,2422 "/>
  <path class="fil2" d="M4456 3324c-5,-35 -7,-73 -7,-116 0,-43 2,-82 7,-116 6,-34 15,-67 28,-99 14,-31 31,-58 54,-79 21,-21 49,-38 84,-51 35,-12 75,-18 122,-18 84,0 154,11 207,34l0 83c-64,-21 -134,-32 -209,-32 -29,0 -54,4 -76,11 -21,6 -40,18 -53,30 -14,15 -26,29 -35,46 -8,16 -16,35 -20,57 -4,23 -8,44 -9,65 -2,20 -3,43 -3,69 0,26 1,49 3,69 1,20 5,42 9,64 4,23 12,42 20,58 9,16 21,32 35,45 13,14 32,24 53,31 22,8 47,11 76,11 75,0 145,-11 209,-32l0 82c-53,23 -123,35 -207,35 -47,0 -87,-6 -122,-19 -35,-12 -63,-29 -84,-50 -23,-21 -40,-47 -54,-79 -13,-32 -22,-65 -28,-99l0 0z"/>
  <path id="_1_5" class="fil2" d="M5105 3557l0 -1047 95 0 0 391c58,-38 122,-56 192,-56 158,0 237,70 237,209l0 503 -99 0 0 -507c0,-44 -11,-75 -35,-93 -24,-18 -58,-27 -104,-27 -43,0 -79,4 -107,11 -28,7 -56,18 -84,34l0 582 -95 0 0 0z"/>
  <path id="_2_6" class="fil2" d="M5803 3557l0 -698 55 0 21 57c64,-47 139,-71 224,-71 27,0 54,2 84,6l0 91c-24,-8 -52,-12 -84,-12 -81,0 -149,15 -202,45l0 582 -98 0 0 0z"/>
  <path id="_3_7" class="fil2" d="M6303 3328c-5,-34 -7,-75 -7,-120 0,-46 2,-86 7,-121 5,-34 14,-68 28,-99 13,-31 30,-57 52,-77 21,-20 49,-36 84,-48 35,-12 75,-18 123,-18 46,0 87,6 121,18 34,12 62,28 84,48 21,20 38,46 51,77 13,31 22,65 26,99 5,35 8,75 8,121 0,45 -3,86 -8,120 -4,35 -13,68 -26,100 -13,31 -30,57 -51,77 -22,21 -50,37 -84,49 -34,11 -75,17 -121,17 -48,0 -88,-6 -123,-17 -35,-12 -63,-28 -84,-49 -22,-20 -39,-46 -52,-77 -14,-32 -23,-65 -28,-100zm92 -186c-1,18 -2,40 -2,66 0,26 1,48 2,65 1,18 2,37 5,58 3,21 7,39 12,53 6,14 14,28 23,42 10,13 21,24 35,33 13,7 30,14 50,19 20,5 43,8 70,8 25,0 48,-3 67,-8 20,-5 36,-11 51,-19 13,-8 25,-20 34,-33 10,-14 17,-28 23,-42 5,-14 9,-32 12,-53 4,-20 5,-40 6,-58 1,-18 1,-40 1,-65 0,-26 0,-47 -1,-66 -1,-17 -3,-37 -6,-58 -3,-21 -7,-38 -12,-52 -6,-14 -13,-28 -23,-42 -9,-14 -21,-25 -34,-33 -15,-8 -31,-14 -51,-19 -20,-6 -42,-8 -67,-8 -27,0 -50,2 -70,8 -20,5 -37,11 -50,19 -14,8 -25,19 -35,33 -9,14 -17,28 -23,42 -5,14 -9,31 -12,52 -3,21 -5,41 -5,58z"/>
  <path id="_4_8" class="fil2" d="M7050 3557l0 -698 54 0 22 56c64,-47 132,-70 203,-70 94,0 159,26 195,78 75,-52 148,-78 217,-78 75,0 132,17 171,52 39,35 59,88 59,157l0 503 -98 0 0 -507c0,-44 -11,-75 -34,-93 -23,-18 -55,-27 -98,-27 -40,0 -75,4 -103,11 -28,8 -56,19 -88,36 6,24 9,49 9,73l0 507 -97 0 0 -507c0,-44 -12,-75 -35,-93 -23,-18 -55,-27 -98,-27 -38,0 -71,3 -98,10 -26,7 -54,17 -84,32l0 585 -97 0 0 0z"/>
  <path id="_5_9" class="fil2" d="M8139 3324c-5,-35 -8,-74 -8,-116 0,-43 3,-82 8,-116 5,-34 15,-67 28,-99 13,-31 30,-58 52,-79 22,-21 50,-38 85,-51 34,-12 75,-18 121,-18 38,0 72,4 102,12 28,8 52,21 71,38 20,16 35,35 47,55 12,20 21,45 28,75 5,29 10,58 12,85 2,27 4,60 4,98l0 44 -460 0c1,27 4,51 8,71 4,22 9,43 18,64 10,21 21,39 34,52 14,14 32,25 55,34 24,8 51,13 81,13 50,0 93,-4 127,-9 34,-7 68,-16 102,-31l0 84c-62,27 -139,41 -229,41 -46,0 -87,-6 -121,-19 -36,-13 -63,-30 -85,-50 -22,-22 -39,-48 -52,-79 -14,-32 -23,-65 -28,-100l0 1zm90 -151l363 0c0,-21 0,-39 -1,-53 0,-14 -1,-30 -4,-50 -3,-18 -6,-34 -10,-45 -5,-12 -11,-25 -19,-39 -8,-12 -18,-23 -30,-30 -11,-7 -26,-13 -44,-18 -17,-6 -37,-8 -59,-8 -32,0 -59,5 -82,13 -23,10 -42,22 -56,36 -14,15 -26,32 -34,55 -9,22 -15,44 -18,65 -3,22 -5,46 -6,74l0 0z"/>
  <path id="_6_10" class="fil2" d="M9076 3050c0,-26 5,-51 14,-73 9,-23 23,-46 43,-66 19,-20 46,-36 81,-48 35,-12 76,-18 123,-18 81,0 147,11 202,34l0 83c-65,-21 -133,-32 -203,-32 -34,0 -62,3 -85,9 -22,6 -39,15 -51,26 -12,12 -20,24 -25,37 -4,14 -6,30 -6,48 0,23 3,40 11,53 7,13 23,24 46,33 24,9 58,16 102,19 39,4 72,10 101,18 29,7 52,16 71,28 19,11 33,24 44,40 11,16 19,34 23,52 4,18 7,39 7,63 0,29 -5,55 -15,79 -10,25 -25,48 -46,68 -21,21 -50,38 -87,50 -38,12 -82,18 -133,18 -33,0 -71,-4 -112,-10 -41,-7 -73,-15 -96,-24l0 -84c60,22 129,33 209,33 67,0 114,-12 142,-36 28,-23 43,-55 43,-92 0,-18 -2,-34 -6,-46 -4,-12 -10,-23 -21,-34 -10,-11 -27,-21 -48,-27 -22,-6 -49,-11 -83,-14 -49,-4 -91,-12 -123,-23 -33,-11 -59,-25 -76,-41 -16,-17 -28,-36 -36,-55 -6,-19 -10,-41 -10,-68l0 0z"/>
  <path id="_7_11" class="fil2" d="M9675 2935l0 -43 138 -41 0 -188 99 -28 0 224 216 0 0 76 -216 0 0 436c0,42 11,72 33,92 22,19 56,28 101,28 12,0 29,-1 54,-2l0 77c-15,3 -36,5 -63,5 -30,0 -58,-4 -84,-10 -26,-7 -49,-19 -71,-33 -21,-14 -38,-34 -50,-59 -12,-26 -19,-54 -19,-88l0 -446 -138 0 0 0z"/>
  <path id="_8" class="fil2" d="M10254 3328c-5,-34 -8,-75 -8,-120 0,-46 3,-86 8,-121 5,-34 14,-68 27,-99 13,-31 31,-57 52,-77 22,-20 51,-36 85,-48 34,-12 75,-18 122,-18 47,0 87,6 122,18 34,12 62,28 83,48 21,20 39,46 51,77 13,31 22,65 27,99 5,35 7,75 7,121 0,45 -2,86 -7,120 -5,35 -14,68 -27,100 -12,31 -30,57 -51,77 -21,21 -49,37 -83,49 -35,11 -75,17 -122,17 -47,0 -88,-6 -122,-17 -34,-12 -63,-28 -85,-49 -21,-20 -39,-46 -52,-77 -13,-32 -22,-65 -27,-100zm91 -186c-1,18 -1,40 -1,66 0,26 0,48 1,65 1,18 3,37 6,58 3,21 7,39 13,53 5,14 12,28 22,42 10,13 21,24 34,33 15,7 31,14 51,19 20,5 43,8 69,8 26,0 48,-3 68,-8 20,-5 37,-11 50,-19 14,-8 25,-20 35,-33 9,-14 16,-28 22,-42 6,-14 10,-32 13,-53 3,-20 5,-40 5,-58 2,-18 2,-40 2,-65 0,-26 -1,-47 -2,-66 0,-17 -2,-37 -5,-58 -3,-21 -7,-38 -13,-52 -5,-14 -13,-28 -22,-42 -10,-14 -21,-25 -35,-33 -13,-8 -30,-14 -50,-19 -20,-6 -42,-8 -68,-8 -26,0 -49,2 -69,8 -20,5 -36,11 -51,19 -13,8 -24,19 -34,33 -10,14 -17,28 -22,42 -6,14 -10,31 -13,52 -3,21 -5,41 -6,58z"/>
  <path id="_9" class="fil2" d="M11000 3557l0 -698 55 0 21 57c65,-47 139,-71 225,-71 26,0 54,2 83,6l0 91c-24,-8 -52,-12 -83,-12 -82,0 -150,15 -203,45l0 582 -98 0 0 0z"/>
  <path class="fil11" d="M7677 1176c33,0 61,27 61,61 0,35 -28,62 -61,62 -35,0 -63,-27 -63,-62 0,-34 28,-61 63,-61zm1512 -413l537 0c111,0 210,-35 293,-105l-293 0 -168 0 -369 0 -12 0 -71 0c-105,0 -199,31 -278,93 -146,112 -293,270 -428,398 -53,50 -135,49 -188,0l-359 -332c-99,-91 -250,-91 -349,0l-359 332c-52,49 -134,49 -187,0l-359 -332c-99,-91 -250,-91 -349,0l-359 332c-52,49 -134,49 -187,0l-531 -491 -86 82 0 0 536 496c99,91 250,91 349,0l359 -332c53,-49 134,-49 188,0l358 332c99,91 250,91 349,0l359 -332c53,-49 134,-49 188,0l358 332c99,91 252,92 349,0 130,-123 252,-247 376,-369 6,-7 12,-13 19,-19 65,-56 142,-85 231,-85l71 0 12 0zm261 155c34,0 61,27 61,61 0,35 -27,62 -61,62 -34,0 -62,-27 -62,-62 0,-34 28,-61 62,-61zm-344 378l167 0 884 0 0 -106 -1051 0c-111,0 -210,35 -293,106l293 0 0 0zm1051 -106l1057 0c51,0 92,-41 92,-93l0 -2c0,-50 -41,-92 -92,-92l-896 0c-87,0 -158,-71 -158,-158l0 -22c0,-88 71,-158 158,-158l687 0 0 104 -687 0c-29,0 -53,24 -53,54l0 22c0,29 24,53 53,53l896 0c109,0 198,88 198,197l0 2c0,110 -89,199 -198,199l-1057 0 0 -106z"/>
  <path class="fil12" d="M452 6l11968 0c245,0 445,201 445,446l0 590c-4385,814 -8423,1899 -12208,3181l-205 0c-245,0 -446,-201 -446,-447l0 -3324c0,-245 201,-446 446,-446l0 0z"/>
 </g>
</svg>
