<svg xmlns="http://www.w3.org/2000/svg" width="500" height="172" viewBox="0 0 4912 1694" shape-rendering="geometricPrecision" text-rendering="geometricPrecision" image-rendering="optimizeQuality" fill-rule="evenodd" clip-rule="evenodd"><defs><style><![CDATA[
    .fil8 {fill:#09A158}
    .fil7 {fill:#4486F7}
    .fil5 {fill:#9BA5AF}
    .fil0 {fill:#CCCCCC}
    .fil6 {fill:#CED8E2}
    .fil4 {fill:#CFD8E1}
    .fil9 {fill:#D94237}
    .fil3 {fill:#E1E8EE}
    .fil1 {fill:#E6E6E6}
    .fil10 {fill:#FAC63E}
    .fil11 {fill:#B3B3B3;fill-rule:nonzero}
    .fil2 {fill:#CCCCCC;fill-rule:nonzero}
    .fil13 {fill:white;fill-opacity:0.250980}
    .fil12 {fill:url(#id0)}
   ]]></style><linearGradient id="id0" gradientUnits="userSpaceOnUse" x1="1953.71" y1="425.432" x2="4307.93" y2="425.432"><stop offset="0" stop-color="#5CC6D0"/><stop offset=".49" stop-color="#2EAFD5"/><stop offset="1" stop-color="#0098DA"/></linearGradient></defs><g id="Layer_x0020_1"><g id="_887336480"><path class="fil0" d="M1080 0h2751c597 0 1080 379 1080 847h1c-1 468-484 847-1081 847H1080C484 1694 0 1315 0 847S484 0 1081 0z"/><path class="fil1" d="M228 62h4455c91 0 166 75 166 166v1238c0 91-75 166-166 166H228c-91 0-166-75-166-166V228c0-91 75-166 166-166z"/><path id="_1" class="fil2" d="M4683 65H228v-5h4455v5zm168 163h-4v-8l-1-8-1-9-1-8-2-7-2-8-3-8-3-7-3-7-4-8-4-6-4-7-5-6-4-7-6-6-5-5-6-6-6-5-6-5-7-5-6-4-7-4-7-3-7-4-8-3-7-2-8-2-8-2-8-2-8-1h-17v-5h9l8 1 9 1 8 2 8 1 8 3 8 2 7 3 8 4 7 4 7 3 7 5 7 5 6 5 6 5 6 5 5 6 6 7 5 6 4 6 5 7 4 7 3 8 4 7 3 8 3 7 2 8 2 8 1 9 1 8 1 9v8zm-4 1238V228h4v1238h-4zm-164 168v-4h8l9-1 8-1 8-2 8-1 8-3 7-2 8-3 7-3 7-4 7-4 6-4 7-5 6-5 6-5 6-5 5-6 6-6 4-6 5-7 4-6 4-7 4-7 3-8 3-7 3-7 2-8 2-8 1-8 1-9 1-8v-8h4v8l-1 9-1 8-1 9-2 8-2 8-3 7-3 8-4 8-3 7-4 7-5 7-4 6-5 7-6 6-5 6-6 5-6 5-6 5-7 5-7 5-7 4-7 3-8 4-7 3-8 3-8 2-8 2-8 1-9 1-8 1h-9zm-4455-4h4455v4H228v-4zM60 1466h5v16l1 9 2 8 2 8 2 8 2 7 3 7 4 8 3 7 4 7 4 6 5 7 5 6 5 6 6 6 5 5 6 5 7 5 6 5 7 4 6 4 7 4 8 3 7 3 8 3 8 2 7 1 8 2 9 1 8 1h8v4h-8l-9-1-8-1-9-1-8-2-8-2-7-3-8-3-7-4-8-3-7-4-7-5-6-4-6-6-7-5-6-5-5-6-5-6-5-7-5-6-5-7-3-7-4-7-4-8-2-7-3-8-3-8-1-8-2-9-1-8-1-9v-8zm5-1238v1238h-5V228h5zM228 60v5h-16l-9 1-8 2-7 2-8 2-8 2-7 3-8 4-7 3-6 4-7 4-6 5-7 5-6 5-5 6-6 5-5 6-5 7-5 6-4 7-4 6-3 8-4 7-3 7-2 8-2 8-2 7-2 8-1 9-1 8v8h-4v-8l1-9 1-8 2-9 1-8 3-8 2-7 3-8 4-7 4-8 3-7 5-7 5-6 5-6 5-7 5-6 6-5 7-5 6-5 6-5 7-5 7-3 7-4 8-4 8-3 7-2 8-3 8-1 9-2 8-1 9-1h8z"/><path class="fil3" d="M366 510h1044v726c0 53-43 95-96 95H461c-52 0-95-42-95-95V510z"/><path id="_1_0" class="fil2" d="M1410 512H366v-4h1044l2 2-2 2zm0-4h2v2l-2-2zm-2 728V510h4v726h-4zm-94 98v-5h10l5-1 4-1 5-1 4-1 4-1 5-2 4-2 4-2 4-2 3-3 4-2 4-3 3-3 3-3 3-3 3-4 3-3 2-4 3-4 2-3 2-5 2-3 2-5 1-4 2-5v-4l1-4 1-5v-5l1-5h4l-1 5v10l-1 5-2 5-1 4-1 5-2 4-2 4-2 4-3 5-2 3-3 4-3 4-3 3-3 4-3 3-4 3-4 3-3 3-4 2-4 3-5 2-4 2-4 2-5 1-4 1-5 1-5 1-4 1h-5l-6 1zm-853-5h853v5H461v-5zm-97-93h4v10l1 5 1 4 1 4 1 5 1 4 2 5 2 3 2 5 2 3 3 4 2 4 3 3 3 4 3 3 3 3 4 3 3 3 4 2 4 3 4 2 3 2 5 2 4 2 4 1 5 1 4 1 5 1 4 1h10v5l-5-1h-5l-5-1-5-1-5-1-4-1-4-1-5-2-4-2-5-2-3-3-5-2-3-3-4-3-4-3-3-3-3-4-3-3-3-4-3-4-2-3-2-5-3-4-2-4-1-4-2-5-1-4-1-5-1-5-1-5v-10zm4-726v726h-4V510l2-2 2 2zm-4 0v-2h2l-2 2z"/><path class="fil4" d="M366 510h1044v412H366z"/><path class="fil5" d="M735 363h305l14 47-14 26H735l-15-27z"/><path class="fil6" d="M658 512h77V363l-76 71zM1117 517h-77V363l76 71z"/><path class="fil7" d="M889 1092c88 0 159 72 159 160 0 29-7 56-21 79H750c-14-23-21-50-21-79 0-88 71-160 160-160z"/><path class="fil8" d="M691 1287c2 15 7 29 12 43H456c-5-26-7-52-7-78 0-96 30-184 82-256l160 291z"/><path class="fil9" d="M889 812c170 0 318 97 391 239H889c-112 0-201 90-201 201 0 12 1 24 3 35L531 996s119-184 358-184z"/><path class="fil10" d="M1280 1051c29 59 46 126 46 197 0 27-2 53-7 78l-1 5h-249l3-5c10-24 16-50 16-78 0-97-70-178-162-197h354z"/><path class="fil11" d="M2298 689c14 0 26 4 35 12s13 19 13 32c0 14-4 24-13 32s-20 12-35 12h-40v-88h40zm0 12h-26v63h26c10 0 19-3 25-8 6-6 9-13 9-23 0-9-3-17-10-23-6-6-14-9-24-9z"/><path id="_1_1" class="fil11" d="M2539 767c12 0 22-3 30-10 7-6 11-14 11-24s-4-18-12-24c-7-7-17-10-29-10-11 0-21 3-28 10-8 6-11 14-11 24s3 18 11 24c7 7 17 10 28 10zm0 13c-15 0-28-5-38-13-11-9-16-20-16-34 0-13 5-25 15-33 11-9 24-14 39-14 16 0 30 5 40 13 10 9 15 21 15 34 0 14-5 25-15 34-10 8-24 13-40 13z"/><path id="_2" class="fil11" d="M2758 777l-30-88h14l22 64 22-64h12l22 64 21-64h14l-30 88h-10l-23-68-24 68z"/><path id="_3" class="fil11" d="M2997 777v-88h7l56 62v-62h14v88h-7l-56-62v62z"/><path id="_4" class="fil11" d="M3230 777v-88h13v75h66v13z"/><path id="_5" class="fil11" d="M3493 767c12 0 21-3 29-10 7-6 11-14 11-24s-4-18-11-24c-8-7-17-10-29-10s-21 3-29 10c-7 6-11 14-11 24s4 18 11 24c8 7 17 10 29 10zm0 13c-16 0-29-5-39-13-10-9-15-20-15-34 0-13 5-25 15-33 10-9 23-14 39-14s29 5 39 13c10 9 15 21 15 34 0 14-5 25-15 34-10 8-23 13-39 13z"/><path id="_6" class="fil11" d="M3710 743h35l-18-34-17 34zm-32 34l45-88h9l45 88h-15l-11-22h-47l-12 22h-14z"/><path id="_7" class="fil11" d="M3955 689c14 0 26 4 35 12s13 19 13 32c0 14-4 24-13 32s-20 12-35 12h-40v-88h40zm0 12h-26v63h26c10 0 19-3 25-8 6-6 9-13 9-23 0-9-3-17-10-23-6-6-14-9-24-9z"/><path class="fil11" d="M2740 921v41h-14v-89h82v13h-68v22h44v13z"/><path id="_1_2" class="fil11" d="M2965 910h47c5 0 9-1 11-3 3-2 4-5 4-9s-1-7-4-9c-2-2-6-3-11-3h-47v24zm0 13v39h-14v-89h61c9 0 16 2 22 7 5 4 7 10 7 18 0 6-2 12-6 16-4 5-9 7-16 9l25 39h-15l-25-39h-39z"/><path id="_2_3" class="fil11" d="M3238 951c12 0 21-3 29-9 7-7 11-15 11-25s-4-18-11-24c-8-6-17-10-29-10s-22 4-29 10-11 14-11 24 4 18 11 25c7 6 17 9 29 9zm0 13c-16 0-29-4-39-13s-15-20-15-34c0-13 5-24 15-33s23-13 39-13 29 4 39 13 15 20 15 33c0 14-5 25-15 34s-23 13-39 13z"/><path id="_3_4" class="fil11" d="M3440 962v-89h11l37 52 36-52h11v89h-13v-64l-34 49-34-49v64z"/><path class="fil11" d="M1719 1297c-2-13-3-27-3-43s1-30 3-43 5-25 10-37c5-11 12-21 20-29s19-14 32-19c13-4 28-7 45-7 31 0 57 4 77 13v31c-24-8-50-12-78-12-10 0-20 1-28 4-8 2-15 6-20 11s-9 11-13 17c-3 6-6 13-7 21-2 9-3 17-4 25 0 7-1 16-1 25 0 10 1 19 1 26 1 7 2 15 4 24 1 8 4 16 7 21 4 6 8 12 13 17s12 9 20 12c8 2 18 4 28 4 28 0 54-4 78-12v30c-20 9-46 13-77 13-17 0-32-2-45-7-13-4-24-10-32-18s-15-18-20-30-8-24-10-37z"/><path id="_1_5" class="fil11" d="M1960 1384V994h36v146c21-14 45-21 71-21 59 0 88 26 88 78v187h-36v-189c0-16-4-27-13-34s-22-10-39-10c-16 0-29 1-40 4-11 2-21 7-31 13v216h-36z"/><path id="_2_6" class="fil11" d="M2220 1384v-260h21l7 22c24-18 52-27 84-27 10 0 20 1 31 3v33c-9-3-19-4-31-4-30 0-56 5-75 17v216h-37z"/><path id="_3_7" class="fil11" d="M2406 1299c-2-13-2-28-2-45s0-32 2-45 6-25 11-37c4-11 11-21 19-29 8-7 18-13 31-17 13-5 28-7 46-7 17 0 32 2 45 7 13 4 23 10 31 17 8 8 15 18 19 29 5 12 8 24 10 37s3 28 3 45-1 32-3 45-5 25-10 37c-4 12-11 21-19 29-8 7-18 13-31 18-13 4-28 6-45 6-18 0-33-2-46-6-13-5-23-11-31-18-8-8-15-17-19-29-5-12-9-24-11-37zm34-69v48c1 7 1 14 3 22 0 8 2 14 4 20 2 5 5 10 9 15 3 5 7 9 12 12s12 6 19 8c8 2 16 3 26 3 9 0 18-1 25-3s14-5 19-8c5-2 9-7 13-12 3-5 6-10 8-15 2-6 4-12 5-20s2-15 2-22c0-6 1-14 1-24 0-9-1-17-1-24s-1-14-2-22-3-14-5-19c-2-6-5-11-8-16-4-5-8-9-13-12s-12-6-19-7c-7-2-16-3-25-3-10 0-18 1-26 3-7 1-14 4-19 7s-9 7-12 12c-4 5-7 10-9 16-2 5-4 11-4 19-2 8-2 15-3 22z"/><path id="_4_8" class="fil11" d="M2684 1384v-260h20l8 21c25-17 50-26 76-26 35 0 59 10 73 29 28-19 55-29 81-29 28 0 49 6 63 19 15 14 22 33 22 59v187h-36v-189c0-16-4-27-13-34-8-7-21-10-36-10s-28 1-39 4c-10 3-21 7-32 13 2 9 3 18 3 27v189h-36v-189c0-16-5-27-13-34-9-7-21-10-37-10-14 0-26 1-36 4-10 2-20 6-31 11v218h-37z"/><path id="_5_9" class="fil11" d="M3090 1297c-2-13-3-27-3-43s1-30 3-43 5-25 10-37c5-11 12-21 20-29s18-14 31-19c13-4 28-7 45-7 15 0 27 2 38 5s20 7 27 14c7 6 13 13 17 20 5 8 8 17 10 28s4 22 5 32 1 22 1 36v17h-171c1 10 2 18 3 26 2 8 4 16 7 24s8 14 13 19 12 10 20 13c9 3 19 5 30 5 19 0 35-2 47-4 13-2 26-6 39-11v31c-24 10-52 15-86 15-17 0-32-2-45-7s-23-11-31-18c-9-9-15-18-20-30s-8-24-10-37zm33-56h135v-20c0-5-1-11-1-18-2-7-3-13-4-17-2-4-4-9-7-14s-7-9-11-12c-5-2-10-5-17-6-6-2-13-3-22-3-12 0-22 1-30 5-9 3-16 8-21 13-6 5-10 12-13 20-3 9-5 17-7 25-1 8-1 17-2 27z"/><path id="_6_10" class="fil11" d="M3439 1196c0-10 1-19 5-28 3-8 8-17 16-24 7-8 17-14 30-18 13-5 28-7 46-7 30 0 54 4 75 13v31c-24-8-50-12-76-12-12 0-23 1-31 3s-15 6-19 10c-5 4-8 9-10 14-1 5-2 11-2 18 0 8 1 14 4 19s9 9 17 12c9 4 22 6 38 8 15 1 27 3 38 6s19 6 26 10c7 5 13 10 17 16s7 12 8 19c2 6 3 14 3 23 0 11-2 21-6 30-3 9-9 17-17 25s-18 14-32 19c-14 4-31 6-50 6-12 0-26-1-41-3-16-3-28-6-36-9v-32c22 8 48 13 78 13 25 0 42-5 53-14 10-8 15-20 15-34 0-7 0-12-2-17-1-4-4-9-7-13-4-4-10-7-19-10-8-2-18-4-30-5-19-2-34-5-46-8-12-5-22-10-28-16s-11-13-14-20c-2-7-3-16-3-25z"/><path id="_7_11" class="fil11" d="M3662 1153v-16l51-15v-71l37-10v83h80v29h-80v162c0 16 4 27 12 34s21 11 37 11c5 0 11-1 21-1v28c-6 2-14 2-24 2-11 0-21-1-31-3-10-3-18-7-26-13-8-5-14-12-19-22-5-9-7-20-7-32v-166h-51z"/><path id="_8" class="fil11" d="M3877 1299c-2-13-3-28-3-45s1-32 3-45 5-25 10-37c5-11 12-21 20-29 8-7 18-13 31-17 13-5 28-7 46-7 17 0 32 2 45 7 13 4 23 10 31 17 8 8 14 18 19 29 5 12 8 24 10 37s2 28 2 45 0 32-2 45-5 25-10 37-11 21-19 29c-8 7-18 13-31 18-13 4-28 6-45 6-18 0-33-2-46-6-13-5-23-11-31-18-8-8-15-17-20-29s-8-24-10-37zm34-69v48c0 7 1 14 2 22s3 14 5 20c2 5 5 10 8 15 4 5 8 9 13 12s11 6 19 8c7 2 16 3 26 3 9 0 17-1 25-3 7-2 14-5 19-8 5-2 9-7 12-12 4-5 7-10 9-15 2-6 3-12 4-20 2-8 2-15 3-22v-24-24c-1-7-1-14-3-22-1-8-2-14-4-19-2-6-5-11-9-16-3-5-7-9-12-12s-12-6-19-7c-8-2-16-3-25-3-10 0-19 1-26 3-8 1-14 4-19 7s-9 7-13 12c-3 5-6 10-8 16-2 5-4 11-5 19s-2 15-2 22z"/><path id="_9" class="fil11" d="M4155 1384v-260h20l8 22c24-18 52-27 84-27 9 0 20 1 31 3v33c-9-3-20-4-31-4-31 0-56 5-76 17v216h-36z"/><path id="_10" class="fil11" d="M4341 1297c-2-13-3-27-3-43s1-30 3-43 6-25 11-37c4-11 11-21 19-29s18-14 31-19c13-4 28-7 46-7 14 0 26 2 37 5s20 7 27 14c7 6 13 13 17 20 5 8 8 17 11 28 2 11 3 22 4 32s1 22 1 36v17h-170c0 10 1 18 2 26 2 8 4 16 7 24 4 8 8 14 13 19s12 10 21 13c8 3 18 5 30 5 18 0 34-2 47-4s25-6 38-11v31c-23 10-52 15-85 15-18 0-33-2-46-7s-23-11-31-18c-8-9-15-18-19-30-5-12-9-24-11-37zm34-56h135v-20c-1-5-1-11-2-18s-2-13-4-17-4-9-7-14-7-9-11-12c-4-2-10-5-16-6-7-2-14-3-22-3-12 0-22 1-31 5-9 3-16 8-21 13s-9 12-13 20c-3 9-5 17-6 25s-2 17-2 27z"/><path class="fil12" d="M2918 498c12 0 23 10 23 23 0 12-11 23-23 23-13 0-24-11-24-23 0-13 11-23 24-23zm563-154h200c41 0 78-13 109-39h-340c-39 0-74 12-104 35-54 41-109 100-159 148-20 18-50 18-70 0l-134-124c-37-34-93-34-130 0l-133 124c-20 18-50 18-70 0l-133-124c-37-34-94-34-130 0l-134 124c-20 18-50 18-70 0l-197-183-32 30 199 185c37 34 93 34 130 0l134-123c20-19 50-19 70 0l133 123c37 34 93 34 130 0l133-123c20-19 50-19 70 0l134 123c37 34 93 35 130 0 48-46 93-92 140-137 2-3 4-5 7-7 24-21 53-32 86-32h31zm97 58c12 0 23 10 23 23 0 12-11 22-23 22-13 0-23-10-23-22 0-13 10-23 23-23zm-128 140h391v-39h-391c-42 0-79 13-110 39h110zm391-39h393c19 0 35-15 35-34v-1c0-19-16-35-35-35h-333c-33 0-59-26-59-58v-9c0-32 26-59 59-59h256v39h-256c-11 0-20 9-20 20v9c0 10 9 19 20 19h333c41 0 74 33 74 74v1c0 40-33 73-74 73h-393v-39z"/><path class="fil13" d="M228 62h4455c91 0 166 75 166 166v220C3217 751 1713 1155 304 1632h-76c-91 0-166-75-166-166V228c0-91 75-166 166-166z"/></g></g></svg>