<?xml version="1.0" encoding="UTF-8"?>
<!DOCTYPE svg PUBLIC "-//W3C//DTD SVG 1.1//EN" "http://www.w3.org/Graphics/SVG/1.1/DTD/svg11.dtd">
<!-- Creator: CorelDRAW X7 -->
<svg xmlns="http://www.w3.org/2000/svg" xml:space="preserve" width="488px" height="160px" version="1.1" style="shape-rendering:geometricPrecision; text-rendering:geometricPrecision; image-rendering:optimizeQuality; fill-rule:evenodd; clip-rule:evenodd"
viewBox="0 0 42091 13825"
 xmlns:xlink="http://www.w3.org/1999/xlink">
 <defs>
  <style type="text/css">
   <![CDATA[
    .fil0 {fill:black}
    .fil2 {fill:white}
    .fil1 {fill:black;fill-rule:nonzero}
    .fil4 {fill:#B3B3B3;fill-rule:nonzero}
    .fil3 {fill:white;fill-rule:nonzero}
    .fil6 {fill:white;fill-opacity:0.149020}
    .fil5 {fill:url(#id0)}
   ]]>
  </style>
  <linearGradient id="id0" gradientUnits="userSpaceOnUse" x1="15936.7" y1="2849.19" x2="36619.1" y2="2849.19">
   <stop offset="0" style="stop-opacity:1; stop-color:#5CC6D0"/>
   <stop offset="1" style="stop-opacity:1; stop-color:#0098DA"/>
  </linearGradient>
 </defs>
 <g id="Layer_x0020_1">
  <metadata id="CorelCorpID_0Corel-Layer"/>
  <g id="_890659936">
   <path class="fil0" d="M1476 18l39136 0c805,0 1461,656 1461,1458l0 10874c0,801 -656,1458 -1461,1458l-39136 0c-802,0 -1459,-657 -1459,-1458l0 -10874c0,-802 657,-1458 1459,-1458z"/>
   <path id="_1" class="fil1" d="M40612 38l-39136 0 0 -38 39136 0 0 0 0 38zm1479 1438l-38 0 0 0 0 -73 -7 -72 -10 -72 -11 -72 -17 -69 -20 -69 -21 -65 -28 -66 -27 -65 -34 -62 -35 -58 -38 -59 -37 -58 -45 -55 -45 -52 -48 -48 -48 -48 -55 -45 -55 -45 -55 -41 -59 -38 -58 -34 -62 -31 -65 -28 -66 -27 -65 -24 -69 -18 -69 -17 -72 -14 -72 -6 -73 -7 -75 0 0 -38 75 0 76 7 76 10 72 10 72 18 69 20 69 24 65 24 66 31 65 35 62 34 58 38 59 41 55 45 55 45 51 51 49 52 48 51 41 59 41 55 41 62 35 62 34 62 28 65 27 69 24 68 21 69 14 73 13 72 11 72 6 76 0 75 0 0 1 1zm-38 10874l0 -10874 38 0 0 10874 0 0 -38 0zm-1441 1475l0 -38 0 0 75 0 73 -6 72 -7 72 -14 69 -17 69 -17 65 -25 66 -27 65 -28 62 -31 58 -34 59 -38 55 -41 55 -41 55 -48 48 -49 48 -48 45 -51 45 -55 37 -59 38 -58 35 -59 34 -62 27 -65 28 -65 21 -66 20 -68 17 -69 11 -73 10 -72 7 -72 0 -72 38 0 0 75 -7 76 -11 72 -13 72 -14 73 -21 69 -24 68 -27 69 -28 65 -34 62 -34 62 -42 62 -41 55 -41 59 -48 51 -48 52 -52 51 -55 45 -55 45 -59 41 -58 38 -62 34 -65 35 -66 31 -65 24 -69 24 -69 20 -72 18 -72 13 -76 7 -75 7 -76 0 0 0 0 0zm-39136 -38l39136 0 0 38 -39136 0 0 0 0 -38zm-1476 -1437l38 0 0 0 0 72 7 72 7 73 14 72 17 69 17 69 24 65 28 65 27 66 31 61 34 59 38 58 42 59 44 55 45 52 48 48 48 48 52 48 55 41 58 41 59 38 58 35 62 31 66 27 65 28 65 24 69 17 69 17 72 14 72 7 73 7 72 0 0 37 -76 0 -75 -6 -73 -7 -72 -14 -72 -17 -69 -21 -69 -24 -69 -24 -65 -31 -62 -34 -62 -35 -61 -37 -56 -42 -58 -44 -52 -45 -51 -52 -52 -51 -45 -52 -44 -58 -42 -55 -37 -62 -35 -62 -34 -62 -31 -65 -24 -69 -24 -69 -21 -69 -17 -72 -10 -72 -11 -73 -6 -75 0 -76 0 0 -1 0zm38 -10874l0 10874 -38 0 0 -10874 0 0 38 0zm1438 -1476l0 38 0 0 -73 0 -72 7 -72 7 -72 14 -69 17 -69 17 -65 24 -66 28 -65 27 -62 31 -58 34 -59 38 -58 42 -55 44 -52 45 -48 48 -48 48 -45 52 -45 55 -41 58 -38 59 -34 58 -31 62 -28 66 -27 65 -24 65 -18 69 -17 69 -14 72 -6 72 -7 73 0 72 -38 0 0 -76 7 -75 10 -73 10 -72 18 -72 20 -69 24 -69 24 -69 31 -65 35 -62 34 -62 38 -61 41 -56 45 -58 45 -52 51 -51 52 -52 51 -45 59 -44 55 -42 62 -37 62 -35 62 -34 65 -31 69 -24 68 -24 69 -21 73 -17 72 -10 72 -11 76 -6 75 0 0 0 1 -1z"/>
   <path class="fil2" d="M4973 6675l0 489c17,58 38,347 55,443 62,382 189,805 358,1139 309,615 595,973 1083,1410 1077,963 2346,959 2480,1014l519 0c55,-20 344,-38 440,-55 678,-110 1231,-347 1782,-729 223,-155 491,-382 674,-588 34,-45 79,-89 117,-134 220,-272 440,-578 595,-918 429,-946 354,-1435 412,-1596l0 -475c-20,-51 -41,-361 -58,-454 -141,-842 -441,-1406 -943,-2049l-237 -265c-41,-45 -82,-79 -127,-121 -45,-37 -83,-75 -134,-116 -1194,-1012 -2304,-943 -2480,-1015l-516 0c-61,21 -354,38 -454,55 -766,127 -1485,461 -2060,953 -96,82 -182,154 -264,237 -306,306 -643,777 -829,1180 -430,928 -354,1413 -413,1595l0 0zm3339 2951c-388,38 -825,124 -1162,-302 -151,-196 -182,-513 -475,-705 -65,-45 -182,-100 -185,-207 179,-144 519,38 677,248 121,151 220,402 557,471 114,24 217,20 334,0 45,-7 86,-17 131,-31 20,-7 48,-14 62,-21 20,-7 20,-7 34,-17 89,-55 62,-358 268,-495 -79,-66 -495,-41 -939,-289 -1024,-574 -880,-2160 -392,-2542 -20,-199 -82,-285 -62,-536 14,-144 49,-368 124,-464 299,-42 719,192 912,316 148,96 130,35 464,-24 478,-82 922,-62 1389,52 131,31 110,48 217,-24 186,-128 616,-362 911,-320 73,93 107,309 121,447 20,227 -14,330 -62,533 41,58 89,110 130,175 45,62 76,117 111,190 213,474 158,1107 -35,1547 -254,581 -808,819 -1396,898 -55,6 -100,6 -141,41 344,241 234,1169 241,1658 7,385 378,182 581,96 1087,-461 1885,-1469 2146,-2645 258,-1172 -113,-2259 -660,-2999 -1228,-1664 -3653,-2008 -5321,-667 -1134,915 -1736,2562 -1176,4137 145,399 413,901 705,1211 293,313 602,612 1066,846 128,65 523,278 685,241 151,-38 141,-183 141,-337 0,-159 3,-324 0,-482l-1 0z"/>
   <path class="fil3" d="M19334 10747c-17,-86 -27,-175 -30,-265 -7,-96 -14,-192 -14,-288 0,-97 7,-193 14,-286 3,-89 13,-179 30,-265 14,-89 31,-172 56,-254 24,-83 55,-165 85,-241 38,-86 80,-162 121,-227 48,-72 100,-134 155,-192l0 0c58,-59 120,-110 192,-159 72,-44 151,-82 234,-117 86,-34 179,-58 272,-75l0 0c96,-14 196,-24 299,-24 192,0 371,17 533,51 165,31 316,83 450,152l107 55 0 117 0 292 0 289 -268 -110c-86,-38 -165,-66 -238,-90 -68,-24 -134,-44 -189,-58 -58,-14 -120,-24 -182,-28 -65,-6 -134,-10 -213,-10 -59,0 -114,4 -162,14 -45,7 -89,20 -131,38l0 0c-41,17 -79,37 -113,62 -34,24 -62,51 -89,79l0 0c-28,31 -52,65 -80,106l0 0c-24,42 -44,86 -65,138 -20,48 -41,103 -55,162 -14,51 -27,106 -38,171 -7,62 -13,128 -20,196 -4,66 -7,138 -7,214 0,79 3,151 7,216 7,66 13,131 20,196 11,62 24,121 38,172 14,59 34,110 55,162 21,48 41,93 65,134l0 0c28,41 52,79 80,107l0 0c27,31 55,55 89,79 34,24 72,45 113,62l0 0c42,20 86,31 131,41 48,10 103,14 162,14 216,0 381,-14 495,-38l0 -763 -475 0 -196 0 0 -193 0 -268 0 -196 196 0 960 0 196 0 0 196 0 1551 0 124 -114 51c-137,65 -295,114 -478,148 -175,31 -371,45 -584,45 -103,0 -203,-7 -299,-24l0 0c-93,-17 -186,-42 -272,-73 -83,-34 -162,-72 -234,-120 -72,-45 -134,-96 -192,-158l0 0c-55,-55 -107,-120 -155,-189 -41,-69 -83,-141 -121,-227l0 0c-31,-76 -61,-155 -85,-241 -25,-83 -42,-168 -56,-255l0 0zm3195 -1437c-37,-38 -68,-83 -89,-134 -21,-48 -31,-100 -31,-155 0,-55 10,-107 31,-158 21,-48 52,-93 89,-131 38,-41 83,-69 135,-89 48,-21 99,-31 154,-31 55,0 107,10 158,31 49,20 93,51 131,89 41,41 69,83 90,134 20,48 31,100 31,155 0,55 -11,107 -31,155 -21,48 -49,93 -90,130l0 4c-41,38 -82,69 -134,89 -48,17 -100,28 -155,28 -55,0 -106,-11 -154,-28 -49,-20 -93,-51 -135,-89zm-51 2060l0 -1709 0 -196 196 0 289 0 196 0 0 196 0 1740 175 0 0 196 0 244 0 192 -196 0c-96,0 -186,-10 -265,-34 -86,-27 -158,-72 -220,-127 -62,-62 -106,-134 -137,-227 -24,-83 -38,-172 -38,-275zm1045 -1476l0 -130 0 -145 141 -41 282 -83 0 -433 0 -148 141 -41 299 -86 248 -69 0 258 0 488 468 0 196 0 0 196 0 234 0 196 -196 0 -468 0 0 1139c0,68 14,113 34,134 14,10 31,17 55,24 35,10 76,14 128,14 34,0 86,0 154,-7l207 -18 0 210 0 238 0 154 -152 35c-31,6 -69,13 -110,17 -38,3 -79,3 -127,3 -52,0 -103,-3 -155,-10 -51,-3 -103,-14 -151,-28l0 0c-52,-13 -96,-31 -145,-51 -44,-24 -89,-48 -130,-76l0 0c-48,-31 -90,-69 -127,-113 -35,-41 -66,-90 -90,-145l-3 0c-24,-51 -45,-106 -55,-168 -14,-59 -21,-120 -21,-182l0 -1170 -227 0 -196 0 0 -196 0 0zm2112 1902l0 -3205 0 -193 196 0 289 0 196 0 0 193 0 1207 1207 0 0 -1207 0 -193 196 0 289 0 196 0 0 193 0 3205 0 196 -196 0 -289 0 -196 0 0 -196 0 -1338 -1207 0 0 1338 0 196 -196 0 -289 0 -196 0 0 -196zm3033 -598l0 -1537 0 -196 193 0 299 0 196 0 0 196 0 1551c0,44 3,79 13,103 7,10 11,20 18,27l0 0c17,11 38,21 65,28 34,10 83,14 138,14 113,0 206,-7 275,-25l0 0c34,-10 69,-20 106,-37l0 -1661 0 -196 193 0 299 0 196 0 0 196 0 2135 0 196 -196 0 -165 0 -138 0 -27 -82c-48,20 -96,41 -148,58 -127,45 -258,66 -396,66 -615,0 -921,-279 -921,-836l0 0zm2435 598l0 -3205 0 -193 196 0 299 0 193 0 0 193 0 894c13,-3 24,-7 37,-10 117,-35 238,-52 368,-52 155,0 296,24 420,69l0 0c62,24 120,52 175,86 55,34 103,72 148,117l0 0c41,41 79,89 114,141 31,48 58,103 86,161l0 0c24,56 44,111 58,169 17,55 31,117 41,179l0 0c11,62 18,124 21,185 3,66 7,131 7,200 0,65 -4,131 -7,196 -4,62 -10,124 -21,186l0 0c-10,65 -24,124 -41,178 -14,59 -34,114 -58,172l0 0c-28,59 -55,110 -86,159 -35,51 -73,99 -114,141l0 3c-45,41 -93,79 -148,113 -55,35 -113,62 -175,86l0 0c-62,24 -131,42 -200,52 -72,14 -147,17 -220,17 -130,0 -261,-20 -392,-62 -55,-20 -113,-41 -172,-68l-34 89 -134 0 -165 0 -196 0 0 -196 0 0zm688 -478l10 4c38,13 72,27 110,34l0 0c34,10 76,17 120,21 49,6 100,6 166,6 68,0 127,-10 175,-31l0 0c21,-10 41,-20 58,-34 14,-10 28,-21 35,-34l3 0c11,-18 24,-31 31,-52 14,-24 21,-48 31,-75 11,-38 21,-73 24,-100 7,-28 11,-59 14,-93l0 0c4,-34 7,-69 7,-107 3,-31 3,-72 3,-127 0,-96 -3,-172 -10,-237l0 0c-3,-34 -7,-65 -14,-90 -3,-31 -13,-65 -24,-99 -10,-31 -17,-55 -31,-79 -7,-18 -20,-35 -31,-48l-3 -4c-7,-10 -21,-24 -35,-34 -17,-14 -37,-24 -58,-35l0 0c-21,-10 -48,-17 -76,-24 -27,-3 -62,-6 -99,-6 -66,0 -117,3 -165,6 -45,4 -86,11 -121,21l0 0c-38,10 -72,21 -110,34l-10 4 0 1179 0 0z"/>
   <path class="fil4" d="M18960 5162c127,0 230,38 306,110 79,73 117,165 117,282 0,117 -38,210 -114,282 -75,69 -179,104 -309,104l-344 0 0 -778 344 0 0 0zm3 114l-227 0 0 553 227 0c90,0 165,-27 217,-75 51,-48 79,-117 79,-203 0,-83 -28,-148 -83,-200 -55,-51 -127,-75 -213,-75z"/>
   <path id="_1_0" class="fil4" d="M21085 5850c103,0 189,-27 255,-83 65,-58 96,-127 96,-216 0,-86 -31,-155 -96,-213 -69,-55 -152,-83 -255,-83 -103,0 -189,28 -255,83 -65,55 -96,127 -96,213 0,89 31,158 96,216 66,56 152,83 255,83zm0 114c-138,0 -255,-38 -344,-117 -86,-79 -131,-176 -131,-296 0,-117 42,-217 131,-292 89,-80 203,-117 344,-117 141,0 255,37 344,117 89,75 134,175 134,292 0,120 -45,220 -134,296 -89,79 -206,117 -344,117z"/>
   <polygon id="_2" class="fil4" points="23007,5940 22743,5162 22863,5162 23052,5733 23248,5162 23351,5162 23544,5733 23736,5162 23853,5162 23592,5940 23506,5940 23300,5341 23093,5940 "/>
   <polygon id="_3" class="fil4" points="25102,5940 25102,5162 25167,5162 25662,5709 25662,5162 25779,5162 25779,5940 25717,5940 25222,5396 25222,5940 "/>
   <polygon id="_4" class="fil4" points="27148,5940 27148,5162 27268,5162 27268,5829 27846,5829 27846,5940 "/>
   <path id="_5" class="fil4" d="M29459 5850c103,0 189,-27 255,-83 65,-58 99,-127 99,-216 0,-86 -34,-155 -99,-213 -66,-55 -152,-83 -255,-83 -103,0 -186,28 -251,83 -65,55 -100,127 -100,213 0,89 35,158 100,216 65,56 148,83 251,83zm0 114c-138,0 -251,-38 -340,-117 -90,-79 -134,-176 -134,-296 0,-117 44,-217 134,-292 89,-80 203,-117 340,-117 141,0 255,37 344,117 89,75 134,175 134,292 0,120 -45,220 -134,296 -89,79 -203,117 -344,117z"/>
   <path id="_6" class="fil4" d="M31368 5640l302 0 -151 -299 -151 299 0 0zm-282 300l395 -778 76 0 399 778 -131 0 -100 -196 -412 0 -100 196 -127 0 0 0z"/>
   <path id="_7" class="fil4" d="M33517 5162c127,0 231,38 306,110 79,73 117,165 117,282 0,117 -38,210 -113,282 -76,69 -179,104 -310,104l-344 0 0 -778 344 0 0 0zm4 114l-227 0 0 553 227 0c89,0 165,-27 216,-75 52,-48 79,-117 79,-203 0,-83 -27,-148 -82,-200 -55,-51 -124,-75 -213,-75z"/>
   <polygon class="fil4" points="22846,7202 22846,7559 22725,7559 22725,6782 23441,6782 23441,6896 22846,6896 22846,7088 23231,7088 23231,7202 "/>
   <path id="_1_1" class="fil4" d="M24823 7105l413 0c45,0 76,-7 96,-27 24,-17 35,-45 35,-79 0,-31 -11,-59 -35,-76 -20,-17 -51,-27 -96,-27l-413 0 0 209zm0 114l0 340 -120 0 0 -777 533 0c79,0 144,21 189,59 45,37 65,92 65,158 0,55 -17,103 -51,144 -38,41 -83,66 -141,76l217 340 -131 0 -220 -340 -341 0 0 0z"/>
   <path id="_2_2" class="fil4" d="M27220 7470c103,0 189,-28 255,-86 65,-55 96,-127 96,-213 0,-86 -31,-158 -100,-214 -65,-55 -148,-85 -251,-85 -103,0 -189,31 -254,85 -66,56 -96,128 -96,214 0,86 30,158 96,213 65,58 151,86 254,86l0 0zm0 113c-137,0 -254,-37 -344,-117 -89,-79 -134,-175 -134,-295 0,-117 45,-217 134,-293 90,-79 203,-117 344,-117 138,0 255,38 344,114 90,79 134,175 134,296 0,120 -44,216 -134,295 -89,80 -206,117 -344,117z"/>
   <polygon id="_3_3" class="fil4" points="28995,7559 28995,6782 29094,6782 29414,7236 29731,6782 29834,6782 29834,7559 29713,7559 29713,6999 29414,7432 29115,6999 29115,7559 "/>
   <path class="fil5" d="M24404 3484c113,0 203,89 203,203 0,110 -90,203 -203,203 -110,0 -200,-93 -200,-203 0,-114 90,-203 200,-203zm4948 -1348l1754 0c365,0 688,-117 963,-344l-963 0 -546 0 -1208 0 -37 0 -234 0c-344,0 -650,103 -912,303 -474,368 -956,883 -1399,1303 -172,162 -441,162 -612,0l-1177 -1087c-319,-299 -815,-299 -1138,0l-1173 1087c-175,162 -440,162 -615,0l-1173 -1087c-323,-299 -818,-299 -1142,0l-1172 1087c-172,162 -441,162 -612,0l-1737 -1606 -282 268 0 0 1754 1623c323,296 818,296 1141,0l1173 -1086c172,-162 440,-162 612,0l1176 1086c320,296 815,296 1139,0l1172 -1086c176,-162 441,-162 616,0l1173 1086c323,296 822,300 1141,0 427,-405 822,-811 1228,-1210 21,-21 41,-41 62,-59 213,-185 464,-278 757,-278l233 0 38 0 0 0zm853 505c110,0 203,90 203,203 0,110 -93,200 -203,200 -113,0 -203,-90 -203,-200 0,-113 90,-203 203,-203zm-1124 1235l547 0 2888 0 0 -344 -3435 0c-365,0 -688,117 -963,344l963 0zm3435 -344l3457 0c168,0 302,-137 302,-302l0 -7c0,-165 -134,-303 -302,-303l-2927 0c-285,0 -519,-230 -519,-516l0 -75c0,-286 233,-516 519,-516l2242 0 0 344 -2242 0c-96,0 -175,79 -175,172l0 75c0,93 79,172 175,172l2927 0c357,0 646,289 646,647l0 7c0,357 -289,646 -646,646l-3457 0 0 -344z"/>
   <path class="fil6" d="M1476 18l39136 0c805,0 1461,656 1461,1458l0 1929c-14344,2662 -27550,6211 -39927,10403l-670 0c-802,0 -1459,-657 -1459,-1458l0 -10874c0,-802 657,-1458 1459,-1458z"/>
  </g>
 </g>
</svg>
