<svg xmlns="http://www.w3.org/2000/svg" width="500" height="172" viewBox="0 0 1645 568" shape-rendering="geometricPrecision" text-rendering="geometricPrecision" image-rendering="optimizeQuality" fill-rule="evenodd" clip-rule="evenodd"><defs><style><![CDATA[
    .fil1 {fill:black}
    .fil0 {fill:gray}
    .fil3 {fill:white}
    .fil2 {fill:black;fill-rule:nonzero}
    .fil5 {fill:#B3B3B3;fill-rule:nonzero}
    .fil4 {fill:white;fill-rule:nonzero}
    .fil7 {fill:white;fill-opacity:0.149020}
    .fil6 {fill:url(#id0)}
   ]]></style><linearGradient id="id0" gradientUnits="userSpaceOnUse" x1="627.897" y1="128.832" x2="1416.57" y2="128.832"><stop offset="0" stop-color="#5CC6D0"/><stop offset="1" stop-color="#0098DA"/></linearGradient></defs><g id="Layer_x0020_1"><g id="_822077312"><path class="fil0" d="M362 0h921c200 0 362 127 362 284 0 156-162 284-362 284H362C162 568 0 440 0 284 0 127 162 0 362 0z"/><path class="fil1" d="M76 21h1493c31 0 56 25 56 55v415c0 31-25 56-56 56H76c-30 0-55-25-55-56V76c0-30 25-55 55-55z"/><path id="_1" class="fil2" d="M1569 22H76v-2h1493v2zm56 54h-1v-5l-1-3v-3l-1-2-1-3v-2l-2-3-1-2-1-3-1-2-2-2-1-2-2-2-2-2-1-2-2-2-2-2-2-1-2-2-3-2-2-1-2-1-3-1-2-1-3-1-2-1h-3l-3-1h-8v-2h6l2 1h3l3 1 3 1 2 1 3 1 2 1 3 1 2 1 2 2 3 1 2 2 2 2 2 2 2 2 1 2 2 2 2 2 1 2 1 3 2 2 1 3 1 2 1 3 1 2v3l1 3v8zm-1 415V76h1v415h-1zm-55 56v-1h5l3-1h3l3-1h2l3-1 2-1 3-1 2-2 2-1 3-1 2-2 2-2 2-1 2-2 1-2 2-2 2-2 1-2 2-3 1-2 1-2 1-3 2-2v-3l1-2 1-3v-3l1-2v-6h1v9l-1 2v3l-1 3-1 2-1 3-1 3-2 2-1 2-1 3-2 2-2 2-1 2-2 2-2 2-2 2-2 1-3 2-2 1-2 2-3 1-2 1-3 1-2 1-3 1h-3l-3 1h-8zM76 546h1493v1H76v-1zm-56-55h2v8l1 3v3l1 2 1 3 1 2 1 3 1 2 2 2 1 3 2 2 1 2 2 2 2 2 2 2 2 1 2 2 2 2 2 1 2 1 3 2 2 1 3 1 2 1h3l2 1h3l3 1h5v1h-8l-3-1h-3l-2-1-3-1-2-1-3-1-2-1-3-2-2-1-2-2-2-1-2-2-2-2-2-2-2-2-2-2-1-2-2-3-1-2-1-2-1-3-1-3-1-2-1-3-1-3v-2l-1-3v-6zm2-415v415h-2V76h2zm54-56v2h-8l-3 1h-2l-3 1-2 1-3 1-2 1-3 1-2 2-2 1-2 2-2 1-2 2-2 2-2 2-2 2-1 2-2 2-2 2-1 2-1 3-1 2-1 3-1 2-1 3v2l-1 3v8h-2v-5l1-3v-3l1-3 1-2 1-3 1-2 1-3 1-2 1-3 2-2 1-2 2-2 2-2 2-2 2-2 2-2 2-2 2-1 2-2 3-1 2-1 3-1 2-1 3-1 2-1 3-1h3l3-1h5z"/><path class="fil3" d="M210 275v18c0 3 1 14 2 17 2 15 7 31 14 44 11 23 22 37 41 53 41 37 89 37 94 39h20c2-1 13-1 17-2 26-4 47-13 68-28 8-6 19-14 26-22 1-2 3-4 4-5 8-11 17-22 23-35 16-36 13-55 16-61v-18c-1-2-2-14-3-18-5-32-16-53-36-78l-9-10c-1-2-3-3-5-4-1-2-3-3-5-5-45-38-88-36-94-39h-20c-2 1-13 2-17 3-29 4-57 17-79 36-3 3-7 6-10 9-12 12-24 30-31 45-17 35-14 54-16 61zm127 112c-15 2-31 5-44-11-6-8-7-20-18-27-3-2-7-4-7-8 6-6 19 1 25 9 5 6 9 16 22 18 4 1 8 1 12 0 2 0 4 0 5-1 1 0 2 0 3-1h1c4-2 2-14 10-19-3-3-19-2-35-11-40-22-34-83-15-97-1-8-4-11-3-21 1-5 2-14 5-17 11-2 27 7 35 12 5 4 5 1 17-1 19-3 36-2 53 2 5 1 5 2 9-1 7-5 23-14 34-12 3 3 4 12 5 17 1 8-1 12-2 20 1 2 3 4 5 7 1 2 3 4 4 7 8 18 6 42-1 59-10 22-31 31-54 34-2 1-4 1-5 2 13 9 9 44 9 63 0 15 14 7 22 4 42-18 72-56 82-101s-4-86-25-114c-47-64-139-77-203-26-43 35-66 98-45 158 6 15 16 34 27 46s23 23 41 32c5 3 20 11 26 9 6-1 5-6 5-12v-19z"/><g id="_1253365952"><path class="fil4" d="M757 430c0-3-1-7-1-10v-11-11c0-3 1-7 1-10 1-3 2-7 3-10 0-3 2-6 3-9s3-6 4-9c2-2 4-5 6-7 3-2 5-4 8-6 2-2 5-3 9-4 3-2 6-3 10-3 4-1 7-1 11-1 8 0 15 0 21 2 6 1 12 3 17 5l4 3v26l-10-4c-4-1-7-2-9-3-3-1-5-2-8-3-2 0-4-1-7-1h-14c-2 1-3 1-5 2-1 1-3 1-4 2s-2 2-4 3c-1 1-1 3-3 4 0 2-1 4-2 6-1 1-2 4-2 6-1 2-1 4-2 6v8c0 2-1 5-1 8s1 6 1 8v8c1 2 1 4 2 6 0 2 1 4 2 6s2 4 2 5c2 2 2 3 3 5 2 1 3 2 4 3 1 0 3 1 4 2 2 1 3 1 5 1 2 1 4 1 6 1 9 0 15-1 19-1v-30h-25v-25h51v72l-4 2c-5 2-11 4-18 5-7 2-15 2-23 2-4 0-7 0-11-1s-7-1-10-3c-4-1-7-2-9-4-3-2-5-4-8-6-2-2-4-5-6-7-1-3-3-6-4-9s-3-6-3-9c-1-3-2-7-3-10zm122-55c-1-1-2-3-3-5s-1-4-1-6 0-4 1-6 2-3 3-5c2-1 3-2 5-3s4-1 6-1 4 0 6 1 4 2 5 3c2 2 3 3 4 5s1 4 1 6 0 4-1 6-2 4-4 5c-1 2-3 3-5 4-2 0-4 1-6 1s-4-1-6-1c-1-1-3-2-5-4zm-2 79v-73h26v74h7v24h-7c-4 0-8 0-11-1s-6-3-8-5-4-5-5-9c-1-3-2-6-2-10zm40-57v-10l6-2 10-3v-22l6-1 11-4 10-2v28h25v24h-25v43c0 3 0 5 1 5 0 1 1 1 2 1 1 1 3 1 5 1h6l8-1v23l-6 1c-1 1-3 1-4 1h-11c-2 0-4-1-6-1-2-1-4-2-5-2-2-1-4-2-5-3-2-1-4-3-5-5-2-1-3-3-4-5s-2-4-2-7c0-2-1-4-1-6v-45h-16v-8zm81 73V340h26v54h46v-54h26v137h-26v-58h-46v58h-26v-7zm115-23v-66h27v71s1 0 1 1c0 0 1 0 2 1h6c4 0 7 0 10-1 1 0 3 0 4-1v-71h26v96h-19l-1-3c-2 1-3 2-5 3-5 1-10 2-15 2-24 0-36-11-36-32zm93 23V340h26v42c1 0 1 0 2-1 4-1 9-1 14-1 6 0 11 0 16 2 2 1 5 2 7 3 2 2 4 3 5 5 2 1 3 3 5 5l3 6c1 3 2 5 2 7 1 2 1 4 2 7v7c1 2 1 5 1 7 0 3 0 5-1 8v7c-1 2-1 5-2 7 0 2-1 4-2 6-1 3-2 4-3 6-2 2-3 4-5 6-1 1-3 3-5 4s-5 3-7 3c-2 1-5 2-8 2-2 1-5 1-8 1-5 0-10-1-15-2-2-1-4-2-7-3l-1 3h-19v-7zm26-18h1c1 0 3 1 4 1 1 1 3 1 5 1h6c3 0 5 0 7-1 0 0 1-1 2-1 0-1 1-1 1-2 1 0 1-1 1-2 1 0 1-1 2-2 0-2 0-3 1-4v-4-4-5-9-3c-1-1-1-3-1-4-1-1-1-2-2-3 0-1 0-1-1-2l-1-1c-1-1-2-1-2-2h-3c-1-1-3-1-4-1-3 0-5 0-6 1h-5c-1 1-3 1-4 2h-1v45z"/><path class="fil5" d="M743 217c5 0 9 1 12 4s4 7 4 11-1 8-4 11c-3 2-7 4-12 4h-13v-30h13zm0 4h-8v21h8c4 0 7-1 9-2 2-2 3-5 3-8s-1-6-4-8c-2-2-4-3-8-3z"/><path id="_1_0" class="fil5" d="M824 243c4 0 7-1 10-3 2-2 4-5 4-8s-2-6-4-8c-3-2-6-3-10-3s-7 1-9 3c-3 2-4 5-4 8s1 6 4 8c2 2 5 3 9 3zm0 5c-5 0-9-2-13-5-3-3-5-7-5-11 0-5 2-8 5-11 4-3 8-5 13-5 6 0 10 2 13 5 4 3 5 6 5 11 0 4-1 8-5 11-3 3-8 5-13 5z"/><path id="_2" class="fil5" d="M898 247l-11-30h5l7 22 8-22h4l7 22 7-22h5l-10 30h-3l-8-23-8 23z"/><path id="_3" class="fil5" d="M977 247v-30h3l19 21v-21h4v30h-2l-19-21v21z"/><path id="_4" class="fil5" d="M1055 247v-30h5v25h22v5z"/><path id="_5" class="fil5" d="M1144 243c3 0 7-1 9-3 3-2 4-5 4-8s-1-6-4-8c-2-2-6-3-9-3-4 0-8 1-10 3-3 2-4 5-4 8s1 6 4 8c2 2 6 3 10 3zm0 5c-6 0-10-2-13-5-4-3-6-7-6-11 0-5 2-8 6-11 3-3 7-5 13-5 5 0 9 2 13 5 3 3 5 6 5 11 0 4-2 8-5 11-4 3-8 5-13 5z"/><path id="_6" class="fil5" d="M1216 235h12l-6-11-6 11zm-10 12l15-30h3l15 30h-5l-4-8h-16l-4 8h-4z"/><path id="_7" class="fil5" d="M1298 217c5 0 9 1 12 4s4 7 4 11-1 8-4 11c-3 2-7 4-12 4h-13v-30h13zm0 4h-8v21h8c4 0 7-1 9-2 2-2 3-5 3-8s-1-6-3-8c-3-2-5-3-9-3z"/><path class="fil5" d="M891 295v13h-4v-29h27v4h-23v7h15v5z"/><path id="_1_1" class="fil5" d="M967 291h16c1 0 2 0 3-1s1-2 1-3 0-2-1-3c-1 0-2-1-3-1h-16v8zm0 4v13h-5v-29h21c3 0 5 1 7 2 1 1 2 4 2 6s0 4-2 6c-1 1-3 2-5 2l8 13h-5l-8-13h-13z"/><path id="_2_2" class="fil5" d="M1058 305c4 0 7-1 10-3 2-2 4-5 4-8 0-4-2-6-4-9-3-2-6-3-10-3s-7 1-10 3c-2 3-3 5-3 9 0 3 1 6 3 8 3 2 6 3 10 3zm0 4c-5 0-10-1-13-4s-5-7-5-11c0-5 2-9 5-12s8-4 13-4 10 1 13 4c4 3 5 7 5 12 0 4-1 8-5 11-3 3-8 4-13 4z"/><path id="_3_3" class="fil5" d="M1126 308v-29h4l12 17 12-17h4v29h-5v-21l-11 17-12-17v21z"/><path class="fil6" d="M951 153c4 0 8 3 8 8 0 4-4 8-8 8s-8-4-8-8c0-5 4-8 8-8zm188-51h67c14 0 27-5 37-13h-114c-13 0-25 3-35 11-18 14-36 34-53 50-7 6-17 6-23 0l-45-42c-12-11-31-11-44 0l-44 42c-7 6-17 6-24 0l-45-42c-12-11-31-11-43 0l-45 42c-6 6-17 6-23 0l-66-61-11 10 67 62c12 11 31 11 43 0l45-42c7-6 17-6 23 0l45 42c12 11 31 11 44 0l44-42c7-6 17-6 24 0l45 42c12 11 31 11 43 0l47-47c1 0 1-1 2-2 8-7 18-10 29-10h10zm33 19c4 0 8 3 8 8 0 4-4 7-8 7s-8-3-8-7c0-5 4-8 8-8zm-43 47h131v-13h-131c-14 0-26 4-37 13h37zm131-13h132c6 0 11-5 11-12 0-6-5-11-11-11h-112c-11 0-19-9-19-20v-3c0-11 8-20 19-20h86v13h-86c-3 0-6 3-6 7v3c0 3 3 6 6 6h112c14 0 25 11 25 25s-11 25-25 25h-132v-13z"/></g><path class="fil7" d="M76 21h1493c31 0 56 25 56 55v74C1078 252 574 387 102 547H76c-30 0-55-25-55-56V76c0-30 25-55 55-55z"/></g></g></svg>