<svg xmlns="http://www.w3.org/2000/svg" style="width:0; height:0; visibility:hidden;">
    <symbol id="icon_clock" viewBox="0 0 200 200">
        <g> <path class="st0" d="M140.1,78.9v-19l-11.4-2.3c-0.6-2.3-1.2-4.7-2-7l8.5-7.6l-9.6-16.7l-11.7,3.8c-1.5-1.5-3.2-3.2-4.7-4.7
		l3.8-11.4L96.2,4.4l-8.5,9.4c-2-0.6-4.1-1.2-6.1-1.8L78.9,0h-19l-2.6,12c-2.3,0.6-4.4,1.2-6.7,1.8L42.7,5L26,14.6l3.5,10.8
		c-2,1.8-3.8,3.5-5.6,5.3l-10.2-3.2L4.1,44.2l7.6,6.7c-0.9,2.6-1.8,5.6-2.3,8.5l-9.4,2v19l9.1,2c0.6,3.2,1.5,6.4,2.3,9.4L5,97.7
		l9.6,16.7l7.9-2.6c2.3,2.6,4.7,5,7.3,7.3l-2.3,7.6l16.7,9.6l5.6-5.8c3.2,1.2,6.7,2,10.2,2.6l1.8,7.6h19l1.8-8.2
		c3.2-0.6,6.4-1.8,9.6-2.9l5.6,6.1l16.7-9.6l-2.9-8.8c2.3-2,4.4-4.4,6.1-6.7l8.8,2.9l9.6-16.7l-7.9-7c0.9-2.6,1.5-5.3,1.8-7.9
		L140.1,78.9z M69.9,105.3c-19.3,0-35.1-15.8-35.1-35.1s15.8-35.1,35.1-35.1S105,50.9,105,70.2S89.5,105.3,69.9,105.3z"/> <g> <g> <path class="st1" d="M193,128.4c0,37.4-30.4,67.5-67.5,67.5c-37.4,0-67.5-30.4-67.5-67.5c0-37.4,30.4-67.5,67.5-67.5
				C162.6,60.5,193,90.9,193,128.4z"/> <path class="st2" d="M125.1,200c-39.5,0-71.6-32.2-71.6-71.6s32.2-71.6,71.6-71.6s71.6,32.2,71.6,71.6
				C197.1,167.8,164.9,200,125.1,200z M125.1,64.6c-35.1,0-63.5,28.7-63.5,63.5c0,35.1,28.7,63.5,63.5,63.5
				c35.1,0,63.5-28.7,63.5-63.5C188.9,93.3,160.2,64.6,125.1,64.6z"/> </g> <path class="st3" d="M125.1,74.3c-0.3,0-0.6,0-0.9,0v53.8h54.7C178.9,98.2,155,74.3,125.1,74.3z"/> <g> <g> <path class="st1" d="M138.9,43.6c0,1.8-1.2,2.9-2.9,2.9h-21.3c-1.8,0-2.9-1.2-2.9-2.9V29.8c0-1.8,1.2-2.9,2.9-2.9H136
					c1.8,0,2.9,1.2,2.9,2.9V43.6z"/> <path class="st2" d="M136,50.6h-21.3c-1.8,0-3.5-0.9-5-2c-1.5-1.5-2-3.2-2-5V29.8c0-3.8,3.2-7,7-7H136c1.8,0,3.8,0.9,5,2
					c1.5,1.5,2,3.2,2,5v13.7C143,47.7,139.8,50.6,136,50.6z M115.8,42.4h19V30.7h-19V42.4z"/> </g> </g> <g> <g> <g> <g> <g> <path class="st1" d="M77.2,68.7l-5-7c-0.6-0.9-0.3-2,0.6-2.6l11.1-7.6c0.9-0.6,2-0.3,2.6,0.6l5,7"/> <path class="st2" d="M73.7,71.1l-5-7c-0.9-1.2-1.2-2.9-0.9-4.4c0.3-1.5,1.2-2.9,2.6-3.8l11.1-7.6c2.6-1.8,6.4-1.2,8.2,1.5
								l5,7L88,61.4l-3.5-5.3l-7.3,5l3.5,5.3L73.7,71.1z"/> </g> </g> </g> </g> <g> <g> <g> <g> <path class="st1" d="M173.4,68.7l5-7c0.6-0.9,0.3-2-0.6-2.6l-11.1-7.6c-0.9-0.6-2-0.3-2.6,0.6l-5,7"/> <path class="st2" d="M176.9,71.1l-6.7-4.7l3.5-5.3l-7.3-5l-3.5,5.3l-6.7-4.7l5-7c1.8-2.6,5.6-3.5,8.2-1.5l11.1,7.6
								c1.2,0.9,2.3,2.3,2.6,3.8c0.3,1.5,0,3.2-0.9,4.4L176.9,71.1z"/> </g> </g> </g> </g> </g> <circle class="st1" cx="125.1" cy="128.4" r="35.4"/> <g> <g> <line class="st4" x1="124.9" y1="78.1" x2="124.9" y2="86.3"/> <rect x="120.8" y="78.1" class="st2" width="8.2" height="8.5"/> </g> <g> <line class="st4" x1="99.7" y1="84.8" x2="103.8" y2="92.4"/> <rect x="97.4" y="84.4" transform="matrix(-0.5 -0.866 0.866 -0.5 75.8798 220.697)" class="st2" width="8.5" height="8.2"/> </g> <g> <line class="st4" x1="81.3" y1="103.5" x2="88.6" y2="107.9"/> <rect x="80.7" y="101.4" transform="matrix(-0.8657 -0.5005 0.5005 -0.8657 105.7549 239.3185)" class="st2" width="8.5" height="8.2"/> </g> <g> <line class="st4" x1="74.9" y1="128.7" x2="83.3" y2="128.7"/> <rect x="74.9" y="124.6" class="st2" width="8.5" height="8.2"/> </g> <g> <line class="st4" x1="81.9" y1="153.8" x2="89.2" y2="149.7"/> <rect x="81.2" y="147.5" transform="matrix(-0.5 -0.866 0.866 -0.5 -3.4353 301.4378)" class="st2" width="8.2" height="8.5"/> </g> <g> <line class="st4" x1="100.6" y1="172.2" x2="104.7" y2="164.9"/> <rect x="98.4" y="164.4" transform="matrix(-0.8656 -0.5007 0.5007 -0.8656 106.8429 365.9067)" class="st2" width="8.2" height="8.5"/> </g> <g> <line class="st4" x1="125.7" y1="178.7" x2="125.7" y2="170.2"/> <rect x="121.6" y="170.2" class="st2" width="8.2" height="8.5"/> </g> <g> <line class="st4" x1="150.9" y1="171.6" x2="146.5" y2="164.3"/> <rect x="144.4" y="164" transform="matrix(-0.4994 -0.8664 0.8664 -0.4994 77.2735 380.7961)" class="st2" width="8.5" height="8.2"/> </g> <g> <line class="st4" x1="169" y1="153.2" x2="161.7" y2="148.8"/> <rect x="161.2" y="146.7" transform="matrix(-0.8655 -0.5009 0.5009 -0.8655 233.0643 364.194)" class="st2" width="8.5" height="8.2"/> </g> <g> <line class="st4" x1="175.7" y1="127.8" x2="167.3" y2="127.8"/> <rect x="167.3" y="123.7" class="st2" width="8.5" height="8.2"/> </g> <g> <line class="st4" x1="168.7" y1="102.6" x2="161.4" y2="107"/> <rect x="160.8" y="100.6" transform="matrix(-0.4991 -0.8666 0.8666 -0.4991 156.3747 300.145)" class="st2" width="8.2" height="8.5"/> </g> <g> <line class="st4" x1="150" y1="84.5" x2="145.9" y2="91.8"/> <rect x="143.8" y="83.9" transform="matrix(-0.8657 -0.5005 0.5005 -0.8657 231.7428 238.5127)" class="st2" width="8.2" height="8.5"/> </g> </g> <g> <line class="st4" x1="128.9" y1="123.7" x2="152" y2="100"/> <rect x="136.5" y="95.5" transform="matrix(-0.7138 -0.7004 0.7004 -0.7138 162.5063 290.3704)" class="st2" width="8.2" height="33"/> </g> <g> <g> <path class="st1" d="M131.6,128.4c0-3.5-2.9-6.4-6.4-6.4s-6.4,2.9-6.4,6.4s2.9,6.4,6.4,6.4C128.9,134.8,131.6,131.9,131.6,128.4
					z"/> <path class="st2" d="M125.1,138.9L125.1,138.9L125.1,138.9L125.1,138.9c-5.8,0-10.5-4.7-10.5-10.5c0-5.8,4.7-10.5,10.5-10.5
					s10.5,4.7,10.5,10.5C135.7,134.2,131,138.9,125.1,138.9z M125.1,125.7c-1.2,0-2.3,1.2-2.3,2.3c0,1.5,1.2,2.3,2.3,2.3l0,0
					c1.2,0,2.3-1.2,2.3-2.3C127.5,126.9,126.6,125.7,125.1,125.7z"/> </g> </g> <g> <rect x="121.1" y="46.2" class="st2" width="8.2" height="10.2"/> </g> </g> </g> 
    </symbol>
    <symbol id="icon_community" viewBox="0 0 200 200">
        <g> <path class="st0" d="M112.3,10.3c-12.5,0-22.8,10.1-22.8,22.6v19.7c0,1.7,1.4,3.1,3.1,3.1c1.7,0,3.1-1.4,3.1-3.1V32.9
		c0-9.1,7.4-16.6,16.6-16.6c1.7,0,3.1-1.4,3.1-3.1C115.4,11.8,114,10.3,112.3,10.3z"/> <path class="st0" d="M71.9,158.1c1.7,0,3.1-1.4,3.1-3.1v-32c0.5-3.4,4.6-32.9-13.5-53.1c-12.3-13.7-31.5-19.7-57.4-18
		c0,0,0,0-0.2,0c-0.7,0-1.4,0.5-1.9,1l0,0l0,0l0,0l0,0l0,0l0,0l0,0l0,0l0,0l0,0c-0.2,0.5-0.5,0.7-0.7,1.4c-0.5,1.9-6,28.4,10.3,48.8
		c11.5,14.4,30.8,22.1,57.4,22.6v29.1C68.8,156.9,70.2,158.1,71.9,158.1z M37.3,61.8c5,1.7,9.6,4.1,13.5,7v28.6L37.3,83.9V61.8z
		 M31.1,59.8v17.8L11.4,57.9C18.6,57.9,25.3,58.6,31.1,59.8z M6.6,61.8l20.2,20.2H8C6.1,74,6.1,66.6,6.6,61.8z M19.5,103.1
		c-1-1.2-2.2-2.2-3.1-3.4c-2.9-3.6-5-7.4-6.5-11.3H33l14.7,14.7H20C19.8,102.8,19.5,102.8,19.5,103.1z M27,109.1h26.9l10.6,10.6
		C48.9,118.7,36.4,115.1,27,109.1z M57,103.3V74l0,0c12,13.5,13,32.2,12.5,41.8L57,103.3z"/> <path class="st0" d="M139,145.4v16.8c0,1.7,1.4,3.1,3.1,3.1c1.7,0,3.1-1.4,3.1-3.1v-16.8c0-1.7-1.4-3.1-3.1-3.1
		C140.2,142.3,139,143.7,139,145.4z"/> <path class="st0" d="M93.8,110.3h10.1c1.7,0,3.1-1.4,3.1-3.1c0-1.7-1.4-3.1-3.1-3.1H93.8c-1.7,0-3.1,1.4-3.1,3.1
		S92.1,110.3,93.8,110.3z"/> <path class="st0" d="M176.9,107.2c0,1.7,1.4,3.1,3.1,3.1h16.8c1.7,0,3.1-1.4,3.1-3.1c0-1.7-1.4-3.1-3.1-3.1h-16.8
		C178.1,104,176.9,105.5,176.9,107.2z"/> <path class="st0" d="M178.6,148.3c0.7,0.7,1.4,1,2.2,1c0.7,0,1.7-0.2,2.2-1c1.2-1.2,1.2-3.1,0-4.3l-11.5-11.5
		c-1.2-1.2-3.1-1.2-4.3,0c-1.2,1.2-1.2,3.1,0,4.3L178.6,148.3z"/> <path class="st0" d="M101,66.1c-1.2,1.2-1.2,3.1,0,4.3l13,13c0.7,0.7,1.4,1,2.2,1s1.7-0.2,2.2-1c1.2-1.2,1.2-3.1,0-4.3l-13-13
		C104.1,64.9,102.2,64.9,101,66.1z"/> <path class="st0" d="M103.2,149.2c0.7,0,1.7-0.2,2.2-1l12-12c1.2-1.2,1.2-3.1,0-4.3c-1.2-1.2-3.1-1.2-4.3,0l-12,12
		c-1.2,1.2-1.2,3.1,0,4.3C101.5,148.7,102.4,149.2,103.2,149.2z"/> <path class="st0" d="M178.6,66.1l-11.5,11.5c-1.2,1.2-1.2,3.1,0,4.3c0.7,0.7,1.4,1,2.2,1c0.7,0,1.7-0.2,2.2-1l11.5-11.5
		c1.2-1.2,1.2-3.1,0-4.3C181.7,64.9,179.8,64.9,178.6,66.1z"/> <path class="st1" d="M42.6,102.8h5L33,88.2H9.9c0.7,1.7,1.4,3.4,2.4,5H33L42.6,102.8z"/> <path class="st1" d="M21.7,81.9h5L6.6,61.8c-0.2,2.2-0.2,5-0.2,8.2c0-1.2,0-2.2,0.2-3.1L21.7,81.9z"/> <path class="st1" d="M50.8,68.5c-3.8-2.9-8.4-5.3-13.5-7v5c5,1.7,9.6,4.1,13.5,7V68.5z"/> <path class="st1" d="M57,74L57,74v5l0,0c9.9,11.1,12.3,25.5,12.7,35.8C69.8,104.8,68.6,87,57,74z"/> <path class="st1" d="M53.9,109.1H27c2.9,1.9,6.2,3.6,9.9,5h17.1l5,5c1.7,0.2,3.6,0.2,5.3,0.5L53.9,109.1z"/> <path class="st1" d="M31.1,59.8c-6-1.4-12.5-1.9-19.7-1.9l5,5c5.3,0.2,10.1,1,14.7,1.9V59.8z"/> <path class="st2" d="M129.8,111.3c1.2,1.2,3.1,1.2,4.3,0l7.9-7.9l12.7,12.7c0.7,0.7,1.4,1,2.2,1c0.7,0,1.7-0.2,2.2-1
		c1.2-1.2,1.2-3.1,0-4.3l-0.2-0.2c-0.5,0.5-1.2,0.7-1.9,0.7c-0.7,0-1.7-0.2-2.2-1l-12.7-12.7l-7.9,7.9c-1.2,1.2-2.9,1.2-4.1,0.2
		l-0.2,0.2C128.6,107.9,128.6,109.8,129.8,111.3z"/> <path class="st2" d="M134.2,76.4h5v-5h-5c-0.2,7.2-3.1,14.2-8.4,19c-5.5,5.3-8.4,12.5-7.7,20.2c0.7-5.8,3.1-11.1,7.7-15.4
		C130.8,90.6,133.9,83.6,134.2,76.4z"/> <rect x="130.8" y="49.7" class="st1" width="23.1" height="3.4"/> <rect x="130.8" y="59.4" class="st1" width="23.1" height="4.1"/> <path class="st2" d="M159.4,95.6c4.3,4.1,6.7,9.4,7.4,15.1c0-0.7,0.2-1.7,0.2-2.4c0-6.7-2.6-13-7.4-17.8c-5.5-5.3-8.7-12-8.7-19.2
		h-5.3v5h5.3C151,83.6,154.1,90.3,159.4,95.6z"/> <path class="st1" d="M149.5,40.1h-13.9c-2.2,0-3.8,1.4-4.3,3.4h22.8C153.1,41.6,151.5,40.1,149.5,40.1z"/> <path class="st0" d="M173.1,108.4c0-8.4-3.4-16.3-9.4-22.1c-4.3-4.1-6.7-9.4-6.7-14.9h0.2c1.7,0,3.1-1.4,3.1-3.1V46.6
		c0-6-4.8-10.8-10.8-10.8h-3.4v-2.9c0-18.3-14.9-32.9-32.9-32.9C95,0,80.3,14.9,80.3,32.9v138.9c0,1.7,1.4,3.1,3.1,3.1
		c1.7,0,3.1-1.4,3.1-3.1V32.9C86.6,18,98.6,6,113.5,6s26.9,12,26.9,26.9v2.9h-4.6c-6,0-10.8,4.8-10.8,10.8v21.6
		c0,1.7,1.4,3.1,3.1,3.1h0.2c-0.2,5.5-2.6,10.8-6.5,14.4c-7.4,7-10.8,17.1-9.4,27.2c2.2,13.7,13,24.3,26.7,25.7
		c1.2,0.2,2.4,0.2,3.6,0.2c7.4,0,14.9-2.6,20.4-7.7C169.5,125.7,173.1,117.3,173.1,108.4z M135.4,42.3h13.9c2.2,0,3.8,1.4,4.3,3.4
		h-22.8C131.5,43.5,133.4,42.3,135.4,42.3z M130.8,51.7h23.1V55h-23.1V51.7z M130.8,61.3h23.1v4.1h-23.1V61.3z M158.7,126.9
		c-5.3,4.8-12.3,7-19.2,6c-10.8-1.2-19.7-9.9-21.4-20.7c-1.2-8.2,1.4-16.1,7.4-21.6c5.3-4.8,8.4-11.8,8.4-19h5v20.9l-9.4,9.4
		c-1.2,1.2-1.2,3.1,0,4.3c1.2,1.2,3.1,1.2,4.3,0l7.9-7.9l12.7,12.7c0.7,0.7,1.4,1,2.2,1s1.7-0.2,2.2-1c1.2-1.2,1.2-3.1,0-4.3
		L145,92.8V71.4h5.3c0.2,7.2,3.4,13.9,8.7,19.2c4.8,4.6,7.4,11.1,7.4,17.8C167.1,115.3,164,122.1,158.7,126.9z"/> </g> 
    </symbol>
    <symbol id="icon_explorer" viewBox="0 0 200 200">
        <g> <path class="st0" d="M196.3,127.7l-10-4.4c2.2-7.5,3.4-15.6,3.4-23.4c0-23.7-9.3-45.5-26.2-62c-15.3-14.6-35.2-23.1-56.1-24V3.4
		c0-1.9-1.6-3.4-3.4-3.4C48.9,0,4,44.9,4,100s44.9,100,100,100c43,0,81-27.4,94.7-67.9C198.8,130.2,197.8,128.3,196.3,127.7z
		 M182.6,100c0,7.2-0.9,14.3-2.8,21.2l-69.5-22.7l52-51.4C175.1,61.7,182.6,80.1,182.6,100z M106.9,21.2
		c18.7,0.9,36.4,8.1,50.2,20.9l-50.2,49.5V21.2z M103.4,192.8c-51.4,0-92.8-41.7-92.8-92.8c0-50.2,39.9-91,89.4-92.8V100
		c0,0.3,0,0.9,0.3,1.2c0,0.3,0,0.3,0.3,0.6c0.3,0.6,0.9,1.2,1.9,1.6l0,0l78.2,25.5l9.7,4C176.6,168.8,142.4,192.8,103.4,192.8z"/> <path class="st0" d="M154.5,103.1c8.1,0,15-6.5,15-15c0-8.1-6.5-15-15-15c-8.1,0-15,6.5-15,15S146.4,103.1,154.5,103.1z
		 M154.5,80.4c4.4,0,7.8,3.4,7.8,7.8s-3.4,7.8-7.8,7.8s-7.8-3.4-7.8-7.8S150.2,80.4,154.5,80.4z"/> <path class="st0" d="M73.5,40.8h-7.2c-4,0-7.5,3.4-7.5,7.5v3.1V57v12.8c0,1.9,1.6,3.4,3.4,3.4s3.4-1.6,3.4-3.4v-9.3h7.8
		c4,0,7.5-3.4,7.5-7.5v-4.7C81,43.9,77.6,40.8,73.5,40.8z M74.1,53c0,0.3-0.3,0.6-0.6,0.6h-7.8v-1.9v-3.1c0-0.3,0.3-0.6,0.6-0.6h7.2
		c0.3,0,0.6,0.3,0.6,0.6V53z"/> <path class="st0" d="M57,125.5h11.2c1.9,0,3.4-1.6,3.4-3.4s-1.6-3.4-3.4-3.4H57c-4,0-7.5,3.4-7.5,7.5v4.7c0,4,3.4,7.5,7.5,7.5h7.2
		c0.3,0,0.6,0.3,0.6,0.6v4.7c0,0.3-0.3,0.6-0.6,0.6H53c-1.9,0-3.4,1.6-3.4,3.4c0,1.9,1.6,3.4,3.4,3.4h11.2c4,0,7.5-3.4,7.5-7.5v-4.7
		c0-4-3.4-7.5-7.5-7.5H57c-0.3,0-0.6-0.3-0.6-0.6v-4.7C56.4,125.9,56.7,125.5,57,125.5z"/> <path class="st0" d="M144.2,136.4c-1.9,0-3.4,1.6-3.4,3.4V153l-8.7-14.6c-0.9-1.2-2.5-1.9-4-1.6c-1.6,0.3-2.5,1.9-2.5,3.4v25.5
		c0,1.9,1.6,3.4,3.4,3.4c1.9,0,3.4-1.6,3.4-3.4v-13.1l8.7,14.6c0.6,0.9,1.9,1.6,3.1,1.6c0.3,0,0.6,0,0.9,0c1.6-0.3,2.5-1.9,2.5-3.4
		v-25.5C147.7,138,146.1,136.4,144.2,136.4z"/> <path class="st0" d="M12.5,186.6l6.5,6.5c0.6,0.6,1.6,0.9,2.5,0.9c0.9,0,1.9-0.3,2.5-0.9c1.2-1.2,1.2-3.4,0-5l-6.5-6.5l6.5-6.5
		c1.2-1.2,1.2-3.4,0-5c-1.2-1.2-3.4-1.2-5,0l-6.5,6.5l-6.5-6.5c-1.2-1.2-3.4-1.2-5,0c-1.2,1.2-1.2,3.4,0,5l6.5,6.5l-6.5,6.5
		c-1.2,1.2-1.2,3.4,0,5c0.6,0.6,1.6,0.9,2.5,0.9s1.9-0.3,2.5-0.9L12.5,186.6z"/> <path class="st1" d="M180.7,128.7l-78.2-25.5l0,0c-0.9-0.3-1.6-0.9-1.9-1.6c0-0.3-0.3-0.3-0.3-0.6s-0.3-0.9-0.3-1.2v5.6
		c0,0.3,0,0.9,0.3,1.2c0,0.3,0,0.3,0.3,0.6c0.3,0.6,0.9,1.2,1.9,1.6l0,0l78.2,25.5l7.8,3.1c0.6-1.6,1.2-3.1,1.9-4.7L180.7,128.7z"/> <path class="st1" d="M100,12.8V7.2C50.5,9,10.6,49.8,10.6,100c0,0.9,0,1.9,0,2.8C11.8,53.9,51.1,14.3,100,12.8z"/> <path class="st2" d="M114,99.7l48-47.4c12.5,13.7,19.6,31.2,20.2,49.5c0-0.6,0-1.6,0-2.2c0-19.9-7.2-38.3-20.6-53l-52,51.4
		L114,99.7z"/> <path class="st2" d="M157,42.1c-13.7-12.8-31.5-20.2-50.2-20.9v5.6c17.4,0.6,34,7.2,47,18.4L157,42.1z"/> <path class="st1" d="M154.5,80.4c-4.4,0-7.8,3.4-7.8,7.8c0,0.9,0.3,1.9,0.6,2.8c1.2-3.1,4-5,7.5-5s6.2,2.2,7.5,5
		c0.3-0.9,0.6-1.9,0.6-2.8C162.3,83.8,158.9,80.4,154.5,80.4z"/> <path class="st2" d="M154.5,103.1c-7.2,0-13.4-5.3-14.6-12.1c-0.3,0.9-0.3,1.9-0.3,2.8c0,8.1,6.5,15,15,15c8.1,0,15-6.5,15-15
		c0-0.9,0-1.9-0.3-2.8C167.9,97.8,161.7,103.1,154.5,103.1z"/> <path class="st1" d="M73.5,60.4h-7.8V66h7.8c4,0,7.5-3.4,7.5-7.5v-4.7v-0.3C80.7,57.3,77.6,60.4,73.5,60.4z"/> <path class="st1" d="M73.5,47.7h-7.2c-0.3,0-0.6,0.3-0.6,0.6v3.1v1.9l0,0L66,53h7.2h0.3l0.3-0.3V48C74.1,48,73.8,47.7,73.5,47.7z"/> <path class="st1" d="M62.3,73.2c-1.9,0-3.4-1.6-3.4-3.4v5.6c0,1.9,1.6,3.4,3.4,3.4s3.4-1.6,3.4-3.4v-5.6
		C65.7,71.7,64.2,73.2,62.3,73.2z"/> <path class="st1" d="M64.8,143.6v-4.7c0-0.3-0.3-0.6-0.6-0.6H57c-4,0-7.2-3.1-7.5-7.2v0.3v4.7c0,4,3.4,7.5,7.5,7.5h7.2h0.3
		C64.8,143.9,64.8,143.9,64.8,143.6z"/> <path class="st1" d="M57,125.5c-0.3,0-0.6,0.3-0.6,0.6v4.7c0,0.3,0,0.3,0.3,0.3H57h11.2c1.9,0,3.4-1.6,3.4-3.4
		c0-1.2-0.6-2.2-1.6-2.8c-0.6,0.3-1.2,0.6-1.9,0.6L57,125.5L57,125.5z"/> <path class="st1" d="M64.2,151.1H53c-0.6,0-1.6-0.3-1.9-0.6c-0.9,0.6-1.6,1.6-1.6,2.8c0,1.9,1.6,3.4,3.4,3.4h11.2
		c4,0,7.5-3.4,7.5-7.5v-4.7v-0.3C71.3,148,68.2,151.1,64.2,151.1z"/> <path class="st1" d="M129,168.8c-1.9,0-3.4-1.6-3.4-3.4v5.6c0,1.9,1.6,3.4,3.4,3.4s3.4-1.6,3.4-3.4v-5.6
		C132.4,167.3,130.8,168.8,129,168.8z"/> <path class="st1" d="M145.2,168.8c-0.3,0-0.6,0-0.9,0c-1.2,0-2.5-0.6-3.1-1.6l-8.7-14.6v5.6l8.7,14.6c0.6,0.9,1.9,1.6,3.1,1.6
		c0.3,0,0.6,0,0.9,0c1.6-0.3,2.5-1.9,2.5-3.4v-5.6C147.7,167,146.7,168.5,145.2,168.8z"/> </g> 
    </symbol>
    <symbol id="icon_features_1" viewBox="0 0 300 300">
        <g> <g> <g> <path class="st0" d="M182.8,215.6h-65.6c-8,0-14.1-6.1-14.1-14.1v-56.3c0-8,6.1-14.1,14.1-14.1h65.6c8,0,14.1,6.1,14.1,14.1v56.3
				C196.9,209.5,190.8,215.6,182.8,215.6z M117.2,140.6c-2.8,0-4.7,1.9-4.7,4.7v56.3c0,2.8,1.9,4.7,4.7,4.7h65.6
				c2.8,0,4.7-1.9,4.7-4.7v-56.3c0-2.8-1.9-4.7-4.7-4.7H117.2z"/> </g> <g> <path class="st0" d="M187.5,135.9h-9.4v-18.8c0-13.1-10.3-23.4-23.4-23.4h-9.4c-13.1,0-23.4,10.3-23.4,23.4v18.8h-9.4v-18.8
				c0-18.3,14.5-32.8,32.8-32.8h9.4c18.3,0,32.8,14.5,32.8,32.8V135.9z"/> </g> <g> <circle class="st0" cx="150" cy="164.1" r="9.4"/> </g> <g> <rect x="145.3" y="168.8" class="st0" width="9.4" height="23.4"/> </g> </g> <g> <g> <rect x="32.8" y="145.3" class="st0" width="42.2" height="9.4"/> </g> <g> <path class="st0" d="M18.8,168.8C8.4,168.8,0,160.3,0,150s8.4-18.8,18.8-18.8s18.8,8.4,18.8,18.8S29.1,168.8,18.8,168.8z
				 M18.8,140.6c-5.2,0-9.4,4.2-9.4,9.4s4.2,9.4,9.4,9.4s9.4-4.2,9.4-9.4S23.9,140.6,18.8,140.6z"/> </g> </g> <g> <g> <rect x="225" y="145.3" class="st0" width="42.2" height="9.4"/> </g> <g> <path class="st0" d="M281.3,168.8c-10.3,0-18.8-8.4-18.8-18.8s8.4-18.8,18.8-18.8S300,139.7,300,150S291.6,168.8,281.3,168.8z
				 M281.3,140.6c-5.2,0-9.4,4.2-9.4,9.4s4.2,9.4,9.4,9.4s9.4-4.2,9.4-9.4S286.4,140.6,281.3,140.6z"/> </g> </g> <g> <g> <path class="st0" d="M248.4,229.7h-9.4v-28.1c0-8-6.1-14.1-14.1-14.1h-18.8v-9.4H225c13.1,0,23.4,10.3,23.4,23.4V229.7z"/> </g> <g> <path class="st0" d="M243.8,262.5c-10.3,0-18.8-8.4-18.8-18.8s8.4-18.8,18.8-18.8s18.8,8.4,18.8,18.8S254.1,262.5,243.8,262.5z
				 M243.8,234.4c-5.2,0-9.4,4.2-9.4,9.4s4.2,9.4,9.4,9.4c5.2,0,9.4-4.2,9.4-9.4S248.9,234.4,243.8,234.4z"/> </g> </g> <g> <g> <path class="st0" d="M60.9,229.7h-9.4v-28.1c0-13.1,10.3-23.4,23.4-23.4h18.8v9.4H75c-8,0-14.1,6.1-14.1,14.1V229.7z"/> </g> <g> <path class="st0" d="M56.3,262.5c-10.3,0-18.8-8.4-18.8-18.8S45.9,225,56.3,225S75,233.4,75,243.8S66.6,262.5,56.3,262.5z
				 M56.3,234.4c-5.2,0-9.4,4.2-9.4,9.4s4.2,9.4,9.4,9.4s9.4-4.2,9.4-9.4S61.4,234.4,56.3,234.4z"/> </g> </g> <g> <g> <path class="st0" d="M225,121.9h-18.8v-9.4H225c8,0,14.1-6.1,14.1-14.1V70.3h9.4v28.1C248.4,111.6,238.1,121.9,225,121.9z"/> </g> <g> <path class="st0" d="M243.8,75c-10.3,0-18.8-8.4-18.8-18.8s8.4-18.8,18.8-18.8s18.8,8.4,18.8,18.8S254.1,75,243.8,75z
				 M243.8,46.9c-5.2,0-9.4,4.2-9.4,9.4s4.2,9.4,9.4,9.4c5.2,0,9.4-4.2,9.4-9.4S248.9,46.9,243.8,46.9z"/> </g> </g> <g> <g> <path class="st0" d="M93.8,121.9H75c-13.1,0-23.4-10.3-23.4-23.4V70.3h9.4v28.1c0,8,6.1,14.1,14.1,14.1h18.8V121.9z"/> </g> <g> <path class="st0" d="M56.3,75c-10.3,0-18.8-8.4-18.8-18.8s8.4-18.8,18.8-18.8S75,45.9,75,56.2S66.6,75,56.3,75z M56.3,46.9
				c-5.2,0-9.4,4.2-9.4,9.4s4.2,9.4,9.4,9.4s9.4-4.2,9.4-9.4S61.4,46.9,56.3,46.9z"/> </g> </g> <g> <path class="st0" d="M121.9,262.5c-10.3,0-18.8-8.4-18.8-18.8s8.4-18.8,18.8-18.8c10.3,0,18.8,8.4,18.8,18.8
			S132.2,262.5,121.9,262.5z M121.9,234.4c-5.2,0-9.4,4.2-9.4,9.4s4.2,9.4,9.4,9.4s9.4-4.2,9.4-9.4S127,234.4,121.9,234.4z"/> </g> <g> <rect x="117.2" y="257.8" class="st0" width="9.4" height="42.2"/> </g> <g> <path class="st0" d="M178.1,262.5c-10.3,0-18.8-8.4-18.8-18.8s8.4-18.8,18.8-18.8s18.8,8.4,18.8,18.8S188.4,262.5,178.1,262.5z
			 M178.1,234.4c-5.2,0-9.4,4.2-9.4,9.4s4.2,9.4,9.4,9.4s9.4-4.2,9.4-9.4S183.3,234.4,178.1,234.4z"/> </g> <g> <rect x="173.4" y="257.8" class="st0" width="9.4" height="42.2"/> </g> <g> <path class="st0" d="M121.9,75c-10.3,0-18.8-8.4-18.8-18.8s8.4-18.8,18.8-18.8c10.3,0,18.8,8.4,18.8,18.8S132.2,75,121.9,75z
			 M121.9,46.9c-5.2,0-9.4,4.2-9.4,9.4s4.2,9.4,9.4,9.4s9.4-4.2,9.4-9.4S127,46.9,121.9,46.9z"/> </g> <g> <rect x="117.2" y="0" class="st0" width="9.4" height="42.2"/> </g> <g> <path class="st0" d="M178.1,75c-10.3,0-18.8-8.4-18.8-18.8s8.4-18.8,18.8-18.8s18.8,8.4,18.8,18.8S188.4,75,178.1,75z M178.1,46.9
			c-5.2,0-9.4,4.2-9.4,9.4s4.2,9.4,9.4,9.4s9.4-4.2,9.4-9.4S183.3,46.9,178.1,46.9z"/> </g> <g> <rect x="173.4" y="0" class="st0" width="9.4" height="42.2"/> </g> <g> <rect x="206.3" y="145.3" class="st0" width="9.4" height="9.4"/> </g> <g> <rect x="84.4" y="145.3" class="st0" width="9.4" height="9.4"/> </g> </g> 
    </symbol>
    <symbol id="icon_features_2" viewBox="0 0 300 300">
        <g> <g> <rect x="18.8" y="243.8" class="st0" width="140.6" height="9.4"/> </g> <g> <path class="st0" d="M295.3,253.1h-23.4v-9.4h18.8V56.3H37.5v178.1c0,10.3-8.4,18.8-18.8,18.8S0,244.7,0,234.4V4.7
			C0,1.9,1.9,0,4.7,0h84.4c1.4,0,2.3,0.5,3.3,1.4l17.3,17.3h166.9c2.8,0,4.7,1.9,4.7,4.7v14.1h-9.4v-9.4H107.8
			c-1.4,0-2.3-0.5-3.3-1.4L87.2,9.4H9.4v225c0,5.2,4.2,9.4,9.4,9.4s9.4-4.2,9.4-9.4V51.6c0-2.8,1.9-4.7,4.7-4.7h262.5
			c2.8,0,4.7,1.9,4.7,4.7v196.9C300,251.3,297.7,253.1,295.3,253.1z"/> </g> <g> <g> <path class="st0" d="M248.4,281.3h-65.6c-8,0-14.1-6.1-14.1-14.1v-56.3c0-8,6.1-14.1,14.1-14.1h65.6c8,0,14.1,6.1,14.1,14.1v56.3
				C262.5,275.2,255.9,281.3,248.4,281.3z M182.8,206.3c-2.8,0-4.7,1.9-4.7,4.7v56.3c0,2.8,1.9,4.7,4.7,4.7h65.6
				c2.8,0,4.7-1.9,4.7-4.7v-56.3c0-2.8-1.9-4.7-4.7-4.7H182.8z"/> </g> <g> <path class="st0" d="M253.1,201.6h-9.4v-18.8c0-13.1-10.3-23.4-23.4-23.4h-9.4c-13.1,0-23.4,10.3-23.4,23.4v18.8h-9.4v-18.8
				c0-18.3,14.5-32.8,32.8-32.8h9.4c18.3,0,32.8,14.5,32.8,32.8V201.6z"/> </g> <g> <circle class="st0" cx="215.6" cy="229.7" r="9.4"/> </g> <g> <rect x="210.9" y="234.4" class="st0" width="9.4" height="23.4"/> </g> </g> <g> <path class="st0" d="M267.2,121.9H60.9c-2.8,0-4.7-1.9-4.7-4.7V79.7c0-2.8,1.9-4.7,4.7-4.7h206.3c2.8,0,4.7,1.9,4.7,4.7v37.5
			C271.9,120,269.5,121.9,267.2,121.9z M65.6,112.5h196.9V84.4H65.6V112.5z"/> </g> <g> <rect x="75" y="93.8" class="st0" width="9.4" height="9.4"/> </g> <g> <rect x="93.8" y="93.8" class="st0" width="9.4" height="9.4"/> </g> <g> <rect x="112.5" y="93.8" class="st0" width="9.4" height="9.4"/> </g> <g> <rect x="131.3" y="93.8" class="st0" width="9.4" height="9.4"/> </g> <g> <rect x="150" y="93.8" class="st0" width="9.4" height="9.4"/> </g> <g> <rect x="168.8" y="93.8" class="st0" width="9.4" height="9.4"/> </g> <g> <rect x="187.5" y="93.8" class="st0" width="9.4" height="9.4"/> </g> <g> <rect x="56.3" y="140.6" class="st0" width="84.4" height="9.4"/> </g> <g> <rect x="56.3" y="159.4" class="st0" width="84.4" height="9.4"/> </g> </g> 
    </symbol>
    <symbol id="icon_features_3" viewBox="0 0 300 300">
        <g> <g> <g> <path class="st0" d="M187.5,201.6h-75V136h75V201.6z M121.9,192.2h56.2v-46.9h-56.2V192.2z"/> </g> <g> <path class="st0" d="M178.1,140.6h-9.4v-28.1c0-2.8-1.9-4.7-4.7-4.7h-28.1c-2.8,0-4.7,1.9-4.7,4.7v28.1h-9.4v-28.1
				c0-8,6.1-14.1,14.1-14.1h28.1c8,0,14.1,6.1,14.1,14.1V140.6z"/> </g> <g> <rect x="145.3" y="154.7" class="st0" width="9.4" height="9.4"/> </g> </g> <g> <path class="st0" d="M32.8,300c-0.5,0-1.4,0-1.9-0.5c-1.9-0.9-2.8-2.3-2.8-4.2v-42.2H9.4c-5.2,0-9.4-4.2-9.4-9.4V79.7
			c0-5.2,4.2-9.4,9.4-9.4H75v9.4H9.4v164.1h23.4c2.8,0,4.7,1.9,4.7,4.7v35.6l38.9-38.9c0.9-0.9,1.9-1.4,3.3-1.4h126.6V79.7H103.1
			v-9.4h103.1c5.2,0,9.4,4.2,9.4,9.4v164.1c0,5.2-4.2,9.4-9.4,9.4H81.6l-45.5,45.5C35.2,299.6,34.2,300,32.8,300z"/> </g> <g> <path class="st0" d="M290.6,229.7H225v-9.4h65.6V56.3h-23.4c-2.8,0-4.7-1.9-4.7-4.7V16l-38.9,38.9c-0.9,0.9-1.9,1.4-3.3,1.4H93.7
			v164.1h103.1v9.4H93.7c-5.2,0-9.4-4.2-9.4-9.4V56.3c0-5.2,4.2-9.4,9.4-9.4h124.7l45.5-45.5c1.4-1.4,3.3-1.9,5.2-0.9
			s2.8,2.3,2.8,4.2v42.2h18.8c5.2,0,9.4,4.2,9.4,9.4v164.1C300,225.5,295.8,229.7,290.6,229.7z"/> </g> <g> <rect x="28.1" y="98.5" class="st0" width="9.4" height="9.4"/> </g> <g> <rect x="46.9" y="98.5" class="st0" width="9.4" height="9.4"/> </g> <g> <rect x="65.6" y="98.5" class="st0" width="9.4" height="9.4"/> </g> <g> <rect x="225" y="192.2" class="st0" width="9.4" height="9.4"/> </g> <g> <rect x="243.7" y="192.2" class="st0" width="9.4" height="9.4"/> </g> <g> <rect x="262.5" y="192.2" class="st0" width="9.4" height="9.4"/> </g> </g> 
    </symbol>
    <symbol id="icon_features_4" viewBox="0 0 300 300">
        <g> <g> <g> <g> <path class="st0" d="M276.6,262.3H23.4c-1.4,0-2.3-0.5-3.3-1.4L1.4,242.2c-0.9-0.9-1.4-1.9-1.4-3.3v-9.4c0-2.8,1.9-4.7,4.7-4.7
					h112.5c1.4,0,2.3,0.5,3.3,1.4l8,8h43.1l8-8c0.9-0.9,1.9-1.4,3.3-1.4h112.5c2.8,0,4.7,1.9,4.7,4.7v9.4c0,1.4-0.5,2.3-1.4,3.3
					l-18.7,18.7C278.9,261.9,278,262.3,276.6,262.3z M25.3,253h249.4l15.9-15.9v-2.8H184.7l-8,8c-0.9,0.9-1.9,1.4-3.3,1.4h-46.9
					c-1.4,0-2.3-0.5-3.3-1.4l-8-8H9.4v2.8L25.3,253z"/> </g> <g> <path class="st0" d="M28.1,215.5h-9.4V74.8c0-10.3,8.4-18.7,18.7-18.7h32.8v9.4H37.5c-5.2,0-9.4,4.2-9.4,9.4V215.5z"/> </g> <g> <path class="st0" d="M281.2,215.5h-9.4V74.8c0-5.2-4.2-9.4-9.4-9.4h-32.8v-9.4h32.8c10.3,0,18.7,8.4,18.7,18.7V215.5z"/> </g> <g> <rect x="126.6" y="196.7" class="st0" width="9.4" height="9.4"/> </g> <g> <rect x="107.8" y="196.7" class="st0" width="9.4" height="9.4"/> </g> <g> <rect x="145.3" y="196.7" class="st0" width="9.4" height="9.4"/> </g> <g> <rect x="164.1" y="196.7" class="st0" width="9.4" height="9.4"/> </g> <g> <rect x="182.8" y="196.7" class="st0" width="9.4" height="9.4"/> </g> <g> <path class="st0" d="M257.8,206.1h-56.2v-9.4h51.6V84.2h-23.4v-9.4h28.1c2.8,0,4.7,1.9,4.7,4.7v121.9
					C262.5,204.2,260.2,206.1,257.8,206.1z"/> </g> <g> <path class="st0" d="M98.4,206.1H42.2c-2.8,0-4.7-1.9-4.7-4.7V79.5c0-2.8,1.9-4.7,4.7-4.7h28.1v9.4H46.9v112.5h51.6V206.1z"/> </g> </g> </g> <g> <g> <path class="st0" d="M150,187.3c-0.9,0-1.9-0.5-2.8-0.9l-65.6-46.9c-1.4-0.9-1.9-2.3-1.9-3.8V4.5c0-1.4,0.9-2.8,1.9-3.8
				c1.4-0.9,2.8-0.9,4.2-0.5l34.7,13.1l11.7-11.7c0.9-0.9,1.9-1.4,3.3-1.4h28.1c1.4,0,2.3,0.5,3.3,1.4l11.7,11.7l34.7-13.1
				c1.4-0.5,3.3-0.5,4.2,0.5c1.4,0.9,1.9,2.3,1.9,3.8v131.2c0,1.4-0.9,2.8-1.9,3.8l-65.6,46.9C151.9,187.3,150.9,187.3,150,187.3z
				 M89.1,133.4L150,177l60.9-43.6V11.6L180,23.3c-1.9,0.5-3.7,0-5.2-0.9L162.2,9.7h-24.4l-12.7,12.7c-1.4,1.4-3.3,1.9-5.2,0.9
				L89.1,11.6L89.1,133.4L89.1,133.4z"/> </g> <g> <rect x="117.2" y="18.6" class="st0" width="9.4" height="18.7"/> </g> <g> <rect x="173.4" y="18.6" class="st0" width="9.4" height="18.7"/> </g> <g> <path class="st0" d="M145.3,107.7c-1.4,0-2.3-0.5-3.3-1.4L128,92.2l6.6-6.6l10.8,10.8l20.2-20.2l6.6,6.6l-23.4,23.4
				C147.7,107.2,146.2,107.7,145.3,107.7z"/> </g> <g> <path class="st0" d="M150,131.1c-23.4,0-42.2-18.7-42.2-42.2s18.7-42.2,42.2-42.2s42.2,18.7,42.2,42.2S173.4,131.1,150,131.1z
				 M150,56.1c-18.3,0-32.8,14.5-32.8,32.8s14.5,32.8,32.8,32.8s32.8-14.5,32.8-32.8S168.3,56.1,150,56.1z"/> </g> </g> </g> 
    </symbol>
    <symbol id="icon_features_5" viewBox="0 0 300 300">
        <g> <g> <g> <path class="st0" d="M239.1,131.3h-65.6c-8,0-14.1-6.1-14.1-14.1V60.9c0-8,6.1-14.1,14.1-14.1h65.6c8,0,14.1,6.1,14.1,14.1v56.3
				C253.1,125.2,246.6,131.3,239.1,131.3z M173.4,56.3c-2.8,0-4.7,1.9-4.7,4.7v56.3c0,2.8,1.9,4.7,4.7,4.7h65.6
				c2.8,0,4.7-1.9,4.7-4.7V60.9c0-2.8-1.9-4.7-4.7-4.7H173.4z"/> </g> <g> <path class="st0" d="M243.8,51.6h-9.4V32.8c0-13.1-10.3-23.4-23.4-23.4h-9.4c-13.1,0-23.4,10.3-23.4,23.4v18.8h-9.4V32.8
				c0-18.3,14.5-32.8,32.8-32.8h9.4c18.3,0,32.8,14.5,32.8,32.8V51.6z"/> </g> <g> <circle class="st0" cx="206.3" cy="79.7" r="9.4"/> </g> <g> <rect x="201.6" y="84.4" class="st0" width="9.4" height="23.4"/> </g> </g> <g> <g> <path class="st0" d="M37.5,206.3H18.8C8.4,206.3,0,197.8,0,187.5V65.6c0-10.3,8.4-18.8,18.8-18.8H150v9.4H18.8
				c-5.2,0-9.4,4.2-9.4,9.4v121.9c0,5.2,4.2,9.4,9.4,9.4h18.8V206.3z"/> </g> <g> <path class="st0" d="M281.3,262.5H65.6c-10.3,0-18.8-8.4-18.8-18.8V121.9c0-10.3,8.4-18.8,18.8-18.8H150v9.4H65.6
				c-5.2,0-9.4,4.2-9.4,9.4v121.9c0,5.2,4.2,9.4,9.4,9.4h215.6c5.2,0,9.4-4.2,9.4-9.4V121.9c0-5.2-4.2-9.4-9.4-9.4h-18.8v-9.4h18.8
				c10.3,0,18.8,8.4,18.8,18.8v121.9C300,254.1,291.6,262.5,281.3,262.5z"/> </g> <g> <rect x="4.7" y="65.6" class="st0" width="145.3" height="9.4"/> </g> <g> <rect x="4.7" y="103.1" class="st0" width="32.8" height="9.4"/> </g> <g> <rect x="51.6" y="121.9" class="st0" width="98.4" height="9.4"/> </g> <g> <rect x="262.5" y="121.9" class="st0" width="32.8" height="9.4"/> </g> <g> <rect x="51.6" y="159.4" class="st0" width="243.8" height="9.4"/> </g> <g> <rect x="75" y="187.5" class="st0" width="140.6" height="9.4"/> </g> <g> <rect x="75" y="206.3" class="st0" width="75" height="9.4"/> </g> <g> <rect x="225" y="187.5" class="st0" width="9.4" height="9.4"/> </g> <g> <rect x="243.8" y="187.5" class="st0" width="9.4" height="9.4"/> </g> <g> <rect x="262.5" y="187.5" class="st0" width="9.4" height="9.4"/> </g> </g> </g> 
    </symbol>
    <symbol id="icon_hand" viewBox="0 0 200 200">
        <g> <circle class="st0" cx="80.5" cy="37.7" r="31"/> <g> <g> <rect x="75.8" class="st1" width="8" height="12.3"/> </g> <g> <rect x="51.5" y="11.9" transform="matrix(-0.7072 -0.707 0.707 -0.7072 87.1528 67.8932)" class="st1" width="12.3" height="8"/> </g> <g> <rect x="42.5" y="34.3" class="st1" width="12.3" height="8"/> </g> <g> <rect x="54.5" y="54.3" transform="matrix(-0.7071 -0.7071 0.7071 -0.7071 57.0655 144.6574)" class="st1" width="8" height="12.3"/> </g> <g> <rect x="76.8" y="63" class="st1" width="8" height="12.3"/> </g> <g> <rect x="96.9" y="55.7" transform="matrix(-0.707 -0.7072 0.7072 -0.707 133.6763 174.7448)" class="st1" width="12.3" height="8"/> </g> <g> <rect x="105.8" y="33.3" class="st1" width="12.3" height="8"/> </g> <g> <rect x="98.4" y="9.1" transform="matrix(-0.7071 -0.7071 0.7071 -0.7071 164.0584 98.5382)" class="st1" width="8" height="12.3"/> </g> </g> <g> <path class="st2" d="M132.5,166.3v-7.7c5.7-4.3,9.3-11,9.3-18.3v-40l-0.3-8.7c0-4.7-3.7-8.7-8.7-8.7c-4.7,0-8.7,1.7-8.7,6.3v-2
			c0-4.7-3.7-8.7-8.7-8.7c-4.7,0-8.7,3.7-8.7,8.7V83c0-4.7-3.7-8.7-8.7-8.7c-4.7,0-8.7,3.7-8.7,8.7v4.3c0-2,0-49,0-49c0-5-4-9-9-9
			s-9,4-9,9v86.3l-0.3-4.3v-17.7c0-7.3-6-13-13-13h-4.3c-0.3,0,0.3,0,0,0V106l0,0v21.7l25.3,29.7c0,0,6.3,4,10.3,5v4"/> <path class="st1" d="M136.5,166.3h-8v-9.7l1.7-1.3c5-3.7,7.7-9.3,7.7-15.3v-40l-0.3-8.7c0-2.7-2-4.7-4.7-4.7
			c-4.7,0-4.7,1.7-4.7,2.3l0,0h-8v-1.7c0-2.7-2-4.7-4.7-4.7s-4.7,2-4.7,4.7h-8V83c0-2.7-2-4.7-4.7-4.7s-4.7,2-4.7,4.7v4.3l0,0h-8
			c0-2,0-49,0-49c0-2.7-2.3-5-5-5s-5,2.3-5,5v86.3h-8l-0.3-4.3v-18c0-5-4-9-9-9h-0.3v12l0.3,3h-0.3v17.3l23.3,28
			c2.3,1.3,6.3,3.7,8.7,4.3l3,0.7v7h-7v-1c-4-1.7-8-4-8.7-4.7l-0.7-0.3l-26-31v-23l-0.3-3h0.3v-10h-0.3l0.3-4.7v-2.7l0,0V85h8
			c3.3,0,6.7,1,9.3,2.7V37.3c0-7,5.7-12.7,12.7-12.7c7,0,12.7,5.7,12.7,12.7l0,0c0,0,0,18.7,0,32.7c1.3-0.7,3-1,4.7-1
			c4.7,0,8.7,2.3,10.7,6c2-1,4-1.7,6.3-1.7c4.3,0,8,2.3,10.3,5.7c1.7-0.7,4-1.3,6.7-1.3c7,0,12.7,5.7,12.7,12.7l0.3,8.7v40
			c0,8-3.3,15.3-9.3,20.3v7H136.5z"/> </g> <g> <polyline class="st3" points="162.2,200 162.2,173 75.2,173 75.2,200 		"/> </g> <g> <rect x="147.5" y="179.7" class="st1" width="8" height="8.7"/> </g> </g> 
    </symbol>
    <symbol id="icon_light" viewBox="0 0 200 200">
        <g> <g> <g> <polygon class="st0" points="200,184.4 136.7,184.4 136.7,176.6 192.2,176.6 192.2,30.3 7.8,30.3 7.8,176.6 63.3,176.6 
				63.3,184.4 0,184.4 0,22.5 200,22.5 			"/> </g> <g> <rect x="4.1" y="4.1" class="st1" width="192.2" height="22.5"/> <path class="st0" d="M200,30.3H0V0h200V30.3z M7.8,22.5h184.4V7.8H7.8V22.5z"/> </g> <g> <line class="st2" x1="12.8" y1="15" x2="20" y2="15"/> <rect x="12.8" y="11.2" class="st0" width="7.2" height="7.8"/> </g> <g> <line class="st2" x1="25.3" y1="15" x2="32.8" y2="15"/> <rect x="25.3" y="11.2" class="st0" width="7.2" height="7.8"/> </g> <g> <line class="st2" x1="38.1" y1="15" x2="45.2" y2="15"/> <rect x="38.1" y="11.2" class="st0" width="7.2" height="7.8"/> </g> </g> <g> <path class="st3" d="M76.1,166.3h47.7c0.3-4.4,1.2-10.3,4.1-14c17.5-22.5,18.7-44,18.7-45.6c0-25.6-20.9-46.5-46.5-46.5
			c-25.6,0-46.5,20.9-46.5,46.5c0,1.6,0.9,23.1,18.7,45.6C74.9,155.7,75.8,161.6,76.1,166.3z"/> <g> <path class="st1" d="M69.6,106.4h-7.8c0-20.9,17.2-38.1,38.1-38.1v7.8C83.3,76.1,69.6,89.9,69.6,106.4z"/> </g> <g> <g> <rect x="56.9" y="136.7" transform="matrix(-0.1773 -0.9842 0.9842 -0.1773 -40.771 247.2161)" class="st0" width="52.1" height="7.8"/> </g> <g> <rect x="113" y="114.5" transform="matrix(-0.9842 -0.1772 0.1772 -0.9842 206.9619 299.5869)" class="st0" width="7.8" height="52.1"/> </g> </g> <g> <polygon class="st0" points="116.1,125.4 112.3,125.4 107,122.3 102,125.4 98,125.4 93,122.3 87.7,125.4 83.9,125.4 76.8,121.4 
				80.5,114.5 85.8,117.3 91.1,114.5 94.9,114.5 100.2,117.3 105.1,114.5 108.9,114.5 114.2,117.3 119.5,114.5 123.2,121.4 			"/> </g> <g> <g> <rect x="69.9" y="162.9" class="st0" width="60.5" height="7.8"/> </g> <g> <rect x="69.9" y="176.6" class="st0" width="60.5" height="7.8"/> </g> <g> <rect x="79.9" y="190.3" class="st0" width="40.2" height="7.8"/> </g> <g> <rect x="73" y="167.2" class="st0" width="7.8" height="10.3"/> </g> </g> <g> <g> <rect x="96.1" y="42.1" class="st0" width="7.8" height="9.4"/> </g> <g> <rect x="79.9" y="44.8" transform="matrix(-0.2588 -0.9659 0.9659 -0.2588 59.3662 142.9648)" class="st0" width="9.4" height="7.8"/> </g> <g> <rect x="65.6" y="50.8" transform="matrix(-0.4999 -0.8661 0.8661 -0.4999 58.007 142.8539)" class="st0" width="9.4" height="7.8"/> </g> <g> <rect x="53.4" y="60.3" transform="matrix(-0.7071 -0.7071 0.7071 -0.7071 53.7354 150.599)" class="st0" width="9.4" height="7.8"/> </g> <g> <rect x="44" y="72.8" transform="matrix(-0.866 -0.5001 0.5001 -0.866 52.4129 167.3746)" class="st0" width="9.4" height="7.8"/> </g> <g> <rect x="38" y="87" transform="matrix(-0.966 -0.2587 0.2587 -0.966 60.3702 189.8204)" class="st0" width="9.4" height="7.8"/> </g> <g> <rect x="35.9" y="102.3" class="st0" width="9.4" height="7.8"/> </g> <g> <rect x="38.7" y="116.9" transform="matrix(-0.2588 -0.9659 0.9659 -0.2588 -63.8855 194.1837)" class="st0" width="7.8" height="9.4"/> </g> <g> <rect x="44.5" y="131.3" transform="matrix(-0.4999 -0.8661 0.8661 -0.4999 -45.1825 245.9267)" class="st0" width="7.8" height="9.4"/> </g> <g> <rect x="54.1" y="143.5" transform="matrix(-0.7071 -0.7071 0.7071 -0.7071 -5.8112 293.8691)" class="st0" width="7.8" height="9.4"/> </g> <g> <rect x="137.2" y="144.4" transform="matrix(-0.7069 -0.7073 0.7073 -0.7069 137.3746 353.4484)" class="st0" width="9.4" height="7.8"/> </g> <g> <rect x="147" y="132" transform="matrix(-0.866 -0.5 0.5 -0.866 215.038 329.4615)" class="st0" width="9.4" height="7.8"/> </g> <g> <rect x="152.9" y="117.6" transform="matrix(-0.9659 -0.2588 0.2588 -0.9659 278.3097 279.6972)" class="st0" width="9.4" height="7.8"/> </g> <g> <rect x="154.8" y="102.3" class="st0" width="9.4" height="7.8"/> </g> <g> <rect x="153.5" y="86.1" transform="matrix(-0.2587 -0.966 0.966 -0.2587 110.5204 266.2879)" class="st0" width="7.8" height="9.4"/> </g> <g> <rect x="147.6" y="71.8" transform="matrix(-0.5 -0.866 0.866 -0.5 161.089 245.8727)" class="st0" width="7.8" height="9.4"/> </g> <g> <rect x="138.1" y="59.6" transform="matrix(-0.7071 -0.7071 0.7071 -0.7071 197.0107 210.1765)" class="st0" width="7.8" height="9.4"/> </g> <g> <rect x="125.7" y="50.1" transform="matrix(-0.8662 -0.4997 0.4997 -0.8662 214.4489 167.0523)" class="st0" width="7.8" height="9.4"/> </g> <g> <rect x="111.3" y="44.3" transform="matrix(-0.9659 -0.2588 0.2588 -0.9659 213.8353 126.03)" class="st0" width="7.8" height="9.4"/> </g> </g> </g> </g> 
    </symbol>
    <symbol id="icon_platforms" viewBox="0 0 200 200">
        <g> <g> <g> <g> <path class="st0" d="M196,121.2V9.2c0-2.9-2.3-5.2-5.2-5.2H9.5C6.6,4,4.3,6.3,4.3,9.2v112.3H196V121.2z"/> <path class="st1" d="M200,125.5H0V9.2C0,4,4,0,9.2,0h181.2c5.2,0,9.2,4,9.2,9.2v116.3H200z M8.1,117.2h183.8V9.2
					c0-0.6-0.6-1.2-1.2-1.2H9.5c-0.6,0-1.2,0.6-1.2,1.2v107.9H8.1z"/> </g> <rect x="19" y="19" class="st2" width="161.6" height="86.9"/> <g> <path class="st0" d="M4,121.2v16.2c0,3.2,3.2,6.6,6.3,6.6h180.7c3.2,0,4.9-3.2,4.9-6.3v-16.5C196,121.2,4,121.2,4,121.2z"/> <path class="st1" d="M191.1,148.1H10.4c-5.2,0-10.4-5.2-10.4-10.7v-20.2h200v20.5C200,142.9,196.8,148.1,191.1,148.1z
					 M8.1,125.3v12.1c0,0.9,1.4,2.6,2.3,2.6h180.7c0.3,0,0.9-0.9,0.9-2.3v-12.4C191.9,125.3,8.1,125.3,8.1,125.3z"/> </g> <g> <path class="st0" d="M78.8,144c-0.3,4,0.3,13-0.6,17.3c-0.9,4-1.4,4-3.5,5.2c-1.2,0.6-3.2,1.4-4.9,2.3l0,0"/> <path class="st1" d="M71.6,172.9l-3.2-7.5c2-0.9,3.8-1.7,4.6-2l0.3-0.3c0.3,0,0.6-0.3,0.6-0.3c0-0.3,0.3-0.9,0.6-2
					c0.6-2.3,0.3-6.6,0.3-10.1c0-2.6,0-4.9,0-6.9l8.1,0.6c0,1.4,0,3.8,0,6.1c0,4.3,0,8.7-0.6,11.8c-0.9,4.9-2,6.3-5.2,7.8l-0.3,0.3
					C75.3,171.1,73,172,71.6,172.9z"/> </g> <g> <path class="st0" d="M130.2,169.1c-1.7-0.9-3.8-1.7-4.9-2.3c-2-1.2-2.6-1.4-3.5-5.2c-0.9-4.3-0.3-13-0.6-17"/> <path class="st1" d="M128.4,172.9c-1.7-0.6-3.8-1.7-5.2-2.6h-0.3c-3.5-1.7-4.3-3.2-5.2-8.1c-0.6-3.2-0.6-7.5-0.6-11.5
					c0-2.3,0-4.6,0-6.1l8.1-0.6c0,1.7,0,4,0,6.6c0,3.5,0,7.8,0.3,9.8c0.3,1.2,0.3,1.7,0.6,2c0.3,0,0.3,0.3,0.6,0.3
					c1.2,0.6,2.6,1.4,4.9,2.3L128.4,172.9z"/> </g> <g> <line class="st3" x1="64.6" y1="168.8" x2="135.6" y2="168.8"/> <rect x="64.6" y="164.8" class="st1" width="71" height="8.1"/> </g> </g> </g> <g> <g> <path class="st0" d="M101.9,92.9c0-2.3,1.7-4,4-4h67c2.3,0,4,1.7,4,4v97.5c0,2.3-1.7,4-4,4h-67c-2.3,0-4-1.7-4-4V92.9z"/> <path class="st1" d="M172.9,198.3h-67c-4.3,0-8.1-3.8-8.1-8.1V92.9c0-4.3,3.8-8.1,8.1-8.1h67c4.3,0,8.1,3.8,8.1,8.1v97.5
				C181,194.8,177.2,198.3,172.9,198.3z M172.9,190.2v4V190.2L172.9,190.2L172.9,190.2z M172.6,92.9h-66.7v97.3h66.7V92.9z"/> </g> <rect x="111.7" y="99.3" class="st4" width="55.1" height="83.7"/> </g> <g> <g> <path class="st0" d="M196,192.2c0,1.4-1.2,2.6-2.6,2.6h-35.2c-1.4,0-2.6-1.2-2.6-2.6v-73.9c0-1.4,1.2-2.6,2.6-2.6h35.2
				c1.4,0,2.6,1.2,2.6,2.6V192.2z"/> <path class="st1" d="M193.4,198.8h-35.2c-3.8,0-6.6-2.9-6.6-6.6v-73.9c0-3.8,2.9-6.6,6.6-6.6h35.2c3.8,0,6.6,2.9,6.6,6.6v73.9
				C200,196,197.1,198.8,193.4,198.8z M159.9,190.8h32v-70.7h-32V190.8z"/> </g> <g> <rect x="158.7" y="175.8" class="st1" width="36.9" height="8.1"/> </g> </g> <g> <g> <g> <polygon class="st0" points="124.7,53.7 124.7,38.4 109.4,38.4 109.4,30.3 132.8,30.3 132.8,53.7 				"/> </g> <g> <rect x="112" y="33.8" transform="matrix(-0.7071 -0.7071 0.7071 -0.7071 164.6551 162.6625)" class="st0" width="8.1" height="26.8"/> </g> </g> <g> <g> <polygon class="st0" points="93.5,93.2 70.1,92.9 70.1,69.6 78.2,69.6 78.2,84.8 93.5,84.8 				"/> </g> <g> <rect x="82.9" y="62.5" transform="matrix(-0.7071 -0.7071 0.7071 -0.7071 94.7833 191.1912)" class="st0" width="8.1" height="26.8"/> </g> </g> </g> </g> 
    </symbol>
    <symbol id="icon_screen" viewBox="0 0 200 200">
        <g> <g> <path class="st0" d="M25.7,102.9V8.7c0-2.8,2.2-5,5-5H169c2.8,0,5,2.2,5,5v94.2"/> <path class="st1" d="M178,102.9h-7.2V8.7c0-0.9-0.7-1.5-1.5-1.5H31c-0.9,0-1.5,0.7-1.5,1.5v94.2h-7.2V8.7C22.2,3.9,26.2,0,31,0
			h138.3c4.8,0,8.7,3.9,8.7,8.7V102.9z"/> </g> <rect x="36.6" y="14.4" class="st2" width="126.9" height="77.4"/> <g> <path class="st0" d="M3.7,102.5v9.2c0,0,6.8,5,11.6,5h61.3h46.9H185c4.8,0,11.6-5,11.6-5v-9.2H3.7z"/> <path class="st1" d="M185,120.2H15.3c-5.9,0-12.9-5-13.7-5.7L0,113.4V98.8h200v14.6l-1.5,1.1C197.8,114.9,190.8,120.2,185,120.2z
			 M7.2,109.7c2.4,1.5,5.9,3.3,7.9,3.3H185c2.2,0,5.7-1.7,8.1-3.3V106H7.2V109.7z"/> </g> <g> <path class="st0" d="M133,58.5v-9.2l-8.3-0.7c-0.7-3.1-1.7-5.9-3.3-8.5l5.5-6.5l-6.5-6.5l-6.3,5.2c-2.4-1.7-5.2-2.8-8.3-3.7
			l-0.7-8.5H96l-0.7,8.3c-3.1,0.7-5.9,1.7-8.5,3.3l-6.5-5.5l-6.5,6.5L79,39c-1.7,2.4-2.8,5.2-3.7,8.3L67.2,48v9.2l8.3,0.7
			c0.7,3.1,1.7,5.9,3.3,8.5l-5.5,6.5l6.5,6.5l6.3-5.2c2.4,1.7,5.2,2.8,8.3,3.7l0.7,8.5h9.2l0.7-8.3c3.1-0.7,5.9-1.7,8.5-3.3l6.5,5.5
			l6.5-6.5l-5.2-6.3c1.7-2.4,2.8-5.2,3.7-8.3L133,58.5z"/> <g> <circle class="st3" cx="100.1" cy="53.2" r="13.7"/> <path class="st1" d="M100.1,70.4c-9.6,0-17.2-7.6-17.2-17.2S90.5,36,100.1,36s17.2,7.6,17.2,17.2S109.5,70.4,100.1,70.4z
				 M100.1,43.2c-5.5,0-10,4.6-10,10s4.6,10,10,10s10-4.6,10-10S105.6,43.2,100.1,43.2z"/> </g> </g> </g> 
    </symbol>
    <symbol id="icon_wallet" viewBox="0 0 200 200">
        <g> <circle class="st0" cx="140.3" cy="127.3" r="5.1"/> <path class="st1" d="M111,168.8H93.1c-2.4,0-4.4,2-4.4,4.4c0,2.4,2,4.4,4.4,4.4H111c2.4,0,4.4-2,4.4-4.4
		C115.3,170.8,113.3,168.8,111,168.8z"/> <path class="st1" d="M39.1,168.8H22.6c-0.3,0-0.7,0-1,0c-2.4-0.3-4.4,1.7-4.7,4c-0.3,2.4,1.7,4.4,4,4.7c0.7,0,1,0,1.7,0h16.5
		c2.4,0,4.4-2,4.4-4.4C43.5,170.8,41.5,168.8,39.1,168.8z"/> <path class="st1" d="M124.5,173.1c0,2.4,2,4.4,4.4,4.4h17.9c2.4,0,4.4-2,4.4-4.4c0-2.4-2-4.4-4.4-4.4h-17.9
		C126.5,168.8,124.5,170.8,124.5,173.1z"/> <path class="st1" d="M75.2,168.8H57.3c-2.4,0-4.4,2-4.4,4.4c0,2.4,2,4.4,4.4,4.4h17.9c2.4,0,4.4-2,4.4-4.4
		C79.3,170.8,77.6,168.8,75.2,168.8z"/> <path class="st1" d="M39.1,77.7H22.6c-0.3,0-0.7,0-1,0c-2.4-0.3-4.4,1.7-4.7,4c-0.3,2.4,1.7,4.4,4,4.7c0.7,0,1,0,1.7,0h16.5
		c2.4,0,4.4-2,4.4-4.4C43.5,79.4,41.5,77.7,39.1,77.7z"/> <path class="st1" d="M128.8,86.1h17.9c2.4,0,4.4-2,4.4-4.4c0-2.4-2-4.4-4.4-4.4h-17.9c-2.4,0-4.4,2-4.4,4.4
		C124.5,84.4,126.5,86.1,128.8,86.1z"/> <path class="st1" d="M75.2,77.7H57.3c-2.4,0-4.4,2-4.4,4.4c0,2.4,2,4.4,4.4,4.4h17.9c2.4,0,4.4-2,4.4-4.4
		C79.3,79.4,77.6,77.7,75.2,77.7z"/> <path class="st1" d="M93.1,86.1H111c2.4,0,4.4-2,4.4-4.4c0-2.4-2-4.4-4.4-4.4H93.1c-2.4,0-4.4,2-4.4,4.4
		C88.7,84.4,90.7,86.1,93.1,86.1z"/> <path class="st1" d="M129.2,2.2c-1.3-2-3.7-2.7-5.7-1.7L77.9,23.4H22.3C10.1,23.4,0,33.2,0,45.7v125.5c0,12.1,9.8,22.3,22.3,22.3
		H173c2.4,0,4.4-2,4.4-4.4v-37.4h4.7c9.8,0,17.9-8.1,17.9-17.9V95.6c0-9.8-8.1-17.9-17.9-17.9h-4.7V63.9V28.1c0-2.4-2-4.4-4.4-4.4
		h-31L129.2,2.2z M169,168.8h-4.4c-2.4,0-4.4,2-4.4,4.4c0,2.4,2,4.4,4.4,4.4h4.4v7.1H22.6c-7.4,0-13.5-6.1-13.5-13.5v-3.7
		c2-1.3,2.7-3.7,1.7-5.7c-1-2-1.7-4-1.7-6.4V76c2-1.3,2.7-3.7,1.7-5.7s-1.7-4-1.7-6.4v-0.7c3.7,3,8.4,4.7,13.5,4.7H169v9.4h-4.4
		c-2.4,0-4.4,2-4.4,4.4c0,2.4,2,4.4,4.4,4.4h4.4v4.7c0,5.1-4,9.1-9.1,9.1h-21.6c-14.2,0-25.6,11.5-25.6,25.6s11.5,25.6,25.6,25.6
		H169L169,168.8L169,168.8z M177.7,91.2v-4.7h4.7c5.1,0,9.1,4,9.1,9.1v38.1c0,5.1-4,9.1-9.1,9.1h-44.2c-9.4,0-16.9-7.8-16.9-16.9
		c0-9.4,7.8-16.9,16.9-16.9h21.6C169.6,108.7,177.7,101,177.7,91.2z M169,32.5v27H22.6c-7.4,0-13.5-6.1-13.5-13.5
		s6.1-13.5,13.5-13.5H61L40.5,43H23.3c-2.4,0-4.4,2-4.4,4.4c0,2.4,2,4.4,4.4,4.4h18.2h110.3l0,0h6.7c2.4,0,4.4-2,4.4-4.4
		c0-2.4-2-4.4-4.4-4.4h-4.4l-6.4-10.5H169z M59.7,43l64.4-32.7L144,43H59.7z"/> <path class="st1" d="M140.3,114.8c-6.7,0-12.1,5.4-12.1,12.1s5.4,12.1,12.1,12.1s12.1-5.4,12.1-12.1S147,114.8,140.3,114.8z
		 M140.3,130.7c-2,0-3.4-1.7-3.4-3.4c0-1.7,1.7-3.4,3.4-3.4s3.4,1.7,3.4,3.4C143.7,129,142.3,130.7,140.3,130.7z"/> <path class="st0" d="M115.3,180.2c0-1.3-0.7-2.7-2-3.4c-0.7,0.7-1.7,1-2.4,1H93.1c-1,0-1.7-0.3-2.4-1c-1,0.7-2,2-2,3.4
		c0,2.4,2,4.4,4.4,4.4H111C113.3,184.6,115.3,182.6,115.3,180.2z"/> <path class="st0" d="M43.5,180.2c0-1.3-0.7-2.7-2-3.4c-0.7,0.7-1.7,1-2.4,1H22.6c-0.7,0-1,0-1.7,0s-1.7-0.3-2-1
		c-1,0.7-1.7,1.7-1.7,3c0,2,1.3,4,3.4,4.4c0.7,0,1.3,0.3,2.4,0.3h16.5C41.5,184.6,43.5,182.6,43.5,180.2z"/> <path class="st0" d="M151.1,180.2c0-1.3-0.7-2.7-2-3.4c-0.7,0.7-1.7,1-2.4,1h-17.9c-1,0-1.7-0.3-2.4-1c-1,0.7-2,2-2,3.4
		c0,2.4,2,4.4,4.4,4.4h17.9C149.1,184.6,151.1,182.6,151.1,180.2z"/> <path class="st0" d="M79.3,180.2c0-1.3-0.7-2.7-2-3.4c-0.7,0.7-1.7,1-2.4,1H57c-1,0-1.7-0.3-2.4-1c-1,0.7-2,2-2,3.4
		c0,2.4,2,4.4,4.4,4.4h17.9C77.6,184.6,79.3,182.6,79.3,180.2z"/> <path class="st0" d="M16.9,88.5c-0.3,2.4,1.7,4.4,4,4.7c0.7,0,1,0,1.7,0h16.5c2.4,0,4.4-2,4.4-4.4c0-1.3-0.7-2.7-2-3.4
		c-0.7,0.7-1.7,1-2.4,1H22.6c-0.7,0-1,0-1.7,0s-1.7-0.3-2-1C17.9,86.1,16.9,87.1,16.9,88.5z"/> <path class="st0" d="M124.5,88.8c0,2.4,2,4.4,4.4,4.4h17.9c2.4,0,4.4-2,4.4-4.4c0-1.3-0.7-2.7-2-3.4c-0.7,0.7-1.7,1-2.4,1h-17.9
		c-1,0-1.7-0.3-2.4-1C125.1,86.1,124.5,87.5,124.5,88.8z"/> <path class="st0" d="M52.6,88.8c0,2.4,2,4.4,4.4,4.4h17.9c2.4,0,4.4-2,4.4-4.4c0-1.3-0.7-2.7-2-3.4c-0.7,0.7-1.7,1-2.4,1H57
		c-1,0-1.7-0.3-2.4-1C53.6,86.1,52.6,87.5,52.6,88.8z"/> <path class="st0" d="M88.7,88.8c0,2.4,2,4.4,4.4,4.4H111c2.4,0,4.4-2,4.4-4.4c0-1.3-0.7-2.7-2-3.4c-0.7,0.7-1.7,1-2.4,1H93.1
		c-1,0-1.7-0.3-2.4-1C89.4,86.1,88.7,87.5,88.7,88.8z"/> <path class="st2" d="M138.3,108.7c-9.4,0-16.9,7.8-16.9,16.9c0,1.3,0,2.4,0.3,3.4c1.3-6.7,6.7-12.1,13.5-13.2c1.7-0.7,3.4-1,5.1-1
		s3,0.3,4.4,1h15.2c9.8,0,17.9-8.1,17.9-17.9v-4.7h4.7c5.1,0,9.1,4,9.1,9.1v-7.1c0-5.1-4-9.1-9.1-9.1h-4.7v4.7
		c0,9.8-8.1,17.9-17.9,17.9H138.3z"/> <path class="st0" d="M10.8,77.4c-0.3-0.7-0.7-1.3-0.7-2C9.8,75.7,9.8,76,9.4,76v7.1C11.1,81.7,11.8,79.4,10.8,77.4z"/> <path class="st0" d="M10.8,168.8c-0.3-0.7-0.7-1.3-0.7-2c-0.3,0.3-0.3,0.7-0.7,0.7v3.7c0,1,0,2,0.3,3
		C11.1,172.8,11.8,170.4,10.8,168.8z"/> <path class="st0" d="M169,75v-7.1H22.6c-5.1,0-9.8-1.7-13.5-4.7v0.7c0,2.4,0.7,4.4,1.7,6.4c0.3,0.3,0.3,0.7,0.3,1.3
		c3.4,2,7.4,3.4,11.5,3.4H169z"/> <polygon class="st2" points="169,32.5 147.7,32.5 152.1,39.3 169,39.3 	"/> <polygon class="st0" points="73.2,43 124.1,17.3 139.6,43 144,43 124.1,10.2 59.7,43 	"/> <path class="st2" d="M18.5,54.1c0,2.4,2,4.4,4.4,4.4h18.2h110.3l0,0h6.7c2.4,0,4.4-2,4.4-4.4c0-1.3-0.7-2.7-2-3.4
		c-0.7,0.7-1.7,1-2.4,1h-6.7l0,0H41.1H22.9c-1,0-1.7-0.3-2.4-1C19.6,51.4,18.5,52.7,18.5,54.1z"/> <path class="st0" d="M138.3,158.3H169v-7.1h-30.7c-12.8,0-23.6-9.8-25.3-22.3c0,1-0.3,2.4-0.3,3.4
		C112.6,146.8,124.1,158.3,138.3,158.3z"/> <path class="st0" d="M160.5,180.2c0,2.4,2,4.4,4.4,4.4h4.4v-7.1h-4.4c-1,0-1.7-0.3-2.4-1C161.2,177.5,160.5,178.5,160.5,180.2z"/> <path class="st0" d="M160.5,88.8c0,2.4,2,4.4,4.4,4.4h4c0.3-0.7,0.3-1.3,0.3-2v-4.7h-4.4c-1,0-1.7-0.3-2.4-1
		C161.2,86.1,160.5,87.5,160.5,88.8z"/> <path class="st2" d="M22.6,39.3h24.6L61,32.2H22.6c-7.4,0-13.5,6.1-13.5,13.5C9.1,47,9.4,48,9.8,49C11.1,43.6,16.5,39.3,22.6,39.3z
		"/> <path class="st2" d="M140.3,139.4c-5.4,0-10.1-3.7-11.5-8.8c-0.3,1-0.7,2.4-0.7,3.4c0,2.4,0.7,4.7,2,6.4c2.4,1.3,5.1,2,8.1,2h10.8
		c2.4-2.4,3.7-5.4,3.7-8.8c0-1.3-0.3-2.4-0.7-3.4C150.4,135.7,146,139.4,140.3,139.4z"/> <circle class="st0" cx="140.3" cy="127.3" r="3.4"/> </g> 
    </symbol></svg>