<svg xmlns="http://www.w3.org/2000/svg" width="199" height="180" viewBox="0 0 366 331" shape-rendering="geometricPrecision" text-rendering="geometricPrecision" image-rendering="optimizeQuality" fill-rule="evenodd" clip-rule="evenodd"><defs><style><![CDATA[
    .fil0 {fill:none}
    .fil2 {fill:#33B2D4}
    .fil3 {fill:white}
    .fil1 {fill:#33B2D4;fill-rule:nonzero}
    .fil4 {fill:white;fill-rule:nonzero}
   ]]></style></defs><g id="Layer_x0020_1"><path class="fil0" d="M156 69c97-136 278-5 175 114 2 26 7 48 21 64-22-7-42-16-60-34-14 5-28 7-42 6"/><path class="fil1" d="M337 191c1 10 2 18 5 26 3 10 7 19 13 26l-5 9c-11-4-22-8-32-13-8-5-17-10-25-18-13 5-27 8-41 8h-4l-1-11h5c15 0 30-3 43-9 9 8 16 14 28 21 5 3 10 5 16 7-3-5-5-11-7-17-4-14-5-20-6-33 18-19 29-44 29-72 0-29-11-55-30-74-19-18-45-30-73-30-29 0-55 12-73 30-9 9-17 20-22 31l-10-4c6-13 14-25 24-34 21-21 49-34 81-34 31 0 60 13 81 34 20 20 33 49 33 81 0 29-11 56-29 76z"/><g id="_888294144"><circle class="fil2" cx="226" cy="113" r="12"/><circle class="fil2" cx="260" cy="113" r="12"/><circle class="fil2" cx="293" cy="113" r="12"/></g><circle class="fil3" cx="106" cy="237" r="7"/><path class="fil0" d="M87 165c7-6 15-9 23-9 11 0 28 13 13 28l-12 12c-3 3-4 5-4 8v7"/><path class="fil4" d="M83 161c4-3 9-6 13-8 5-1 10-2 14-2s10 2 14 5c3 2 6 5 8 8 2 4 3 9 2 13s-4 7-7 10l-13 12c0 1-1 2-1 3-1 1-1 1-1 2v7h-10v-7c0-2 0-4 1-6s2-4 4-5v-1l13-12c2-2 3-4 4-6 0-1 0-3-1-5s-3-4-5-5c-3-2-6-3-8-3-3 0-7 1-10 2s-7 3-10 6l-7-8z"/><path class="fil4" d="M107 90c30 0 57 12 76 31 20 20 32 46 32 76s-12 57-32 76c-19 20-46 32-76 32-12 0-24-3-35-6-9 8-18 14-27 19-11 6-21 10-32 13l-5-8c6-7 10-16 13-26 3-9 4-19 5-29-16-19-26-44-26-71 0-30 12-56 31-76 20-19 47-31 76-31zM70 287c2 0 4 1 5 2 11 3 21 5 32 5 27 0 52-11 69-28 18-18 29-42 29-69s-11-51-29-69c-17-17-42-28-69-28-26 0-51 11-68 28-18 18-29 42-29 69 0 25 10 49 27 67v5c0 1-1 2-1 4-1 9-3 18-5 27-2 6-4 11-7 17 6-3 11-5 16-8 14-7 19-13 30-22z"/></g></svg>