<svg xmlns="http://www.w3.org/2000/svg" width="111" height="115.67" viewBox="0 0 115625 120490" shape-rendering="geometricPrecision" text-rendering="geometricPrecision" image-rendering="optimizeQuality" fill-rule="evenodd" clip-rule="evenodd"><defs><style><![CDATA[
    .fil0 {fill:#FFF212}
    .fil3 {fill:#ED3237}
    .fil2 {fill:#91D8F7}
    .fil1 {fill:#0098DA}
    .fil4 {fill:#373435;fill-rule:nonzero}
   ]]></style></defs><g id="Layer_x0020_1"><g id="_918978320"><path class="fil0" d="M36816 56875c-291 658-437 1378-437 2154v13499c0 1949 962 3623 2645 4606l12239 7142c678 395 1385 633 2109 711-263 594-644 1139-1142 1632-1395 1379-2259 3296-2259 5413 0 214 9 427 26 636-449-922-1149-1665-2090-2214l-12548-7322c-1710-997-3677-995-5385 5l-12455 7299c-1302 763-2141 1899-2491 3367-798 3353-3813 5847-7411 5847-4206 0-7617-3411-7617-7618 0-4206 3411-7617 7617-7617 778 0 1528 117 2234 333 1476 452 2917 285 4251-493l12079-7049c1684-982 2646-2656 2646-4606V59029c0-1476-530-2747-1578-3786 1376 1359 3267 2199 5354 2199 777 0 1527-117 2234-333 669-205 1331-283 1979-234zm25510 29021c1882 1387 3104 3619 3104 6136 0 4207-3411 7618-7617 7618l-114-2c4155-59 7507-3446 7507-7616 0-2117-865-4033-2260-5413-232-230-439-471-620-723zM7617 89428c1439 0 2605 1166 2605 2604s-1166 2605-2605 2605c-1438 0-2604-1167-2604-2605s1166-2604 2604-2604zm50083 5206c-1386-59-2492-1201-2492-2602 0-1400 1106-2543 2492-2601l-112-3c-1438 0-2604 1166-2604 2604s1166 2605 2604 2605l112-3z"/><path class="fil1" d="M88135 55259c-1037 1036-1561 2301-1561 3770v13499c0 1949 962 3623 2646 4606l12238 7142c1342 783 2795 947 4278 484 717-224 1481-345 2272-345 4207 0 7617 3411 7617 7617 0 4207-3410 7618-7617 7618-3593 0-6604-2488-7407-5834-353-1467-1195-2601-2498-3362l-12549-7322c-1710-997-3677-995-5384 5l-12455 7299c-1302 763-2142 1899-2492 3367-798 3353-3813 5847-7410 5847l-113-2c4155-60 7506-3446 7506-7616 0-2117-865-4033-2260-5413-496-491-876-1034-1139-1625 858-27 1693-274 2490-739l12080-7049c1684-982 2645-2656 2645-4606V59029c0-785-150-1513-448-2178 640-42 1293 40 1952 246 717 224 1481 345 2272 345 2079 0 3963-833 5337-2183zM57700 94634c-1386-59-2492-1201-2492-2602 0-1400 1106-2543 2492-2601l-112-3c-1438 0-2604 1166-2604 2604s1166 2605 2604 2605l112-3zm50308-5206c1438 0 2604 1166 2604 2604s-1166 2605-2604 2605-2604-1167-2604-2605 1166-2604 2604-2604z"/><path class="fil2" d="M57588 0c4207 0 7618 3411 7618 7617 0 2118-865 4033-2260 5414-1051 1039-1581 2312-1581 3790v13499c0 1950 961 3624 2645 4606l12238 7142c1341 782 2793 947 4275 486-2538 793-4506 2879-5132 5487-160 664-419 1260-777 1784-433-634-1008-1162-1721-1578l-12549-7323c-1709-997-3677-995-5384 6l-12455 7299c-718 421-1296 955-1728 1596-351-521-607-1112-764-1771-622-2617-2598-4712-5146-5504 1465 441 2896 270 4220-502l12080-7049c1684-983 2645-2657 2645-4606V16822c0-1479-531-2751-1582-3791-1395-1380-2259-3296-2259-5414 0-4206 3410-7617 7617-7617zm0 5013c1438 0 2605 1166 2605 2604 0 1439-1167 2605-2605 2605s-2604-1166-2604-2605c0-1438 1166-2604 2604-2604z"/><path class="fil3" d="M57588 99650c4207 0 7618-3411 7618-7618 0-2117-865-4033-2260-5413-1051-1040-1581-2312-1581-3791V69330c0-1950 961-3624 2645-4607l12238-7142c1343-783 2795-947 4278-484 717 224 1481 345 2272 345 4207 0 7617-3411 7617-7617 0-4207-3410-7618-7617-7618-3592 0-6604 2488-7407 5834-352 1467-1195 2601-2498 3362l-12549 7322c-1709 997-3677 995-5384-5l-12455-7299c-1302-763-2142-1899-2492-3367-798-3352-3813-5847-7410-5847-4207 0-7618 3411-7618 7618 0 4206 3411 7617 7618 7617 777 0 1527-117 2234-333 1476-452 2917-285 4250 493l12080 7049c1684 982 2645 2656 2645 4606v13571c0 1478-531 2751-1582 3791-1395 1379-2259 3296-2259 5413 0 4207 3410 7618 7617 7618zM32603 52429c1438 0 2604-1166 2604-2604s-1166-2605-2604-2605-2605 1167-2605 2605 1167 2604 2605 2604zm50195 0c1438 0 2604-1166 2604-2604s-1166-2605-2604-2605-2604 1167-2604 2605 1166 2604 2604 2604zM57588 94637c1438 0 2605-1167 2605-2605s-1167-2604-2605-2604-2604 1166-2604 2604 1166 2605 2604 2605z"/></g><path class="fil4" d="M822 120272v-8395h966l3395 5140 3411-5140h950v8395H8516v-6555l-3333 4966-3333-4966v6555H822zm19926 0v-4205l-3785-4190h1311l3006 3315 2988-3315h1324l-3801 4205v4190h-1043zm18755-2679l841 623c-384 729-914 1293-1583 1684-667 393-1428 590-2282 590-1256 0-2295-416-3115-1244-818-828-1228-1879-1228-3153 0-1278 410-2332 1231-3160 822-827 1858-1243 3109-1243 776 0 1485 169 2124 509 638 340 1157 825 1557 1453l-875 624c-262-502-643-896-1139-1179s-1051-426-1664-426c-942 0-1723 325-2341 971-618 647-927 1464-927 2451 0 988 309 1806 927 2450s1399 966 2341 966c659 0 1243-164 1755-489 511-324 934-799 1269-1427zm9712 2679v-8395h6603v966h-5560v2461h3364v965h-3364v3037h5903v966h-6946zm15502 0v-8395h1044v7429h5482v966h-6526zm14805 0v-8442h1059v8442h-1059zm11409-8395v5436c0 869 163 1453 491 1752 327 296 968 444 1928 444 958 0 1599-148 1924-444 324-299 485-883 485-1752v-5436h1044v5716c0 1033-268 1776-805 2224-537 450-1422 673-2653 673-1230 0-2115-223-2653-673-537-448-805-1191-805-2224v-5716h1044zm15150 8395v-8395h965l3395 5140 3411-5140h950v8395h-1028v-6555l-3333 4966-3333-4966v6555h-1027z"/></g></svg>