<?xml version="1.0" standalone="no"?>
<!DOCTYPE svg PUBLIC "-//W3C//DTD SVG 20010904//EN"
 "http://www.w3.org/TR/2001/REC-SVG-20010904/DTD/svg10.dtd">
<svg version="1.0" xmlns="http://www.w3.org/2000/svg"
 width="129.000000pt" height="129.000000pt" viewBox="0 0 129.000000 129.000000"
 preserveAspectRatio="xMidYMid meet">
<metadata>
Created by potrace 1.11, written by Peter Selinger 2001-2013
</metadata>
<g transform="translate(0.000000,129.000000) scale(0.100000,-0.100000)"
fill="#000000" stroke="none">
<path d="M586 1265 c-16 -9 -105 -91 -198 -184 -119 -120 -168 -176 -168 -192
0 -30 172 -199 203 -199 13 0 53 29 99 70 111 102 138 107 211 38 91 -86 120
-108 141 -108 27 0 206 172 206 198 0 20 -330 355 -371 378 -32 18 -87 17
-123 -1z"/>
<path d="M112 739 c-37 -34 -75 -70 -84 -81 -41 -47 -34 -56 264 -355 279
-280 299 -296 363 -298 11 0 34 6 50 14 32 15 540 518 569 563 10 15 15 35 11
47 -9 30 -164 171 -189 171 -12 0 -50 -27 -91 -66 -90 -84 -118 -97 -165 -78
-19 8 -42 22 -51 32 -61 64 -121 112 -138 112 -19 0 -37 -14 -140 -107 -75
-68 -108 -62 -216 40 -43 41 -79 67 -93 67 -14 0 -48 -23 -90 -61z"/>
</g>
</svg>
