<svg xmlns="http://www.w3.org/2000/svg" width="597.295" height="14.57" viewBox="0 0 120267 2934" shape-rendering="geometricPrecision" text-rendering="geometricPrecision" image-rendering="optimizeQuality" fill-rule="evenodd" clip-rule="evenodd"><defs><style><![CDATA[
    .fil0 {fill:none}
    .fil2 {fill:black}
    .fil1 {fill:black;fill-rule:nonzero}
   ]]></style></defs><g id="Layer_x0020_1"><g id="_750887728"><path class="fil0" d="M39394 1508H8224"/><path class="fil1" d="M39394 1637H8224v-258h31170z"/><path class="fil2" d="M0 1508l12081 1426V83z"/></g><g id="_750887312"><path class="fil0" d="M80873 1426h31170"/><path class="fil1" d="M80873 1297h31170v257H80873z"/><path class="fil2" d="M120267 1426l-12081 1425V0z"/></g><path class="fil1" d="M44154 2501l204-352c184 124 386 220 604 289 219 70 428 104 627 104 240 0 433-48 580-146 147-97 220-222 220-375s-67-266-202-341c-134-74-345-115-635-123-490-7-826-64-1009-170-182-108-274-285-274-532 0-231 100-416 301-557s471-211 809-211c231 0 454 33 672 98 217 65 426 161 628 289l-211 348c-168-113-348-200-541-262-194-61-378-92-555-92-204 0-368 35-491 106-124 72-186 164-186 279 0 119 62 204 187 255 124 50 341 75 649 75 429 0 751 72 969 217s327 359 327 645c0 254-110 464-331 633-222 167-508 251-860 251-261 0-519-38-777-112-257-74-492-179-705-316z"/><path id="1" class="fil1" d="M52376 2845l-908-2687h415l654 1967 676-1967h350l675 1967 658-1967h412l-903 2687h-302l-713-2067-717 2067z"/><path id="2" class="fil1" d="M60114 2845V152h425v2693z"/><path id="3" class="fil1" d="M66183 1279h1534c143 0 253-31 329-94 77-63 115-154 115-272 0-115-36-204-110-267-73-64-179-95-315-95h-1553v728zm0 393v1173h-419V158h1953c277 0 492 66 645 197 154 131 231 316 231 553 0 224-76 408-229 551s-354 213-602 213h-1579z"/><path id="4" class="fil1" d="M73478 2845V158h2519v393h-2100v670h1379v387h-1379v851h2216v386z"/></g></svg>