<?xml version="1.0" encoding="UTF-8"?>
<!DOCTYPE svg PUBLIC "-//W3C//DTD SVG 1.1//EN" "http://www.w3.org/Graphics/SVG/1.1/DTD/svg11.dtd">
<!-- Creator: CorelDRAW X7 -->
<svg xmlns="http://www.w3.org/2000/svg" xml:space="preserve" width="7.73498in" height="0.214669in" version="1.1" style="shape-rendering:geometricPrecision; text-rendering:geometricPrecision; image-rendering:optimizeQuality; fill-rule:evenodd; clip-rule:evenodd"
viewBox="0 0 396240 10997"
 xmlns:xlink="http://www.w3.org/1999/xlink">
 <defs>
  <style type="text/css">
   <![CDATA[
    .fil0 {fill:black;fill-rule:nonzero}
   ]]>
  </style>
 </defs>
 <g id="Layer_x0020_1">
  <metadata id="CorelCorpID_0Corel-Layer"/>
  <path class="fil0" d="M35630 7667c-404,638 -936,1124 -1596,1460 -658,336 -1409,504 -2249,504 -1249,0 -2279,-353 -3090,-1062 -809,-708 -1213,-1608 -1213,-2695 0,-1090 404,-1989 1213,-2704 811,-714 1841,-1069 3090,-1069 780,0 1486,145 2121,438 634,290 1144,703 1534,1235l-885 615c-294,-405 -681,-718 -1162,-937 -481,-219 -1016,-327 -1605,-327 -913,0 -1668,259 -2265,780 -598,518 -897,1169 -897,1952 0,783 299,1434 900,1952 600,521 1354,780 2262,780 632,0 1193,-125 1677,-373 483,-250 907,-637 1275,-1164l890 615zm13245 1742l0 -7121 1110 0 0 6096 5294 0 0 1025 -6404 0zm19060 0l0 -7138 1127 0 0 7138 -1127 0zm22491 -1742c-404,638 -936,1124 -1596,1460 -658,336 -1409,504 -2249,504 -1249,0 -2279,-353 -3090,-1062 -809,-708 -1213,-1608 -1213,-2695 0,-1090 404,-1989 1213,-2704 811,-714 1841,-1069 3090,-1069 780,0 1486,145 2121,438 634,290 1144,703 1534,1235l-885 615c-294,-405 -681,-718 -1162,-937 -481,-219 -1016,-327 -1605,-327 -913,0 -1668,259 -2265,780 -598,518 -897,1169 -897,1952 0,783 299,1434 900,1952 600,521 1354,780 2262,780 632,0 1193,-125 1676,-373 484,-250 908,-637 1275,-1164l891 615zm13262 1742l0 -7104 1110 0 0 3159 3774 -3159 1468 0 -2988 2527 3432 4577 -1249 0 -2968 -3928 -1469 1244 0 2684 -1110 0zm22318 -9409l1011 0 -4389 10997 -1007 0 4385 -10997zm16438 2288c1164,0 2101,333 2815,996 711,666 1067,1529 1067,2590 0,1073 -350,1930 -1047,2573 -697,640 -1642,962 -2835,962l-3153 0 0 -7121 3153 0zm17 1025l-2060 0 0 5071 2060 0c846,0 1512,-227 1995,-680 484,-452 726,-1070 726,-1847 0,-751 -250,-1363 -751,-1835 -501,-473 -1156,-709 -1970,-709zm18126 1946l3785 0c384,0 678,-82 880,-250 202,-168 304,-407 304,-720 0,-310 -102,-549 -304,-712 -202,-165 -496,-247 -880,-247l-3785 0 0 1929zm0 1042l0 3108 -1110 0 0 -7104 4895 0c729,0 1298,177 1711,527 412,350 617,837 617,1460 0,504 -162,942 -489,1312 -325,370 -749,597 -1272,680l1983 3125 -1209 0 -2021 -3108 -3105 0zm20417 359l2783 0 -1383 -2730 -1400 2730zm-2581 2749l3623 -7121 700 0 3651 7121 -1192 0 -925 -1810 -3760 0 -919 1810 -1178 0zm25241 -2766l0 -1025 2937 0 0 2149c-413,609 -948,1073 -1611,1389 -660,315 -1429,475 -2303,475 -1312,0 -2384,-353 -3218,-1062 -834,-708 -1253,-1608 -1253,-2695 0,-1090 419,-1989 1258,-2704 840,-714 1910,-1069 3213,-1069 823,0 1552,142 2189,423 637,285 1167,700 1588,1250l-857 615c-301,-393 -708,-703 -1221,-928 -515,-225 -1081,-336 -1699,-336 -973,0 -1770,259 -2393,774 -623,518 -933,1170 -933,1958 0,788 310,1440 930,1958 621,515 1417,774 2396,774 612,0 1179,-111 1699,-333 519,-222 883,-504 1088,-848l0 -765 -1810 0zm31456 1946c950,0 1727,-256 2328,-771 600,-512 899,-1167 899,-1961 0,-788 -301,-1440 -905,-1958 -603,-515 -1377,-774 -2322,-774 -945,0 -1716,256 -2314,771 -598,513 -896,1167 -896,1961 0,794 298,1449 896,1961 598,515 1369,771 2314,771zm0 1042c-1267,0 -2311,-359 -3128,-1076 -817,-714 -1227,-1614 -1227,-2698 0,-1087 407,-1986 1221,-2695 817,-709 1862,-1061 3134,-1061 1283,0 2334,352 3150,1058 814,706 1221,1605 1221,2698 0,1090 -410,1989 -1226,2704 -817,714 -1865,1070 -3145,1070zm18681 -4372l3785 0c384,0 677,-82 879,-250 202,-168 305,-407 305,-720 0,-310 -103,-549 -305,-712 -202,-165 -495,-247 -879,-247l-3785 0 0 1929zm0 1042l0 3108 -1110 0 0 -7104 4895 0c728,0 1298,177 1710,527 413,350 618,837 618,1460 0,504 -162,942 -490,1312 -324,370 -748,597 -1272,680l1984 3125 -1210 0 -2020 -3108 -3105 0zm30258 2197l541 -933c489,327 1024,583 1602,765 581,185 1133,276 1662,276 635,0 1147,-128 1537,-387 390,-259 583,-589 583,-993 0,-407 -179,-706 -535,-905 -356,-196 -916,-305 -1685,-327 -1297,-17 -2188,-168 -2672,-450 -484,-285 -726,-754 -726,-1409 0,-612 265,-1104 797,-1477 532,-373 1247,-557 2143,-557 612,0 1204,85 1782,258 575,171 1130,427 1665,766l-561 922c-444,-299 -922,-529 -1434,-694 -513,-163 -1002,-245 -1469,-245 -541,0 -976,94 -1303,282 -328,190 -493,435 -493,740 0,315 165,540 496,674 330,134 905,199 1721,199 1136,0 1990,191 2567,575 578,384 868,954 868,1711 0,671 -293,1229 -879,1676 -586,444 -1346,666 -2280,666 -691,0 -1374,-100 -2057,-296 -680,-197 -1304,-475 -1870,-837zm21791 911l-2407 -7121 1101 0 1733 5211 1790 -5211 928 0 1790 5211 1742 -5211 1093 0 -2394 7121 -799 0 -1890 -5479 -1901 5479 -786 0zm20505 0l0 -7138 1127 0 0 7138 -1127 0zm16086 -4150l4064 0c378,0 671,-82 873,-250 203,-168 305,-407 305,-720 0,-305 -97,-541 -293,-709 -194,-168 -473,-250 -834,-250l-4115 0 0 1929zm0 1042l0 3108 -1110 0 0 -7121 5174 0c734,0 1303,174 1710,521 407,347 612,837 612,1466 0,595 -202,1081 -606,1460 -407,378 -939,566 -1597,566l-4183 0zm19332 3108l0 -7121 6677 0 0 1042 -5567 0 0 1776 3654 0 0 1024 -3654 0 0 2254 5874 0 0 1025 -6984 0z"/>
  <path class="fil0" d="M9819 2284l-8518 3466 8518 3444 0 908 -9819 -4010 0 -683 9819 -4033 0 908zm386421 3125l0 683 -9819 4010 0 -908 8518 -3444 -8518 -3466 0 -908 9819 4033z"/>
 </g>
</svg>
