<?xml version="1.0" encoding="UTF-8"?>
<!DOCTYPE svg PUBLIC "-//W3C//DTD SVG 1.1//EN" "http://www.w3.org/Graphics/SVG/1.1/DTD/svg11.dtd">
<!-- Creator: CorelDRAW X7 -->
<svg xmlns="http://www.w3.org/2000/svg" xml:space="preserve" width="254px" height="26px" version="1.1" style="shape-rendering:geometricPrecision; text-rendering:geometricPrecision; image-rendering:optimizeQuality; fill-rule:evenodd; clip-rule:evenodd"
viewBox="0 0 178 18"
 xmlns:xlink="http://www.w3.org/1999/xlink">
 <defs>
  <style type="text/css">
   <![CDATA[
    .fil0 {fill:url(#id0)}
   ]]>
  </style>
  <linearGradient id="id0" gradientUnits="userSpaceOnUse" x1="-0" y1="9.12657" x2="178.443" y2="9.12657">
   <stop offset="0" style="stop-opacity:1; stop-color:#5CC6D0"/>
   <stop offset="1" style="stop-opacity:1; stop-color:#0098DA"/>
  </linearGradient>
 </defs>
 <g id="Layer_x0020_1">
  <metadata id="CorelCorpID_0Corel-Layer"/>
  <path class="fil0" d="M73 15c1,0 2,0 2,1 0,1 -1,2 -2,2 -1,0 -2,-1 -2,-2 0,-1 1,-1 2,-1zm43 -12l15 0c3,0 6,-1 8,-3l-8 0 -5 0 -10 0 -1 0 -2 0c-3,0 -5,1 -7,3 -5,3 -9,7 -13,11 -1,1 -3,1 -5,0l-10 -10c-3,-2 -7,-2 -10,0l-10 10c-1,1 -4,1 -5,0l-10 -10c-3,-2 -7,-2 -10,0l-10 10c-2,1 -4,1 -6,0l-15 -14 -2 2 0 0 15 14c3,3 7,3 10,0l10 -9c2,-1 4,-1 5,0l11 9c2,3 7,3 9,0l10 -9c2,-1 4,-1 6,0l10 9c3,3 7,3 10,0 3,-3 7,-7 10,-10 1,0 1,0 1,-1 2,-1 4,-2 6,-2l2 0 1 0zm7 4c1,0 2,1 2,2 0,1 -1,2 -2,2 -1,0 -2,-1 -2,-2 0,-1 1,-2 2,-2zm-10 11l5 0 25 0 0 -3 -30 0c-3,0 -6,1 -8,3l8 0zm30 -3l30 0c1,0 2,-1 2,-3l0 0c0,-1 -1,-2 -2,-2l-25 0c-3,0 -5,-2 -5,-5l0 0c0,-3 2,-5 5,-5l19 0 0 3 -19 0c-1,0 -2,1 -2,2l0 0c0,1 1,2 2,2l25 0c3,0 5,2 5,5l0 0c0,3 -2,6 -5,6l-30 0 0 -3z"/>
 </g>
</svg>
