<svg xmlns="http://www.w3.org/2000/svg" width="254" height="26" viewBox="0 0 178 18" shape-rendering="geometricPrecision" text-rendering="geometricPrecision" image-rendering="optimizeQuality" fill-rule="evenodd" clip-rule="evenodd"><defs><style><![CDATA[
    .fil0 {fill:url(#id0)}
   ]]></style><linearGradient id="id0" gradientUnits="userSpaceOnUse" y1="9.127" x2="178.443" y2="9.127"><stop offset="0" stop-color="#5CC6D0"/><stop offset="1" stop-color="#0098DA"/></linearGradient></defs><path class="fil0" d="M73 15c1 0 2 0 2 1s-1 2-2 2-2-1-2-2 1-1 2-1zm43-12h15c3 0 6-1 8-3h-26c-3 0-5 1-7 3-5 3-9 7-13 11-1 1-3 1-5 0L78 4c-3-2-7-2-10 0L58 14c-1 1-4 1-5 0L43 4c-3-2-7-2-10 0L23 14c-2 1-4 1-6 0L2 0 0 2l15 14c3 3 7 3 10 0l10-9c2-1 4-1 5 0l11 9c2 3 7 3 9 0l10-9c2-1 4-1 6 0l10 9c3 3 7 3 10 0l10-10c1 0 1 0 1-1 2-1 4-2 6-2h3zm7 4c1 0 2 1 2 2s-1 2-2 2-2-1-2-2 1-2 2-2zm-10 11h30v-3h-30c-3 0-6 1-8 3h8zm30-3h30c1 0 2-1 2-3 0-1-1-2-2-2h-25c-3 0-5-2-5-5s2-5 5-5h19v3h-19c-1 0-2 1-2 2s1 2 2 2h25c3 0 5 2 5 5s-2 6-5 6h-30v-3z" id="Layer_x0020_1"/></svg>